<svg id="Group_835" data-name="Group 835" xmlns="http://www.w3.org/2000/svg" xmlns:xlink="http://www.w3.org/1999/xlink" width="279" height="349.266" viewBox="0 0 279 349.266">
  <defs>
    <clipPath id="clip-path">
      <rect id="Rectangle_949" data-name="Rectangle 949" width="279" height="349.266" fill="none"/>
    </clipPath>
  </defs>
  <g id="Group_812" data-name="Group 812" clip-path="url(#clip-path)">
    <path id="Path_1703" data-name="Path 1703" d="M172.2,249.588a26.983,26.983,0,0,1,.433-7.715c.064-.433.124-.87.185-1.309-1.976-2.3-4.057-4.644-4.281-7.792a11.438,11.438,0,0,1,.877-4.871c-1.67.974-3.4,1.916-4.955,3.014,1.6.775,1.89,3.591-.3,4.157a41.756,41.756,0,0,0-7.193,2.9c-2.905,1.372-5.752,2.866-8.561,4.425-2.913,1.617-5.427,3.274-7.3,6.1-3.7,5.6-5.206,12.7-7.352,18.975-2.353,6.887-4.779,13.76-7.384,20.559-.425.027-.85.061-1.277.113-2.635.329-3.8,3.593-5.319,6.705q.426,1.445.873,2.882-.767,2.826-1.614,5.615a2.142,2.142,0,0,1-1.715-1.494c-2.921-8.743-5.049-17.8-7.291-26.732a2.081,2.081,0,0,1,.9-2.342,9.628,9.628,0,0,0-1.766-1.134,1.952,1.952,0,0,1,.116,3.117c-4.878,4.219-11.244,6.61-17.489,7.926-7.127,1.5-14.683,1.713-21.717-.365a2.057,2.057,0,0,1-1.484-1.49,2.479,2.479,0,0,1-.123-.369l-.133-.544a8.688,8.688,0,0,0-2.057,1.149,1.92,1.92,0,0,1,1.467,1.528q4.034,17.115,7.51,34.354c1.716,8.448,3.221,16.948,5.141,25.353,1.67,7.306,3.653,14.87,7.668,21.283a18.8,18.8,0,0,0,5.812,6.31,21.448,21.448,0,0,0,6.691,2.316c6.237,1.272,13.306.613,17.673-4.479,1.43-1.668,3.6-.194,3.7,1.556,1.052-2.351,1.7-5.229,2.721-7.07,3.548-6.653,4.879-14.193,9.314-21.29,9.315-14.194,19.073-27.5,23.065-43.912-5.2-1.517-10.3-3.986-15.441-5.96l3.877-2.619q.371-10.452.743-20.9c.144-4.051.279-8.245,4.686-9.848a17.047,17.047,0,0,1,5.132-.705c1.569-.068,3.5-.159,4.274-1.735,1.259-2.565,5.083-.314,3.83,2.239-1.509,3.075-4.973,3.8-8.1,3.932-1.57.068-3.931-.134-4.855,1.4-.978,1.628-.524,4.626-.589,6.465q-.284,7.983-.568,15.966a5.4,5.4,0,0,1,3.729-1.162,3.556,3.556,0,0,1,1.974,1.084l4.559-3.374c.488-1.608,1.237-3.175,1.791-4.728a2.132,2.132,0,0,1-1.252-2.532c1.9-7.833,5.78-14.941,10.235-21.6a2.158,2.158,0,0,1,1.924-1.005,2.39,2.39,0,0,1,.269-.879,1.731,1.731,0,0,1-1.041-1.468m-6.121-5.359-7.608,10.837c-1.63,2.321-5.474.1-3.83-2.239l7.608-10.837c1.63-2.321,5.474-.1,3.83,2.239" transform="translate(-23.516 -80.871)" fill="#6cc0c1"/>
    <path id="Path_1704" data-name="Path 1704" d="M307.9,205.7a2.005,2.005,0,0,1-3.186-1.228q-.368-1.939-.735-3.876c-7.073,3.376-14.251,6.536-21.235,10.094a149.713,149.713,0,0,0-19.74,12.119c1.941,2.658,3.1,6.368,5.19,8.19a2.4,2.4,0,0,1,.33.349,6.892,6.892,0,0,0-1.381-2.572,6.892,6.892,0,0,1,1.381,2.572,1.816,1.816,0,0,1,.383.941,6.088,6.088,0,0,0,.342.646c.225-.243.448-.485.677-.723,7.245-7.482,16.586-13.146,25.458-18.468,4.213-2.527,8.48-4.983,12.809-7.317a6.045,6.045,0,0,1-.293-.728" transform="translate(-93.329 -71.181)" fill="#fff"/>
    <path id="Path_1705" data-name="Path 1705" d="M251.807,268.969c3.955-6.343,7.866-13.111,12.966-18.6a5.966,5.966,0,0,1-.342-.646,2.346,2.346,0,0,1-3.848,1.847,9.056,9.056,0,0,1-1.206-1.312c-3.186,4.216-5.786,8.855-9,13.054a2.219,2.219,0,0,1,.492.908,30.74,30.74,0,0,1,.934,4.752" transform="translate(-88.847 -88.612)" fill="#fff"/>
    <path id="Path_1706" data-name="Path 1706" d="M257.5,379.622l-.543-.84-30.047-46.525-17.333-26.838-5.251-8.131c-.457-.708-1.1-2.279-1.774-2.158-.4.072-1.042.772-1.357,1l-2.877,2.13-9.421,6.971-10.115,7.485c.827,1.266,1.85,2.673,2.007,4.128.312,2.882-2.62,4.232-4.631,5.591l-9.83,6.641-15.671,10.587a2.125,2.125,0,0,1-.968.371c-2.139.624-3.476-.794-4.548-2.424l-9.747,7.213-8.322,6.158a21.824,21.824,0,0,0-2.13,1.576c-.57.545-.586.157-.323.854A12.5,12.5,0,0,0,126,355.507l3.255,4.95,9.273,14.1,13.2,20.071a2.319,2.319,0,0,1,.293.625,7.35,7.35,0,0,1,2.854-1.969c2.815-1.114,6.073-1.063,9.049-1.3l10.876-.852c5.783-.452,13.054-2.054,18.056,1.793,2.175,1.673,3.486,4.079,4.755,6.457,1.252,2.345,2.91,5.562,5.932,5.7a2.34,2.34,0,0,1,.808.179c.014,0,.026-.012.04-.016l5.655-1.786c0-.08,0-.161.007-.241a2.3,2.3,0,0,1,1.628-2.139l4.874-1.669q23.784-8.145,47.564-16.3l-2.855-3.4a2.3,2.3,0,0,1-3.758-.094" transform="translate(-44.163 -104.724)" fill="#fff"/>
    <path id="Path_1707" data-name="Path 1707" d="M212.666,460.142c-1.841-2.373-2.772-5.336-4.684-7.646-2.274-2.749-5.733-2.792-9.024-2.6-3.815.217-7.628.586-11.437.884s-7.678.48-11.489.9c-2.654.295-6.344,1.644-3.856,4.85,1.921,2.475,5.776,2.226,8.564,2.238,3.3.012,6.494.222,9.443,1.841a2.458,2.458,0,0,1,.376.254l2.639-1.337c2.544-1.287,4.786,2.541,2.239,3.83l-14.571,7.377c-2.543,1.288-4.786-2.541-2.239-3.83l6.763-3.424c-2.973-.706-6.237-.317-9.3-.6a2.042,2.042,0,0,1-.705,3.03,4.715,4.715,0,0,0,.7,8.764c1.6.494,3.2.626,4.164,2.2,1.069,1.745.207,3.18-.42,4.864-.794,2.132,1.346,3.725,1.948,5.64a8.723,8.723,0,0,1,.1,4.052c-.155.93-.614,1.865-.723,2.787a9.006,9.006,0,0,0,.935,3.827c.723,1.91,1.56,3.639,3.356,4.73a13.026,13.026,0,0,0,6.028,1.579c9.908.563,19.646-3.2,29-5.957a2.148,2.148,0,0,1,2.732,2.328,15.613,15.613,0,0,1,4.494-1.906c-4.272-10.982-8.1-22.64-8.293-34.468a10.15,10.15,0,0,1-6.732-4.205" transform="translate(-60.803 -159.62)" fill="#fff"/>
    <path id="Path_1708" data-name="Path 1708" d="M363.474,365.829c-1.145-12.809-2.49-25.6-4.139-38.354-2.53-19.575-5.868-39.027-9.486-58.427-.483-2.587-.981-5.171-1.457-7.759a49.686,49.686,0,0,0-1.794-8.284c-1.514-4.1-4.606-7.537-7.807-10.417-6.618-5.955-14.825-10.331-23.083-13.548a2.344,2.344,0,0,1-1.448-2.683,1.806,1.806,0,0,1-1.266-1.114l-5.035-11.254q-1.932,1.029-3.848,2.083a251.984,251.984,0,0,0-25.449,15.708,67,67,0,0,0-10.82,9.192c-4.972,5.5-8.769,12.219-12.7,18.467a2.192,2.192,0,0,1-3.142.639,1.881,1.881,0,0,1-.457.787c-.348.7-.67,1.4-.954,2.113a6.137,6.137,0,0,1,.823.948c2.693,3.8,5.126,7.817,7.618,11.766a41.361,41.361,0,0,1,8.5-9.094c3.016-2.253,6.438-3.9,9.608-5.918a58.95,58.95,0,0,0,6.973-5.008c2.338-2.024,3.446-4.3.765-6.581-4.035-3.432-9.93-4.484-10.465-10.726-.244-2.848,4.193-2.823,4.435,0,.246,2.862,4.036,4.226,6.148,5.459,2.214,1.293,4.406,2.953,5.45,5.369,2.613,6.052-3.837,10.335-8.053,13.3-3.543,2.49-7.4,4.435-11.008,6.805-3.908,2.565-6.83,6.212-9.5,10a2.5,2.5,0,0,1-.312.363L279.1,306.806l26.987,41.787a1.905,1.905,0,0,1-.072,2.333l2.855,3.4,8.557-2.932c2.71-.93,3.864,3.357,1.179,4.277l-17.773,6.093Q280.02,368.9,259.2,376.027c-.006,6.859,2.072,13.7,4.274,20.114,2.45,7.143,5.457,14.071,8.514,20.969a2.448,2.448,0,0,1,.17.55c8.768-2.124,17.516-4.333,26.211-6.739,13.9-3.845,27.615-8.272,41.252-12.955,5.777-1.984,12.716-3.391,17.4-7.585,4.86-4.353,6.167-10.681,6.05-16.969a2.211,2.211,0,0,1,3.568-1.716,17.637,17.637,0,0,0,.35-4.01,2.407,2.407,0,0,1-3.518-1.857M290.545,243.423c-1.59,2.356-5.432.134-3.83-2.239l11.22-16.622c1.59-2.355,5.432-.134,3.83,2.239l-11.221,16.622m20.492,101.742-1.4-7.513-9.915-53.071c-.522-2.795,3.753-3.981,4.277-1.179l1.4,7.512q4.957,26.536,9.915,53.071c.522,2.795-3.754,3.981-4.277,1.179m-2.179-94.123c-4.4,5.7-6.157,12.944-6.421,20.024-.106,2.85-4.542,2.855-4.435,0,.3-8.1,2.362-16.236,7.39-22.734a28.253,28.253,0,0,1,17.771-10.591c2.8-.466,3.988,3.809,1.179,4.277a24.284,24.284,0,0,0-15.484,9.024m26.751,100.1a34.873,34.873,0,0,0-15.98-4.066c-2.857-.037-2.855-4.473,0-4.435a39.8,39.8,0,0,1,18.218,4.671c2.526,1.338.283,5.166-2.239,3.83" transform="translate(-88.92 -75.934)" fill="#6cc0c1"/>
    <path id="Path_1709" data-name="Path 1709" d="M233.952,278.919a26.044,26.044,0,0,0-.983-6.669,2.031,2.031,0,0,1,.232-1.73,2.254,2.254,0,0,1-.326-.33,2.019,2.019,0,0,1-2.046-.071,7.833,7.833,0,0,0-3.915-1.085,2.23,2.23,0,0,1-.328.741c-4.254,6.355-7.972,13.055-9.788,20.537a2.073,2.073,0,0,1-3.024,1.353c-.554,1.553-1.3,3.12-1.792,4.728l10.867-8.041,7.221-5.344c2.187-1.619,4.744-2.428,6.819-.5.285-.712.607-1.417.954-2.114a2.272,2.272,0,0,1-3.89-1.479" transform="translate(-75.221 -95.466)" fill="#6cc0c1"/>
    <path id="Path_1710" data-name="Path 1710" d="M332.6,207.148a6.033,6.033,0,0,0,.294.728c.706-.381,1.417-.748,2.126-1.121-.453-.69-.881-1.387-1.341-2.074,0,.02.008.04.012.061a2.235,2.235,0,0,1-1.091,2.406" transform="translate(-118.022 -72.63)" fill="#6cc0c1"/>
    <path id="Path_1711" data-name="Path 1711" d="M296.4,112.768a12,12,0,0,0-.128-7.324c-.941-2.433-4.115-5.571-6.707-3.439a2.376,2.376,0,0,1-3.857-2,8.47,8.47,0,0,1-1.212-.974,1.826,1.826,0,0,1-2.361.072c-7.073-4.924-10.308-12.508-11.559-20.836a2.3,2.3,0,0,1,.814-2.159,14.577,14.577,0,0,0-1.908-1.435,1.993,1.993,0,0,1-3.028-.7c-.19-.367-.395-.72-.6-1.068a44.3,44.3,0,0,0-12.05-2.221,2.2,2.2,0,0,1-2.75,2.246,29.088,29.088,0,0,0-23.581,3.9,1.936,1.936,0,0,1-2.793-.559c-1.405,1.209-2.812,2.275-4.677,2.163a17.623,17.623,0,0,0,.974,2.069,2.272,2.272,0,0,1-2.184,3.323c.066.914.142,1.827.213,2.741a1.757,1.757,0,0,1,1.632,1.595c1.343,8.241,1.284,16.707,1.566,25.031.246,7.261.158,14.893,2.17,21.934,2.306,8.068,7.675,15.524,15.5,18.98,6.5,2.87,14.287,1.763,20.729-.693,6.464-2.463,12.677-6.938,15.459-13.451,1.119-2.62,4.939-.357,3.83,2.239-3.449,8.075-11.673,13.4-19.74,16.069-7.214,2.384-15.481,2.889-22.516-.334-.435-.2-.86-.417-1.282-.637v2.877a2.1,2.1,0,0,1,2.284,2.139c0,1.681-.086,3.359-.088,5.039,0,.068-.005.133-.01.2,1.937,1.756,3.855,3.536,5.8,5.269a2.428,2.428,0,0,1,.326.354,149.833,149.833,0,0,1,20.159-12.419c6.739-3.433,13.66-6.5,20.492-9.742a10.164,10.164,0,0,1-.093-1.237,2,2,0,0,1-1.906-2.127q.288-9.932.575-19.863a2.081,2.081,0,0,1,1.072-1.833c-1.521-1.144-1.115-4.131,1.236-4,5.324.294,8.945-4.473,10.2-9.19m-54.606,7.843a2.272,2.272,0,0,1,1.568-.65l1.033.021a2.346,2.346,0,0,1,1.568.65,2.218,2.218,0,0,1,0,3.137,2.273,2.273,0,0,1-1.568.65l-1.033-.021a2.342,2.342,0,0,1-1.568-.65,2.217,2.217,0,0,1,0-3.136m-7.223-16.655c-2.859,0-2.854-4.435,0-4.435s2.854,4.435,0,4.435m25.809.912c-2.859,0-2.854-4.435,0-4.435s2.854,4.435,0,4.435" transform="translate(-77.636 -25.083)" fill="#fff"/>
    <path id="Path_1712" data-name="Path 1712" d="M222.091,47.861a18.024,18.024,0,0,0-2.117,17.053c1.865.112,3.272-.954,4.677-2.163a2.264,2.264,0,0,1,.554-3.271,33.5,33.5,0,0,1,27-4.35,2.008,2.008,0,0,1,1.571,2.032,44.3,44.3,0,0,1,12.05,2.219c-3.716-6.193-10.293-9.406-17.274-10.8a47.556,47.556,0,0,0-10.746-.825c-3.333.1-8.133.44-9.928,3.737-1.367,2.511-5.2.27-3.83-2.238,2.293-4.212,7.371-5.465,11.8-5.831a50.744,50.744,0,0,1,12.745.669c8.836,1.528,17.4,5.9,21.661,14.121a2.209,2.209,0,0,1-.8,2.938,14.52,14.52,0,0,1,1.908,1.435c1.171-.989,3.181-.905,3.464.979,1.062,7.068,3.433,13.947,9.52,18.185a2.375,2.375,0,0,1,.123,3.758,8.419,8.419,0,0,0,1.212.974,1.936,1.936,0,0,1,.72-1.137,7.806,7.806,0,0,1,9.278-.68c.338-.494.712-.985,1-1.509-1.428,1.417-4.466.229-3.722-2.108,1.965-6.163,3.694-12.692,3.3-19.217a14.47,14.47,0,0,0-2.6-8.01c-1.9-2.453-4.753-3.569-7.706-4.113a2.337,2.337,0,0,1-3.673-2.307c1.824-9.18-8.782-13.151-15.971-14.276a57.1,57.1,0,0,0-19.037.576c-6.693,1.237-13.653,3.107-19.432,6.814a2.032,2.032,0,0,1-3.057-1.032,27.725,27.725,0,0,0-5.228,5.228c1.747-.434,3.822,1.323,2.53,3.151" transform="translate(-77.615 -11.558)" fill="#6cc0c1"/>
    <path id="Path_1713" data-name="Path 1713" d="M255.643,470.215l-2.95.932c.123,11.862,4.144,23.562,8.457,34.539l5.067-1.559c-2.259-5.228-4.419-10.5-6.268-15.886-1.974-5.755-3.813-11.873-4.306-18.026" transform="translate(-89.668 -166.855)" fill="#fff"/>
    <path id="Path_1714" data-name="Path 1714" d="M245.151,228.429l-7.163-6.388a14.744,14.744,0,0,1-1.939-1.73,1.515,1.515,0,0,1-.508-.277c-.383.877-.91,1.731-1.339,2.565-1.05,2.039-2.754,4.678-2.588,7.079a5.638,5.638,0,0,0,1.152,2.817,8.985,8.985,0,0,1,.546-1.026c2.845-4.562,7.5-4.534,11.84-3.039" transform="translate(-82.183 -78.079)" fill="#fff"/>
    <path id="Path_1715" data-name="Path 1715" d="M242.43,256.023c2.916-4,5.388-8.311,8.394-12.24a2.3,2.3,0,0,1,1.562-.914c-.265-.5-.528-1.008-.792-1.5a2.027,2.027,0,0,1-1.861-.165c-3.654-2.141-9.951-5.155-11.62.859-.1.353-.179.715-.252,1.08a2.388,2.388,0,0,1-.364,2.363c-.07.544-.137,1.086-.214,1.615a18.812,18.812,0,0,0-.388,5.055,2.314,2.314,0,0,1-.365,1.637,12.431,12.431,0,0,1,5.247,1.647,2.267,2.267,0,0,1,.653.559" transform="translate(-83.932 -84.641)" fill="#6cc0c1"/>
    <path id="Path_1716" data-name="Path 1716" d="M336.6,126.218a14.4,14.4,0,0,0-2.123-10.522c-3.042-4.23-8.34-5.839-12.562-2.367-2.206,1.815.948,4.937,3.136,3.137,2.592-2.132,5.766,1.006,6.707,3.439a11.994,11.994,0,0,1,.128,7.324c-1.257,4.716-4.879,9.484-10.2,9.19-2.35-.13-2.756,2.857-1.236,4a2.082,2.082,0,0,0-1.071,1.833q-.288,9.932-.576,19.863c-.083,2.855,4.353,2.853,4.435,0q.288-9.932.576-19.863a2.022,2.022,0,0,0-.47-1.425c7.228-.6,12.267-7.764,13.257-14.609" transform="translate(-113.126 -39.543)" fill="#262626"/>
    <path id="Path_1717" data-name="Path 1717" d="M317.6,229.827l-11.221,16.622c-1.6,2.372,2.24,4.595,3.83,2.239l11.221-16.622c1.6-2.372-2.24-4.594-3.83-2.239" transform="translate(-108.581 -81.198)" fill="#262626"/>
    <path id="Path_1718" data-name="Path 1718" d="M282.075,116.794c-2.854,0-2.859,4.435,0,4.435s2.859-4.435,0-4.435" transform="translate(-99.333 -41.444)" fill="#262626"/>
    <path id="Path_1719" data-name="Path 1719" d="M242.069,119.816c2.854,0,2.859-4.435,0-4.435s-2.859,4.435,0,4.435" transform="translate(-85.138 -40.943)" fill="#262626"/>
    <path id="Path_1720" data-name="Path 1720" d="M256.686,151.52A2.218,2.218,0,0,0,258.9,149.3a2.24,2.24,0,0,0-.65-1.568,2.342,2.342,0,0,0-1.568-.65l-1.033-.021a2.218,2.218,0,0,0-2.217,2.218,2.24,2.24,0,0,0,.65,1.568,2.342,2.342,0,0,0,1.568.649l1.033.021" transform="translate(-89.931 -52.185)" fill="#262626"/>
    <path id="Path_1721" data-name="Path 1721" d="M154.628,293.487c3.194-8.068,6.1-16.26,8.9-24.47,2.145-6.281,3.648-13.377,7.351-18.976,1.87-2.826,4.384-4.483,7.3-6.1,2.808-1.558,5.655-3.053,8.561-4.424a41.643,41.643,0,0,1,7.192-2.9c2.762-.714,1.591-4.993-1.179-4.277a40.924,40.924,0,0,0-6.266,2.432c-2.777,1.234-5.492,2.606-8.171,4.041-3.109,1.665-6.341,3.265-8.8,5.855-4.479,4.715-6.265,11.191-8.258,17.207q-3.49,10.535-7.321,20.952c-1.166,3.17-2.344,6.337-3.588,9.477-1.05,2.655,3.237,3.807,4.277,1.179" transform="translate(-53.293 -82.418)" fill="#262626"/>
    <path id="Path_1722" data-name="Path 1722" d="M346.162,291.207c-1.65-10.148-3.468-20.266-5.349-30.373q-.655-3.514-1.318-7.026a68.8,68.8,0,0,0-1.926-9.333A29.4,29.4,0,0,0,330.3,233.45c-7.406-7.461-17.137-12.63-26.851-16.415a2.269,2.269,0,0,0-.069-1.761l-5.9-13.193a2.251,2.251,0,0,0-3.034-.8c-5.742,2.957-11.369,6.158-16.906,9.479-8.872,5.321-18.213,10.986-25.458,18.468-5.436,5.614-9.514,12.7-13.644,19.326a30.742,30.742,0,0,0-.934-4.752,2.224,2.224,0,0,0-.491-.908c3.209-4.2,5.809-8.839,9-13.055a9.047,9.047,0,0,0,1.205,1.312c2.143,1.869,5.293-1.256,3.137-3.137-2.089-1.822-3.249-5.531-5.19-8.19a149.713,149.713,0,0,1,19.74-12.119c6.983-3.558,14.162-6.719,21.234-10.1q.368,1.938.735,3.877c.531,2.8,4.807,1.615,4.277-1.179q-.619-3.265-1.238-6.531c-.285-1.505-2.078-1.9-3.258-1.325-7.955,3.891-16.1,7.4-23.989,11.424A149.966,149.966,0,0,0,242.5,216.3a2.427,2.427,0,0,0-.326-.353c-1.943-1.733-3.861-3.513-5.8-5.27.005-.065.01-.129.01-.2,0-1.681.085-3.359.088-5.039,0-2.855-4.431-2.859-4.435,0,0,.469-.008.938-.019,1.407-.278-.235-.555-.472-.836-.7-1.327-1.1-3.07-1.828-4.635-.717-1.3.921-1.873,3.088-2.574,4.45-1.588,3.088-3.733,6.619-3.477,10.226.224,3.147,2.305,5.493,4.281,7.791-.061.439-.121.876-.185,1.31a26.986,26.986,0,0,0-.433,7.715,1.731,1.731,0,0,0,1.041,1.467,2.394,2.394,0,0,0-.268.879,2.158,2.158,0,0,0-1.924,1.006c-4.456,6.655-8.334,13.763-10.235,21.6-.674,2.773,3.6,3.956,4.277,1.179,1.817-7.482,5.534-14.183,9.788-20.537a2.228,2.228,0,0,0,.328-.741,7.838,7.838,0,0,1,3.915,1.085,2.022,2.022,0,0,0,2.047.072,2.249,2.249,0,0,0,.326.33,2.033,2.033,0,0,0-.232,1.73,26.04,26.04,0,0,1,.983,6.669,2.248,2.248,0,0,0,4.348.693,2.192,2.192,0,0,0,3.141-.639c3.932-6.25,7.729-12.971,12.7-18.467a66.974,66.974,0,0,1,10.821-9.193,251.919,251.919,0,0,1,25.448-15.707q1.917-1.055,3.848-2.083l5.035,11.254a1.809,1.809,0,0,0,1.267,1.114,2.343,2.343,0,0,0,1.447,2.683c8.259,3.217,16.465,7.594,23.083,13.548,3.2,2.881,6.293,6.317,7.808,10.417a49.684,49.684,0,0,1,1.793,8.284c.477,2.588.975,5.172,1.457,7.759,3.618,19.4,6.956,38.852,9.487,58.427,1.648,12.754,2.995,25.545,4.139,38.354.252,2.821,4.69,2.847,4.435,0-2-22.389-4.7-44.7-8.305-66.891M224.907,219.8c-.166-2.4,1.539-5.039,2.588-7.078.43-.835.957-1.688,1.339-2.566a1.51,1.51,0,0,0,.508.277,14.822,14.822,0,0,0,1.939,1.73l7.163,6.388c-4.339-1.494-8.995-1.523-11.84,3.039a9,9,0,0,0-.546,1.026,5.646,5.646,0,0,1-1.152-2.817m3.168,17.577a2.315,2.315,0,0,0,.365-1.637,18.815,18.815,0,0,1,.388-5.055c.077-.529.145-1.071.214-1.615a2.387,2.387,0,0,0,.364-2.363c.073-.365.154-.727.252-1.08,1.669-6.014,7.966-3,11.621-.859a2.023,2.023,0,0,0,1.861.164c.265.49.527.993.793,1.5a2.3,2.3,0,0,0-1.563.914c-3.006,3.93-5.479,8.245-8.394,12.241a2.274,2.274,0,0,0-.653-.559,12.429,12.429,0,0,0-5.248-1.646" transform="translate(-75.478 -68.204)" fill="#262626"/>
    <path id="Path_1723" data-name="Path 1723" d="M349.241,250.786a28.255,28.255,0,0,0-17.772,10.591c-5.028,6.5-7.087,14.633-7.389,22.734-.106,2.855,4.329,2.85,4.435,0,.264-7.081,2.016-14.327,6.421-20.024a24.283,24.283,0,0,1,15.484-9.024c2.809-.468,1.617-4.743-1.179-4.277" transform="translate(-114.999 -88.978)" fill="#262626"/>
    <path id="Path_1724" data-name="Path 1724" d="M331,320.7c-.524-2.8-4.8-1.615-4.277,1.179q4.958,26.535,9.915,53.071.7,3.757,1.4,7.513c.523,2.8,4.8,1.615,4.277-1.179q-4.957-26.535-9.915-53.071L331,320.7" transform="translate(-115.92 -113.232)" fill="#262626"/>
    <path id="Path_1725" data-name="Path 1725" d="M315.975,385.651c.117,6.289-1.19,12.617-6.05,16.969-4.683,4.194-11.622,5.6-17.4,7.585-13.636,4.683-27.354,9.11-41.252,12.955-8.7,2.406-17.443,4.616-26.211,6.74a2.478,2.478,0,0,0-.171-.55c-3.057-6.9-6.064-13.826-8.514-20.969-2.2-6.419-4.28-13.256-4.274-20.114q20.816-7.128,41.63-14.261,8.887-3.046,17.773-6.093c2.685-.921,1.531-5.206-1.179-4.277q-28.058,9.623-56.121,19.23l-4.874,1.669a2.306,2.306,0,0,0-1.628,2.139c0,.081,0,.161-.007.242l-5.655,1.786c-.014,0-.026.012-.041.016a2.354,2.354,0,0,0-.808-.179c-3.021-.139-4.681-3.357-5.932-5.7-1.269-2.378-2.58-4.784-4.755-6.457-5-3.846-12.273-2.245-18.055-1.792l-10.876.851c-2.976.233-6.234.182-9.05,1.3a7.347,7.347,0,0,0-2.853,1.969,2.32,2.32,0,0,0-.293-.625l-13.2-20.071-9.273-14.1-3.255-4.95a12.5,12.5,0,0,1-1.376-2.093c-.263-.7-.248-.308.323-.854a21.8,21.8,0,0,1,2.13-1.576l8.322-6.158,9.747-7.213c1.072,1.631,2.409,3.049,4.548,2.425a2.122,2.122,0,0,0,.968-.37l15.671-10.588,9.83-6.641c2.011-1.359,4.943-2.708,4.631-5.591-.158-1.456-1.18-2.862-2.007-4.128l10.115-7.485,9.421-6.971,2.877-2.13c.315-.233.959-.933,1.357-1,.676-.121,1.317,1.449,1.774,2.157l5.251,8.131,17.333,26.839q15.024,23.262,30.047,46.525l.543.839c1.543,2.39,5.384.169,3.83-2.239L232,319.044,214.469,291.9a2.538,2.538,0,0,0,.311-.363c2.668-3.786,5.59-7.433,9.5-10,3.612-2.37,7.464-4.314,11.008-6.8,4.216-2.963,10.667-7.247,8.054-13.3-1.043-2.416-3.236-4.076-5.45-5.368-2.112-1.234-5.9-2.6-6.148-5.459-.242-2.823-4.68-2.848-4.436,0,.535,6.241,6.43,7.294,10.465,10.725,2.681,2.281,1.573,4.558-.765,6.582a58.928,58.928,0,0,1-6.973,5.007c-3.17,2.017-6.592,3.665-9.608,5.918a41.409,41.409,0,0,0-8.5,9.094c-2.492-3.948-4.925-7.967-7.618-11.766-2.191-3.09-5.155-2.292-7.642-.452l-7.221,5.344L174.02,292.473a3.56,3.56,0,0,0-1.974-1.084,5.4,5.4,0,0,0-3.729,1.162q.285-7.983.568-15.966c.065-1.838-.389-4.837.589-6.465.925-1.538,3.285-1.336,4.855-1.4,3.132-.136,6.6-.856,8.1-3.932,1.253-2.553-2.572-4.8-3.83-2.239-.773,1.575-2.706,1.666-4.275,1.735a17.024,17.024,0,0,0-5.132.7c-4.406,1.6-4.542,5.8-4.686,9.848q-.372,10.452-.743,20.9l-18.491,12.493c-2.059,1.391-5.866,3.09-5.935,5.955a5.944,5.944,0,0,0,1,3.01c-6.865,5.027-13.7,10.095-20.41,15.3-3.129,2.428-2.257,5.428-.436,8.2l7.368,11.2,17.509,26.625,1.179,1.793a2.2,2.2,0,0,0,2.768.826,7.526,7.526,0,0,0,1.934,7.29,8.893,8.893,0,0,0,3.644,2.358,9.177,9.177,0,0,0,2.026,16.715,7.894,7.894,0,0,1,1.3.268c-.2-.037-.5,1.229-.343.549a14.565,14.565,0,0,0-.707,2.359,7.271,7.271,0,0,0,.655,3.354c.441,1.062,1.4,2.106,1.722,3.177.367,1.219-.129,2.57-.448,3.747a8.126,8.126,0,0,0-.156,3.852c1.055,5.522,4.126,10.193,9.682,11.778,5.668,1.617,11.986.634,17.64-.534,5.911-1.221,11.619-3.126,17.4-4.831,2.732-.806,1.569-5.088-1.179-4.277-9.349,2.759-19.088,6.519-29,5.957a13.027,13.027,0,0,1-6.028-1.579c-1.8-1.091-2.633-2.821-3.357-4.73a9.017,9.017,0,0,1-.934-3.828c.108-.921.567-1.856.723-2.786a8.726,8.726,0,0,0-.1-4.053c-.6-1.915-2.742-3.507-1.948-5.639.626-1.685,1.489-3.119.419-4.864-.962-1.571-2.567-1.7-4.163-2.2a4.715,4.715,0,0,1-.7-8.764,2.042,2.042,0,0,0,.706-3.03c3.066.279,6.33-.11,9.3.6l-6.763,3.424c-2.547,1.29-.3,5.117,2.239,3.83l14.57-7.376c2.548-1.289.3-5.118-2.239-3.83l-2.639,1.337a2.453,2.453,0,0,0-.375-.255c-2.95-1.619-6.142-1.828-9.443-1.841-2.788-.01-6.642.237-8.564-2.237-2.488-3.205,1.2-4.554,3.856-4.849,3.812-.424,7.666-.605,11.49-.9s7.622-.668,11.437-.884c3.292-.188,6.75-.144,9.024,2.605,1.912,2.31,2.843,5.273,4.684,7.646a10.15,10.15,0,0,0,6.732,4.205c.21,12.891,4.739,25.58,9.453,37.412a2.264,2.264,0,0,0,2.728,1.549l7.561-2.326q.453,1.027.907,2.053a1.746,1.746,0,0,0,1.855,1.143,2.172,2.172,0,0,0,2.663,1.607c15.909-3.845,31.727-8.032,47.336-12.964,7.433-2.348,14.822-4.835,22.192-7.374,6.122-2.109,12.784-3.735,17.778-8.087,5.832-5.083,7.663-12.8,7.524-20.262-.053-2.851-4.489-2.86-4.436,0M146.357,318.408l-1.53-2.54c-.132-.221-.441-.963-.723-1.375.475-.314,1.032-.826,1.283-1l3.256-2.2L166.9,298.963l3.208-2.168c.142-.1.65-.354,1.047-.605a21.293,21.293,0,0,0,1.179,1.788,23.08,23.08,0,0,0,1.35,2.241,1.43,1.43,0,0,1,.089.165c-1.2.71-3.548,2.588-3.865,2.8l-8.891,6.008-14.339,9.688c-.11-.167-.232-.33-.319-.474M213.3,427c-4.313-10.977-8.334-22.676-8.457-34.539l2.95-.932c.492,6.153,2.332,12.271,4.306,18.026,1.848,5.388,4.008,10.658,6.268,15.885L213.3,427" transform="translate(-41.82 -88.173)" fill="#262626"/>
    <path id="Path_1726" data-name="Path 1726" d="M312.839,97.914c-6.088-4.238-8.459-11.117-9.52-18.185-.423-2.813-4.7-1.618-4.277,1.179,1.251,8.329,4.486,15.912,11.558,20.836,2.348,1.634,4.568-2.209,2.239-3.83" transform="translate(-106.104 -27.722)" fill="#262626"/>
    <path id="Path_1727" data-name="Path 1727" d="M356.426,417.838a34.86,34.86,0,0,1,15.98,4.066c2.521,1.335,4.765-2.492,2.239-3.83a39.8,39.8,0,0,0-18.218-4.671c-2.855-.038-2.857,4.4,0,4.435" transform="translate(-125.717 -146.696)" fill="#262626"/>
    <path id="Path_1728" data-name="Path 1728" d="M210.637,249.2l-7.608,10.837c-1.644,2.341,2.2,4.56,3.83,2.239l7.608-10.837c1.644-2.341-2.2-4.56-3.83-2.239" transform="translate(-71.902 -88.079)" fill="#262626"/>
    <path id="Path_1729" data-name="Path 1729" d="M230.647,57.378c1.795-3.3,6.595-3.637,9.928-3.737a47.517,47.517,0,0,1,10.746.826c7.373,1.475,14.3,4.971,17.878,11.871,1.314,2.535,5.143.295,3.83-2.239-4.26-8.219-12.825-12.593-21.661-14.12a50.748,50.748,0,0,0-12.746-.67c-4.433.366-9.511,1.619-11.8,5.831-1.365,2.508,2.464,4.75,3.83,2.239" transform="translate(-80.383 -17.445)" fill="#262626"/>
    <path id="Path_1730" data-name="Path 1730" d="M255.21,66.919a33.5,33.5,0,0,0-27,4.35c-2.372,1.566-.153,5.408,2.239,3.83a29.086,29.086,0,0,1,23.58-3.9c2.761.734,3.94-3.543,1.179-4.277" transform="translate(-80.621 -23.346)" fill="#262626"/>
    <path id="Path_1731" data-name="Path 1731" d="M231.065,38.07c5.779-3.707,12.739-5.577,19.432-6.814a57.1,57.1,0,0,1,19.036-.576c7.189,1.125,17.8,5.1,15.972,14.276a2.337,2.337,0,0,0,3.673,2.306c2.952.545,5.8,1.66,7.706,4.113a14.474,14.474,0,0,1,2.6,8.01c.395,6.524-1.334,13.054-3.3,19.217-.869,2.726,3.412,3.893,4.277,1.179,2.247-7.05,4.219-14.749,3.286-22.2-.979-7.822-5.937-13.278-13.673-14.648-.112-6.262-4.374-11.211-10.3-13.882-9.642-4.343-21.04-3.918-31.2-1.934-6.8,1.327-13.864,3.348-19.742,7.119-2.4,1.537-.174,5.377,2.239,3.83" transform="translate(-80.833 -9.113)" fill="#262626"/>
    <path id="Path_1732" data-name="Path 1732" d="M218.513,73.624A17.959,17.959,0,0,1,219.655,54.5c1.65-2.336-2.194-4.555-3.829-2.239a22.374,22.374,0,0,0-1.143,23.6c1.389,2.494,5.221.26,3.83-2.239" transform="translate(-75.179 -18.198)" fill="#262626"/>
    <path id="Path_1733" data-name="Path 1733" d="M175.453,335.436l8.891-6.007c.317-.214,2.663-2.093,3.865-2.8a1.5,1.5,0,0,0-.089-.165,23.014,23.014,0,0,1-1.35-2.241,21.223,21.223,0,0,1-1.179-1.788c-.4.252-.905.51-1.047.606l-3.208,2.167-18.255,12.333-3.256,2.2c-.252.17-.808.683-1.283,1,.282.412.59,1.155.723,1.375l1.53,2.54c.086.144.209.308.319.474l14.339-9.688" transform="translate(-56.258 -114.415)" fill="#fff"/>
    <path id="Path_1734" data-name="Path 1734" d="M236.276,166.674c7.035,3.224,15.3,2.718,22.516.334,8.068-2.666,16.291-7.994,19.74-16.069,1.109-2.6-2.711-4.859-3.83-2.239-2.782,6.512-8.994,10.988-15.459,13.451-6.443,2.455-14.227,3.563-20.73.692-7.829-3.455-13.2-10.911-15.5-18.979-2.013-7.041-1.924-14.673-2.17-21.935-.283-8.324-.223-16.789-1.566-25.031-.458-2.81-4.733-1.617-4.277,1.179,1.31,8.039,1.148,16.367,1.43,24.486.273,7.864.245,16.165,2.688,23.727,2.8,8.664,8.757,16.531,17.161,20.382" transform="translate(-76.279 -33.815)" fill="#262626"/>
    <path id="Path_1735" data-name="Path 1735" d="M108.237,291.28q-.666-2.228-1.332-4.458c-4.589,3.375-10.312,5.31-15.8,6.432a46.808,46.808,0,0,1-17.184.667q.656,2.686,1.311,5.373a40.441,40.441,0,0,0,18.087.021c5.447-1.148,11.253-3.085,15.531-6.785.048-.042.1-.078.145-.114a2.148,2.148,0,0,1-.763-1.135" transform="translate(-26.232 -101.778)" fill="#fff"/>
    <path id="Path_1736" data-name="Path 1736" d="M254.654,171.767c.977,1.911,2.413,3.727,4.322,3.821,1.994-.1,3.468-2.05,4.461-3.592.049-.074.091-.154.139-.229Z" transform="translate(-90.363 -60.951)" fill="#fff"/>
    <path id="Path_1737" data-name="Path 1737" d="M48.449,249.364c.859.677,1.156,2.147,1.517,3.139q1.31,3.6,2.621,7.209a42.847,42.847,0,0,0,13.989-.764,41.968,41.968,0,0,0,11.364-3.841c-.374-1.585-.786-3.166-1.12-4.76a8.368,8.368,0,0,1,.174-3.276,67.635,67.635,0,0,0,.971-15.106c-.393-6.308-2.955-12.188-4.195-18.334a44.381,44.381,0,0,1-.723-5.016,17.763,17.763,0,0,0-.456-4.426c-.482-1.37-1.8-2.853-3.072-1.387-1.776,2.044-2.337,6.193-2.678,8.788-.417,3.177-.472,6.4-.75,9.59A2.3,2.3,0,0,1,65.7,222.3a2.227,2.227,0,0,1-2.606,1.467c-11.668-2.466-23.241-5.732-35.122-7.041-5.047-.557-10.257-1.066-15.275-.092a12.74,12.74,0,0,0-3.539,1,112.161,112.161,0,0,1,19.406,1.517c2.814.464,1.613,4.737-1.179,4.277a104.765,104.765,0,0,0-18.541-1.354c.062.036.124.073.189.108,2.036,1.119.936,3.859-.892,4.106a2.473,2.473,0,0,1,.009.451c-.119,1.618-.008,2.972,1.232,4.148a22.322,22.322,0,0,0,4.813,3.042c3.312,1.779,6.779,3.243,10.154,4.894,7.095,3.473,14.434,6.455,21.731,9.473a10.508,10.508,0,0,1,2.37,1.063M14.984,228.476c-2.844-.149-2.853-4.585,0-4.435,5.957.312,11.575,2.263,17.425,3.216s11.608.857,17.084,3.469c2.578,1.23.325,5.053-2.239,3.83-5.01-2.39-10.657-2.139-16.024-3.023-5.447-.9-10.7-2.768-16.246-3.057" transform="translate(-2.879 -71.749)" fill="#fff"/>
    <path id="Path_1738" data-name="Path 1738" d="M264.175,164.892H248.333a2.237,2.237,0,0,0-2.139,2.807c1.364,4.277,4.267,9.142,9.03,9.813a3.637,3.637,0,0,0,1.417,0c4.874-.658,7.988-5.547,9.672-9.817a2.232,2.232,0,0,0-2.138-2.807m-8.233,8.257c-1.91-.094-3.346-1.911-4.323-3.821h8.922c-.047.075-.089.155-.137.23-.992,1.542-2.467,3.493-4.461,3.592" transform="translate(-87.328 -58.512)" fill="#262626"/>
    <path id="Path_1739" data-name="Path 1739" d="M44.624,256.168a2.286,2.286,0,0,0-2.081,2.821l2.4,9.848a2.389,2.389,0,0,0,.124.37,2.057,2.057,0,0,0,1.484,1.49c7.034,2.079,14.59,1.867,21.718.365,6.244-1.316,12.61-3.706,17.488-7.926a1.984,1.984,0,0,0-.284-3.248,1.966,1.966,0,0,0,.808-2.317l-2.315-7.747a2.241,2.241,0,0,0-3.706-.979c-.39.385-.8.746-1.218,1.1a18.351,18.351,0,0,0-.8-3.256c.187-.792.266-1.637.383-2.436.91-6.2,1.467-12.582.436-18.8a107.271,107.271,0,0,0-2.791-11.008,60.2,60.2,0,0,1-1.818-11.352c-.4-4.815-5.057-10.5-10.087-6.69-2.822,2.139-3.79,6.563-4.414,9.85a85.217,85.217,0,0,0-1.008,10.215c-13.634-2.983-27.193-6.678-41.208-7.227-4.688-.184-11.01-.2-14.89,2.889-3.673,2.92-3.69,7.366-.623,10.182a2.195,2.195,0,0,0-1.387,1.934c-.478,6.491,4.85,9.343,9.97,11.916,4.559,2.291,9.21,4.471,13.875,6.545,5.889,2.619,11.837,5.108,17.8,7.561q1.072,2.952,2.146,5.9m22.467,10.617A40.449,40.449,0,0,1,49,266.765l-1.31-5.373a46.8,46.8,0,0,0,17.184-.667c5.484-1.123,11.206-3.058,15.8-6.432L82,258.75a2.154,2.154,0,0,0,.763,1.135c-.048.036-.1.072-.145.114-4.279,3.7-10.084,5.637-15.531,6.785M21.47,236.327c-3.375-1.652-6.842-3.115-10.154-4.894A22.355,22.355,0,0,1,6.5,228.391c-1.241-1.175-1.352-2.53-1.232-4.148a2.41,2.41,0,0,0-.009-.45c1.828-.246,2.928-2.986.892-4.106-.065-.035-.126-.072-.189-.109a104.76,104.76,0,0,1,18.541,1.355c2.792.46,3.993-3.813,1.179-4.277a112.16,112.16,0,0,0-19.406-1.517,12.748,12.748,0,0,1,3.539-1c5.019-.974,10.228-.465,15.276.092,11.88,1.31,23.454,4.576,35.122,7.042a2.228,2.228,0,0,0,2.606-1.467,2.3,2.3,0,0,0,.392-1.123c.278-3.19.332-6.413.75-9.59.341-2.6.9-6.744,2.679-8.788,1.274-1.466,2.59.017,3.071,1.386a17.706,17.706,0,0,1,.456,4.426,44.427,44.427,0,0,0,.724,5.016c1.239,6.146,3.8,12.026,4.194,18.333a67.592,67.592,0,0,1-.971,15.106,8.356,8.356,0,0,0-.173,3.276c.334,1.594.746,3.175,1.12,4.761A41.991,41.991,0,0,1,63.7,256.447a42.829,42.829,0,0,1-13.989.764q-1.311-3.6-2.621-7.208c-.361-.992-.658-2.463-1.517-3.139A10.484,10.484,0,0,0,43.2,245.8c-7.3-3.019-14.636-6-21.731-9.473" transform="translate(0 -69.249)" fill="#262626"/>
    <path id="Path_1740" data-name="Path 1740" d="M52.1,242.738c-5.475-2.612-11.224-2.514-17.083-3.469s-11.468-2.9-17.426-3.216c-2.852-.15-2.844,4.286,0,4.435,5.543.29,10.8,2.161,16.246,3.057,5.366.884,11.013.632,16.024,3.023,2.564,1.223,4.817-2.6,2.239-3.83" transform="translate(-5.484 -83.762)" fill="#262626"/>
    <path id="Path_1741" data-name="Path 1741" d="M134.053,299.57c2.242,8.937,4.37,17.989,7.291,26.733.9,2.693,5.185,1.539,4.277-1.179-.644-1.927-1.244-3.871-1.821-5.824a18.873,18.873,0,0,1-1.778,3.053A18.873,18.873,0,0,0,143.8,319.3c-2.039-6.906-3.723-13.942-5.47-20.909-.694-2.767-4.972-1.594-4.277,1.179" transform="translate(-47.541 -105.323)" fill="#262626"/>
    <path id="Path_1742" data-name="Path 1742" d="M116.651,396.938c-4.366,5.092-11.436,5.751-17.672,4.479a21.445,21.445,0,0,1-6.692-2.316,18.79,18.79,0,0,1-5.811-6.31c-4.016-6.413-6-13.977-7.669-21.284-1.92-8.4-3.425-16.906-5.141-25.353q-3.5-17.231-7.51-34.353c-.655-2.777-4.933-1.6-4.277,1.179q3.886,16.489,7.254,33.094c1.894,9.284,3.508,18.644,5.688,27.867,1.811,7.661,4.078,15.7,8.592,22.262a21.657,21.657,0,0,0,14.386,9.49c7.711,1.57,16.572.7,21.987-5.62a2.2,2.2,0,0,0,.559-1.581c-1.228,2.746-3.009,4.77-6.593,3.575,3.584,1.195,5.366-.83,6.593-3.575-.093-1.75-2.265-3.223-3.7-1.555" transform="translate(-21.933 -110.08)" fill="#262626"/>
    <path id="Path_1743" data-name="Path 1743" d="M198.536,2.888q.946,4.5,1.892,8.994c.587,2.79,4.8,1.406,4.221-1.363q-.946-4.5-1.892-8.994c-.587-2.79-4.8-1.407-4.221,1.363" transform="translate(-70.43 0)" fill="#fff"/>
    <path id="Path_1744" data-name="Path 1744" d="M178.47,9.714c-2-2.038-4.952,1.274-2.957,3.307l8.286,8.446c2,2.038,4.953-1.272,2.957-3.306L178.47,9.714" transform="translate(-62.045 -3.22)" fill="#fff"/>
    <path id="Path_1745" data-name="Path 1745" d="M175.719,35.514l-9.113-1.608c-2.809-.5-3.769,3.836-.954,4.333l9.113,1.608c2.809.5,3.769-3.835.954-4.332" transform="translate(-58.181 -12.017)" fill="#fff"/>
  </g>
</svg>
