<svg id="Group_836" data-name="Group 836" xmlns="http://www.w3.org/2000/svg" xmlns:xlink="http://www.w3.org/1999/xlink" width="180.505" height="335.158" viewBox="0 0 180.505 335.158">
  <defs>
    <clipPath id="clip-path">
      <rect id="Rectangle_948" data-name="Rectangle 948" width="180.505" height="335.158" fill="none"/>
    </clipPath>
  </defs>
  <g id="Group_810" data-name="Group 810" clip-path="url(#clip-path)">
    <path id="Path_1616" data-name="Path 1616" d="M56.528,455.35l2.243,20.237-.956,21.007-5.756,9.313c.924-1.5,16.692,0,18.453,0h40.8c20.427,0,40.873-.172,61.3.02-10.806-8.613-9.247-15.34-9.18-28.913.01-2.027-.578-25.636,1.835-25.74L56.528,455.35" transform="translate(-20.006 -173.419)" fill="#fff"/>
    <path id="Path_1617" data-name="Path 1617" d="M172.694,284.469a1.615,1.615,0,0,1-2.162-.6q-.43-.907-.829-1.829a90.573,90.573,0,0,1-5.032-16.191c-.261-1.165-.507-2.332-.747-3.5-.912-4.455-1.7-8.937-2.55-13.4a137.793,137.793,0,0,0-3.883-16.217c-.673-2.1-1.224-4.233-1.832-6.35-.331-1.151-.675-2.3-1.057-3.435q-.3-.884-.624-1.755-.157-.416-.324-.829l-.126-.3,0-.008-.1-.229a22.882,22.882,0,0,0-1.566-2.992c-.154-.243-.313-.481-.479-.715-.076-.107-.155-.212-.233-.319l-.008-.011-.049-.058a12.3,12.3,0,0,0-1.029-1.112,1.574,1.574,0,0,1-.156-.143l0,0c-.038-.026-.086-.06-.132-.09h0a.825.825,0,0,1-.152-.045l-.06-.012a1.648,1.648,0,0,1-.243,0H149.3a.068.068,0,0,1-.076.013c-.041.009-.083.017-.123.028-.114.03-.223.075-.334.108l-.05.03c-.131.074-.259.148-.386.227l-.069.041-.01.009c-.081.073-.555.426-.546.549,0-.031.188-.276.057-.069-.038.06-.078.117-.115.177-.008.013-.047.091-.083.159a.2.2,0,0,1-.052.105c0,.014-.009.026-.013.04l0,.01c.637,1.722,1.074,3.515,1.759,5.224,1.5,3.732,2.933,7.477,4.249,11.277,1.345,3.886,2.611,7.8,3.875,11.712a1.443,1.443,0,0,1-.122,1.149,1.787,1.787,0,0,1-1,.831,1.637,1.637,0,0,1-1.98-1.124q-.877-2.715-1.764-5.427c-.762-2.32-1.534-4.636-2.339-6.942-1.249-3.578-2.611-7.1-4.021-10.621-.39-.973-.667-1.991-.983-2.988-.2-.616-.4-1.23-.619-1.837-.072-.2-.134-.454-.23-.665a.252.252,0,0,1-.062-.092c-.029-.066-.057-.132-.087-.2q-.087-.192-.18-.381c-.131-.267-.272-.529-.429-.781-.064-.1-.135-.2-.2-.305l0,0-.009-.009c-.08-.089-.159-.177-.246-.26l-.008-.007c-.058-.031-.12-.073-.171-.1-.124-.039-.247-.082-.376-.111-.055,0-.111-.012-.159-.014-.088,0-.175,0-.264,0-.146.04-.3.069-.442.111h0c-.07.038-.143.072-.211.113s-.131.084-.2.127l-.01.01c-.092.09-.187.176-.273.272l-.008.009a.294.294,0,0,1-.025.07c-.074.162-.26.368-.328.5-.018.036-.031.061-.042.08l0,.009c-.038.11-.079.219-.113.331a7.946,7.946,0,0,0-.2.844l0,.024v.017c-.007.083-.016.164-.023.246q-.019.259-.025.517c-.009.379.007.757.034,1.134a1.286,1.286,0,0,1-.012.289,6.781,6.781,0,0,1,2.162,2.321,25.924,25.924,0,0,1,1.7,4.123c.4,1.084.784,2.17,1.171,3.257.115.32.232.639.345.959,2.021,5.692,3.97,11.41,6.065,17.075a1.61,1.61,0,1,1-3.1.856q-.8-2.17-1.579-4.349-.79-2.209-1.566-4.423c-.917-2.609-1.827-5.221-2.751-7.829q-.669-1.884-1.348-3.764-.363-1-.73-2c-.107-.291-.214-.583-.325-.874-.054-.142-.111-.283-.167-.425-.015-.039-.026-.068-.035-.091l-.041-.084c-.153-.318-.3-.635-.488-.938-.079-.129-.163-.253-.247-.379l-.051-.08-.062-.062c-.1-.1-.191-.207-.294-.3-.021-.019-.177-.146-.209-.176a3.582,3.582,0,0,0-.521-.3c-.027,0-.331-.1-.379-.109l-.051-.016-.066.007c-.064,0-.128,0-.192,0l-.055.016-.006,0c-.06.034-.118.07-.174.108l.124-.1a.253.253,0,0,1-.041,0,2.747,2.747,0,0,0-.4.433l0,0c-.033.046-.065.092-.1.139q-.1.15-.19.3c-.122.209-.225.425-.331.643l-.009.017-.012.036c-.038.108-.08.215-.116.324-.067.2-.126.409-.173.618-.02.087-.038.174-.053.262,0,.023,0,.042-.007.073-.011.168-.021.335-.022.5a7.685,7.685,0,0,0,.052.929c0,.018.011.062.019.116a3.714,3.714,0,0,1,.767.175,6.363,6.363,0,0,1,3.4,3.25,27.35,27.35,0,0,1,1.755,4.572c.479,1.541.895,3.1,1.3,4.662.023.091.047.181.071.272a91.89,91.89,0,0,0,2.872,9.891,1.628,1.628,0,0,1-1.124,1.98,1.459,1.459,0,0,1-.168.044,1.683,1.683,0,0,1-1.813-1.168q-.421-1.106-.78-2.234c-1.014-3.168-1.745-6.419-2.609-9.629-.422-1.569-.874-3.133-1.414-4.666-.133-.379-.271-.755-.418-1.129-.034-.087-.1-.248-.1-.247-.049-.11-.1-.221-.15-.33a10.341,10.341,0,0,0-.5-.935c-.075-.123-.153-.244-.234-.362l-.031-.044s-.023-.03-.068-.094l-.014-.016c-.119-.13-.232-.262-.36-.384-.046-.043-.1-.083-.142-.127-.1-.056-.2-.125-.3-.186l-.039-.026-.084-.023c-.064-.019-.142-.031-.212-.05-.068,0-.142-.006-.209,0a1.237,1.237,0,0,0-.147.025l-.049.017a.382.382,0,0,1-.122.041c-.07.041-.143.085-.214.124-.025.014-.036.018-.052.026l-.023.023c-.047.043-.094.085-.14.129q-.091.09-.176.185c-.015.017-.055.07-.084.108-.049.079-.132.213-.151.246-.046.079-.151.35-.147.315-.047.147-.094.291-.131.441l-.01.037c0,.011,0,.02,0,.034a7.792,7.792,0,0,0,.015.839,1.9,1.9,0,0,0,.038.366s-.049-.312-.015-.115c.03.171.055.342.087.512.061.326.132.65.21.972.155.637.335,1.267.53,1.893.505,1.616.993,3.231,1.4,4.876.863,3.521,1.5,7.094,2.26,10.638.615,2.871,1.246,5.738,1.869,8.608q.849,3.911,1.639,7.835a89.844,89.844,0,0,0,2.221,9.673q.382,1.2.824,2.39.215.578.443,1.151.115.287.232.573l.116.281.021.05q.991,2.309,2.17,4.529c1.087,2.051,2.288,4.038,3.572,5.971q.964,1.452,1.989,2.863a1.629,1.629,0,0,1-.578,2.2,1.4,1.4,0,0,1-.506.2c.646,1.19,1.137,2.472,1.816,3.642l.15-.063.052-.022c4.1-1.738,8.167-3.579,12.133-5.61,2.134-1.093,4.248-2.239,6.27-3.531.444-.284.884-.575,1.315-.877q.3-.206.585-.42l.164-.123a23.47,23.47,0,0,1-2.256-5.386" transform="translate(-51.466 -82.263)" fill="#fff"/>
    <path id="Path_1618" data-name="Path 1618" d="M153.205,322.849l0-.005,0,0,0,.01" transform="translate(-58.873 -124.063)" fill="#fff"/>
    <path id="Path_1619" data-name="Path 1619" d="M153.173,322.773c-.027-.065-.085-.2,0,0" transform="translate(-58.845 -123.997)" fill="#fff"/>
    <path id="Path_1620" data-name="Path 1620" d="M14.223,79.242a7.154,7.154,0,0,1,1.9,3.046,8.747,8.747,0,0,1,2.281-3.75,7.41,7.41,0,0,1,1.1-.818,8.408,8.408,0,0,1-3.389-3.082,7.34,7.34,0,0,1-1.244,1.609,7.437,7.437,0,0,1-2.7,1.627,9.877,9.877,0,0,1,2.042,1.369" transform="translate(-4.681 -28.682)" fill="#fbca04"/>
    <path id="Path_1621" data-name="Path 1621" d="M242.758,18.665a6.388,6.388,0,0,1,2.274,2.769c.063.149.115.3.171.451A8.262,8.262,0,0,1,248,18.069c.09-.065.185-.124.278-.184a8.207,8.207,0,0,1-3.087-2.628,7.04,7.04,0,0,1-1.581,1.72,7.537,7.537,0,0,1-1.909,1.058,8.531,8.531,0,0,1,1.062.63" transform="translate(-92.881 -5.863)" fill="#fbca04"/>
    <path id="Path_1622" data-name="Path 1622" d="M132.582,349.748l-.035.044-.035.042a.63.63,0,0,0,.052-.062l.018-.025" transform="translate(-50.923 -134.404)" fill="#fbca04"/>
    <path id="Path_1623" data-name="Path 1623" d="M132.723,349.548l-.042.046-.055.077c.031-.042.063-.086.1-.123" transform="translate(-50.967 -134.327)" fill="#fbca04"/>
    <path id="Path_1624" data-name="Path 1624" d="M156.517,404.015c-4.8-6.681-8.4-14.152-11.861-21.583-3.98-8.542-7.879-17.122-11.523-25.814-1.234-2.942-2.479-5.892-3.561-8.894a1.469,1.469,0,0,1,.262-1.374,1.712,1.712,0,0,1,1.182-1.717c.236-.095.472-.192.707-.288q.408-.168.816-.337l.5-.207.054-.023c-.679-1.17-1.17-2.452-1.816-3.642a1.784,1.784,0,0,1-1.7-.778q-.808-1.113-1.582-2.25a68.307,68.307,0,0,1-5.858-10.423c-.118.389-.237.778-.363,1.165a65.783,65.783,0,0,1-3.944,9.459,30.985,30.985,0,0,1-3.865,6.152,1.317,1.317,0,0,1-.763.431,22.989,22.989,0,0,1-1.16,2.882,1.67,1.67,0,0,1,.023.877,1.23,1.23,0,0,1-.1.273c.234.081.467.164.7.247.061-.175.126-.348.185-.525a1.61,1.61,0,1,1,3.1.856c-.082.244-.169.488-.255.731-.02.055-.041.11-.06.164.058.028.118.053.175.081-.057-.028-.117-.053-.175-.081-2.1,5.876-4.586,11.626-7.156,17.308-2.363,5.226-4.892,10.367-7.433,15.509-1.571,3.179-3.007,6.423-4.5,9.638-3.257,7.006-6.726,14.113-11.8,20.014a28.838,28.838,0,0,1-5.969,5.374h94.932q.156-.094.31-.192c-7.6-1-13.26-7.125-17.5-13.034" transform="translate(-30.272 -125.541)" fill="#fff"/>
    <path id="Path_1625" data-name="Path 1625" d="M241.219,290.259a28.739,28.739,0,0,0-1.77-7.9,25.347,25.347,0,0,0-1.692-3.569,19.077,19.077,0,0,0-1.717-2.556,35.819,35.819,0,0,0-10.307-8.094,80.1,80.1,0,0,0-12.218-5.547c-5.119-1.858-10.277-3.571-15.323-5.627a13.184,13.184,0,0,1-1.838,4.742,1.779,1.779,0,0,1,1.5,2.658c-2.021,3.42-4.144,6.783-6.34,10.093-2.8,4.214-5.753,9.264-9.875,12.362.385,1.43.8,2.852,1.251,4.261q.658,2.052,1.434,4.065.2.506.4,1.009.1.234.193.467l.026.06.065.151q.411.956.858,1.9a1.653,1.653,0,0,1-.578,2.2c-.012.008-.028.012-.04.02a23.444,23.444,0,0,0,2.256,5.386l.1-.077.01-.008a12.319,12.319,0,0,0,1.725-1.616,1.414,1.414,0,0,1,1.354-.435,1.727,1.727,0,0,1,.6-.653,1.624,1.624,0,0,1,2.2.578,92.128,92.128,0,0,0,5.86,9.365q1.364,1.931,2.791,3.815.716.949,1.441,1.891l.359.466.047.062.176.227.7.906c1.958,2.517,3.931,5.022,5.838,7.579a87.027,87.027,0,0,1,10.017,16.539,1.658,1.658,0,0,1-.578,2.2,1.615,1.615,0,0,1-2.2-.578,73.527,73.527,0,0,0-5.269-9.725c-1.7-2.655-3.537-5.216-5.435-7.73q-.69-.913-1.388-1.819l-.262-.339-.033-.043-.327-.422-.658-.847q-1.43-1.837-2.858-3.673a126.625,126.625,0,0,1-10.256-14.919,21.864,21.864,0,0,1-5.008,3.838,113.822,113.822,0,0,1-13.121,6.716c-2.228,1-4.471,1.98-6.734,2.906l.009.023c.525,1.4,1.077,2.789,1.637,4.175q.753,1.862,1.528,3.715.246.586.492,1.172l.025.059.1.242.24.566q.567,1.334,1.142,2.665,5.505,12.754,11.514,25.3c1.773,3.675,3.633,7.313,5.7,10.835a66.231,66.231,0,0,0,6.71,9.684,36.051,36.051,0,0,0,3.9,3.937q.263.225.531.443c.043.034.323.254.376.3.3.23.61.453.924.667a20.472,20.472,0,0,0,2.113,1.274c.355.185.717.356,1.084.518.076.031.265.109.326.132.173.067.347.13.522.19a14.638,14.638,0,0,0,2.264.587q.175.031.352.056l.037,0c.183.015.366.038.549.051q.59.043,1.182.034t1.2-.07l.247-.028.112-.017c.193-.032.385-.065.577-.1a15.928,15.928,0,0,0,2.574-.751c.125-.048.25-.1.374-.148l.009,0,.057-.026q.332-.147.659-.3.8-.384,1.575-.815a22.509,22.509,0,0,0,5.492-4.189,14.808,14.808,0,0,0,3.422-5.681c.525-1.682.93-3.406,1.344-5.117.5-2.063.975-4.134,1.4-6.214.167-.826.329-1.654.462-2.486.012-.079.055-.363.066-.429.048-.348.092-.7.14-1.045q.143-1.052.3-2.1c.855-5.777,1.993-11.507,3.248-17.209,2.428-11.032,5.264-21.988,6.9-33.178q.614-4.2.973-8.44a52.853,52.853,0,0,0,.236-8.553m-28.972,38.28c-1.52-9.082-2.9-18.19-1.6-27.391.322-2.274,3.769-1.3,3.449.951-1.206,8.51.192,17.1,1.6,25.488.377,2.256-3.071,3.217-3.45.951" transform="translate(-64.022 -98.751)" fill="#fff"/>
    <path id="Path_1626" data-name="Path 1626" d="M200.125,241.716a133.733,133.733,0,0,1-16.069-7.758,1.538,1.538,0,0,1-.406-2.358A6.287,6.287,0,0,1,182,229.214a1.612,1.612,0,0,1-1.864-1.154c-.335-2.4-.525-4.809-.664-7.224-.064-1.126-.124-2.257-.156-3.388a26.354,26.354,0,0,1-7.248,5.117c1.246,3.55,2.111,7.224,3.252,10.813a143.262,143.262,0,0,1,3.96,16.759c1.1,5.813,2.1,11.649,3.441,17.413.02.085.042.17.062.256a33.929,33.929,0,0,0,3.142-3.775c1.778-2.342,3.434-4.775,5.049-7.23,2.036-3.095,4.012-6.233,5.9-9.422a1.633,1.633,0,0,1,1.589-.853,13.184,13.184,0,0,0,1.838-4.742l-.167-.067" transform="translate(-66.122 -83.563)" fill="#fff"/>
    <path id="Path_1627" data-name="Path 1627" d="M155.395,112.773a88.816,88.816,0,0,0-3.266-16.267,44.373,44.373,0,0,0-8.078-14.017,1.855,1.855,0,0,1-.086-2.277,6.049,6.049,0,0,0-3.3,2.345,1.8,1.8,0,0,1,.235,1.966,41.713,41.713,0,0,1-32.71,23.209,1.428,1.428,0,0,1-1.681-1.273,14.08,14.08,0,0,1-7.994-1.92c-.948.305-1.907.582-2.882.813a26.9,26.9,0,0,0-1.664,6.788c.393.1.789.212,1.186.352,2.161.76,1.225,4.216-.951,3.45-2.212-.778-4.724-1.1-6.515.716-1.614,1.637-2.108,4.165-2.148,6.381a14.644,14.644,0,0,0,2.808,9.14,6.663,6.663,0,0,1,5.384.728,1.875,1.875,0,0,1,2.363,1.668c.019.294.041.591.062.887a7.591,7.591,0,0,1,.9,2.816,2.945,2.945,0,0,1,0,1.073,7.68,7.68,0,0,1-.375,1.635c.7,5.5,2.051,10.986,5.176,15.509a29.389,29.389,0,0,0,14.253,10.578,4.175,4.175,0,0,1,.837.088,3.893,3.893,0,0,1,1.473-.578c-.086-2.874.933-6.159,4.006-7a4.5,4.5,0,0,1,4.852,1.577,5.486,5.486,0,0,1,2.425-1.358,4.253,4.253,0,0,1,4.074,1.133,17.51,17.51,0,0,1,3.717,5.579c.11-.054.222-.1.331-.157,8.97-4.559,13.535-14.66,14.947-24.522a6.663,6.663,0,0,1-.723-3.02,6.851,6.851,0,0,1,1.268-3.925,1.61,1.61,0,0,1,.994-1.13,6.841,6.841,0,0,1,4.641-1.849,6.674,6.674,0,0,1,3.053.731,10.543,10.543,0,0,0,2.8-7.427c.022-3.551-1.536-7.549-5.522-7.482.084.126.168.251.256.373-.087-.122-.171-.248-.256-.373-.114,0-.229.006-.347.015-1.807.132-2.183-2.047-1.155-3.069-.081-.251-.155-.5-.216-.759a1.475,1.475,0,0,1-2.178-1.145m-29.787,18.66c.256,0,.518.016.774,0l-.04,0c.272-.017.547-.008.815-.008a1.789,1.789,0,1,1,0,3.577c-.256,0-.518-.017-.774,0l.04-.006c-.272.018-.547.008-.815.009a1.789,1.789,0,1,1,0-3.577m-13.759-13.592a1.85,1.85,0,1,1,1.85-1.85,1.882,1.882,0,0,1-1.85,1.85m23.512,27.9c-1.536,4.013-4.776,9.862-9.758,9.719-4.833-.138-7.97-5.8-9.614-9.719-.462-1.1.685-2.264,1.725-2.264h15.922a1.672,1.672,0,0,1,1.177.434,1.439,1.439,0,0,1,.549,1.83m3.648-27.9a1.85,1.85,0,1,1,1.85-1.85,1.882,1.882,0,0,1-1.85,1.85m6.269-14.338c-2.721-1.945-5.543-3.492-8.843-1.953-2.076.968-3.89-2.117-1.805-3.089,4.542-2.119,8.542-.844,12.454,1.953,1.859,1.329.071,4.43-1.805,3.089" transform="translate(-32.871 -30.824)" fill="#fff"/>
    <path id="Path_1628" data-name="Path 1628" d="M167.186,116.9c-.932-5.046-2.072-10.048-3.218-15.049-2.17-9.473-3.96-19.08-7.555-28.15a52.646,52.646,0,0,0-6.5-12.049,20.721,20.721,0,0,0-9.266-6.969,30.41,30.41,0,0,0-4.133-1.288,7.782,7.782,0,0,1-1.784-.459c-.944-.481-1.792-1.308-2.708-1.86a26.269,26.269,0,0,0-2.841-1.493,26.567,26.567,0,0,0-6.08-1.838c-8.677-1.571-17.7,1.289-24.821,6.237A42.677,42.677,0,0,0,82.852,74.026C79.708,82.35,78.974,91.212,76.7,99.759c-2.535,9.514-6.427,19.082-6.951,29.009-.224,4.231.506,7.638,3.47,10.723,2.115,2.2,5.2,4.748,8.406,5.235a14.311,14.311,0,0,1-1.489-8.313c.275-2.26,3.855-2.28,3.577,0a11.174,11.174,0,0,0,11.8,12.753,29.373,29.373,0,0,1-3.8-5.028,35.446,35.446,0,0,1-4.148-12,6.66,6.66,0,0,1-3.44.943,6.865,6.865,0,0,1-4.928-11.684q-.183-.243-.355-.494a18.051,18.051,0,0,1-2.151-15.4c1.787-5.061,8.017-5.1,12.948-3.881.3-2.38,2.62.562,3.228-10.683-1.061.252-5.452,2.237-6.54,2.4-2.255.334-3.22-3.114-.951-3.45A36.185,36.185,0,0,0,109.08,75.9c1.361-1.827,4.466-.041,3.089,1.806A39.985,39.985,0,0,1,92.432,91.9a14.077,14.077,0,0,0,7.994,1.92,1.967,1.967,0,0,1,1.681-2.305,38.134,38.134,0,0,0,29.621-21.437,1.635,1.635,0,0,1,2.854-.16,6.051,6.051,0,0,1,3.3-2.345,1.564,1.564,0,0,1,2.616-.253,49.579,49.579,0,0,1,8.693,14.717c1.975,5.514,2.785,11.369,3.57,17.146a1.953,1.953,0,0,1-1.271,2.1c.061.255.135.507.217.759a1.785,1.785,0,0,1,1.154-.509c6.114-.448,9.358,5.29,9.445,10.725a14.536,14.536,0,0,1-3.722,10.166,7.563,7.563,0,0,1,1.145,3.22,2.943,2.943,0,0,1,0,1.073,7.52,7.52,0,0,1-1.456,3.659,1.732,1.732,0,0,1,2.468,1.594,18.279,18.279,0,0,1-6.267,13.166,15.682,15.682,0,0,0,3.617-1.42,1.612,1.612,0,0,1,.622-2.357,19.2,19.2,0,0,0,9.048-10.507c1.476-4.583.273-9.35-.576-13.942" transform="translate(-26.788 -18.182)" fill="#fbca04"/>
    <path id="Path_1629" data-name="Path 1629" d="M191.6,198.167a14.6,14.6,0,0,0,11.421-13.677,1.944,1.944,0,0,1,.073-.484,6.649,6.649,0,0,1-4.364,1.6,6.739,6.739,0,0,1-3.128-.781,47.111,47.111,0,0,1-4.325,12.305,31.924,31.924,0,0,1-2.223,3.645,1.3,1.3,0,0,1,.02.264c-.023.471-.034.943-.039,1.415a12.638,12.638,0,0,0,2.259-1c-1.253-.7-1.456-2.9.306-3.284" transform="translate(-72.643 -70.711)" fill="#fbca04"/>
    <path id="Path_1630" data-name="Path 1630" d="M84.343,322.975c-.148.228-.295.457-.454.68.159-.223.306-.452.454-.68a1.232,1.232,0,0,1-.813-.025c-.86-.353-1.715-.722-2.568-1.095-3.554-1.553-7.067-3.213-10.481-5.055a62.576,62.576,0,0,1-5.453-3.253,20.6,20.6,0,0,1-4-3.3c-.131.175-.26.352-.388.531.127-.179.257-.355.388-.531-.046-.053-.1-.1-.141-.158a1.975,1.975,0,0,1-.355-.619,15.557,15.557,0,0,0-2.459-.323,1.682,1.682,0,0,1-.113.268,71.434,71.434,0,0,1-5.831,9.057c-3.533,4.684-7.552,8.942-11.515,13.258-1.941,2.114-3.857,4.252-5.669,6.477q-.677.829-1.332,1.677l-.078.1-.173.227c-.1.133-.2.266-.3.4q-.322.431-.64.868-1.365,1.879-2.6,3.843a1.644,1.644,0,0,1-2.2.578,1.624,1.624,0,0,1-.577-2.2,80.187,80.187,0,0,1,6.163-8.415c2.448-2.952,5.067-5.753,7.666-8.569-1.116.549-2.7.057-2.545-1.492.826-7.969,1.137-16.75-4.01-23.43-1.406-1.824,1.7-3.6,3.089-1.805,5.506,7.145,5.384,16.692,4.5,25.235a1.976,1.976,0,0,1-.119.5q1.432-1.559,2.837-3.142,1.434-1.626,2.813-3.3.722-.883,1.424-1.783l.039-.049.018-.024.132-.172q.175-.23.35-.462.329-.437.651-.879a70.588,70.588,0,0,0,5.136-8.12,1.635,1.635,0,0,1,2.2-.578,1.608,1.608,0,0,1,.691,1.935,15.557,15.557,0,0,1,2.459.323,1.594,1.594,0,0,1,.355-1.658,1.644,1.644,0,0,1,2.1-.159,17.486,17.486,0,0,0,1.318-2.1,1.962,1.962,0,0,1-.3-.042,1.613,1.613,0,0,1-1.124-1.98q.669-1.621,1.38-3.224c1.528-3.433,3.263-6.769,4.794-10.2q.276-.62.542-1.243c0-.014.01-.026.017-.043.041-.1.084-.2.125-.3q.113-.274.223-.55.527-1.323.988-2.672c.079-.232.151-.465.226-.7-1.119-.625-2.2-1.333-3.276-2.038a1.838,1.838,0,0,1-3,.844,95.653,95.653,0,0,1-14.574-16.559,1.609,1.609,0,0,1,.779-2.438,21.694,21.694,0,0,1-2.818-4.923c-6.109,1.521-12.239,2.969-18.066,5.422-7.663,3.226-15.217,8.231-18.649,16.137a24.346,24.346,0,0,0-1.011,2.946,24.737,24.737,0,0,0-.653,3.213,51.552,51.552,0,0,0-.1,8.427,184.089,184.089,0,0,0,1.806,18.844c1.83,12.775,4.537,25.4,6.618,38.137.528,3.231.981,6.47,1.436,9.712-.07-.5.024.136.044.26q.042.262.088.524c.078.448.163.895.25,1.341.206,1.05.43,2.1.663,3.141q.707,3.178,1.52,6.331a25.663,25.663,0,0,0,2.024,5.66,25.19,25.19,0,0,0,4.832,6.4,19.492,19.492,0,0,0,2.926,2.345,16.42,16.42,0,0,0,1.61.917c.429.212,1,.468,1.269.578a23.368,23.368,0,0,0,2.837.96q.678.18,1.366.313.3.058.6.106l.261.039.119.015a17.589,17.589,0,0,0,2.559.1c.435-.016.866-.059,1.3-.1l.018,0c.075-.011.149-.021.223-.035.2-.035.4-.068.594-.108A16.131,16.131,0,0,0,47,390.49c.208-.074.413-.157.619-.235l.037-.014.006,0,.243-.107q.515-.234,1.015-.5a19.988,19.988,0,0,0,2.068-1.265c.187-.13.371-.265.555-.4l.158-.119.118-.09c.308-.248.613-.5.911-.758a36.338,36.338,0,0,0,6.668-7.932c4.122-6.3,7.135-13.229,10.285-20.038,1.939-4.19,4.061-8.291,6.053-12.456,2.152-4.5,4.223-9.036,6.178-13.624.331-.775.589-1.389.973-2.317q.475-1.147.938-2.3.709-1.768,1.387-3.55c.307-.81.608-1.622.893-2.44q-.347-.125-.7-.248a1.772,1.772,0,0,1-1.065.876" transform="translate(-3.721 -99.717)" fill="#fff"/>
    <path id="Path_1631" data-name="Path 1631" d="M125.783,280.7c-.81-3.2-1.328-6.488-2-9.725-.544-2.627-1.117-5.248-1.69-7.87-.684-3.13-1.361-6.263-2-9.4q-.143,1.493-.3,2.985c-.387,3.615-.8,7.251-1.535,10.815a1.61,1.61,0,0,1-3.1-.856c.181-.882.338-1.768.48-2.656q.114-.707.216-1.416c.033-.225.065-.45.1-.675.022-.152.042-.3.063-.456v-.007l0-.026c.69-5.28,1.185-10.593,1.542-15.906a1.766,1.766,0,0,1,.417-1.047c-.21-.749-.43-1.5-.668-2.237a23.66,23.66,0,0,1-1.013-4.35,5.851,5.851,0,0,1,1.281-4.578,4.548,4.548,0,0,1,.837-.783,10.143,10.143,0,0,1-.127-2.7c-.233.408-.447.826-.645,1.251-.092.2-.181.395-.268.594-.009.021-.018.042-.027.063-.034.081-.067.161-.1.243q-.27.669-.511,1.348a96.061,96.061,0,0,0-3.478,13.7c-.924,4.667-1.7,9.36-2.543,14.041-.307,1.7-.616,3.407-1.011,5.091-.131.559-.27,1.118-.448,1.664-.467,1.435-.722,2.941-1.137,4.4-.224.786-.472,1.565-.734,2.337.157.054.313.107.473.155-.159-.048-.316-.1-.473-.155a75.062,75.062,0,0,1-3.314,8.028c-.77,1.627-1.565,3.241-2.335,4.867q-.648,1.368-1.271,2.748-.339.755-.667,1.513-.151.35-.3.7l-.052.124-.195.469a1.676,1.676,0,0,1-1.68,1.166,17.527,17.527,0,0,1-1.318,2.1,1.132,1.132,0,0,1,.175.159A13.48,13.48,0,0,0,98.3,298.19c.078.063.158.125.236.187l.115.087c.2.152.409.3.616.449q.676.48,1.373.93a92.611,92.611,0,0,0,11.155,5.992q2.2,1.031,4.422,2l.751.324.289.123c.131.055.262.11.393.164a1.8,1.8,0,0,1,1.1,1.1,22.887,22.887,0,0,0,1.159-2.882,1.8,1.8,0,0,1-1.513-.431,1.643,1.643,0,0,1,0-2.277c.06-.07.119-.141.177-.212-.046.046-.055.034.126-.163.128-.176.257-.35.381-.529.348-.5.677-1.023.994-1.547.712-1.18,1.365-2.4,1.978-3.631q.516-1.039.994-2.1.25-.552.489-1.108l.113-.265v0l.006-.014c.083-.2.168-.406.251-.61a52.561,52.561,0,0,0,2.923-9.5c-.392-1.18-.746-2.373-1.051-3.58" transform="translate(-36.988 -88.313)" fill="#fff"/>
    <path id="Path_1632" data-name="Path 1632" d="M93.3,236.451a52.361,52.361,0,0,1-7.773,3.583,121.484,121.484,0,0,1-13.088,3.829c.138.157.3.32.486.507-.187-.187-.348-.35-.486-.507l-.059.015A21.689,21.689,0,0,0,75.2,248.8a1.784,1.784,0,0,1,2.31.632c3.883,5.886,8.9,11.017,14.015,15.835a1.565,1.565,0,0,1,.469,1.686c1.079.705,2.157,1.413,3.276,2.037q.85-2.616,1.441-5.306c.135-.61.356-1.2.515-1.8.178-.675.328-1.358.472-2.041.4-1.9.733-3.8,1.069-5.712.865-4.9,1.7-9.815,2.723-14.688a71.718,71.718,0,0,1,3.851-13.432,15.9,15.9,0,0,1,1.906-3.412,33.289,33.289,0,0,1-6.45-3.726q-.206,5.348-.411,10.7a1.848,1.848,0,0,1-3.371.922A45.494,45.494,0,0,1,93.6,233.97a1.555,1.555,0,0,1-.3,2.481" transform="translate(-27.814 -84.111)" fill="#fff"/>
    <path id="Path_1633" data-name="Path 1633" d="M65.337,473.487c.082-.01.237-.036,0,0" transform="translate(-25.108 -181.948)" fill="#fbca04"/>
    <path id="Path_1634" data-name="Path 1634" d="M241.528,25.969c-.012,0,.05.068.093.115-.038-.06-.076-.115-.093-.115" transform="translate(-92.816 -9.98)" fill="#fbca04"/>
    <path id="Path_1635" data-name="Path 1635" d="M233.878,468.275c-.139-.02-.072-.009,0,0" transform="translate(-89.845 -179.948)" fill="#fbca04"/>
    <path id="Path_1636" data-name="Path 1636" d="M229.841,370.576h0" transform="translate(-88.304 -142.38)" fill="#fbca04"/>
    <path id="Path_1637" data-name="Path 1637" d="M172.634,375.18h0" transform="translate(-66.341 -144.177)" fill="#fbca04"/>
    <path id="Path_1638" data-name="Path 1638" d="M142.521,188.769c.225.388.458.771.7,1.146.914,1.39,2.42,3.572,4.276,3.682,2.02.119,3.637-2.234,4.568-3.721.227-.361.438-.733.644-1.107Z" transform="translate(-54.769 -72.542)" fill="#fff"/>
    <path id="Path_1639" data-name="Path 1639" d="M194.007,108.982a7.466,7.466,0,0,0-.185,4.4,1.952,1.952,0,0,0,1.271-2.1c-.785-5.777-1.6-11.633-3.57-17.146a49.571,49.571,0,0,0-8.693-14.717,1.564,1.564,0,0,0-2.616.252,4.3,4.3,0,0,1,1.629-.03,4.3,4.3,0,0,0-1.629.03,1.856,1.856,0,0,0,.086,2.277,44.365,44.365,0,0,1,8.078,14.018,88.8,88.8,0,0,1,3.266,16.266,1.474,1.474,0,0,0,2.178,1.145,7.466,7.466,0,0,1,.185-4.4" transform="translate(-69.12 -30.289)" fill="#262626"/>
    <path id="Path_1640" data-name="Path 1640" d="M151.049,166.969a1.789,1.789,0,0,0,0-3.577c-.268,0-.544-.009-.815.008l.04,0c-.256.018-.518,0-.774,0a1.789,1.789,0,1,0,0,3.577c.268,0,.543.009.815-.009l-.04.006c.256-.019.518,0,.774,0" transform="translate(-56.763 -62.788)" fill="#262626"/>
    <path id="Path_1641" data-name="Path 1641" d="M125.265,137.167a1.85,1.85,0,1,0,1.85-1.85,1.882,1.882,0,0,0-1.85,1.85" transform="translate(-48.137 -52.001)" fill="#262626"/>
    <path id="Path_1642" data-name="Path 1642" d="M169.377,137.167a1.85,1.85,0,1,0,1.85-1.85,1.882,1.882,0,0,0-1.85,1.85" transform="translate(-65.089 -52.001)" fill="#262626"/>
    <path id="Path_1643" data-name="Path 1643" d="M144.543,194.942c4.982.142,8.223-5.706,9.758-9.719a1.439,1.439,0,0,0-.549-1.83,1.671,1.671,0,0,0-1.176-.434H136.653c-1.04,0-2.186,1.165-1.725,2.264,1.645,3.915,4.781,9.581,9.614,9.719m0-3.577c-1.856-.109-3.362-2.291-4.276-3.682-.246-.375-.479-.758-.7-1.146h10.192c-.206.374-.418.746-.645,1.108-.931,1.486-2.548,3.84-4.567,3.721" transform="translate(-51.811 -70.309)" fill="#262626"/>
    <path id="Path_1644" data-name="Path 1644" d="M150.884,83.706a38.132,38.132,0,0,1-29.621,21.437,1.967,1.967,0,0,0-1.681,2.305,14.237,14.237,0,0,0,2.954-.518,14.237,14.237,0,0,1-2.954.518,1.428,1.428,0,0,0,1.681,1.273,41.713,41.713,0,0,0,32.71-23.209,1.8,1.8,0,0,0-.235-1.966c-1.311,1.616-2.393,3.695-3.655,5.139,1.263-1.444,2.344-3.523,3.655-5.139a1.635,1.635,0,0,0-2.854.16" transform="translate(-45.945 -31.814)" fill="#262626"/>
    <path id="Path_1645" data-name="Path 1645" d="M101.933,119.761c.974-.232,1.933-.508,2.882-.813a18.438,18.438,0,0,1-1.906-1.239,19.244,19.244,0,0,0-.977,2.052" transform="translate(-39.172 -45.234)" fill="#262626"/>
    <path id="Path_1646" data-name="Path 1646" d="M118.05,93.266a36.187,36.187,0,0,1-23.706,13.982c-2.27.336-1.3,3.784.951,3.45q1.632-.242,3.224-.624a19.248,19.248,0,0,1,.977-2.052q-.375-.279-.741-.579.367.3.741.579c.107-.194.217-.387.332-.579-.115.191-.225.385-.332.579a18.44,18.44,0,0,0,1.906,1.239,39.982,39.982,0,0,0,19.738-14.19c1.377-1.847-1.728-3.633-3.089-1.806" transform="translate(-35.757 -35.547)" fill="#262626"/>
    <path id="Path_1647" data-name="Path 1647" d="M94.369,173.383c-.2-4.264-6.671-4.3-6.653,0s6.451,4.261,6.653,0" transform="translate(-33.708 -65.394)" fill="#fff"/>
    <path id="Path_1648" data-name="Path 1648" d="M199.377,173.383c.017,4.306,6.451,4.261,6.654,0-.2-4.264-6.671-4.3-6.654,0" transform="translate(-76.618 -65.394)" fill="#fff"/>
    <path id="Path_1649" data-name="Path 1649" d="M177.147,111.143c-3.912-2.8-7.912-4.072-12.455-1.953-2.084.972-.27,4.057,1.806,3.089,3.3-1.539,6.123.008,8.843,1.953,1.876,1.341,3.664-1.76,1.805-3.089" transform="translate(-62.935 -41.554)" fill="#262626"/>
    <path id="Path_1650" data-name="Path 1650" d="M90.107,283.682c1.013.563,1.992,1.2,2.967,1.835a1.562,1.562,0,0,0-.469-1.686C87.491,279.013,82.472,273.883,78.59,268a1.783,1.783,0,0,0-2.31-.632c1.973,2.7,4.316,5.221,5.956,8.09-1.64-2.869-3.983-5.387-5.956-8.09A1.611,1.611,0,0,0,75.5,269.8a95.678,95.678,0,0,0,14.575,16.558,1.838,1.838,0,0,0,3-.844c-.975-.638-1.954-1.271-2.967-1.835" transform="translate(-28.899 -102.673)" fill="#262626"/>
    <path id="Path_1651" data-name="Path 1651" d="M238.371,468.293a7.015,7.015,0,0,0-1.709,1.713,16.432,16.432,0,0,0,1.709-1.713" transform="translate(-90.946 -179.959)" fill="#262626"/>
    <path id="Path_1652" data-name="Path 1652" d="M229.841,370.576h0" transform="translate(-88.304 -142.38)" fill="#262626"/>
    <path id="Path_1653" data-name="Path 1653" d="M242.306,283.018a31.66,31.66,0,0,0-1.887-8.384,26.717,26.717,0,0,0-3.859-7.012,27.81,27.81,0,0,0-4.691-4.606,59.931,59.931,0,0,0-12.482-7.385c-4.484-2.036-9.131-3.567-13.761-5.223a169.387,169.387,0,0,1-16.377-6.716q-3.953-1.9-7.76-4.086a1.509,1.509,0,0,0-2.031.422,20.129,20.129,0,0,0,5.569,3.278,20.129,20.129,0,0,1-5.569-3.278,1.538,1.538,0,0,0,.406,2.358,133.735,133.735,0,0,0,16.069,7.758l.167.067c0-.036.012-.071.017-.107,0,.036-.012.071-.017.107,5.046,2.056,10.2,3.769,15.323,5.627a80.133,80.133,0,0,1,12.218,5.547,35.817,35.817,0,0,1,10.307,8.094,19.1,19.1,0,0,1,1.717,2.556,25.249,25.249,0,0,1,1.691,3.569,28.741,28.741,0,0,1,1.77,7.9,52.785,52.785,0,0,1-.237,8.553q-.358,4.234-.973,8.44c-1.635,11.19-4.47,22.146-6.9,33.178-1.255,5.7-2.393,11.432-3.249,17.209q-.155,1.051-.3,2.1c-.047.349-.092.7-.139,1.046-.011.066-.054.35-.067.429-.132.832-.294,1.661-.462,2.486-.422,2.08-.9,4.151-1.4,6.214-.415,1.711-.82,3.436-1.345,5.117a14.806,14.806,0,0,1-3.421,5.681,22.52,22.52,0,0,1-5.492,4.189q-.775.43-1.575.815-.327.157-.659.3l-.058.026-.009,0q-.186.077-.374.148a15.929,15.929,0,0,1-2.573.751c-.192.038-.384.071-.577.1l-.112.017-.247.028q-.6.061-1.2.07c-.394.005-.789-.006-1.182-.034-.183-.014-.366-.036-.55-.052l-.036,0c-.118-.018-.235-.036-.352-.056a14.735,14.735,0,0,1-2.265-.587c-.175-.06-.349-.124-.522-.19-.061-.023-.25-.1-.326-.132-.367-.161-.729-.332-1.084-.518a20.58,20.58,0,0,1-2.112-1.274c-.313-.214-.621-.438-.924-.667-.053-.044-.333-.263-.376-.3q-.269-.218-.531-.443a35.987,35.987,0,0,1-3.9-3.937,66.285,66.285,0,0,1-6.711-9.684c-2.064-3.522-3.923-7.16-5.7-10.835q-6.036-12.512-11.514-25.3-.574-1.331-1.142-2.665l-.24-.566c-.034-.081-.068-.161-.1-.243l-.025-.058q-.246-.586-.491-1.172-.774-1.853-1.528-3.715c-.56-1.385-1.112-2.775-1.637-4.175,0-.008-.006-.015-.009-.023,2.262-.925,4.506-1.9,6.733-2.906a113.827,113.827,0,0,0,13.121-6.716,21.855,21.855,0,0,0,5.009-3.838,126.694,126.694,0,0,0,10.255,14.919q1.424,1.841,2.858,3.673l.658.846.328.423.033.043.262.34q.7.907,1.387,1.819c1.9,2.514,3.738,5.075,5.435,7.73a73.43,73.43,0,0,1,5.27,9.725,1.615,1.615,0,0,0,2.2.578,1.657,1.657,0,0,0,.577-2.2,87,87,0,0,0-10.017-16.539c-1.906-2.556-3.879-5.062-5.837-7.578l-.7-.906-.175-.227-.047-.062-.359-.466q-.725-.943-1.441-1.892c-.948-1.258-1.882-2.527-2.791-3.814a92.128,92.128,0,0,1-5.86-9.365,1.625,1.625,0,0,0-2.2-.578,1.725,1.725,0,0,0-.6.653,1.415,1.415,0,0,0-1.354.434,12.289,12.289,0,0,1-1.725,1.617l-.01.008-.1.077a9.615,9.615,0,0,0,2.119,2.394,9.615,9.615,0,0,1-2.119-2.394l-.164.123q-.29.213-.584.42-.648.453-1.316.877c-2.022,1.291-4.135,2.438-6.269,3.53-3.966,2.031-8.031,3.872-12.134,5.61l-.052.022-.15.063a8.485,8.485,0,0,0,1.323,1.765,8.485,8.485,0,0,1-1.323-1.765l-.054.023-.494.207q-.408.17-.816.337c-.236.1-.471.193-.707.288a1.713,1.713,0,0,0-1.182,1.717,1.467,1.467,0,0,0-.262,1.373c1.082,3,2.327,5.952,3.561,8.894,3.644,8.691,7.544,17.272,11.524,25.814,3.462,7.431,7.065,14.9,11.861,21.583,4.241,5.909,9.9,12.035,17.5,13.034a16.2,16.2,0,0,0,1.97-1.462,7.014,7.014,0,0,1,1.709-1.713,16.443,16.443,0,0,1-1.709,1.713c-.276.372-.536.76-.8,1.149.259-.389.519-.777.8-1.149a16.2,16.2,0,0,1-1.97,1.462l.084.013a18.02,18.02,0,0,0,11.014-2.585c4.442-2.475,8.308-6.161,10.118-10.993a47.089,47.089,0,0,0,1.468-5.3c.517-2.1,1-4.21,1.445-6.33.417-2.007.7-4.017.993-6.044.435-3,.946-5.991,1.513-8.97,2.161-11.346,5.176-22.507,7.339-33.852a168.353,168.353,0,0,0,2.481-17.644,50.222,50.222,0,0,0,.174-8.775m-74.083,39.976h0m37.739,57.323c-.072-.009-.139-.02,0,0" transform="translate(-61.93 -91.991)" fill="#262626"/>
    <path id="Path_1654" data-name="Path 1654" d="M64.531,337.018c.9-2.479,2.372-3.112,4.231-3.062a1.609,1.609,0,0,0-.691-1.935,1.635,1.635,0,0,0-2.2.578,70.75,70.75,0,0,1-5.136,8.12q-.323.442-.652.879l-.35.462c-.044.057-.089.114-.132.172l-.018.023-.038.05q-.7.9-1.424,1.783-1.373,1.677-2.813,3.3-1.4,1.588-2.837,3.143a1.99,1.99,0,0,0,.118-.5c.886-8.544,1.008-18.09-4.5-25.236C46.7,323,43.6,324.777,45,326.6c5.147,6.68,4.835,15.461,4.01,23.43-.161,1.549,1.428,2.04,2.545,1.491-2.6,2.817-5.218,5.618-7.667,8.57a80.369,80.369,0,0,0-6.163,8.414,1.625,1.625,0,0,0,.578,2.2,1.644,1.644,0,0,0,2.2-.578q1.238-1.964,2.6-3.843.316-.436.64-.868c.1-.134.2-.267.3-.4l.172-.227.078-.1q.656-.847,1.332-1.677c1.813-2.225,3.729-4.363,5.67-6.477,3.963-4.316,7.982-8.573,11.516-13.258a71.42,71.42,0,0,0,5.831-9.057,1.757,1.757,0,0,0,.113-.268c-1.859-.05-3.33.582-4.231,3.062" transform="translate(-14.414 -124.527)" fill="#262626"/>
    <path id="Path_1655" data-name="Path 1655" d="M71.986,258.29a13.832,13.832,0,0,1-.466-1.493,2.153,2.153,0,0,0,.466,1.493" transform="translate(-27.484 -98.684)" fill="#262626"/>
    <path id="Path_1656" data-name="Path 1656" d="M72.339,259.384l.059-.015c-.043-.049-.082-.1-.121-.147l.062.162" transform="translate(-27.775 -99.616)" fill="#262626"/>
    <path id="Path_1657" data-name="Path 1657" d="M137.095,360.848a1.61,1.61,0,0,0-3.105-.856c-.059.176-.124.349-.185.524a29.781,29.781,0,0,1,2.975,1.228l.06-.164c.087-.243.174-.487.256-.731" transform="translate(-51.42 -137.886)" fill="#262626"/>
    <path id="Path_1658" data-name="Path 1658" d="M83.2,318.276q-.674,1.782-1.387,3.55-.463,1.152-.938,2.3c-.384.928-.642,1.542-.972,2.317-1.956,4.588-4.027,9.125-6.179,13.624-1.992,4.165-4.114,8.266-6.053,12.456-3.15,6.809-6.164,13.743-10.285,20.038a36.322,36.322,0,0,1-6.668,7.932c-.3.26-.6.51-.911.758l-.118.091c-.052.04-.1.08-.158.119-.185.134-.368.269-.555.4a19.992,19.992,0,0,1-2.068,1.265q-.5.264-1.015.5c-.081.037-.161.072-.243.108l-.006,0-.037.014c-.206.078-.411.161-.619.235a16.122,16.122,0,0,1-2.238.623c-.2.039-.4.073-.594.108-.074.013-.148.023-.223.034l-.018,0c-.433.042-.863.084-1.3.1a17.594,17.594,0,0,1-2.559-.1l-.119-.015-.261-.039c-.2-.031-.4-.067-.6-.105q-.688-.133-1.366-.314a23.26,23.26,0,0,1-2.837-.959c-.27-.11-.84-.366-1.269-.578a16.439,16.439,0,0,1-1.61-.917,19.533,19.533,0,0,1-2.926-2.345,25.2,25.2,0,0,1-4.832-6.4,25.673,25.673,0,0,1-2.024-5.66q-.818-3.151-1.52-6.332c-.232-1.044-.456-2.091-.663-3.141-.087-.446-.172-.893-.25-1.341-.03-.175-.06-.349-.088-.525-.02-.123-.114-.76-.044-.259-.455-3.242-.909-6.481-1.436-9.712-2.081-12.734-4.788-25.361-6.618-38.137a184.058,184.058,0,0,1-1.806-18.843,51.552,51.552,0,0,1,.1-8.427,24.7,24.7,0,0,1,.653-3.213,24.345,24.345,0,0,1,1.011-2.946c3.432-7.906,10.986-12.91,18.649-16.137,5.827-2.453,11.957-3.9,18.066-5.423l-.062-.161a2.156,2.156,0,0,1-.466-1.493,13.872,13.872,0,0,0,.466,1.493c.039.049.078.1.121.147a121.481,121.481,0,0,0,13.088-3.829,52.318,52.318,0,0,0,7.773-3.583,1.555,1.555,0,0,0,.3-2.481,16.222,16.222,0,0,1-6.009,3.6,16.222,16.222,0,0,0,6.009-3.6,1.5,1.5,0,0,0-1.927-.3c-10.143,5.81-22.057,6.917-32.995,10.572C24,256.2,15.369,260.462,9.785,267.819a26.442,26.442,0,0,0-5.108,12.873,54.272,54.272,0,0,0-.086,8.824c.134,3.191.376,6.377.7,9.554,1.329,13.147,3.965,26.111,6.307,39.1.591,3.277,1.164,6.559,1.691,9.846.469,2.923.832,5.861,1.289,8.786a118.6,118.6,0,0,0,2.753,12.272,27.168,27.168,0,0,0,7.964,13.133,22.892,22.892,0,0,0,12.549,5.729,18.047,18.047,0,0,0,10.28-1.821,20.366,20.366,0,0,0,2.093-1.21h0a28.838,28.838,0,0,0,5.969-5.374c5.07-5.9,8.539-13.008,11.8-20.013,1.5-3.215,2.931-6.46,4.5-9.639,2.541-5.141,5.07-10.282,7.433-15.509,2.569-5.682,5.056-11.431,7.156-17.308a29.61,29.61,0,0,0-2.975-1.228c-.285.818-.587,1.63-.893,2.44M41.94,384.744c.237-.036.082-.01,0,0" transform="translate(-1.711 -93.205)" fill="#262626"/>
    <path id="Path_1659" data-name="Path 1659" d="M92.617,341.284c.046.054.095.1.142.158.148-.2.3-.393.449-.589-.321-.065-.637-.128-.945-.188a1.961,1.961,0,0,0,.355.619" transform="translate(-35.455 -130.913)" fill="#262626"/>
    <path id="Path_1660" data-name="Path 1660" d="M92.556,337.683a1.594,1.594,0,0,0-.355,1.658c.308.059.624.123.945.187.51-.667,1.025-1.328,1.51-2a1.644,1.644,0,0,0-2.1.159" transform="translate(-35.395 -129.588)" fill="#262626"/>
    <path id="Path_1661" data-name="Path 1661" d="M112,350.141c1.688.75,3.374,1.3,5.01,1.867q.274-.489.522-1a1.8,1.8,0,0,0-1.1-1.1l-.394-.164-.289-.123L115,349.3q-2.225-.966-4.422-2a92.747,92.747,0,0,1-11.155-5.991q-.7-.452-1.373-.931-.31-.221-.616-.449l-.115-.087c-.079-.062-.158-.124-.236-.187a13.48,13.48,0,0,1-1.875-1.782,1.163,1.163,0,0,0-.175-.159c-.486.676-1,1.337-1.511,2l.236.047-.236-.047c-.15.2-.3.391-.449.59a20.642,20.642,0,0,0,4,3.3,62.846,62.846,0,0,0,5.454,3.253c3.414,1.842,6.927,3.5,10.481,5.055.852.372,1.707.741,2.568,1.095a1.232,1.232,0,0,0,.813.025q.328-.506.621-1.031c-1.636-.563-3.322-1.117-5.01-1.867" transform="translate(-35.765 -129.78)" fill="#262626"/>
    <path id="Path_1662" data-name="Path 1662" d="M132.5,360.188a1.676,1.676,0,0,0-.023-.877q-.247.506-.523,1l.444.155a1.261,1.261,0,0,0,.1-.273" transform="translate(-50.706 -138.079)" fill="#262626"/>
    <path id="Path_1663" data-name="Path 1663" d="M131.562,360.929c-.2.349-.4.693-.621,1.03a1.771,1.771,0,0,0,1.065-.876l-.444-.155" transform="translate(-50.319 -138.701)" fill="#262626"/>
    <path id="Path_1664" data-name="Path 1664" d="M156.036,216.5c-.007.026-.016.052-.025.078.012-.021.028-.05.045-.082.018-.07.018-.126-.02,0" transform="translate(-59.953 -83.167)" fill="#fff"/>
    <path id="Path_1665" data-name="Path 1665" d="M158.9,214.463l-.025.006h.02l.006-.006" transform="translate(-61.052 -82.415)" fill="#fff"/>
    <path id="Path_1666" data-name="Path 1666" d="M155.978,216.7s.009,0,.014-.007l.007-.023a.1.1,0,0,1-.02.03" transform="translate(-59.94 -83.265)" fill="#fff"/>
    <path id="Path_1667" data-name="Path 1667" d="M158.779,214.485l.056-.013c-.046,0-.06.007-.056.013" transform="translate(-61.016 -82.419)" fill="#fff"/>
    <path id="Path_1668" data-name="Path 1668" d="M159.531,214.5c-.048-.028-.088-.047-.1-.039s.043.027.1.039" transform="translate(-61.266 -82.416)" fill="#fff"/>
    <path id="Path_1669" data-name="Path 1669" d="M159.151,214.445a.659.659,0,0,1-.079-.018c0,.014.039.018.079.018" transform="translate(-61.129 -82.402)" fill="#fff"/>
    <path id="Path_1670" data-name="Path 1670" d="M158.152,214.642c-.009,0-.041.012-.073.03a.3.3,0,0,0,.073-.03" transform="translate(-60.748 -82.484)" fill="#fff"/>
    <path id="Path_1671" data-name="Path 1671" d="M156.051,216.538c-.017.033-.033.062-.045.082l-.007.023a.2.2,0,0,0,.052-.105" transform="translate(-59.948 -83.213)" fill="#262626"/>
    <path id="Path_1672" data-name="Path 1672" d="M158.855,214.472h-.02l-.057.013a.068.068,0,0,0,.076-.013" transform="translate(-61.017 -82.419)" fill="#262626"/>
    <path id="Path_1673" data-name="Path 1673" d="M145.4,215.087c0,.007,0,.015-.006.022h0c0-.007,0-.014.006-.021" transform="translate(-55.874 -82.655)" fill="#fff"/>
    <path id="Path_1674" data-name="Path 1674" d="M145.215,215.233c-.1.108.01.076.071-.041a.412.412,0,0,0,.025-.07c-.032.037-.062.076-.1.111" transform="translate(-55.788 -82.669)" fill="#fff"/>
    <path id="Path_1675" data-name="Path 1675" d="M145.381,215.123a.414.414,0,0,1-.025.07.327.327,0,0,0,.025-.07h0" transform="translate(-55.858 -82.669)" fill="#262626"/>
    <path id="Path_1676" data-name="Path 1676" d="M139.859,225.573s-.014,0-.032,0l.032,0" transform="translate(-53.734 -86.685)" fill="#fff"/>
    <path id="Path_1677" data-name="Path 1677" d="M138.5,239.333l.062.086a.794.794,0,0,0-.062-.086" transform="translate(-53.224 -91.973)" fill="#fff"/>
    <path id="Path_1678" data-name="Path 1678" d="M138.422,239.224l.042.06.006.007-.049-.067" transform="translate(-53.194 -91.931)" fill="#fff"/>
    <path id="Path_1679" data-name="Path 1679" d="M137.275,238.186a.13.13,0,0,0-.048-.025l.048.025" transform="translate(-52.735 -91.522)" fill="#fff"/>
    <path id="Path_1680" data-name="Path 1680" d="M135.778,238.1l.115-.038a.287.287,0,0,0-.115.038" transform="translate(-52.178 -91.485)" fill="#fff"/>
    <path id="Path_1681" data-name="Path 1681" d="M135.745,238.125l-.053.016.046-.012h0l.007,0" transform="translate(-52.145 -91.508)" fill="#fff"/>
    <path id="Path_1682" data-name="Path 1682" d="M153.205,322.849l0-.005,0,0,0,.01" transform="translate(-58.873 -124.063)" fill="#262626"/>
    <path id="Path_1683" data-name="Path 1683" d="M153.207,322.851l0,0h0l0,.006" transform="translate(-58.874 -124.066)" fill="#262626"/>
    <path id="Path_1684" data-name="Path 1684" d="M153.2,322.843l0,0,0,0h0" transform="translate(-58.874 -124.063)" fill="#262626"/>
    <path id="Path_1685" data-name="Path 1685" d="M153.2,322.838h0" transform="translate(-58.873 -124.062)" fill="#262626"/>
    <path id="Path_1686" data-name="Path 1686" d="M153.2,322.834l0,0v0l0,.006" transform="translate(-58.872 -124.059)" fill="#262626"/>
    <path id="Path_1687" data-name="Path 1687" d="M169.605,121.118c-.7-5.081-1.694-10.124-2.787-15.133-2.2-10.087-4.127-20.4-7.326-30.223-2.845-8.739-6.984-19.073-15.066-24.229A29.972,29.972,0,0,0,135,47.682a6.182,6.182,0,0,1-2.5-1.328,29.224,29.224,0,0,0-6.392-3.134c-8.969-3.152-18.975-1.589-27.289,2.7a45.144,45.144,0,0,0-19.28,19.5,60.841,60.841,0,0,0-4.586,12.519c-1.22,4.771-1.824,9.649-2.906,14.445-2.366,10.478-6.507,20.535-7.852,31.241-.552,4.391-.679,9.337,1.835,13.187a23.189,23.189,0,0,0,9.31,8.065,12.1,12.1,0,0,0,5.07,1.3,1.653,1.653,0,0,0,1.2-.454,14.673,14.673,0,0,0,11.782,4.8,1.987,1.987,0,0,0,.563-.118q-.211,5.511-.424,11.024a1.7,1.7,0,0,0,.207.921c.562-.622,1.116-1.247,1.67-1.863-.554.616-1.108,1.241-1.67,1.863a1.848,1.848,0,0,0,3.371-.921q.206-5.349.411-10.7a33.254,33.254,0,0,0,6.45,3.726,15.873,15.873,0,0,0-1.906,3.412A71.7,71.7,0,0,0,98.215,171.3c-1.028,4.873-1.858,9.784-2.723,14.688-.336,1.907-.672,3.816-1.069,5.712-.143.683-.294,1.366-.472,2.041-.159.605-.381,1.19-.515,1.8q-.592,2.687-1.441,5.306a17.849,17.849,0,0,0,2.943,1.339c.262-.773.509-1.55.734-2.337.414-1.454.669-2.961,1.137-4.4.177-.546.316-1.105.447-1.664.395-1.685.7-3.389,1.011-5.092.845-4.68,1.619-9.374,2.543-14.041a96.082,96.082,0,0,1,3.479-13.7q.242-.678.51-1.348c.033-.081.066-.162.1-.243l.027-.063q.13-.3.268-.594c.2-.424.413-.843.645-1.251a10.169,10.169,0,0,0,.127,2.7,4.585,4.585,0,0,0-.836.783,5.849,5.849,0,0,0-1.282,4.578,23.652,23.652,0,0,0,1.013,4.351c.239.742.458,1.488.668,2.237a1.766,1.766,0,0,0-.417,1.047c-.357,5.314-.852,10.626-1.542,15.906,0,.01,0,.017,0,.026v.007c-.022.152-.042.3-.063.456q-.047.338-.1.675-.1.708-.216,1.416c-.142.889-.3,1.775-.48,2.656a1.61,1.61,0,0,0,3.105.856c.733-3.564,1.148-7.2,1.534-10.815q.16-1.492.3-2.985c.64,3.141,1.317,6.272,2,9.4.573,2.621,1.146,5.242,1.69,7.87.67,3.236,1.188,6.52,2,9.724.305,1.207.659,2.4,1.051,3.58a52.545,52.545,0,0,1-2.923,9.5c-.083.2-.168.406-.251.61l-.006.014v0l-.114.266q-.239.556-.489,1.108-.478,1.058-.995,2.1c-.613,1.234-1.266,2.451-1.978,3.631-.317.525-.645,1.043-.994,1.547-.124.179-.253.353-.381.529l.042-.046a1.48,1.48,0,0,0-.1.123l-.018.025a.565.565,0,0,1-.052.062c-.058.071-.118.142-.177.212a1.643,1.643,0,0,0,0,2.277,1.8,1.8,0,0,0,1.513.431c.316-.964.59-1.96.821-3-.231,1.037-.5,2.034-.821,3a1.316,1.316,0,0,0,.763-.431,30.966,30.966,0,0,0,3.865-6.152,65.785,65.785,0,0,0,3.944-9.459c.126-.387.246-.775.363-1.165a68.277,68.277,0,0,0,5.858,10.423q.772,1.139,1.582,2.25a1.785,1.785,0,0,0,1.7.779,8.97,8.97,0,0,0-1.512-2.106,8.97,8.97,0,0,1,1.512,2.106,1.4,1.4,0,0,0,.506-.2,1.628,1.628,0,0,0,.578-2.2q-1.024-1.41-1.988-2.863c-1.284-1.933-2.485-3.92-3.572-5.971q-1.177-2.219-2.17-4.529l-.02-.047v0l0,0v0l0,0,0,0,0,0,0-.006,0-.008c-.07-.162-.028-.065,0,0v0c-.037-.088-.073-.176-.11-.265q-.118-.286-.232-.573-.228-.573-.443-1.151-.441-1.185-.824-2.39a89.844,89.844,0,0,1-2.221-9.673q-.785-3.925-1.639-7.835c-.623-2.869-1.255-5.737-1.87-8.608-.759-3.544-1.4-7.117-2.26-10.638-.4-1.645-.89-3.26-1.4-4.876-.2-.626-.376-1.256-.53-1.893-.078-.322-.149-.646-.21-.972-.032-.17-.057-.342-.087-.512-.034-.2.015.115.014.115a1.885,1.885,0,0,1-.037-.365,7.629,7.629,0,0,1-.015-.839c0-.014,0-.022,0-.034l.009-.036c.038-.151.084-.3.131-.442,0,.036.1-.235.147-.315.019-.033.1-.167.151-.246.03-.038.069-.091.085-.108.057-.064.115-.125.176-.185.046-.044.093-.086.14-.129.012-.01.014-.015.023-.023l.052-.026c.071-.039.144-.083.214-.124l-.046.012.053-.016a.285.285,0,0,1,.115-.038l.049-.017a1.243,1.243,0,0,1,.147-.025c.068,0,.141.008.209,0,.07.018.148.03.212.05l.084.023.039.026c.1.061.2.13.3.186.045.044.1.084.142.127.128.121.241.254.36.383l.014.017-.042-.06.049.067a.76.76,0,0,1,.062.087l.031.044c.082.118.159.24.235.363a10.484,10.484,0,0,1,.5.935c.052.109.1.22.149.331,0,0,.069.159.1.247.147.373.285.75.418,1.128.541,1.534.992,3.1,1.414,4.666.864,3.21,1.595,6.461,2.609,9.629q.361,1.127.78,2.234a1.683,1.683,0,0,0,1.812,1.168,1.535,1.535,0,0,0,.168-.044,1.627,1.627,0,0,0,1.124-1.98,92.075,92.075,0,0,1-2.872-9.891l-.071-.272c-.4-1.562-.818-3.122-1.3-4.662a27.351,27.351,0,0,0-1.755-4.572,6.363,6.363,0,0,0-3.4-3.25,3.756,3.756,0,0,0-.767-.175c-.009-.054-.015-.1-.019-.116a7.691,7.691,0,0,1-.053-.929c0-.168.012-.335.023-.5,0-.031,0-.05.007-.073.015-.089.033-.175.052-.262.047-.209.106-.414.174-.618.036-.109.078-.216.116-.324,0-.014.008-.024.012-.036l.008-.016c.106-.218.209-.435.332-.643.06-.1.123-.205.19-.3.031-.047.065-.093.1-.139l0,0a2.749,2.749,0,0,1,.4-.433.261.261,0,0,0,.041,0l-.124.1c.057-.039.115-.074.175-.108l.006,0,.055-.016c.064,0,.127-.007.192,0l.066-.007.051.016c.048.014.352.112.379.108a3.7,3.7,0,0,1,.521.3c.031.03.188.157.208.176.1.1.195.2.294.3.027.028.047.046.063.061s.028.046.051.08c.084.126.168.25.246.379.183.3.335.62.488.939l.041.083c.009.023.02.052.036.092.056.141.112.283.167.425.111.291.217.582.325.874q.368,1,.73,2,.681,1.879,1.347,3.763c.924,2.607,1.835,5.219,2.752,7.829q.778,2.214,1.566,4.423.779,2.18,1.579,4.349a1.61,1.61,0,1,0,3.105-.856c-2.095-5.665-4.043-11.383-6.065-17.074-.114-.321-.231-.64-.345-.96-.388-1.087-.776-2.173-1.171-3.257a25.928,25.928,0,0,0-1.7-4.122,6.778,6.778,0,0,0-2.162-2.321,1.286,1.286,0,0,0,.012-.289c-.028-.377-.043-.756-.034-1.134q.006-.259.025-.517c.006-.082.015-.164.022-.246a.152.152,0,0,0,0-.017l0-.024a8.1,8.1,0,0,1,.2-.844c.034-.111.074-.22.113-.331l0-.009c.01-.019.023-.044.042-.08.068-.134.253-.34.328-.5-.061.117-.174.15-.071.041.033-.035.063-.074.1-.111,0-.007,0-.015.006-.022s0,.014-.006.021l.008-.009c.086-.1.181-.182.273-.272l.01-.01c.065-.042.128-.087.2-.127s.141-.074.211-.113h0c.145-.042.3-.071.442-.111.087,0,.175-.007.263,0,.049,0,.1.009.16.014.128.029.251.071.376.111.051.031.113.073.171.1l.007.007c.087.082.167.171.247.259l.009.009,0,0c.067.1.137.2.2.305.157.252.3.515.429.781.062.127.121.253.179.382.03.065.058.131.087.2a.252.252,0,0,0,.062.092c.1.211.157.468.23.665.222.606.424,1.221.619,1.837.316,1,.594,2.015.983,2.988,1.411,3.516,2.772,7.043,4.021,10.621.8,2.306,1.577,4.622,2.338,6.942q.89,2.711,1.765,5.427a1.637,1.637,0,0,0,1.98,1.124,1.786,1.786,0,0,0,1-.832,1.439,1.439,0,0,0,.122-1.148c-1.264-3.912-2.529-7.826-3.875-11.712-1.316-3.8-2.752-7.546-4.249-11.278-.685-1.708-1.122-3.5-1.759-5.223l0-.01.013-.039s-.009.007-.013.007.01-.012.02-.03.017-.051.025-.078c.038-.13.038-.075.02,0,.036-.069.075-.147.083-.159.036-.061.078-.117.115-.177.131-.207-.06.038-.057.069-.01-.123.464-.475.545-.549.006,0,.006-.006.01-.009l.069-.04c.128-.079.256-.154.387-.228l.05-.03c.112-.034.221-.078.335-.108.041-.01.082-.019.123-.028,0-.006.01-.012.056-.013l.026-.006-.006.006h.007a1.662,1.662,0,0,0,.243,0l.06.012a.784.784,0,0,0,.153.045h0c.046.03.094.063.132.09l0,0a1.5,1.5,0,0,0,.156.143,12.126,12.126,0,0,1,1.029,1.112l.049.058.008.011c.078.106.156.212.233.319q.249.352.478.715a22.768,22.768,0,0,1,1.566,2.992c.034.076.067.153.1.23l0,.008c.024.059.112.271.126.3q.166.413.324.829.33.871.624,1.755c.381,1.137.726,2.284,1.057,3.436.608,2.117,1.159,4.251,1.832,6.35a137.645,137.645,0,0,1,3.884,16.218c.855,4.466,1.638,8.948,2.55,13.4.24,1.169.485,2.337.747,3.5a90.571,90.571,0,0,0,5.032,16.191q.4.922.829,1.829a1.617,1.617,0,0,0,2.162.6,35.356,35.356,0,0,0-1.349-3.668,35.356,35.356,0,0,1,1.349,3.668c.012-.008.028-.012.041-.02a1.654,1.654,0,0,0,.578-2.2q-.446-.94-.858-1.9l-.065-.151c-.012-.028-.024-.055-.026-.06q-.1-.234-.193-.467-.206-.5-.4-1.009c-.52-1.34-.995-2.7-1.435-4.065-.453-1.41-.866-2.832-1.251-4.261,4.123-3.1,7.08-8.148,9.875-12.361,2.2-3.309,4.319-6.674,6.34-10.093a1.779,1.779,0,0,0-1.5-2.658c-1.573,2.654-3.667,5.048-4.584,8.029.917-2.982,3.011-5.376,4.584-8.029a1.632,1.632,0,0,0-1.589.852c-1.885,3.189-3.861,6.328-5.9,9.422-1.615,2.455-3.271,4.889-5.049,7.23a33.867,33.867,0,0,1-3.142,3.775c-.02-.085-.042-.17-.062-.256-1.343-5.764-2.34-11.6-3.441-17.413a143.345,143.345,0,0,0-3.96-16.759c-1.141-3.589-2.007-7.262-3.252-10.812a26.357,26.357,0,0,0,7.248-5.118c.032,1.132.092,2.263.156,3.389.139,2.414.329,4.828.664,7.224a1.613,1.613,0,0,0,1.864,1.154,5.084,5.084,0,0,1-.288-2.206c.621.311.435,1.428,1.31,1.484a1.939,1.939,0,0,0,.222-1.254c.006.04.007.048,0-.031V159.6h0c-.015-.125-.031-.251-.047-.376q-.042-.356-.081-.711c-.061-.566-.115-1.134-.164-1.7q-.16-1.847-.262-3.7c-.1-1.795-.189-3.6-.169-5.4a8.206,8.206,0,0,1-4.382.257,8.206,8.206,0,0,0,4.382-.257c.006-.472.017-.944.039-1.416a1.3,1.3,0,0,0-.02-.263,31.932,31.932,0,0,0,2.224-3.645,47.109,47.109,0,0,0,4.325-12.305,6.741,6.741,0,0,0,3.128.781,6.651,6.651,0,0,0,4.364-1.6,1.935,1.935,0,0,0-.073.483A14.6,14.6,0,0,1,143.5,143.426c-1.762.382-1.558,2.584-.306,3.283a21.054,21.054,0,0,0,1.945-1.247,21.054,21.054,0,0,1-1.945,1.247,1.761,1.761,0,0,0,1.257.166,17.456,17.456,0,0,0,7.781-3.962c-1.395.391-2.84.7-4.231,1.118,1.392-.417,2.837-.727,4.231-1.118a18.279,18.279,0,0,0,6.267-13.165,1.733,1.733,0,0,0-2.468-1.595,7.52,7.52,0,0,0,1.456-3.659,2.943,2.943,0,0,0,0-1.073,7.561,7.561,0,0,0-1.145-3.22,14.532,14.532,0,0,0,3.722-10.165c-.087-5.436-3.331-11.173-9.445-10.725a1.779,1.779,0,0,0-1.154.509,12.5,12.5,0,0,0,1.5,3.055c3.986-.066,5.544,3.93,5.522,7.482a10.54,10.54,0,0,1-2.8,7.427,6.68,6.68,0,0,0-3.053-.731,6.842,6.842,0,0,0-4.641,1.849,1.611,1.611,0,0,0-.995,1.131,6.854,6.854,0,0,0-1.268,3.925,6.669,6.669,0,0,0,.723,3.02c-1.411,9.863-5.976,19.963-14.946,24.523-.109.055-.222.1-.331.156a17.518,17.518,0,0,0-3.716-5.579,4.252,4.252,0,0,0-4.075-1.132,5.478,5.478,0,0,0-2.424,1.358,4.5,4.5,0,0,0-4.852-1.577c-3.073.842-4.093,4.127-4.006,7a3.893,3.893,0,0,0-1.473.578,4.209,4.209,0,0,0-.837-.088,29.391,29.391,0,0,1-14.253-10.577c-3.125-4.524-4.477-10.012-5.176-15.509a7.678,7.678,0,0,0,.374-1.635,2.908,2.908,0,0,0,0-1.073,7.6,7.6,0,0,0-.9-2.816c-.021-.3-.042-.593-.062-.887a1.875,1.875,0,0,0-2.363-1.667,6.661,6.661,0,0,0-5.384-.729,14.64,14.64,0,0,1-2.808-9.138c.041-2.218.535-4.745,2.149-6.382,1.79-1.816,4.3-1.494,6.515-.716,2.176.766,3.112-2.689.951-3.449-.4-.14-.793-.256-1.186-.353-.1.784-.18,1.579-.247,2.387.067-.808.147-1.6.247-2.387-4.931-1.214-9.41.941-11.2,6a18.051,18.051,0,0,0,2.151,15.4c.115.167.234.332.355.494a6.866,6.866,0,0,0,4.928,11.685,6.654,6.654,0,0,0,3.44-.943,35.463,35.463,0,0,0,4.148,12.005,29.4,29.4,0,0,0,3.8,5.027,11.174,11.174,0,0,1-11.8-12.753c.278-2.281-3.3-2.26-3.577,0a14.307,14.307,0,0,0,1.489,8.313c-3.207-.487-6.291-3.033-8.406-5.234-2.964-3.085-3.694-6.492-3.47-10.723.524-9.927,4.416-19.495,6.951-29.009C76.729,89,77.464,80.136,80.608,71.813A42.674,42.674,0,0,1,96.036,51.77c7.116-4.948,16.144-7.808,24.821-6.237a25.189,25.189,0,0,1,8.92,3.33c.916.552,1.764,1.379,2.708,1.86a7.782,7.782,0,0,0,1.784.459,30.413,30.413,0,0,1,4.133,1.289,20.713,20.713,0,0,1,9.266,6.969,52.642,52.642,0,0,1,6.5,12.049c3.6,9.071,5.385,18.676,7.555,28.15,1.146,5,2.286,10,3.218,15.049.848,4.593,2.052,9.359.576,13.942a19.2,19.2,0,0,1-9.048,10.507,1.611,1.611,0,0,0-.621,2.356,8.421,8.421,0,0,0,2.169-1.754,8.421,8.421,0,0,1-2.169,1.754,1.776,1.776,0,0,0,2.427.733,23.326,23.326,0,0,0,9.42-9.6,19.158,19.158,0,0,0,1.911-11.51m-60.521,41.516-.048-.025a.117.117,0,0,1,.048.025m44.873-38.675c-.2,4.261-6.636,4.306-6.654,0s6.451-4.264,6.654,0m-31.148,24.1c-.058-.012-.118-.026-.1-.039s.052.01.1.039m-.243-.045c-.039,0-.074,0-.079-.019a.524.524,0,0,0,.079.019m-.618.113a.232.232,0,0,1-.073.03.177.177,0,0,1,.073-.03m-11.279,6.732s-.014,0-.032,0c.018,0,.031-.007.032,0m-32.117-30.9c-.017-4.3,6.451-4.264,6.653,0-.2,4.261-6.636,4.306-6.653,0" transform="translate(-24.544 -15.969)" fill="#262626"/>
    <path id="Path_1688" data-name="Path 1688" d="M203.688,139.255c.118-.009.233-.012.347-.015a12.5,12.5,0,0,1-1.5-3.055c-1.028,1.023-.652,3.2,1.155,3.069" transform="translate(-77.614 -52.335)" fill="#262626"/>
    <path id="Path_1689" data-name="Path 1689" d="M187.714,232.975a5.078,5.078,0,0,0,.288,2.206c.039-.009.078-.017.116-.03a1.586,1.586,0,0,0,.905-.693c-.874-.057-.689-1.174-1.31-1.484" transform="translate(-72.128 -89.529)" fill="#262626"/>
    <path id="Path_1690" data-name="Path 1690" d="M153.2,322.823l0-.006v0l0,.008" transform="translate(-58.87 -124.054)" fill="#262626"/>
    <path id="Path_1691" data-name="Path 1691" d="M153.2,322.826l0-.007,0,.006h0" transform="translate(-58.87 -124.055)" fill="#262626"/>
    <path id="Path_1692" data-name="Path 1692" d="M104.321,300.273c-.076.233-.147.467-.226.7q-.459,1.348-.988,2.672c-.073.184-.148.367-.223.55-.041.1-.084.2-.125.3l-.018.042q-.266.623-.541,1.243c-1.531,3.431-3.266,6.767-4.794,10.2q-.713,1.6-1.38,3.224a1.614,1.614,0,0,0,1.124,1.981,1.883,1.883,0,0,0,.3.041,10.665,10.665,0,0,0,.985-2.647,10.665,10.665,0,0,1-.985,2.647,1.674,1.674,0,0,0,1.68-1.166l.195-.468.052-.124q.149-.352.3-.7.329-.759.667-1.513.621-1.382,1.271-2.748c.77-1.626,1.566-3.241,2.335-4.867a75.168,75.168,0,0,0,3.314-8.028,17.866,17.866,0,0,1-2.942-1.339" transform="translate(-36.87 -115.391)" fill="#262626"/>
    <path id="Path_1693" data-name="Path 1693" d="M153.207,322.852v0l0,0" transform="translate(-58.875 -124.066)" fill="#262626"/>
    <path id="Path_1694" data-name="Path 1694" d="M153.2,322.829l0-.006,0-.008.006.014" transform="translate(-58.87 -124.054)" fill="#262626"/>
    <path id="Path_1695" data-name="Path 1695" d="M138.559,239.415l-.062-.086-.006-.007c.045.064.065.091.068.094" transform="translate(-53.22 -91.968)" fill="#262626"/>
    <path id="Path_1696" data-name="Path 1696" d="M135.888,238.064l-.115.038-.007,0h0a.4.4,0,0,0,.122-.041" transform="translate(-52.173 -91.485)" fill="#262626"/>
    <path id="Path_1697" data-name="Path 1697" d="M132.529,349.744l.036-.044.055-.077c-.181.2-.171.209-.126.164l.035-.042" transform="translate(-50.905 -134.356)" fill="#262626"/>
    <path id="Path_1698" data-name="Path 1698" d="M237.82,327.914c-1.3,9.2.076,18.308,1.6,27.391.379,2.265,3.827,1.3,3.45-.951-1.4-8.392-2.8-16.979-1.6-25.488.319-2.252-3.127-3.225-3.45-.951" transform="translate(-91.191 -125.515)" fill="#262626"/>
    <path id="Path_1699" data-name="Path 1699" d="M6.552,74.464q.153.093.3.193c.036.025.1.062.151.094a3.093,3.093,0,0,1,.58.526c.021.022.083.077.137.132l.029.048c.039.06.082.119.12.18a7.182,7.182,0,0,1,.36.672l.011.023c0,.007,0,.009.006.017.055.15.112.3.163.449a21.8,21.8,0,0,1,.794,3.563c.207,1.3.358,2.616.647,3.9a1.611,1.611,0,0,0,3.105,0A62.04,62.04,0,0,1,14.345,77.3c.086-.282.178-.563.279-.84.042-.115.087-.229.132-.344v0c.024-.054.047-.107.072-.16.112-.241.233-.477.368-.706q.083-.141.172-.278c.065-.1.321-.389.107-.161.2-.217.4-.43.619-.632.02-.018.03-.028.041-.039l.023-.015c.136-.094.272-.185.414-.27a6.978,6.978,0,0,1,.668-.344c.036-.014.122-.049.19-.073.16-.058.321-.111.484-.161a15.433,15.433,0,0,1,2.057-.451c.178-.028.356-.054.534-.079l.028,0,.15-.02c.382-.049.765-.1,1.148-.144a1.61,1.61,0,0,0,0-3.22c-.552-.022-1.1-.052-1.653-.1-.266-.023-.53-.056-.8-.082h-.013l-.086-.012q-.229-.034-.457-.075a12.681,12.681,0,0,1-1.581-.381c-.227-.071-.449-.155-.672-.241l-.123-.057c-.132-.063-.262-.129-.39-.2-.218-.12-.425-.256-.633-.393l-.05-.032-.019-.017c-.111-.095-.221-.19-.327-.291s-.209-.207-.308-.316c-.046-.05-.111-.129-.137-.158a7.771,7.771,0,0,1-.476-.722c-.145-.25-.267-.509-.393-.767-.02-.052-.041-.1-.06-.157q-.087-.235-.162-.473A13.7,13.7,0,0,1,13.1,63.14c-.009-.074-.018-.148-.025-.221-.018-.17-.034-.34-.047-.51-.023-.3-.038-.594-.05-.892l.015-.225a1.275,1.275,0,0,0-.033-.362c-.014-.576-.018-1.153-.018-1.73a1.61,1.61,0,1,0-3.22,0c0,.751.006,1.507.038,2.26q-.061.945-.158,1.886c-.006.045-.01.077-.012.1-.008.053-.015.106-.024.159-.021.134-.043.267-.068.4-.056.3-.121.6-.2.9s-.173.568-.272.849l-.017.05L9,65.832c-.072.15-.143.3-.224.446-.129.234-.28.451-.427.673-.039.047-.078.095-.118.141-.1.113-.2.222-.309.326-.071.07-.148.133-.223.2-.045.033-.142.107-.181.132a6.812,6.812,0,0,1-.775.425l-.012.006c-.068.026-.136.052-.2.077q-.187.067-.376.126c-.3.094-.608.174-.916.243s-.637.132-.957.185c-.14.023-.28.045-.419.066l-.211.03-.066.009c-.659.081-1.32.153-1.98.231a1.612,1.612,0,0,0-.428,3.162c1.083.4,2.185.736,3.263,1.145.14.054.281.108.42.164.083.033.492.216.148.059.268.122.538.24.8.373s.507.267.752.416M10.195,69.7a7.32,7.32,0,0,0,1.244-1.609,8.409,8.409,0,0,0,3.389,3.083,7.405,7.405,0,0,0-1.1.818,8.756,8.756,0,0,0-2.281,3.75,7.144,7.144,0,0,0-1.9-3.045A9.9,9.9,0,0,0,7.5,71.322,7.42,7.42,0,0,0,10.195,69.7" transform="translate(0 -22.131)" fill="#262626"/>
    <path id="Path_1700" data-name="Path 1700" d="M229.726,13.2c1.049.328,2.111.61,3.157.945q.811.259,1.6.57l.039.015.044.02c.113.052.227.1.339.157.252.122.5.254.742.4a2.07,2.07,0,0,1,.57.38s-.237-.21-.11-.081c.038.038.084.07.123.105q.139.123.266.257c.047.049.089.107.139.154l.015.013c.035.059.068.118.078.134a6.507,6.507,0,0,1,.353.659l.03.068.017.048c.042.116.086.233.126.35.089.263.167.529.238.8.148.554.267,1.116.374,1.68.225,1.187.382,2.392.69,3.563a1.622,1.622,0,0,0,3.1,0,43.579,43.579,0,0,1,1.483-6.254c.045-.119.093-.236.139-.355-.1.261-.025.06.036-.072.11-.236.23-.468.361-.693.068-.117.14-.232.216-.345a1.1,1.1,0,0,0,.077-.131,3.294,3.294,0,0,1,.487-.493c.033-.03.184-.147.214-.174l.155-.1a7.45,7.45,0,0,1,.719-.393l.018-.009.132-.053c.123-.046.246-.089.371-.131.276-.09.555-.167.837-.236.313-.076.629-.14.945-.2.162-.029.324-.055.486-.08l.307-.044c.682-.086,1.364-.156,2.047-.23a1.61,1.61,0,1,0,0-3.22c-.7-.024-1.4-.058-2.1-.12q-.281-.025-.56-.055l-.269-.032c-.318-.049-.634-.1-.949-.165a12.353,12.353,0,0,1-1.8-.521c-.07-.031-.274-.116-.316-.137-.132-.065-.263-.134-.39-.207s-.252-.149-.374-.23c-.057-.038-.319-.254-.275-.21a6.312,6.312,0,0,1-.524-.511c-.057-.065-.113-.132-.167-.2l-.054-.073c-.108-.163-.219-.324-.318-.493s-.178-.337-.269-.5c-.018-.034-.031-.055-.04-.071s-.011-.033-.022-.062a9.4,9.4,0,0,1-.329-1.063c-.066-.275-.116-.553-.159-.832,0-.049-.038-.35-.042-.4-.017-.188-.03-.377-.041-.566,0-.049,0-.1,0-.147l.015-.2a1.222,1.222,0,0,0-.034-.376q-.018-.72-.017-1.44a1.61,1.61,0,1,0-3.22,0c0,.65.006,1.31.038,1.97-.021.281-.042.563-.07.845-.014.138-.029.275-.044.413l-.007.075c0,.01,0,.02-.006.033a10.854,10.854,0,0,1-.365,1.626c-.041.128-.089.253-.137.379-.017.038-.042.094-.069.149a5.729,5.729,0,0,1-.369.638c-.034.05-.069.1-.1.149l-.022.027c-.088.1-.171.2-.262.288s-.189.19-.289.278c-.034.031-.069.059-.1.089-.228.137-.443.285-.682.4-.032.016-.182.081-.22.1-.095.036-.188.073-.284.106a11.957,11.957,0,0,1-1.724.435c-.281.052-.563.095-.845.135l-.227.029c-.171.02-.34.039-.511.058-.656.071-1.313.13-1.97.2a1.612,1.612,0,0,0-.428,3.162m6.819,2.793c.017,0,.055.054.093.115-.044-.047-.105-.115-.093-.115m2.013-4.876a7.025,7.025,0,0,0,1.581-1.72,8.216,8.216,0,0,0,3.087,2.628c-.093.06-.187.119-.277.184a8.258,8.258,0,0,0-2.794,3.816c-.057-.15-.107-.3-.171-.451A6.388,6.388,0,0,0,237.71,12.8a8.578,8.578,0,0,0-1.061-.63,7.547,7.547,0,0,0,1.909-1.058" transform="translate(-87.832 0)" fill="#262626"/>
    <path id="Path_1701" data-name="Path 1701" d="M57.4,476.805a75.465,75.465,0,0,1,.371,31.754,1.578,1.578,0,0,0,1.075,1.893,1.554,1.554,0,0,0,1.893-1.075,79.193,79.193,0,0,0-.371-33.391c-.44-1.931-3.409-1.114-2.968.818" transform="translate(-22.04 -182.492)" fill="#262626"/>
    <path id="Path_1702" data-name="Path 1702" d="M241.16,513.23a29.357,29.357,0,0,0-3.776-7.12,37.469,37.469,0,0,1-3.989-6.693,24.557,24.557,0,0,1-1.407-8.738c-.07-3.258-.069-6.518-.1-9.777l-.1-11.131a1.54,1.54,0,0,0-3.079,0c.062,6.636.1,13.272.187,19.907a33.031,33.031,0,0,0,1.089,9.293,28.247,28.247,0,0,0,3.846,7.368c1.648,2.445,3.428,4.884,4.362,7.71.619,1.872,3.593,1.07,2.968-.818" transform="translate(-87.889 -179.956)" fill="#262626"/>
  </g>
</svg>
