<svg id="Group_915" data-name="Group 915" xmlns="http://www.w3.org/2000/svg" xmlns:xlink="http://www.w3.org/1999/xlink" width="226.047" height="282.978" viewBox="0 0 226.047 282.978">
  <defs>
    <clipPath id="clip-path">
      <rect id="Rectangle_949" data-name="Rectangle 949" width="226.047" height="282.977" fill="none"/>
    </clipPath>
  </defs>
  <g id="Group_812" data-name="Group 812" clip-path="url(#clip-path)">
    <path id="Path_1703" data-name="Path 1703" d="M152.1,245.472a21.863,21.863,0,0,1,.351-6.251c.052-.351.1-.705.15-1.061-1.6-1.861-3.287-3.763-3.469-6.313a9.267,9.267,0,0,1,.71-3.946c-1.353.789-2.753,1.552-4.014,2.442a1.812,1.812,0,0,1-.247,3.368,33.834,33.834,0,0,0-5.828,2.346c-2.354,1.111-4.66,2.322-6.936,3.585a15.531,15.531,0,0,0-5.911,4.942c-3,4.537-4.218,10.286-5.957,15.374-1.906,5.58-3.872,11.148-5.982,16.657-.344.022-.689.05-1.035.092-2.135.267-3.081,2.911-4.309,5.432q.345,1.171.707,2.335-.622,2.289-1.308,4.55a1.736,1.736,0,0,1-1.39-1.211c-2.367-7.084-4.091-14.418-5.907-21.659a1.686,1.686,0,0,1,.727-1.9,7.8,7.8,0,0,0-1.431-.919,1.582,1.582,0,0,1,.094,2.525c-3.952,3.419-9.11,5.355-14.17,6.421a36.117,36.117,0,0,1-17.6-.3,1.666,1.666,0,0,1-1.2-1.207,2,2,0,0,1-.1-.3l-.108-.441a7.034,7.034,0,0,0-1.666.931,1.556,1.556,0,0,1,1.189,1.238q3.269,13.867,6.085,27.834c1.39,6.844,2.61,13.732,4.165,20.541,1.353,5.92,2.96,12.048,6.213,17.244a15.232,15.232,0,0,0,4.709,5.112,17.376,17.376,0,0,0,5.421,1.877c5.053,1.031,10.781.5,14.318-3.629,1.159-1.351,2.919-.157,2.994,1.261.852-1.9,1.376-4.237,2.2-5.728,2.875-5.39,3.953-11.5,7.546-17.249,7.547-11.5,15.453-22.281,18.687-35.577-4.214-1.229-8.342-3.229-12.51-4.829l3.141-2.122q.3-8.469.6-16.936c.117-3.282.226-6.68,3.8-7.979a13.81,13.81,0,0,1,4.158-.571c1.271-.055,2.837-.129,3.463-1.406,1.02-2.078,4.118-.255,3.1,1.814-1.223,2.492-4.029,3.076-6.566,3.186-1.272.055-3.185-.109-3.934,1.137-.792,1.319-.424,3.748-.477,5.238q-.23,6.468-.46,12.936a4.374,4.374,0,0,1,3.021-.941,2.881,2.881,0,0,1,1.6.879l3.694-2.734c.4-1.3,1-2.572,1.451-3.83a1.727,1.727,0,0,1-1.015-2.052c1.541-6.347,4.683-12.105,8.293-17.5a1.748,1.748,0,0,1,1.559-.814,1.937,1.937,0,0,1,.218-.712,1.4,1.4,0,0,1-.843-1.189m-4.959-4.342-6.164,8.78c-1.32,1.881-4.435.083-3.1-1.814l6.164-8.78c1.321-1.881,4.435-.083,3.1,1.814" transform="translate(-31.631 -108.776)" fill="#6cc0c1"/>
    <path id="Path_1704" data-name="Path 1704" d="M299.384,204.729a1.625,1.625,0,0,1-2.581-.995q-.3-1.571-.6-3.14c-5.73,2.735-11.546,5.3-17.2,8.178a121.3,121.3,0,0,0-15.993,9.819c1.572,2.154,2.512,5.159,4.2,6.635a1.945,1.945,0,0,1,.267.283,5.584,5.584,0,0,0-1.119-2.084,5.584,5.584,0,0,1,1.119,2.084,1.471,1.471,0,0,1,.31.763,4.938,4.938,0,0,0,.277.523c.182-.2.363-.393.549-.585,5.87-6.062,13.438-10.651,20.626-14.963,3.414-2.047,6.87-4.037,10.378-5.928a4.9,4.9,0,0,1-.238-.59" transform="translate(-125.533 -95.742)" fill="#fff"/>
    <path id="Path_1705" data-name="Path 1705" d="M251.536,265.315c3.2-5.139,6.373-10.622,10.5-15.073a4.849,4.849,0,0,1-.277-.524,1.9,1.9,0,0,1-3.118,1.5,7.334,7.334,0,0,1-.977-1.063c-2.581,3.416-4.688,7.175-7.288,10.577a1.8,1.8,0,0,1,.4.736,24.91,24.91,0,0,1,.757,3.85" transform="translate(-119.505 -119.189)" fill="#fff"/>
    <path id="Path_1706" data-name="Path 1706" d="M232.251,363.584l-.44-.681-24.344-37.695-14.044-21.745-4.254-6.588c-.371-.574-.89-1.846-1.437-1.748-.322.058-.844.625-1.1.814l-2.331,1.725-7.633,5.648-8.195,6.065a8.406,8.406,0,0,1,1.626,3.345c.253,2.335-2.123,3.429-3.752,4.53l-7.964,5.381-12.7,8.578a1.721,1.721,0,0,1-.785.3c-1.733.505-2.816-.643-3.685-1.964l-7.9,5.844-6.742,4.989a17.685,17.685,0,0,0-1.726,1.277c-.462.442-.475.128-.261.692a10.122,10.122,0,0,0,1.115,1.7l2.638,4.011,7.513,11.424,10.694,16.262a1.88,1.88,0,0,1,.237.507,5.954,5.954,0,0,1,2.312-1.6c2.281-.9,4.921-.861,7.331-1.05l8.812-.69c4.685-.366,10.576-1.664,14.629,1.453a15.309,15.309,0,0,1,3.852,5.232c1.014,1.9,2.358,4.506,4.806,4.619a1.9,1.9,0,0,1,.655.145l.032-.013L193.8,382.9c0-.065,0-.13.006-.2a1.868,1.868,0,0,1,1.319-1.733l3.949-1.352q19.27-6.6,38.537-13.205l-2.314-2.756a1.863,1.863,0,0,1-3.045-.076" transform="translate(-59.402 -140.86)" fill="#fff"/>
    <path id="Path_1707" data-name="Path 1707" d="M204.824,458.184c-1.491-1.923-2.246-4.323-3.795-6.2-1.843-2.227-4.645-2.262-7.312-2.111-3.091.176-6.18.475-9.267.717s-6.221.389-9.309.732c-2.15.239-5.14,1.332-3.124,3.929,1.557,2.005,4.68,1.8,6.938,1.813,2.675.01,5.262.18,7.651,1.492a1.992,1.992,0,0,1,.3.206l2.138-1.083c2.061-1.043,3.878,2.058,1.814,3.1l-11.805,5.977c-2.061,1.043-3.877-2.058-1.814-3.1l5.48-2.774c-2.409-.572-5.053-.257-7.537-.483a1.654,1.654,0,0,1-.571,2.455,3.82,3.82,0,0,0,.57,7.1c1.293.4,2.594.507,3.374,1.78.866,1.414.168,2.577-.34,3.941-.643,1.728,1.091,3.018,1.579,4.57a7.068,7.068,0,0,1,.078,3.283c-.126.754-.5,1.511-.585,2.258a7.3,7.3,0,0,0,.757,3.1,6.94,6.94,0,0,0,2.719,3.832A10.554,10.554,0,0,0,187.651,494c8.027.456,15.917-2.591,23.493-4.826a1.741,1.741,0,0,1,2.213,1.886A12.652,12.652,0,0,1,217,489.517c-3.461-8.9-6.564-18.343-6.719-27.926a8.224,8.224,0,0,1-5.454-3.407" transform="translate(-81.784 -214.699)" fill="#fff"/>
    <path id="Path_1708" data-name="Path 1708" d="M342.049,337.011c-.927-10.378-2.018-20.741-3.354-31.074-2.05-15.86-4.755-31.62-7.686-47.338-.391-2.1-.795-4.189-1.181-6.286a40.253,40.253,0,0,0-1.453-6.712c-1.227-3.322-3.732-6.106-6.325-8.44a61.105,61.105,0,0,0-18.7-10.977,1.9,1.9,0,0,1-1.173-2.174,1.463,1.463,0,0,1-1.026-.9l-4.079-9.118q-1.565.833-3.118,1.687A204.162,204.162,0,0,0,273.334,228.4a54.283,54.283,0,0,0-8.767,7.448c-4.029,4.454-7.1,9.9-10.291,14.962a1.776,1.776,0,0,1-2.546.518,1.524,1.524,0,0,1-.371.638c-.282.564-.543,1.135-.773,1.712a4.975,4.975,0,0,1,.666.768c2.182,3.078,4.153,6.334,6.172,9.533a33.511,33.511,0,0,1,6.885-7.368c2.444-1.825,5.216-3.16,7.785-4.795a47.765,47.765,0,0,0,5.649-4.057c1.894-1.64,2.792-3.484.619-5.332-3.269-2.78-8.045-3.633-8.479-8.69-.2-2.308,3.4-2.287,3.594,0,.2,2.319,3.27,3.424,4.981,4.423a9.991,9.991,0,0,1,4.415,4.35c2.117,4.9-3.109,8.374-6.525,10.775-2.871,2.018-5.992,3.593-8.918,5.514a29.775,29.775,0,0,0-7.7,8.1,2.028,2.028,0,0,1-.252.294L273.69,289.19l21.865,33.856a1.544,1.544,0,0,1-.058,1.89l2.314,2.756,6.933-2.376c2.2-.753,3.131,2.72.955,3.466l-14.4,4.936q-16.864,5.78-33.729,11.554c0,5.557,1.679,11.1,3.463,16.3,1.985,5.787,4.421,11.4,6.9,16.99a1.984,1.984,0,0,1,.138.446c7.1-1.721,14.191-3.511,21.236-5.46,11.26-3.115,22.374-6.7,33.422-10.5,4.68-1.607,10.3-2.748,14.1-6.145,3.938-3.527,5-8.654,4.9-13.749a1.791,1.791,0,0,1,2.891-1.391,14.288,14.288,0,0,0,.283-3.249,1.95,1.95,0,0,1-2.85-1.5m-59.088-99.174c-1.288,1.909-4.4.108-3.1-1.814l9.091-13.467c1.288-1.908,4.4-.108,3.1,1.814l-9.091,13.467m16.6,82.432-1.137-6.087-8.033-43c-.423-2.264,3.041-3.226,3.466-.955L295,276.315q4.017,21.5,8.033,43c.423,2.264-3.041,3.226-3.466.956M297.8,244.01c-3.568,4.616-4.988,10.487-5.2,16.224-.086,2.309-3.68,2.313-3.594,0,.245-6.563,1.914-13.154,5.987-18.419a22.891,22.891,0,0,1,14.4-8.581c2.266-.377,3.231,3.086.956,3.466A19.674,19.674,0,0,0,297.8,244.01m21.674,81.1a28.255,28.255,0,0,0-12.947-3.294c-2.315-.03-2.314-3.624,0-3.594a32.249,32.249,0,0,1,14.761,3.784c2.047,1.084.229,4.185-1.814,3.1" transform="translate(-119.604 -102.136)" fill="#6cc0c1"/>
    <path id="Path_1709" data-name="Path 1709" d="M229.782,277.043a21.1,21.1,0,0,0-.8-5.4,1.646,1.646,0,0,1,.188-1.4,1.823,1.823,0,0,1-.264-.267,1.636,1.636,0,0,1-1.658-.058,6.347,6.347,0,0,0-3.172-.879,1.808,1.808,0,0,1-.266.6c-3.447,5.149-6.459,10.578-7.931,16.639a1.68,1.68,0,0,1-2.45,1.1c-.449,1.258-1.056,2.528-1.452,3.83l8.8-6.515,5.851-4.33c1.772-1.311,3.844-1.967,5.525-.4.231-.577.491-1.148.773-1.712a1.841,1.841,0,0,1-3.151-1.2" transform="translate(-101.177 -128.408)" fill="#6cc0c1"/>
    <path id="Path_1710" data-name="Path 1710" d="M332.6,206.679a4.882,4.882,0,0,0,.238.59c.572-.308,1.148-.606,1.723-.908-.367-.559-.714-1.124-1.086-1.68,0,.016.006.032.009.05a1.811,1.811,0,0,1-.884,1.95" transform="translate(-158.747 -97.692)" fill="#6cc0c1"/>
    <path id="Path_1711" data-name="Path 1711" d="M281.667,104.782a9.721,9.721,0,0,0-.1-5.934c-.762-1.971-3.334-4.514-5.434-2.786A1.925,1.925,0,0,1,273,94.442a6.86,6.86,0,0,1-.982-.789,1.479,1.479,0,0,1-1.913.059c-5.731-3.989-8.352-10.134-9.365-16.881a1.866,1.866,0,0,1,.659-1.749,11.812,11.812,0,0,0-1.546-1.163,1.615,1.615,0,0,1-2.453-.567c-.154-.3-.32-.583-.489-.865a35.893,35.893,0,0,0-9.763-1.8,1.779,1.779,0,0,1-2.228,1.82,23.567,23.567,0,0,0-19.105,3.162,1.569,1.569,0,0,1-2.263-.453c-1.138.98-2.278,1.843-3.79,1.753a14.265,14.265,0,0,0,.789,1.676,1.841,1.841,0,0,1-1.769,2.692c.053.74.115,1.48.172,2.22a1.423,1.423,0,0,1,1.323,1.292c1.088,6.677,1.04,13.536,1.269,20.28.2,5.883.128,12.067,1.758,17.771,1.869,6.537,6.218,12.578,12.561,15.378,5.269,2.326,11.575,1.428,16.8-.561,5.238-2,10.271-5.621,12.525-10.9.906-2.123,4-.29,3.1,1.814-2.794,6.543-9.457,10.859-15.994,13.02-5.845,1.931-12.543,2.341-18.243-.271-.352-.162-.7-.338-1.039-.516V143.2a1.7,1.7,0,0,1,1.85,1.733c0,1.362-.069,2.721-.072,4.082,0,.055,0,.108-.008.16,1.569,1.423,3.123,2.865,4.7,4.269a1.969,1.969,0,0,1,.264.286,121.384,121.384,0,0,1,16.333-10.062c5.46-2.782,11.067-5.265,16.6-7.893a8.237,8.237,0,0,1-.075-1,1.617,1.617,0,0,1-1.544-1.723q.233-8.047.466-16.093a1.686,1.686,0,0,1,.868-1.485c-1.232-.927-.9-3.347,1-3.242,4.313.238,7.247-3.624,8.266-7.445m-44.242,6.355a1.84,1.84,0,0,1,1.271-.526l.837.017a1.9,1.9,0,0,1,1.27.526,1.8,1.8,0,0,1,0,2.541,1.841,1.841,0,0,1-1.27.526l-.837-.017a1.9,1.9,0,0,1-1.271-.526,1.8,1.8,0,0,1,0-2.541m-5.852-13.494a1.8,1.8,0,0,1,0-3.594,1.8,1.8,0,0,1,0,3.594m20.911.739a1.8,1.8,0,0,1,0-3.594,1.8,1.8,0,0,1,0,3.594" transform="translate(-104.425 -33.738)" fill="#fff"/>
    <path id="Path_1712" data-name="Path 1712" d="M221.453,44.959a14.6,14.6,0,0,0-1.715,13.817c1.511.09,2.651-.773,3.79-1.752a1.834,1.834,0,0,1,.449-2.65,27.146,27.146,0,0,1,21.875-3.525,1.627,1.627,0,0,1,1.273,1.646,35.891,35.891,0,0,1,9.763,1.8c-3.011-5.018-8.34-7.621-14-8.753a38.529,38.529,0,0,0-8.706-.669c-2.7.081-6.589.356-8.043,3.028-1.108,2.034-4.209.218-3.1-1.813,1.858-3.413,5.972-4.428,9.564-4.724a41.113,41.113,0,0,1,10.326.542c7.159,1.238,14.1,4.782,17.55,11.441a1.79,1.79,0,0,1-.65,2.38,11.769,11.769,0,0,1,1.546,1.163c.949-.8,2.577-.733,2.806.793.86,5.726,2.781,11.3,7.713,14.734a1.924,1.924,0,0,1,.1,3.045,6.824,6.824,0,0,0,.982.789,1.569,1.569,0,0,1,.583-.921,6.324,6.324,0,0,1,7.517-.551c.274-.4.577-.8.813-1.223-1.157,1.148-3.619.186-3.016-1.708,1.592-4.993,2.993-10.283,2.673-15.57a11.724,11.724,0,0,0-2.1-6.489,9.788,9.788,0,0,0-6.243-3.332,1.894,1.894,0,0,1-2.976-1.869c1.478-7.438-7.115-10.655-12.94-11.566a46.266,46.266,0,0,0-15.424.467c-5.423,1-11.061,2.517-15.744,5.521a1.646,1.646,0,0,1-2.477-.836,22.464,22.464,0,0,0-4.236,4.236c1.415-.351,3.1,1.072,2.05,2.553" transform="translate(-104.397 -15.546)" fill="#6cc0c1"/>
    <path id="Path_1713" data-name="Path 1713" d="M255.083,470.215l-2.39.755c.1,9.611,3.357,19.09,6.852,27.984l4.105-1.263c-1.83-4.235-3.58-8.505-5.078-12.871a60.739,60.739,0,0,1-3.489-14.6" transform="translate(-120.609 -224.431)" fill="#fff"/>
    <path id="Path_1714" data-name="Path 1714" d="M242.579,226.836l-5.8-5.176a11.95,11.95,0,0,1-1.571-1.4,1.227,1.227,0,0,1-.412-.225c-.31.711-.737,1.4-1.085,2.078-.85,1.652-2.231,3.79-2.1,5.735a4.568,4.568,0,0,0,.934,2.282,7.3,7.3,0,0,1,.442-.831c2.305-3.7,6.078-3.673,9.593-2.462" transform="translate(-110.542 -105.021)" fill="#fff"/>
    <path id="Path_1715" data-name="Path 1715" d="M241.311,252.7c2.362-3.237,4.366-6.734,6.8-9.917a1.864,1.864,0,0,1,1.265-.74c-.215-.409-.428-.816-.642-1.213a1.642,1.642,0,0,1-1.508-.133c-2.961-1.734-8.063-4.177-9.415.7-.079.286-.145.579-.2.875a1.935,1.935,0,0,1-.295,1.915c-.056.441-.111.88-.173,1.309a15.239,15.239,0,0,0-.314,4.1,1.875,1.875,0,0,1-.3,1.327,10.072,10.072,0,0,1,4.251,1.334,1.837,1.837,0,0,1,.529.453" transform="translate(-112.894 -113.848)" fill="#6cc0c1"/>
    <path id="Path_1716" data-name="Path 1716" d="M333.222,123.413a11.668,11.668,0,0,0-1.72-8.525c-2.465-3.427-6.758-4.731-10.178-1.918-1.788,1.47.768,4,2.541,2.541,2.1-1.728,4.672.815,5.434,2.786a9.717,9.717,0,0,1,.1,5.934c-1.019,3.821-3.953,7.684-8.266,7.445-1.9-.105-2.233,2.315-1,3.242a1.687,1.687,0,0,0-.868,1.485q-.234,8.047-.467,16.093c-.067,2.313,3.527,2.311,3.594,0q.234-8.047.467-16.093a1.638,1.638,0,0,0-.381-1.155c5.856-.489,9.939-6.29,10.741-11.836" transform="translate(-152.161 -53.188)" fill="#262626"/>
    <path id="Path_1717" data-name="Path 1717" d="M315.394,229.637,306.3,243.1c-1.3,1.922,1.815,3.723,3.1,1.814L318.5,231.45c1.3-1.922-1.815-3.722-3.1-1.814" transform="translate(-146.048 -109.216)" fill="#262626"/>
    <path id="Path_1718" data-name="Path 1718" d="M281.668,116.794a1.8,1.8,0,0,0,0,3.594,1.8,1.8,0,0,0,0-3.594" transform="translate(-133.61 -55.745)" fill="#262626"/>
    <path id="Path_1719" data-name="Path 1719" d="M241.662,118.975a1.8,1.8,0,0,0,0-3.594,1.8,1.8,0,0,0,0,3.594" transform="translate(-114.516 -55.071)" fill="#262626"/>
    <path id="Path_1720" data-name="Path 1720" d="M256.069,150.675a1.8,1.8,0,0,0,1.8-1.8,1.815,1.815,0,0,0-.526-1.27,1.9,1.9,0,0,0-1.271-.526l-.837-.017a1.8,1.8,0,0,0-1.8,1.8,1.815,1.815,0,0,0,.526,1.271,1.9,1.9,0,0,0,1.27.526l.837.017" transform="translate(-120.963 -70.192)" fill="#262626"/>
    <path id="Path_1721" data-name="Path 1721" d="M153.785,281.867c2.588-6.537,4.942-13.174,7.214-19.826,1.738-5.089,2.956-10.838,5.956-15.374a15.54,15.54,0,0,1,5.912-4.942c2.275-1.262,4.582-2.474,6.936-3.585a33.741,33.741,0,0,1,5.827-2.347c2.238-.578,1.289-4.045-.956-3.466A33.161,33.161,0,0,0,179.6,234.3c-2.25,1-4.45,2.112-6.62,3.274-2.519,1.349-5.137,2.645-7.129,4.744-3.629,3.82-5.076,9.067-6.691,13.941q-2.827,8.535-5.932,16.975c-.945,2.568-1.9,5.134-2.907,7.679-.851,2.151,2.623,3.084,3.466.955" transform="translate(-71.683 -110.858)" fill="#262626"/>
    <path id="Path_1722" data-name="Path 1722" d="M320.833,272.417c-1.337-8.222-2.81-16.42-4.334-24.608q-.531-2.847-1.068-5.693a55.76,55.76,0,0,0-1.561-7.561,23.818,23.818,0,0,0-5.888-8.932c-6-6.045-13.885-10.233-21.755-13.3a1.838,1.838,0,0,0-.056-1.426l-4.782-10.689a1.824,1.824,0,0,0-2.458-.645c-4.652,2.4-9.211,4.989-13.7,7.68-7.188,4.311-14.757,8.9-20.626,14.963-4.4,4.549-7.708,10.293-11.054,15.658a24.907,24.907,0,0,0-.757-3.85,1.8,1.8,0,0,0-.4-.736c2.6-3.4,4.706-7.161,7.288-10.577a7.328,7.328,0,0,0,.976,1.063c1.736,1.514,4.288-1.018,2.541-2.541-1.693-1.476-2.632-4.482-4.2-6.635a121.3,121.3,0,0,1,15.993-9.818c5.658-2.883,11.474-5.443,17.2-8.179q.3,1.57.6,3.141c.43,2.27,3.895,1.308,3.466-.956q-.5-2.645-1-5.291a1.819,1.819,0,0,0-2.64-1.074c-6.445,3.152-13.042,6-19.436,9.256a121.5,121.5,0,0,0-16.333,10.062,1.964,1.964,0,0,0-.264-.286c-1.574-1.4-3.128-2.846-4.7-4.269,0-.052.008-.1.008-.159,0-1.362.069-2.721.072-4.082a1.8,1.8,0,0,0-3.594,0c0,.38-.007.76-.015,1.14-.225-.19-.45-.382-.677-.569-1.075-.888-2.488-1.481-3.756-.581-1.05.746-1.517,2.5-2.085,3.605-1.287,2.5-3.024,5.363-2.817,8.285.181,2.55,1.868,4.451,3.468,6.312-.049.355-.1.71-.15,1.061a21.863,21.863,0,0,0-.351,6.251,1.4,1.4,0,0,0,.843,1.189,1.94,1.94,0,0,0-.217.712,1.749,1.749,0,0,0-1.559.815c-3.61,5.392-6.752,11.151-8.293,17.5-.546,2.247,2.919,3.205,3.465.956,1.472-6.062,4.484-11.491,7.931-16.639a1.8,1.8,0,0,0,.266-.6,6.351,6.351,0,0,1,3.172.879,1.638,1.638,0,0,0,1.659.058,1.823,1.823,0,0,0,.264.267,1.647,1.647,0,0,0-.188,1.4,21.1,21.1,0,0,1,.8,5.4,1.822,1.822,0,0,0,3.523.561,1.776,1.776,0,0,0,2.545-.518c3.186-5.063,6.262-10.509,10.291-14.962a54.26,54.26,0,0,1,8.767-7.448,204.09,204.09,0,0,1,20.618-12.726q1.553-.855,3.118-1.688l4.079,9.118a1.465,1.465,0,0,0,1.026.9,1.9,1.9,0,0,0,1.173,2.173,61.111,61.111,0,0,1,18.7,10.977c2.594,2.334,5.1,5.118,6.326,8.44a40.243,40.243,0,0,1,1.453,6.712c.386,2.1.79,4.191,1.181,6.286,2.931,15.718,5.636,31.478,7.686,47.338,1.336,10.333,2.426,20.7,3.353,31.074.2,2.285,3.8,2.307,3.594,0-1.62-18.14-3.805-36.219-6.729-54.2m-98.242-57.853c-.135-1.945,1.247-4.083,2.1-5.735.348-.676.776-1.368,1.085-2.079a1.224,1.224,0,0,0,.412.225,12.008,12.008,0,0,0,1.571,1.4l5.8,5.176c-3.515-1.211-7.288-1.234-9.593,2.462a7.294,7.294,0,0,0-.442.832,4.574,4.574,0,0,1-.934-2.283m2.567,14.241a1.876,1.876,0,0,0,.3-1.327,15.243,15.243,0,0,1,.315-4.1c.063-.429.117-.868.173-1.309a1.934,1.934,0,0,0,.295-1.915c.059-.3.124-.589.2-.875,1.352-4.873,6.454-2.43,9.415-.7a1.639,1.639,0,0,0,1.508.133c.215.4.427.8.642,1.213a1.862,1.862,0,0,0-1.266.74c-2.435,3.184-4.439,6.68-6.8,9.917a1.844,1.844,0,0,0-.529-.453,10.069,10.069,0,0,0-4.252-1.334" transform="translate(-101.523 -91.738)" fill="#262626"/>
    <path id="Path_1723" data-name="Path 1723" d="M344.465,250.779a22.892,22.892,0,0,0-14.4,8.581c-4.073,5.265-5.742,11.856-5.987,18.419-.086,2.313,3.507,2.309,3.594,0,.214-5.737,1.633-11.608,5.2-16.224a19.674,19.674,0,0,1,12.545-7.311c2.276-.379,1.31-3.843-.956-3.466" transform="translate(-154.681 -119.681)" fill="#262626"/>
    <path id="Path_1724" data-name="Path 1724" d="M330.176,320.4c-.424-2.271-3.888-1.309-3.466.956q4.017,21.5,8.033,43,.568,3.044,1.137,6.087c.424,2.271,3.888,1.309,3.465-.956q-4.016-21.5-8.033-43l-1.137-6.087" transform="translate(-155.92 -152.305)" fill="#262626"/>
    <path id="Path_1725" data-name="Path 1725" d="M278.373,359.616c.095,5.1-.964,10.223-4.9,13.749-3.794,3.4-9.416,4.538-14.1,6.146-11.048,3.794-22.162,7.381-33.422,10.5-7.045,1.949-14.132,3.74-21.236,5.461a2.009,2.009,0,0,0-.139-.446c-2.477-5.59-4.913-11.2-6.9-16.99-1.784-5.2-3.468-10.74-3.463-16.3q16.865-5.775,33.729-11.555l14.4-4.937c2.175-.746,1.24-4.218-.955-3.465q-22.733,7.8-45.47,15.58l-3.949,1.352a1.868,1.868,0,0,0-1.319,1.733c0,.065,0,.131-.006.2l-4.582,1.447-.033.013a1.908,1.908,0,0,0-.654-.145c-2.448-.113-3.792-2.72-4.806-4.619a15.3,15.3,0,0,0-3.853-5.232c-4.052-3.116-9.943-1.819-14.628-1.452l-8.812.689c-2.411.189-5.051.147-7.332,1.05a5.953,5.953,0,0,0-2.311,1.6,1.878,1.878,0,0,0-.237-.506L132.7,337.219l-7.513-11.424-2.638-4.011a10.127,10.127,0,0,1-1.115-1.7c-.213-.564-.2-.25.261-.692a17.661,17.661,0,0,1,1.726-1.277l6.742-4.989,7.9-5.844c.869,1.321,1.952,2.47,3.685,1.964a1.718,1.718,0,0,0,.784-.3l12.7-8.578,7.964-5.381c1.629-1.1,4-2.194,3.752-4.53a8.416,8.416,0,0,0-1.626-3.345l8.195-6.064,7.633-5.648,2.331-1.726c.256-.189.777-.756,1.1-.813.548-.1,1.067,1.174,1.437,1.748l4.254,6.588,14.044,21.745,24.344,37.695.44.68c1.25,1.937,4.362.137,3.1-1.814l-21.865-33.856-14.2-21.994a2.048,2.048,0,0,0,.252-.294,29.771,29.771,0,0,1,7.7-8.1c2.926-1.92,6.048-3.5,8.918-5.513,3.416-2.4,8.642-5.872,6.525-10.775a9.989,9.989,0,0,0-4.416-4.349c-1.711-1-4.782-2.1-4.981-4.423-.2-2.287-3.792-2.308-3.594,0,.434,5.057,5.21,5.91,8.479,8.689,2.172,1.848,1.275,3.693-.619,5.333a47.757,47.757,0,0,1-5.649,4.057c-2.569,1.634-5.341,2.969-7.785,4.795a33.55,33.55,0,0,0-6.885,7.368c-2.019-3.2-3.99-6.455-6.172-9.533-1.775-2.5-4.177-1.857-6.191-.366l-5.851,4.33-12.5,9.248a2.885,2.885,0,0,0-1.6-.879,4.375,4.375,0,0,0-3.021.941q.231-6.468.46-12.936c.053-1.489-.315-3.919.477-5.238.749-1.246,2.662-1.082,3.934-1.137,2.537-.11,5.344-.694,6.566-3.185,1.015-2.069-2.083-3.892-3.1-1.814-.626,1.276-2.192,1.35-3.463,1.406a13.792,13.792,0,0,0-4.158.571c-3.57,1.3-3.68,4.7-3.8,7.979q-.3,8.468-.6,16.936l-14.982,10.122c-1.668,1.127-4.752,2.5-4.808,4.825a4.817,4.817,0,0,0,.809,2.439c-5.562,4.073-11.1,8.179-16.536,12.4-2.535,1.967-1.828,4.4-.353,6.642l5.969,9.076,14.186,21.571.955,1.453a1.78,1.78,0,0,0,2.243.67,6.1,6.1,0,0,0,1.567,5.907,7.2,7.2,0,0,0,2.952,1.91,7.435,7.435,0,0,0,1.641,13.542,6.4,6.4,0,0,1,1.05.217c-.165-.03-.405,1-.278.445a11.806,11.806,0,0,0-.573,1.911,5.891,5.891,0,0,0,.531,2.717c.358.86,1.134,1.706,1.4,2.574a5.711,5.711,0,0,1-.363,3.036,6.583,6.583,0,0,0-.127,3.121c.855,4.474,3.343,8.258,7.844,9.542,4.592,1.31,9.711.514,14.292-.432,4.79-.989,9.414-2.532,14.1-3.914,2.213-.653,1.271-4.123-.955-3.466-7.575,2.235-15.465,5.281-23.493,4.826a10.554,10.554,0,0,1-4.884-1.279,6.943,6.943,0,0,1-2.72-3.832,7.305,7.305,0,0,1-.757-3.1c.088-.746.459-1.5.585-2.257a7.07,7.07,0,0,0-.078-3.284c-.488-1.551-2.221-2.841-1.579-4.569.508-1.365,1.206-2.527.34-3.941-.779-1.273-2.08-1.379-3.373-1.78a3.82,3.82,0,0,1-.571-7.1,1.655,1.655,0,0,0,.572-2.455c2.484.226,5.129-.089,7.537.483l-5.48,2.774c-2.064,1.045-.247,4.146,1.814,3.1l11.8-5.976c2.064-1.045.247-4.147-1.814-3.1l-2.138,1.083a1.991,1.991,0,0,0-.3-.206c-2.39-1.312-4.976-1.481-7.651-1.492-2.259-.008-5.382.192-6.938-1.813-2.016-2.6.974-3.69,3.124-3.929,3.088-.343,6.211-.49,9.309-.732s6.175-.541,9.267-.717c2.667-.152,5.469-.117,7.312,2.111,1.549,1.871,2.3,4.272,3.795,6.2a8.224,8.224,0,0,0,5.454,3.407c.17,10.444,3.84,20.725,7.659,30.311a1.835,1.835,0,0,0,2.21,1.255l6.126-1.885q.367.832.735,1.664a1.415,1.415,0,0,0,1.5.926,1.76,1.76,0,0,0,2.157,1.3c12.889-3.115,25.706-6.508,38.352-10.5,6.023-1.9,12.009-3.918,17.98-5.975,4.96-1.709,10.358-3.027,14.4-6.552,4.725-4.118,6.208-10.372,6.1-16.417-.043-2.31-3.637-2.317-3.594,0M140.947,305.136l-1.24-2.058c-.107-.179-.358-.78-.586-1.114.385-.254.836-.67,1.04-.807l2.638-1.782,14.79-9.993,2.6-1.756c.115-.077.527-.287.848-.49a17.255,17.255,0,0,0,.956,1.449,18.686,18.686,0,0,0,1.093,1.815,1.159,1.159,0,0,1,.072.134c-.973.575-2.875,2.1-3.132,2.27l-7.2,4.867-11.618,7.849c-.089-.135-.188-.267-.258-.384m54.239,87.985c-3.494-8.894-6.752-18.373-6.852-27.984l2.39-.755a60.692,60.692,0,0,0,3.489,14.6c1.5,4.365,3.248,8.635,5.078,12.87l-4.105,1.263" transform="translate(-56.251 -118.598)" fill="#262626"/>
    <path id="Path_1726" data-name="Path 1726" d="M310.215,94.157c-4.932-3.434-6.853-9.007-7.713-14.734-.342-2.28-3.806-1.311-3.465.955,1.013,6.748,3.634,12.892,9.365,16.882,1.9,1.324,3.7-1.79,1.814-3.1" transform="translate(-142.717 -37.287)" fill="#262626"/>
    <path id="Path_1727" data-name="Path 1727" d="M356.019,417a28.244,28.244,0,0,1,12.947,3.294c2.043,1.082,3.861-2.019,1.814-3.1a32.246,32.246,0,0,0-14.761-3.784c-2.314-.03-2.315,3.563,0,3.594" transform="translate(-169.097 -197.315)" fill="#262626"/>
    <path id="Path_1728" data-name="Path 1728" d="M209.117,249.012l-6.164,8.78c-1.332,1.9,1.782,3.695,3.1,1.814l6.164-8.78c1.332-1.9-1.782-3.694-3.1-1.814" transform="translate(-96.713 -118.472)" fill="#262626"/>
    <path id="Path_1729" data-name="Path 1729" d="M229.865,55.819c1.454-2.672,5.343-2.947,8.043-3.028a38.5,38.5,0,0,1,8.706.669c5.973,1.2,11.587,4.027,14.485,9.618,1.064,2.054,4.166.239,3.1-1.814-3.451-6.659-10.391-10.2-17.55-11.44a41.116,41.116,0,0,0-10.327-.543c-3.592.3-7.706,1.311-9.564,4.724-1.106,2.032,2,3.848,3.1,1.814" transform="translate(-108.12 -23.465)" fill="#262626"/>
    <path id="Path_1730" data-name="Path 1730" d="M249.894,66.7a27.145,27.145,0,0,0-21.874,3.525c-1.922,1.269-.124,4.382,1.814,3.1a23.566,23.566,0,0,1,19.1-3.162c2.237.595,3.192-2.871.956-3.466" transform="translate(-108.44 -31.402)" fill="#262626"/>
    <path id="Path_1731" data-name="Path 1731" d="M230.445,35.718c4.682-3,10.321-4.518,15.744-5.521a46.263,46.263,0,0,1,15.423-.467c5.825.912,14.418,4.129,12.941,11.566a1.893,1.893,0,0,0,2.976,1.869,9.791,9.791,0,0,1,6.243,3.333,11.727,11.727,0,0,1,2.1,6.489c.32,5.286-1.081,10.576-2.673,15.57-.7,2.208,2.764,3.154,3.465.955,1.821-5.712,3.418-11.95,2.662-17.984-.793-6.337-4.81-10.758-11.078-11.868-.09-5.074-3.544-9.084-8.348-11.248-7.812-3.519-17.046-3.174-25.279-1.567-5.507,1.075-11.232,2.713-15.995,5.768-1.941,1.245-.141,4.357,1.814,3.1" transform="translate(-108.726 -12.257)" fill="#262626"/>
    <path id="Path_1732" data-name="Path 1732" d="M217.25,69.384a14.55,14.55,0,0,1,.925-15.493c1.337-1.893-1.778-3.69-3.1-1.814a18.128,18.128,0,0,0-.926,19.121c1.125,2.021,4.23.211,3.1-1.814" transform="translate(-101.12 -24.478)" fill="#262626"/>
    <path id="Path_1733" data-name="Path 1733" d="M172.244,332.968l7.2-4.867c.257-.173,2.158-1.7,3.132-2.271a1.221,1.221,0,0,0-.072-.133,18.648,18.648,0,0,1-1.094-1.816,17.2,17.2,0,0,1-.956-1.449c-.322.2-.733.413-.848.491l-2.6,1.756-14.79,9.993-2.638,1.782c-.2.138-.654.553-1.04.807.228.334.478.936.586,1.114l1.24,2.058c.07.117.169.249.258.384l11.618-7.849" transform="translate(-75.671 -153.895)" fill="#fff"/>
    <path id="Path_1734" data-name="Path 1734" d="M232.231,153.127c5.7,2.612,12.4,2.2,18.243.271,6.536-2.16,13.2-6.477,15.994-13.019.9-2.1-2.2-3.936-3.1-1.814-2.254,5.276-7.287,8.9-12.525,10.9-5.22,1.989-11.527,2.887-16.8.561-6.343-2.8-10.692-8.841-12.561-15.377-1.631-5.7-1.559-11.888-1.758-17.771-.229-6.744-.181-13.6-1.269-20.28-.371-2.277-3.835-1.31-3.465.956,1.062,6.513.93,13.261,1.158,19.839.221,6.372.2,13.1,2.178,19.224,2.267,7.019,7.095,13.394,13.9,16.514" transform="translate(-102.601 -45.484)" fill="#262626"/>
    <path id="Path_1735" data-name="Path 1735" d="M101.725,290.434l-1.079-3.612a32.778,32.778,0,0,1-12.8,5.211,37.924,37.924,0,0,1-13.922.54q.532,2.177,1.062,4.353a32.765,32.765,0,0,0,14.654.017c4.413-.93,9.117-2.5,12.584-5.5.039-.034.078-.063.118-.093a1.74,1.74,0,0,1-.618-.92" transform="translate(-35.284 -136.898)" fill="#fff"/>
    <path id="Path_1736" data-name="Path 1736" d="M254.654,171.767c.792,1.548,1.955,3.02,3.5,3.1,1.616-.079,2.81-1.661,3.614-2.91.04-.06.074-.124.112-.186Z" transform="translate(-121.545 -81.983)" fill="#fff"/>
    <path id="Path_1737" data-name="Path 1737" d="M40.794,240.412a5.7,5.7,0,0,1,1.229,2.544l2.124,5.841a34.717,34.717,0,0,0,11.334-.619,34,34,0,0,0,9.207-3.112c-.3-1.284-.637-2.565-.907-3.857a6.78,6.78,0,0,1,.141-2.654,54.8,54.8,0,0,0,.787-12.239c-.318-5.111-2.394-9.874-3.4-14.854a35.955,35.955,0,0,1-.586-4.064,14.391,14.391,0,0,0-.37-3.586c-.39-1.11-1.456-2.312-2.489-1.124-1.439,1.656-1.893,5.018-2.17,7.12-.338,2.574-.383,5.185-.608,7.77a1.862,1.862,0,0,1-.317.91,1.8,1.8,0,0,1-2.111,1.189c-9.454-2-18.83-4.644-28.456-5.7-4.089-.451-8.31-.864-12.376-.074a10.322,10.322,0,0,0-2.868.811,90.869,90.869,0,0,1,15.723,1.229c2.28.376,1.307,3.838-.956,3.465A84.881,84.881,0,0,0,8.7,218.3c.05.029.1.059.153.088,1.65.907.758,3.127-.722,3.327a2,2,0,0,1,.007.365,3.755,3.755,0,0,0,1,3.36,18.084,18.084,0,0,0,3.9,2.465c2.683,1.442,5.493,2.627,8.227,3.965,5.748,2.814,11.695,5.23,17.606,7.675a8.515,8.515,0,0,1,1.92.861M13.68,223.488c-2.3-.121-2.311-3.714,0-3.594,4.827.253,9.378,1.833,14.118,2.606s9.405.694,13.841,2.811c2.089,1,.263,4.094-1.814,3.1-4.059-1.937-8.635-1.733-12.982-2.449-4.413-.727-8.672-2.242-13.163-2.477" transform="translate(-3.872 -96.507)" fill="#fff"/>
    <path id="Path_1738" data-name="Path 1738" d="M260.745,164.892H247.91a1.813,1.813,0,0,0-1.733,2.274c1.105,3.466,3.457,7.407,7.316,7.951a2.948,2.948,0,0,0,1.148,0c3.949-.533,6.472-4.494,7.836-7.954a1.809,1.809,0,0,0-1.732-2.274m-6.671,6.69c-1.547-.076-2.711-1.548-3.5-3.1H257.8c-.038.061-.072.125-.111.186-.8,1.249-2,2.83-3.615,2.91" transform="translate(-117.462 -78.702)" fill="#262626"/>
    <path id="Path_1739" data-name="Path 1739" d="M36.155,244.587a1.852,1.852,0,0,0-1.686,2.285l1.946,7.979a1.935,1.935,0,0,0,.1.3,1.666,1.666,0,0,0,1.2,1.207,36.119,36.119,0,0,0,17.6.3c5.059-1.066,10.217-3,14.169-6.421a1.607,1.607,0,0,0-.23-2.631,1.593,1.593,0,0,0,.654-1.878l-1.875-6.277a1.816,1.816,0,0,0-3-.793c-.316.312-.648.6-.987.888a14.869,14.869,0,0,0-.648-2.638c.152-.642.216-1.327.31-1.974a49.509,49.509,0,0,0,.353-15.232A86.913,86.913,0,0,0,61.8,210.78a48.772,48.772,0,0,1-1.473-9.2c-.327-3.9-4.1-8.509-8.173-5.421-2.286,1.733-3.07,5.318-3.576,7.981a69.046,69.046,0,0,0-.817,8.276c-11.046-2.416-22.032-5.41-33.387-5.855-3.8-.149-8.92-.159-12.064,2.341-2.976,2.366-2.99,5.968-.5,8.249a1.778,1.778,0,0,0-1.124,1.567c-.387,5.259,3.93,7.57,8.077,9.654,3.694,1.856,7.462,3.622,11.241,5.3,4.771,2.122,9.591,4.138,14.42,6.126q.869,2.391,1.739,4.783m18.2,8.6a32.773,32.773,0,0,1-14.654-.016l-1.062-4.354a37.912,37.912,0,0,0,13.922-.54,32.8,32.8,0,0,0,12.8-5.211l1.079,3.612a1.745,1.745,0,0,0,.618.92c-.039.029-.079.059-.118.092-3.467,3-8.17,4.567-12.584,5.5M17.4,228.512c-2.734-1.338-5.543-2.524-8.227-3.965a18.113,18.113,0,0,1-3.9-2.465,3.754,3.754,0,0,1-1-3.361,1.952,1.952,0,0,0-.007-.365c1.481-.2,2.373-2.42.722-3.327-.053-.029-.1-.059-.153-.088a84.875,84.875,0,0,1,15.022,1.1c2.262.373,3.236-3.09.956-3.466a90.872,90.872,0,0,0-15.723-1.229,10.328,10.328,0,0,1,2.868-.811c4.067-.789,8.287-.377,12.377.074,9.626,1.062,19,3.708,28.456,5.705a1.805,1.805,0,0,0,2.111-1.189,1.862,1.862,0,0,0,.317-.91c.225-2.585.269-5.2.607-7.77.277-2.1.731-5.464,2.17-7.12,1.032-1.188,2.1.014,2.488,1.123a14.346,14.346,0,0,1,.37,3.586,35.993,35.993,0,0,0,.586,4.064c1,4.98,3.08,9.743,3.4,14.854a54.764,54.764,0,0,1-.787,12.239,6.77,6.77,0,0,0-.14,2.654c.27,1.292.6,2.573.907,3.857a34.021,34.021,0,0,1-9.208,3.112,34.7,34.7,0,0,1-11.334.619q-1.062-2.92-2.124-5.84a5.689,5.689,0,0,0-1.229-2.544,8.5,8.5,0,0,0-1.92-.861c-5.911-2.446-11.858-4.862-17.606-7.675" transform="translate(0 -93.144)" fill="#262626"/>
    <path id="Path_1740" data-name="Path 1740" d="M45.143,241.469c-4.436-2.116-9.094-2.037-13.841-2.811s-9.292-2.353-14.118-2.606c-2.311-.121-2.3,3.473,0,3.594,4.491.235,8.75,1.751,13.163,2.477,4.348.716,8.923.512,12.982,2.449,2.077.991,3.9-2.107,1.814-3.1" transform="translate(-7.376 -112.665)" fill="#262626"/>
    <path id="Path_1741" data-name="Path 1741" d="M134.039,299.046c1.816,7.24,3.54,14.575,5.907,21.659.729,2.182,4.2,1.247,3.465-.956-.522-1.561-1.008-3.136-1.475-4.718A15.294,15.294,0,0,1,140.5,317.5a15.294,15.294,0,0,0,1.441-2.473c-1.652-5.6-3.016-11.3-4.432-16.94-.562-2.242-4.028-1.292-3.465.956" transform="translate(-63.946 -141.666)" fill="#262626"/>
    <path id="Path_1742" data-name="Path 1742" d="M106.242,380.479c-3.538,4.126-9.265,4.66-14.318,3.629a17.374,17.374,0,0,1-5.422-1.876,15.224,15.224,0,0,1-4.708-5.112c-3.254-5.2-4.861-11.324-6.213-17.244-1.556-6.809-2.775-13.7-4.165-20.541Q68.58,325.373,65.331,311.5c-.531-2.25-4-1.3-3.466.955q3.149,13.36,5.877,26.813c1.535,7.522,2.842,15.105,4.609,22.578,1.467,6.207,3.3,12.722,6.961,18.036a17.547,17.547,0,0,0,11.656,7.689c6.247,1.272,13.427.564,17.814-4.553a1.784,1.784,0,0,0,.453-1.281c-.995,2.225-2.438,3.865-5.342,2.9,2.9.968,4.347-.672,5.342-2.9-.075-1.418-1.835-2.611-2.994-1.26" transform="translate(-29.502 -148.064)" fill="#262626"/>
    <path id="Path_1743" data-name="Path 1743" d="M198.525,2.34l1.533,7.287c.476,2.26,3.892,1.139,3.42-1.1q-.767-3.644-1.533-7.287c-.476-2.261-3.892-1.14-3.42,1.1" transform="translate(-94.734 0)" fill="#fff"/>
    <path id="Path_1744" data-name="Path 1744" d="M177.783,9.592c-1.62-1.651-4.012,1.032-2.4,2.679l6.714,6.843c1.62,1.651,4.013-1.031,2.4-2.679l-6.714-6.843" transform="translate(-83.455 -4.331)" fill="#fff"/>
    <path id="Path_1745" data-name="Path 1745" d="M173.488,35.2,166.1,33.9c-2.276-.4-3.054,3.108-.773,3.51l7.383,1.3c2.276.4,3.054-3.107.773-3.51" transform="translate(-78.258 -16.164)" fill="#fff"/>
  </g>
</svg>
