<svg version="1.2" xmlns="http://www.w3.org/2000/svg" viewBox="0 0 251 454" width="251" height="454">
	<title>lady-bnr-img (1)-svg</title>
	<defs>
		<clipPath clipPathUnits="userSpaceOnUse" id="cp1">
			<path d="m0 0h250.43v465h-250.43z"/>
		</clipPath>
	</defs>
	<style>
		.s0 { fill: #ffffff } 
		.s1 { fill: #fbca04 } 
		.s2 { fill: #262626 } 
	</style>
	<g id="Clip-Path: Group_810" clip-path="url(#cp1)">
		<g id="Group_810">
			<path id="Path_1616" class="s0" d="m201.5 385.5c-3.3 0.1-2.5 32.9-2.5 35.7-0.1 18.8-2.3 28.2 12.7 40.1-28.3-0.2-56.7 0-85 0h-56.6c-2.5 0-24.3-2.1-25.6 0l8-12.9 1.3-29.2-3.1-28z"/>
			<path id="Path_1617" class="s0" d="m168.2 280.5q0.3 1 0.6 2 0.4 0.9 0.7 1.9 0.4 0.9 0.9 1.8 0.4 0.9 0.9 1.8l-0.2 0.2q-0.4 0.3-0.8 0.6-0.9 0.6-1.8 1.2c-2.8 1.8-5.8 3.4-8.7 4.9-5.5 2.8-11.2 5.4-16.9 7.8l-0.2 0.1c-1-1.6-1.7-3.4-2.6-5.1q0.1 0 0.2 0 0.1 0 0.2-0.1 0.1 0 0.2 0 0.1-0.1 0.1-0.1 0.4-0.3 0.7-0.6 0.3-0.4 0.4-0.8 0.1-0.4 0-0.9 0-0.4-0.3-0.8-1.4-2-2.7-4-2.7-4-5-8.3-1.6-3-3-6.2v-0.1l-0.2-0.4q-0.1-0.4-0.3-0.8-0.3-0.8-0.6-1.6-0.6-1.6-1.2-3.3-0.4-1.7-0.9-3.3-0.4-1.7-0.8-3.4-0.4-1.7-0.7-3.3-0.3-1.7-0.6-3.4-1.1-5.5-2.3-10.9-1.3-6-2.6-11.9c-1.1-5-1.9-9.9-3.1-14.8-0.6-2.3-1.3-4.5-2-6.8q-0.4-1.3-0.7-2.6-0.2-0.7-0.3-1.3-0.1-0.4-0.1-0.8c-0.1-0.2 0 0.2 0 0.2q0-0.1 0-0.1 0-0.1 0-0.1 0-0.1 0-0.2-0.1 0-0.1-0.1 0-0.1 0-0.3 0-0.1 0-0.3 0-0.1 0-0.3 0-0.1 0-0.3 0 0 0 0 0 0 0-0.1 0.1-0.3 0.2-0.6c0 0.1 0.2-0.3 0.2-0.4 0-0.1 0.2-0.2 0.2-0.4 0.1 0 0.1-0.1 0.2-0.1q0.1-0.1 0.2-0.3 0.1 0 0.2-0.1v-0.1q0 0 0.1 0 0.1-0.1 0.3-0.2 0 0 0 0 0.1 0 0.1 0 0 0 0 0 0 0 0.1 0v-0.1q0.1 0 0.1 0 0 0 0 0 0.1 0 0.1 0 0 0 0 0 0.2 0 0.3 0 0.2 0 0.3 0.1h0.1 0.1q0.2 0.2 0.4 0.3 0.1 0.1 0.2 0.2 0.3 0.2 0.5 0.5 0 0 0 0 0 0 0 0 0 0 0 0 0 0 0 0 0.1 0.2 0.1 0.2h0.1q0.1 0.3 0.3 0.5 0.1 0.2 0.2 0.3 0.1 0.2 0.1 0.4 0.1 0.1 0.2 0.3 0.1 0.2 0.2 0.3 0.1 0.3 0.2 0.5c0 0 0.1 0.2 0.1 0.3q0.3 0.8 0.6 1.6c0.8 2.1 1.4 4.3 2 6.5 1.2 4.4 2.2 8.9 3.6 13.3q0.5 1.6 1.1 3.1 0.1 0.4 0.3 0.7 0.3 0.4 0.6 0.6 0.4 0.2 0.8 0.3 0.4 0.1 0.8 0 0 0 0.1 0 0 0 0 0 0 0 0.1 0 0 0 0 0 0.5-0.1 0.8-0.4 0.3-0.3 0.6-0.7 0.2-0.4 0.2-0.8 0.1-0.4 0-0.9-0.6-1.6-1.2-3.3-0.5-1.7-1-3.5-0.5-1.7-0.9-3.4-0.5-1.7-0.9-3.5 0-0.2-0.1-0.4c-0.6-2.1-1.1-4.3-1.8-6.4q-0.2-0.8-0.5-1.7-0.3-0.8-0.6-1.6-0.3-0.7-0.6-1.5-0.4-0.8-0.7-1.6-0.4-0.7-0.9-1.4-0.5-0.7-1.1-1.3-0.6-0.6-1.3-1-0.7-0.5-1.4-0.8-0.2 0-0.3-0.1-0.1 0-0.3 0-0.1-0.1-0.2-0.1-0.2 0-0.3 0 0-0.1 0-0.2-0.1-0.1-0.1-0.3 0-0.2 0-0.3 0-0.2 0-0.3 0-0.2 0-0.4 0-0.3 0-0.7 0 0 0-0.1 0.1-0.2 0.1-0.3 0.1-0.5 0.2-0.9 0.1-0.2 0.2-0.4 0-0.1 0-0.1 0.2-0.5 0.5-0.9 0.1-0.2 0.3-0.4 0-0.1 0.1-0.2 0.1-0.1 0.1-0.2 0.1-0.1 0.2-0.1 0-0.1 0.1-0.2 0.1-0.1 0.1-0.1 0.1 0 0.1 0 0 0 0 0 0 0 0 0 0 0 0 0l-0.2 0.1q0.1-0.1 0.3-0.1l0.1-0.1q0.1 0 0.2 0h0.1 0.1c0 0.1 0.5 0.2 0.5 0.2q0.1 0 0.2 0.1 0.1 0 0.2 0.1 0.1 0 0.2 0.1 0 0.1 0.1 0.1c0.1 0.1 0.3 0.2 0.3 0.3q0.2 0.2 0.4 0.4 0.1 0 0.1 0.1l0.1 0.1q0.2 0.2 0.3 0.5 0.4 0.6 0.7 1.3l0.1 0.1q0 0.1 0 0.1 0.1 0.3 0.2 0.6 0.3 0.6 0.5 1.2 0.5 1.4 1 2.8 0.9 2.6 1.9 5.2 1.9 5.5 3.8 10.9 1.1 3.1 2.2 6.1 1 3.1 2.2 6.1c0.1 0.5 0.5 1 1 1.3 0.5 0.3 1.1 0.4 1.7 0.2 0.6-0.1 1.1-0.5 1.4-1 0.3-0.5 0.3-1.1 0.2-1.7-2.9-7.9-5.6-15.8-8.4-23.7q-0.3-0.7-0.5-1.3-0.8-2.3-1.7-4.6-0.2-0.7-0.4-1.4-0.3-0.8-0.6-1.5-0.3-0.7-0.6-1.4-0.4-0.7-0.7-1.4-0.3-0.5-0.6-0.9-0.3-0.5-0.7-0.9-0.4-0.4-0.8-0.7-0.4-0.4-0.9-0.7 0 0 0-0.1 0 0 0-0.1 0 0 0-0.1 0 0 0-0.1-0.1-0.8 0-1.6 0-0.3 0-0.7 0-0.2 0-0.3v-0.1q0.1-0.1 0.1-0.3 0-0.1 0.1-0.3 0-0.1 0-0.3 0.1-0.1 0.1-0.3 0.1-0.2 0.2-0.4 0-0.1 0-0.1c0.1-0.2 0.4-0.5 0.5-0.7q0-0.1 0-0.1 0 0 0 0 0 0 0 0 0 0 0 0v-0.1q0.2-0.2 0.4-0.3 0.1-0.1 0.3-0.2 0.1-0.1 0.3-0.2 0.3-0.1 0.6-0.1 0.2 0 0.4 0 0.1 0 0.2 0 0.2 0 0.5 0.1 0.1 0.1 0.2 0.2 0.2 0.2 0.4 0.3v0.1q0.1 0.2 0.3 0.4 0.3 0.5 0.6 1.1 0.1 0.2 0.2 0.5 0.1 0.1 0.1 0.3 0.1 0 0.1 0 0 0 0 0 0 0.1 0 0.1 0 0 0 0c0.2 0.3 0.3 0.7 0.4 0.9q0.4 1.3 0.8 2.6c0.4 1.4 0.8 2.8 1.4 4.1 1.9 4.9 3.8 9.8 5.6 14.8q1.6 4.8 3.2 9.6 1.2 3.7 2.4 7.5 0.2 0.4 0.4 0.8 0.3 0.3 0.7 0.5 0.4 0.3 0.8 0.3 0.5 0.1 0.9 0 0.2-0.1 0.4-0.2 0.2-0.1 0.4-0.3 0.2-0.1 0.3-0.3 0.2-0.2 0.3-0.4 0.1-0.2 0.1-0.4 0.1-0.2 0.1-0.4 0.1-0.2 0-0.4 0-0.2 0-0.4c-1.8-5.4-3.6-10.8-5.4-16.2-1.9-5.3-3.8-10.5-5.9-15.7-1-2.3-1.6-4.8-2.5-7.2q0-0.1 0.1-0.1 0 0 0 0 0 0 0-0.1 0 0 0 0 0 0 0 0c0.1-0.1 0.1-0.2 0.1-0.3q0.1-0.1 0.2-0.2c0.2-0.3-0.1 0.1-0.1 0.1 0-0.2 0.7-0.7 0.8-0.8q0 0 0.1 0 0.3-0.2 0.5-0.3l0.1-0.1q0.2-0.1 0.5-0.1 0-0.1 0.1-0.1 0 0 0.1 0 0 0 0 0 0 0 0 0 0 0 0 0 0.1 0 0.1 0 0.1 0 0.1 0 0.1 0 0.1 0 0 0 0.1 0h0.1q0 0 0 0.1 0 0 0.1 0 0 0 0 0 0.1 0 0.1 0 0.1 0.1 0.2 0.1 0 0 0 0.1 0.1 0 0.1 0 0 0 0 0.1 0.1 0 0.1 0 0.2 0.2 0.4 0.4 0.2 0.2 0.3 0.4 0.2 0.2 0.4 0.4 0.2 0.2 0.3 0.4h0.1v0.1q0.2 0.2 0.3 0.4 0.4 0.5 0.7 1 0.3 0.5 0.6 1 0.3 0.5 0.6 1 0.2 0.5 0.5 1.1 0.2 0.5 0.5 1l0.1 0.4 0.2 0.4q0.2 0.6 0.4 1.1 0.5 1.3 0.9 2.5 0.8 2.3 1.5 4.7c0.8 3 1.6 5.9 2.5 8.9q0.8 2.7 1.6 5.5 0.8 2.8 1.4 5.6 0.7 2.8 1.3 5.7 0.6 2.8 1.1 5.7c1.2 6.2 2.3 12.4 3.5 18.6q0.5 2.4 1.1 4.8 0.6 2.9 1.3 5.7 0.7 2.9 1.6 5.7 0.9 2.8 1.9 5.6 1 2.8 2.1 5.5 0.6 1.3 1.2 2.5 0.2 0.4 0.6 0.7 0.3 0.2 0.7 0.3 0.4 0.1 0.9 0.1 0.4-0.1 0.8-0.3"/>
			<path id="Path_1618" class="s0" d="m130.9 275.8q0 0 0 0z"/>
			<path id="Path_1619" class="s0" d="m130.9 275.8c-0.1-0.1-0.1-0.3 0 0"/>
			<path id="Path_1620" class="s1" d="m12.6 69.6q-0.4-0.2-0.7-0.5-0.4-0.2-0.7-0.4-0.4-0.3-0.8-0.4 0.5-0.2 1-0.5 0.5-0.2 1-0.5 0.5-0.3 0.9-0.6 0.4-0.3 0.8-0.7 0.3-0.3 0.5-0.5 0.3-0.3 0.5-0.6 0.2-0.2 0.4-0.5 0.2-0.3 0.4-0.6 0.4 0.6 0.9 1.3 0.5 0.6 1.1 1.1 0.6 0.6 1.3 1 0.7 0.5 1.4 0.8-0.2 0.2-0.4 0.3-0.2 0.1-0.4 0.3-0.2 0.1-0.4 0.3-0.2 0.1-0.4 0.3-0.5 0.5-1 1.1-0.5 0.6-0.9 1.3-0.4 0.6-0.7 1.3-0.3 0.7-0.5 1.5-0.2-0.6-0.5-1.2-0.2-0.6-0.6-1.1-0.3-0.5-0.7-1-0.4-0.5-0.9-1-0.3-0.2-0.6-0.5z"/>
			<path id="Path_1621" class="s1" d="m207.6 17.5q-0.2-0.1-0.4-0.2-0.2-0.1-0.3-0.2-0.2-0.1-0.4-0.2 0.3-0.1 0.7-0.3 0.3-0.2 0.6-0.4 0.4-0.1 0.7-0.3 0.3-0.3 0.6-0.5 0.3-0.2 0.6-0.5 0.3-0.3 0.6-0.6 0.3-0.3 0.5-0.6 0.3-0.3 0.5-0.7 0.4 0.6 0.9 1.1 0.5 0.6 1 1 0.6 0.5 1.2 0.9 0.6 0.4 1.2 0.7-0.2 0.1-0.4 0.2-0.7 0.5-1.2 1.1-0.6 0.6-1.1 1.3-0.5 0.7-0.9 1.4-0.4 0.7-0.7 1.5-0.1-0.3-0.2-0.6-0.3-0.6-0.6-1.1-0.3-0.6-0.7-1-0.4-0.5-0.9-1-0.4-0.4-1-0.7-0.1-0.2-0.3-0.3z"/>
			<path id="Path_1622" class="s1" d="m113.3 298.8q0 0 0 0-0.1 0-0.1 0 0 0.1 0 0.1 0 0 0 0 0 0 0-0.1h0.1c0 0 0 0 0 0z"/>
			<path id="Path_1623" class="s1" d="m113.3 298.8l0.1-0.1v-0.1q0 0.1-0.1 0.2z"/>
			<path id="Path_1624" class="s0" d="m199.4 404.4q-0.2 0.2-0.4 0.3h-131.7q1.2-0.8 2.3-1.6 1.1-0.9 2.1-1.8 1-1 2-2 1-1 1.9-2c7-8.2 11.8-18.1 16.3-27.8 2.1-4.5 4.1-9 6.3-13.4 3.5-7.1 7-14.3 10.3-21.5 3.6-7.9 7-15.9 9.9-24q0.2 0 0.3 0.1-0.1-0.1-0.3-0.1 0.1-0.1 0.1-0.2 0.2-0.6 0.4-1.1c0.1-0.5 0.1-1.1-0.2-1.7-0.3-0.5-0.8-0.9-1.4-1-0.6-0.2-1.2-0.1-1.7 0.2-0.5 0.3-0.9 0.8-1 1.4q-0.2 0.3-0.3 0.7-0.5-0.2-1-0.4 0.1 0 0.1-0.1 0 0 0 0 0-0.1 0.1-0.1 0-0.1 0-0.1 0-0.2 0-0.3 0-0.2 0-0.4 0-0.1 0-0.3 0-0.1-0.1-0.3 0.3-0.4 0.5-0.9 0.2-0.5 0.4-1 0.2-0.5 0.4-1 0.2-0.5 0.4-1.1 0.1 0 0.3 0 0.1-0.1 0.2-0.2 0.2 0 0.3-0.1 0.1-0.1 0.2-0.3 0.8-0.9 1.5-2 0.8-1 1.4-2.1 0.7-1 1.3-2.1 0.6-1.2 1.2-2.3 0.8-1.6 1.5-3.2 0.8-1.6 1.5-3.2 0.7-1.7 1.3-3.4 0.6-1.6 1.2-3.3 0.2-0.8 0.5-1.6 0.8 1.9 1.7 3.7 1 1.9 2 3.7 1 1.8 2.1 3.5 1.1 1.8 2.3 3.5 1.1 1.6 2.2 3.2 0.2 0.2 0.4 0.5 0.3 0.2 0.6 0.3 0.3 0.2 0.6 0.2 0.4 0.1 0.7 0c0.9 1.7 1.6 3.5 2.5 5.1l-0.7 0.3q-0.6 0.2-1.1 0.5-0.5 0.2-1 0.4-0.4 0.1-0.7 0.3-0.3 0.3-0.6 0.6-0.2 0.3-0.3 0.7-0.1 0.4-0.1 0.8-0.1 0.1-0.2 0.4-0.1 0.2-0.2 0.5 0 0.2 0 0.5 0 0.2 0.1 0.5c1.5 4.1 3.2 8.2 4.9 12.3 5.1 12.1 10.5 24 16 35.8 4.8 10.3 9.8 20.7 16.5 30 5.8 8.2 13.7 16.7 24.2 18z"/>
			<path id="Path_1625" fill-rule="evenodd" class="s0" d="m245.9 268.7q0.1 1.5 0 2.9 0 1.5-0.1 3-0.1 1.5-0.3 3-0.5 5.8-1.3 11.7c-2.3 15.5-6.2 30.7-9.6 46-1.7 7.9-3.3 15.9-4.5 23.9q-0.2 1.4-0.4 2.9-0.1 0.7-0.2 1.4c0 0.1-0.1 0.5-0.1 0.6q-0.3 1.8-0.6 3.5-0.9 4.3-2 8.6c-0.6 2.4-1.1 4.8-1.9 7.1q-0.3 1.1-0.8 2.2-0.5 1-1.1 2-0.6 1-1.3 1.9-0.7 1-1.5 1.8-0.8 0.9-1.7 1.7-0.9 0.8-1.9 1.5-0.9 0.7-2 1.4-1 0.6-2 1.2-1.1 0.6-2.2 1.1-0.5 0.3-0.9 0.5h-0.1q-0.3 0.1-0.5 0.2-0.5 0.2-0.9 0.3-0.4 0.2-0.9 0.3-0.4 0.1-0.9 0.2-0.4 0.2-0.9 0.3-0.4 0-0.8 0.1h-0.2l-0.3 0.1q-0.8 0-1.7 0.1-0.8 0-1.6-0.1-0.4 0-0.8-0.1-0.3 0-0.5 0-0.4-0.1-0.8-0.2-0.4-0.1-0.8-0.2-0.4-0.1-0.8-0.2-0.4-0.1-0.7-0.3-0.4-0.1-0.8-0.2c-0.1-0.1-0.3-0.2-0.4-0.2q-0.8-0.3-1.5-0.7-0.4-0.2-0.8-0.4-0.4-0.2-0.7-0.5-0.4-0.2-0.7-0.4-0.4-0.3-0.8-0.5-0.6-0.4-1.2-0.9c-0.1-0.1-0.5-0.4-0.6-0.4q-0.3-0.3-0.7-0.6-0.7-0.7-1.4-1.3-0.7-0.7-1.4-1.4-0.7-0.7-1.3-1.4-0.7-0.7-1.3-1.4-1.3-1.6-2.6-3.2-1.2-1.6-2.4-3.3-1.1-1.7-2.2-3.4-1.1-1.8-2.1-3.5c-2.9-4.9-5.5-10-7.9-15.1q-8.4-17.4-16-35.1-0.8-1.8-1.6-3.7l-0.3-0.8-0.2-0.3v-0.1q-0.3-0.8-0.7-1.6-1-2.6-2.1-5.2-1.2-2.8-2.3-5.7 0-0.1 0-0.1 4.7-1.9 9.4-4 2.3-1 4.6-2.1 2.3-1.1 4.6-2.3 2.3-1.1 4.5-2.4 2.3-1.2 4.5-2.5 0.9-0.6 1.8-1.2 1-0.6 1.8-1.2 0.9-0.7 1.7-1.4 0.9-0.8 1.6-1.6 1.6 2.8 3.3 5.4 1.7 2.7 3.5 5.2 1.7 2.6 3.6 5.2 1.9 2.5 3.9 4.9 1.9 2.6 3.9 5.1l0.9 1.2 0.5 0.6v0.1l0.4 0.4q1 1.3 1.9 2.6c2.6 3.4 5.2 7 7.6 10.7q1 1.6 2 3.2 0.9 1.7 1.9 3.4 0.9 1.7 1.7 3.4 0.9 1.7 1.7 3.5 0.2 0.4 0.5 0.6 0.4 0.3 0.8 0.4 0.5 0.1 0.9 0.1 0.4-0.1 0.8-0.3 0.4-0.3 0.7-0.6 0.2-0.4 0.3-0.8 0.1-0.4 0.1-0.9-0.1-0.4-0.3-0.8-1.4-3-3-6-1.5-3-3.3-5.8-1.7-2.9-3.6-5.7-1.9-2.8-4-5.4c-2.6-3.6-5.4-7.1-8.1-10.5q-0.5-0.7-1-1.3-0.1-0.2-0.2-0.3l-0.1-0.1-0.5-0.6q-1-1.4-2-2.7-1.9-2.6-3.8-5.3-1.1-1.5-2.2-3.1-1.1-1.6-2.1-3.2-1-1.7-2-3.3-0.9-1.7-1.9-3.4-0.2-0.3-0.5-0.6-0.4-0.3-0.8-0.4-0.5-0.1-0.9 0-0.4 0-0.8 0.2-0.2 0.1-0.3 0.2-0.1 0.1-0.2 0.2-0.1 0.2-0.2 0.3-0.1 0.1-0.2 0.2-0.2 0-0.5 0-0.2 0-0.5 0.1-0.2 0.1-0.4 0.2-0.3 0.2-0.4 0.3-0.3 0.4-0.6 0.7-0.3 0.2-0.6 0.5-0.3 0.3-0.6 0.6-0.3 0.2-0.6 0.5l-0.2 0.1q-0.5-0.9-0.9-1.8-0.5-0.9-0.9-1.8-0.4-1-0.7-1.9-0.3-1-0.6-2 0 0 0 0 0.4-0.2 0.7-0.6 0.2-0.3 0.4-0.8 0.1-0.4 0-0.8 0-0.5-0.3-0.8-0.6-1.4-1.1-2.7l-0.1-0.2-0.1-0.1q-0.1-0.3-0.2-0.6-0.3-0.7-0.6-1.4-1.1-2.8-2-5.7-0.9-2.9-1.7-5.9c5.7-4.3 9.8-11.3 13.7-17.1q4.6-6.9 8.8-14 0.3-0.6 0.3-1.2 0-0.7-0.3-1.3-0.3-0.5-0.9-0.9-0.6-0.3-1.2-0.3 0.5-0.8 0.9-1.6 0.4-0.7 0.7-1.6 0.3-0.8 0.6-1.7 0.2-0.8 0.3-1.7c7.1 2.9 14.2 5.2 21.3 7.8q2.2 0.8 4.4 1.7 2.1 0.8 4.2 1.8 2.2 1 4.2 2 2.1 1.1 4.2 2.2c5.3 3 10.4 6.5 14.3 11.2q0.3 0.5 0.6 0.9 0.3 0.4 0.6 0.9 0.3 0.4 0.6 0.9 0.3 0.4 0.5 0.9 0.4 0.6 0.7 1.2 0.3 0.6 0.6 1.2 0.3 0.6 0.6 1.3 0.2 0.6 0.5 1.2 0.5 1.4 0.9 2.7 0.4 1.4 0.7 2.7 0.3 1.4 0.5 2.8 0.2 1.4 0.3 2.8 0.1 1.5 0.1 3zm-35.5 48.8c-1.9-11.7-3.9-23.6-2.2-35.4 0.5-3.1-4.3-4.4-4.8-1.3-1.8 12.8 0.1 25.4 2.2 38 0.6 3.2 5.4 1.8 4.8-1.3z"/>
			<path id="Path_1626" class="s0" d="m185.9 219.4l0.2 0.1q-0.1 0.9-0.4 1.7-0.2 0.9-0.5 1.7-0.3 0.9-0.7 1.7-0.4 0.7-0.9 1.5-0.3 0-0.7 0-0.3 0.1-0.6 0.3-0.3 0.1-0.5 0.3-0.3 0.3-0.4 0.6-3.9 6.6-8.2 13c-2.2 3.5-4.5 6.8-7 10.1q-0.5 0.7-1 1.3-0.5 0.7-1.1 1.4-0.5 0.6-1.1 1.3-0.6 0.6-1.2 1.2 0-0.2 0-0.3c-1.9-8-3.3-16.1-4.8-24.2q-0.5-2.9-1.1-5.9-0.6-2.9-1.3-5.8-0.7-2.9-1.5-5.8-0.7-2.9-1.6-5.7c-1.6-5-2.8-10.1-4.5-15q1.4-0.7 2.7-1.5 1.3-0.8 2.6-1.7 1.3-0.9 2.5-1.9 1.1-1 2.2-2 0.1 2.3 0.3 4.7c0.1 3.3 0.4 6.7 0.9 10q0.1 0.4 0.3 0.7 0.3 0.4 0.7 0.6 0.3 0.2 0.7 0.3 0.4 0.1 0.9 0 0.1 0.5 0.4 0.9 0.2 0.4 0.5 0.9 0.3 0.4 0.6 0.8 0.4 0.3 0.8 0.7-0.4 0.4-0.5 0.8-0.1 0.5 0 1 0 0.4 0.3 0.8 0.3 0.4 0.7 0.7 2.7 1.5 5.5 2.9 2.7 1.5 5.5 2.8 2.8 1.4 5.6 2.6 2.8 1.3 5.7 2.4"/>
			<path id="Path_1627" fill-rule="evenodd" class="s0" d="m170.3 114.6q0.3 0.5 0.8 0.7 0.4 0.2 1 0.2 0.5 0 0.9-0.2 0.1 0.5 0.3 1c-1.4 1.5-0.9 4.5 1.6 4.3q0.3 0 0.5 0c5.5-0.1 7.7 5.4 7.7 10.4-0.1 3.8-1.3 7.7-3.9 10.3q-0.5-0.3-1-0.5-0.6-0.2-1.1-0.3-0.5-0.1-1.1-0.2-0.5-0.1-1.1-0.1-0.9 0-1.7 0.2-0.9 0.2-1.7 0.5-0.9 0.3-1.6 0.8-0.8 0.5-1.4 1.1-0.3 0.1-0.5 0.3-0.2 0.1-0.4 0.3-0.2 0.2-0.3 0.5-0.1 0.2-0.2 0.5-0.4 0.6-0.7 1.2-0.4 0.7-0.6 1.4-0.2 0.7-0.3 1.4-0.1 0.7-0.1 1.4 0 0.6 0 1.1 0.1 0.5 0.2 1.1 0.1 0.5 0.3 1 0.2 0.5 0.5 1c-2 13.7-8.3 27.7-20.8 34q-0.2 0.1-0.4 0.3-0.5-1.1-1-2.2-0.6-1-1.2-2-0.7-0.9-1.4-1.8-0.8-1-1.6-1.8-0.5-0.5-1.2-0.9-0.7-0.4-1.4-0.6-0.8-0.2-1.5-0.2-0.8 0-1.6 0.1-0.4 0.2-0.9 0.3-0.4 0.2-0.9 0.5-0.4 0.2-0.8 0.5-0.4 0.3-0.7 0.6-0.6-0.7-1.4-1.3-0.7-0.5-1.6-0.8-0.9-0.3-1.9-0.3-0.9 0-1.8 0.2c-4.3 1.2-5.7 5.8-5.6 9.8q-0.3 0-0.5 0.1-0.3 0-0.6 0.1-0.2 0.1-0.5 0.3-0.2 0.1-0.4 0.3-0.2-0.1-0.3-0.1-0.2 0-0.3 0-0.2-0.1-0.3-0.1-0.2 0-0.3 0-3-1-5.7-2.5-2.8-1.4-5.3-3.3-2.5-1.8-4.7-4.1-2.2-2.2-4.1-4.7c-4.3-6.3-6.2-13.9-7.2-21.6q0.1-0.2 0.2-0.5 0.1-0.3 0.2-0.6 0-0.3 0.1-0.6 0-0.2 0.1-0.5 0-0.2 0-0.4 0-0.2 0-0.4 0-0.2 0-0.3 0-0.2 0-0.4-0.1-0.5-0.2-1-0.1-0.5-0.3-1-0.1-0.5-0.3-1-0.2-0.5-0.5-0.9 0-0.6-0.1-1.3 0-0.5-0.3-1-0.3-0.6-0.8-0.9-0.5-0.3-1-0.4-0.6-0.1-1.2 0-0.8-0.5-1.7-0.8-0.9-0.3-1.9-0.5-1-0.1-1.9 0-1 0-1.9 0.3c-2.8-3.4-4-8.4-3.9-12.7 0-3 0.7-6.5 2.9-8.8 2.5-2.5 6-2.1 9.1-1 3 1.1 4.3-3.7 1.3-4.8q-0.8-0.3-1.6-0.5 0.1-1.2 0.3-2.4 0.2-1.2 0.5-2.4 0.3-1.1 0.7-2.3 0.3-1.2 0.8-2.3 2-0.5 4-1.1 1.2 0.7 2.6 1.2 1.3 0.6 2.7 0.9 1.4 0.4 2.9 0.5 1.4 0.1 2.9 0 0 0.5 0.2 0.8 0.2 0.4 0.5 0.6 0.4 0.3 0.8 0.4 0.4 0.1 0.8 0c4.8-0.6 9.5-1.7 14.1-3.5 4.5-1.7 8.8-4 12.7-6.8 4-2.8 7.5-6.1 10.7-9.8 3.1-3.7 5.8-7.7 7.9-12.1q0.1-0.3 0.2-0.7 0.1-0.3 0-0.7 0-0.4-0.2-0.7-0.1-0.3-0.3-0.6 0.4-0.6 0.9-1.1 0.5-0.5 1.1-0.9 0.5-0.5 1.2-0.8 0.6-0.3 1.3-0.5-0.2 0.4-0.3 0.8-0.2 0.4-0.2 0.8 0.1 0.4 0.2 0.8 0.2 0.5 0.5 0.8 1.8 2.1 3.4 4.4 1.6 2.3 3 4.8 1.5 2.4 2.6 5 1.2 2.6 2.2 5.2c2.4 7.3 3.5 15 4.5 22.6q0.1 0.5 0.3 0.9zm5.5 6.5q-0.2-0.3-0.4-0.5 0.2 0.2 0.4 0.5zm-48.9 19.2c-0.5 0.5-0.8 1.1-0.8 1.8 0 0.6 0.3 1.3 0.8 1.7 0.5 0.5 1.1 0.8 1.8 0.8q0.5 0 1.1-0.1h-0.1c0.4 0 0.8 0 1.1 0 0.7 0.1 1.3-0.2 1.8-0.7 0.5-0.4 0.7-1.1 0.7-1.7 0-0.7-0.2-1.3-0.7-1.8-0.5-0.5-1.1-0.7-1.8-0.7q-0.5 0-1.1 0c-0.3 0-0.7 0-1 0-0.7 0-1.3 0.2-1.8 0.7zm-16.3-19.8q0.4-0.2 0.8-0.5 0.3-0.4 0.5-0.9 0.2-0.4 0.2-0.9c0-1.1-0.6-2-1.5-2.4-1-0.4-2.1-0.2-2.8 0.6-0.8 0.7-1 1.8-0.6 2.7 0.4 1 1.3 1.6 2.4 1.6q0.5 0 1-0.2zm31.8 38.2q0-0.3-0.1-0.7-0.1-0.3-0.3-0.6-0.3-0.3-0.6-0.5-0.1-0.2-0.3-0.3-0.2-0.1-0.4-0.2-0.2 0-0.4-0.1-0.3 0-0.5 0h-22.1c-1.4 0-3 1.6-2.4 3.1 2.3 5.5 6.7 13.3 13.4 13.5 6.9 0.2 11.4-7.9 13.5-13.5q0.2-0.3 0.2-0.7zm5.8-38.2q0.5-0.2 0.9-0.5 0.3-0.4 0.5-0.9 0.2-0.4 0.2-0.9c0-1.1-0.6-2-1.6-2.4-0.9-0.4-2-0.2-2.8 0.5-0.7 0.8-0.9 1.9-0.5 2.8 0.4 1 1.3 1.6 2.4 1.6q0.5 0 0.9-0.2zm10.3-23.9c-5.5-3.9-11-5.7-17.3-2.8-2.9 1.4-0.4 5.7 2.5 4.3 4.6-2.1 8.5 0 12.3 2.7 2.6 1.9 5-2.4 2.5-4.2z"/>
			<path id="Path_1628" class="s1" d="m195.6 156.3q-0.8 2.3-2.1 4.5-1.2 2.1-2.8 4-1.6 1.8-3.6 3.4-1.9 1.5-4.1 2.7-0.4 0.2-0.7 0.6-0.3 0.3-0.4 0.8-0.2 0.5-0.1 1 0.1 0.4 0.4 0.8-0.6 0.4-1.2 0.7-0.6 0.2-1.3 0.5-0.6 0.2-1.2 0.4-0.7 0.3-1.3 0.4 1.9-1.7 3.5-3.8 1.6-2.1 2.7-4.4 1.1-2.4 1.7-4.9 0.7-2.5 0.7-5.1 0.1-0.7-0.2-1.2-0.3-0.6-0.9-0.9-0.5-0.3-1.1-0.4-0.6 0-1.2 0.2 0.4-0.5 0.8-1.1 0.3-0.6 0.6-1.3 0.2-0.6 0.4-1.3 0.2-0.6 0.2-1.3 0.1-0.2 0.1-0.4 0-0.2 0-0.4 0-0.2 0-0.4 0-0.1-0.1-0.3 0-0.6-0.2-1.2-0.1-0.6-0.3-1.1-0.2-0.6-0.5-1.1-0.2-0.6-0.5-1.1 1.2-1.4 2.2-3.1 1-1.6 1.7-3.4 0.7-1.9 1-3.8 0.3-1.9 0.2-3.8c-0.1-7.5-4.6-15.5-13.1-14.9q-0.2 0-0.4 0.1-0.2 0-0.4 0.1-0.3 0.1-0.4 0.3-0.2 0.1-0.4 0.2-0.2-0.5-0.3-1 0.5-0.2 0.8-0.5 0.4-0.3 0.6-0.7 0.3-0.4 0.3-0.8 0.1-0.5 0.1-0.9c-1.1-8-2.2-16.2-5-23.8q-1-2.8-2.3-5.5-1.3-2.7-2.8-5.2-1.5-2.6-3.3-5-1.7-2.5-3.6-4.7c-1.2-1.5-2.9-0.9-3.7 0.3q-0.7 0.2-1.3 0.5-0.6 0.3-1.2 0.8-0.6 0.4-1.1 0.9-0.5 0.5-0.9 1.1c-1.1-1.3-3.1-1.7-4 0.2-7.6 16-23.4 27.7-41.1 29.7q-0.6 0.1-1 0.4-0.5 0.3-0.9 0.7-0.3 0.5-0.4 1-0.1 0.6 0 1.1-1.5 0.1-2.9 0-1.5-0.1-2.9-0.5-1.4-0.3-2.7-0.8-1.4-0.6-2.6-1.3 4.1-1.4 7.9-3.3 3.8-1.9 7.3-4.4 3.5-2.5 6.5-5.6 3.1-3 5.7-6.4c1.9-2.6-2.4-5.1-4.3-2.5q-3 3.9-6.7 7.2-3.6 3.2-7.9 5.7-4.2 2.5-8.8 4.2-4.7 1.6-9.5 2.3c-3.2 0.4-1.8 5.2 1.3 4.8 1.5-0.3 7.6-3 9.1-3.4-0.9 15.6-4.1 11.6-4.5 14.9-6.8-1.7-15.5-1.7-18 5.3q-0.8 2.7-1 5.5-0.3 2.8 0.1 5.6 0.4 2.7 1.4 5.4 1 2.6 2.5 4.9 0.3 0.4 0.5 0.7c-1.3 1.3-2.2 3-2.6 4.9-0.3 1.8-0.1 3.7 0.6 5.5 0.7 1.7 2 3.2 3.5 4.2 1.6 1.1 3.5 1.6 5.3 1.6q0.7 0 1.3-0.1 0.6-0.1 1.2-0.2 0.6-0.2 1.2-0.4 0.6-0.3 1.1-0.6 0.4 2.2 0.9 4.3 0.5 2.2 1.2 4.3 0.8 2.1 1.7 4.1 0.9 2 2 4 0.5 0.9 1.1 1.8 0.7 0.9 1.3 1.8 0.7 0.9 1.4 1.7 0.7 0.8 1.4 1.6c-2.3 0.2-4.6-0.2-6.7-1-2.2-0.9-4.1-2.2-5.7-3.9-1.5-1.7-2.7-3.7-3.4-5.9-0.7-2.3-0.9-4.6-0.5-6.9 0.4-3.1-4.6-3.1-5 0q-0.2 1.5-0.1 3 0 1.5 0.3 3 0.2 1.4 0.7 2.8 0.5 1.4 1.2 2.8c-4.5-0.7-8.7-4.2-11.7-7.3-4.1-4.3-5.1-9-4.8-14.9 0.7-13.7 6.1-27 9.6-40.2 3.2-11.9 4.2-24.2 8.6-35.7q1.5-4.2 3.7-8.1 2.2-3.9 4.9-7.4 2.7-3.6 5.9-6.7 3.2-3.1 6.9-5.6c9.9-6.9 22.4-10.9 34.4-8.7q1.1 0.2 2.2 0.5 1.1 0.2 2.1 0.5 1.1 0.4 2.1 0.7 1 0.4 2.1 0.9 0.5 0.2 1 0.4 0.5 0.3 1 0.5 0.5 0.3 0.9 0.6 0.5 0.3 1 0.5c1.3 0.8 2.4 2 3.8 2.6q0.3 0.1 0.6 0.2 0.3 0.1 0.6 0.2 0.3 0.1 0.6 0.2 0.3 0 0.6 0.1 0.8 0.1 1.5 0.3 0.7 0.2 1.4 0.4 0.7 0.3 1.5 0.5 0.7 0.3 1.4 0.5 1.9 0.8 3.7 1.7 1.8 1 3.4 2.3 1.6 1.2 3.1 2.6 1.4 1.5 2.6 3.1 1.4 1.9 2.7 4 1.2 2 2.4 4.1 1.1 2.1 2.1 4.2 1 2.2 1.8 4.4c5 12.6 7.5 25.9 10.5 39.1 1.6 6.9 3.2 13.9 4.5 20.9 1.2 6.3 2.8 12.9 0.8 19.3z"/>
			<path id="Path_1629" class="s1" d="m164.6 181.4q-0.4 0.2-0.7 0.4-0.4 0.2-0.8 0.4-0.4 0.1-0.8 0.3-0.4 0.1-0.8 0.3 0-1 0-2 0 0 0-0.1 0 0 0-0.1 0 0 0-0.1 0 0 0-0.1 0.4-0.6 0.8-1.2 0.4-0.6 0.8-1.2 0.4-0.7 0.8-1.3 0.3-0.6 0.7-1.3 1-2 1.9-4.1 0.9-2.1 1.7-4.2 0.7-2.2 1.3-4.4 0.6-2.2 1.1-4.4 0.5 0.3 1 0.5 0.5 0.2 1.1 0.3 0.5 0.2 1.1 0.2 0.6 0.1 1.1 0.1 0.9 0 1.7-0.1 0.8-0.2 1.6-0.5 0.7-0.2 1.4-0.7 0.8-0.4 1.4-0.9 0 0.1-0.1 0.2 0 0 0 0.1 0 0.1 0 0.2 0 0.1 0 0.2c-0.1 2.2-0.6 4.4-1.4 6.4-0.8 2.1-1.9 4-3.3 5.7-1.4 1.7-3.1 3.2-5 4.4-1.9 1.1-4 2-6.2 2.4-2.4 0.6-2.1 3.6-0.4 4.6z"/>
			<path id="Path_1630" class="s0" d="m112.3 309.6q0.2-0.1 0.4-0.3 0.2-0.2 0.4-0.4 0.1-0.1 0.2-0.4 0.5 0.2 1 0.4-0.6 1.7-1.2 3.4-1 2.4-2 4.9-0.6 1.6-1.3 3.2c-0.5 1.3-0.9 2.1-1.3 3.2q-4.1 9.5-8.6 18.9c-2.7 5.8-5.7 11.5-8.4 17.3-4.4 9.4-8.5 19-14.3 27.8q-0.9 1.5-2 3-1 1.4-2.2 2.8-1.1 1.4-2.4 2.7-1.3 1.3-2.6 2.5-0.6 0.5-1.3 1c0 0.1-0.1 0.1-0.1 0.2q-0.1 0-0.2 0.1-0.4 0.3-0.8 0.6-0.4 0.2-0.7 0.4-0.4 0.3-0.7 0.5-0.4 0.2-0.7 0.4-0.4 0.2-0.8 0.4-0.7 0.4-1.4 0.7-0.2 0.1-0.3 0.2h-0.1q-0.4 0.2-0.9 0.3-0.3 0.2-0.7 0.3-0.4 0.1-0.8 0.2-0.4 0.1-0.8 0.2-0.4 0.1-0.8 0.2-0.4 0.1-0.8 0.1-0.1 0.1-0.3 0.1-0.9 0.1-1.8 0.1-0.5 0-0.9 0-0.4 0-0.9 0-0.4 0-0.9 0-0.4-0.1-0.9-0.1h-0.1l-0.4-0.1q-0.4-0.1-0.8-0.1-1-0.2-1.9-0.5-0.5-0.1-1-0.3-0.5-0.1-1-0.3-0.5-0.2-1-0.3-0.5-0.2-1-0.4c-0.3-0.2-1.1-0.5-1.7-0.8q-0.3-0.2-0.6-0.3-0.3-0.2-0.6-0.3-0.2-0.2-0.5-0.3-0.3-0.2-0.6-0.4-0.5-0.3-1-0.7-0.6-0.4-1.1-0.8-0.5-0.4-1-0.9-0.4-0.4-0.9-0.8-1-1-1.9-2.1-1-1-1.8-2.1-0.9-1.1-1.6-2.3-0.8-1.2-1.4-2.4-0.5-1-0.9-1.9-0.4-1-0.7-2-0.4-0.9-0.7-1.9-0.3-1-0.5-2.1-1.1-4.3-2.1-8.8-0.5-2.1-0.9-4.3-0.2-0.9-0.4-1.9-0.1-0.3-0.1-0.7c0-0.2-0.2-1.1-0.1-0.4-0.6-4.5-1.2-8.9-2-13.4-2.9-17.7-6.6-35.2-9.2-52.9q-0.4-3.3-0.8-6.6-0.4-3.2-0.7-6.5-0.4-3.3-0.6-6.5-0.2-3.3-0.4-6.6-0.1-1.4-0.1-2.9 0-1.5 0-2.9 0-1.5 0.1-3 0-1.4 0.2-2.9 0.1-0.5 0.2-1.1 0-0.6 0.2-1.1 0.1-0.6 0.2-1.1 0.1-0.6 0.3-1.1 0.1-0.6 0.3-1.1 0.1-0.5 0.3-1 0.2-0.5 0.4-1 0.2-0.5 0.4-1c4.8-11 15.2-17.9 25.9-22.4 8-3.4 16.6-5.4 25-7.5q0.4 0.9 0.8 1.8 0.5 0.8 1 1.7 0.4 0.9 1 1.7 0.5 0.8 1.1 1.6-0.5 0.2-0.8 0.5-0.4 0.4-0.5 0.9-0.2 0.5-0.1 1 0.1 0.5 0.4 1c5.6 8.5 12.8 16 20.2 22.9q0.5 0.5 1.1 0.6 0.6 0.2 1.3 0 0.6-0.2 1.1-0.6 0.4-0.5 0.6-1.1c1.5 1 3 1.9 4.6 2.8q-0.2 0.5-0.3 1-0.7 1.8-1.4 3.7-0.2 0.4-0.3 0.7-0.1 0.3-0.2 0.5 0 0 0 0-0.4 0.9-0.8 1.7c-2.1 4.8-4.5 9.4-6.6 14.2q-1 2.2-1.9 4.5-0.1 0.4-0.1 0.8 0.1 0.5 0.3 0.9 0.2 0.4 0.6 0.6 0.3 0.3 0.7 0.4 0.1 0 0.1 0 0.1 0 0.1 0.1 0.1 0 0.1 0 0.1 0 0.2 0-0.3 0.4-0.5 0.7-0.2 0.4-0.4 0.8-0.2 0.3-0.5 0.7-0.2 0.3-0.5 0.7-0.3-0.2-0.7-0.4-0.4-0.1-0.8 0-0.4 0-0.7 0.2-0.4 0.1-0.7 0.4-0.2 0.2-0.4 0.5-0.1 0.3-0.2 0.6 0 0.3 0 0.6 0 0.3 0.1 0.6-0.4-0.1-0.8-0.2-0.5 0-0.9-0.1-0.4 0-0.8-0.1-0.5 0-0.9 0 0.1-0.4 0.1-0.8 0-0.4-0.1-0.8-0.1-0.3-0.4-0.6-0.2-0.3-0.6-0.5-0.3-0.2-0.8-0.3-0.4-0.1-0.8 0.1-0.5 0.1-0.8 0.3-0.4 0.3-0.6 0.7-0.8 1.4-1.7 2.9-0.8 1.4-1.7 2.8-0.9 1.4-1.8 2.8-1 1.4-1.9 2.7-0.5 0.7-0.9 1.3-0.3 0.3-0.5 0.6l-0.2 0.2v0.1h-0.1q-1 1.3-2 2.5-1.9 2.3-3.9 4.6-1.9 2.2-3.9 4.4 0-0.1 0.1-0.2 0-0.1 0-0.2 0-0.1 0-0.2 0 0 0.1-0.1c1.2-11.9 1.4-25.1-6.3-35-1.9-2.5-6.2-0.1-4.3 2.5 7.2 9.2 6.7 21.4 5.6 32.5-0.2 2.1 2 2.8 3.5 2-3.6 3.9-7.2 7.8-10.6 11.9q-1.2 1.4-2.3 2.8-1.1 1.5-2.2 2.9-1 1.5-2.1 3-1 1.5-2 3-0.2 0.4-0.2 0.8-0.1 0.5 0 0.9 0.1 0.4 0.4 0.8 0.3 0.3 0.6 0.5 0.4 0.3 0.9 0.3 0.4 0.1 0.8 0 0.5-0.1 0.8-0.4 0.4-0.3 0.6-0.7 1.7-2.7 3.6-5.3 0.4-0.6 0.9-1.2 0.2-0.3 0.4-0.5 0.1-0.2 0.3-0.4l0.1-0.1q0.9-1.2 1.8-2.3c2.5-3.1 5.2-6.1 7.9-9 5.5-6 11.1-11.9 16-18.4q1.1-1.5 2.2-3 1-1.6 2-3.1 1-1.6 2-3.2 1-1.6 1.8-3.3 0.1 0 0.1-0.1 0 0 0 0 0-0.1 0.1-0.1 0-0.1 0-0.1 0.4 0 0.9 0 0.4 0.1 0.8 0.1 0.4 0.1 0.9 0.1 0.4 0.1 0.8 0.2 0.1 0.1 0.1 0.2 0.1 0.2 0.1 0.3 0.1 0.1 0.2 0.2 0 0.1 0.1 0.2 0.1 0.1 0.2 0.2-0.3 0.4-0.5 0.7 0.2-0.3 0.5-0.7 0.6 0.6 1.3 1.3 0.6 0.6 1.3 1.2 0.7 0.5 1.5 1.1 0.7 0.5 1.5 1 0.9 0.6 1.8 1.2 0.9 0.6 1.9 1.1 0.9 0.6 1.9 1.1 1 0.6 1.9 1.1c4.8 2.5 9.6 4.8 14.6 7q1.7 0.8 3.5 1.5 0.2 0.1 0.3 0.1 0.1 0 0.3 0 0.1 0 0.3 0 0.1 0 0.3-0.1-0.3 0.5-0.7 1 0.4-0.5 0.7-1 0.2 0 0.4-0.1z"/>
			<path id="Path_1631" class="s0" d="m124.6 271.9q-0.3 1.7-0.7 3.3-0.5 1.7-1 3.4-0.5 1.6-1.1 3.2-0.5 1.7-1.2 3.3-0.2 0.4-0.4 0.8l-0.1 0.4q-0.4 0.8-0.7 1.5-0.7 1.5-1.4 2.9-1.3 2.6-2.7 5.1-0.7 1.1-1.4 2.1-0.3 0.4-0.5 0.8c-0.3 0.2-0.3 0.3-0.2 0.2q-0.1 0.1-0.3 0.3-0.3 0.3-0.4 0.7-0.2 0.4-0.2 0.9 0 0.4 0.2 0.8 0.1 0.4 0.4 0.7 0.3 0.2 0.5 0.4 0.3 0.1 0.5 0.2 0.3 0.1 0.6 0.1 0.3 0 0.5-0.1-0.1 0.6-0.3 1.1-0.2 0.5-0.4 1-0.2 0.5-0.4 1-0.2 0.5-0.5 0.9-0.1-0.2-0.2-0.5-0.2-0.2-0.4-0.4-0.2-0.2-0.4-0.3-0.2-0.2-0.5-0.3-0.3-0.1-0.5-0.2l-0.4-0.2q-0.6-0.2-1.1-0.4-3.1-1.4-6.1-2.8-2-0.9-4-1.9-2-1-3.9-2-1.9-1-3.8-2.1-1.9-1.1-3.8-2.3-1-0.6-1.9-1.3-0.4-0.3-0.8-0.6l-0.2-0.2q-0.2-0.1-0.3-0.2-0.4-0.3-0.7-0.6-0.4-0.3-0.7-0.6-0.3-0.3-0.6-0.6-0.3-0.3-0.6-0.7-0.1 0-0.1 0 0-0.1 0-0.1-0.1 0-0.1-0.1 0 0-0.1 0 0.3-0.4 0.5-0.7 0.3-0.4 0.5-0.7 0.2-0.4 0.4-0.8 0.3-0.3 0.5-0.7 0.3 0 0.7-0.1 0.4-0.1 0.7-0.3 0.3-0.2 0.5-0.6 0.3-0.3 0.4-0.6 0.1-0.4 0.3-0.7v-0.2q0.2-0.4 0.4-0.9 0.5-1.1 1-2.1 0.8-1.9 1.7-3.8c1.1-2.3 2.2-4.5 3.3-6.8q0.6-1.4 1.2-2.7 0.7-1.4 1.2-2.8 0.6-1.4 1.1-2.8 0.6-1.4 1.1-2.8 0.3 0.1 0.6 0.2-0.3-0.1-0.6-0.2 0.5-1.6 1-3.3c0.6-2 0.9-4.1 1.6-6.1q0.3-1.1 0.6-2.3c0.5-2.3 1-4.7 1.4-7.1 1.2-6.4 2.2-13 3.5-19.4q0.4-2.4 1-4.8 0.5-2.4 1.1-4.8 0.6-2.4 1.3-4.8 0.7-2.3 1.4-4.6 0.4-1 0.7-1.9 0.1-0.2 0.2-0.3 0-0.1 0-0.1 0.2-0.4 0.4-0.9 0.4-0.8 0.9-1.7 0 0.5-0.1 1 0 0.4 0.1 0.9 0 0.5 0 0.9 0.1 0.5 0.2 1-0.2 0.1-0.3 0.2-0.2 0.1-0.3 0.3-0.2 0.1-0.3 0.2-0.2 0.2-0.3 0.3-0.5 0.7-0.9 1.5-0.4 0.7-0.7 1.5-0.2 0.9-0.2 1.7-0.1 0.9 0 1.7 0.1 0.8 0.3 1.5 0.1 0.8 0.3 1.5 0.2 0.8 0.4 1.5 0.2 0.8 0.4 1.5 0.5 1.6 1 3.1-0.2 0.2-0.3 0.4-0.1 0.1-0.2 0.3 0 0.2-0.1 0.4 0 0.2 0 0.4c-0.5 7.4-1.2 14.7-2.2 22v0.1q0 0.3-0.1 0.6 0 0.5-0.1 1-0.1 0.9-0.3 1.9-0.3 1.9-0.7 3.7c-0.1 0.6 0 1.2 0.3 1.7 0.3 0.5 0.8 0.9 1.3 1 0.6 0.2 1.2 0.1 1.7-0.2 0.5-0.3 0.9-0.7 1.1-1.3 1-4.9 1.5-10 2.1-15q0.2-2.1 0.4-4.1 1.3 6.5 2.8 13 1.2 5.5 2.3 10.9c1 4.5 1.7 9.1 2.8 13.5q0.6 2.5 1.4 5z"/>
			<path id="Path_1632" class="s0" d="m91.6 210.7q0.3-0.4 0.3-1 0.1-0.5-0.1-0.9-0.2-0.5-0.5-0.9 0.6-0.6 1.2-1.1 0.6-0.6 1.2-1.2 0.6-0.6 1.2-1.3 0.5-0.6 1.1-1.2c0.3 0.4 0.7 0.8 1.2 1 0.5 0.1 1.1 0.2 1.6 0 0.5-0.1 1-0.4 1.3-0.8 0.3-0.4 0.5-1 0.6-1.5q0.3-7.4 0.5-14.8 1.1 0.7 2.2 1.4 1.1 0.8 2.2 1.4 1.1 0.7 2.3 1.2 1.1 0.6 2.3 1.1-0.4 0.6-0.8 1.2-0.3 0.5-0.7 1.1-0.3 0.6-0.6 1.2-0.3 0.6-0.5 1.3-0.9 2.2-1.7 4.5-0.8 2.3-1.5 4.7-0.6 2.3-1.2 4.7-0.6 2.3-1 4.7c-1.4 6.8-2.6 13.6-3.8 20.4-0.4 2.6-0.9 5.3-1.5 7.9q-0.2 1.4-0.6 2.8c-0.2 0.9-0.5 1.7-0.7 2.5q-0.8 3.8-2 7.4c-1.6-0.9-3.1-1.8-4.6-2.8q0.1-0.3 0.1-0.7 0.1-0.3 0-0.6-0.1-0.3-0.3-0.6-0.2-0.3-0.4-0.5c-7.1-6.6-14.1-13.8-19.5-21.9q-0.2-0.4-0.6-0.7-0.3-0.3-0.8-0.4-0.4-0.1-0.9-0.1-0.5 0.1-0.9 0.3-0.6-0.8-1.1-1.6-0.6-0.8-1-1.7-0.5-0.9-1-1.7-0.4-0.9-0.8-1.8l0.1-0.1q0.3 0.4 0.7 0.7-0.4-0.3-0.7-0.7 2.3-0.5 4.6-1.1 2.3-0.6 4.6-1.3 2.2-0.6 4.5-1.4 2.2-0.7 4.5-1.5 1.4-0.5 2.7-1 1.4-0.6 2.8-1.2 1.3-0.7 2.6-1.3 1.4-0.7 2.7-1.4 0.4-0.3 0.7-0.7z"/>
			<path id="Path_1633" class="s1" d="m55.8 404.5c0.1 0 0.3-0.1 0 0"/>
			<path id="Path_1634" class="s1" d="m206.3 22.2c0 0 0.1 0.1 0.2 0.1-0.1 0-0.2-0.1-0.2-0.1z"/>
			<path id="Path_1635" class="s1" d="m199.8 400c-0.2 0-0.1 0 0 0"/>
			<path id="Path_1636" class="s1" d=""/>
			<path id="Path_1637" class="s1" d=""/>
			<path id="Path_1638" class="s0" d="m135.9 161.3q-0.4 0.7-0.9 1.5c-1.3 2.1-3.5 5.3-6.3 5.2-2.6-0.2-4.7-3.2-6-5.2q-0.5-0.7-1-1.5z"/>
			<path id="Path_1639" class="s2" d="m172.9 110.7q-0.2 0.7-0.2 1.5-0.1 0.8 0 1.6 0.1 0.7 0.3 1.5-0.4 0.2-1 0.2-0.5 0-0.9-0.2-0.5-0.2-0.8-0.7-0.3-0.4-0.3-0.9c-1-7.6-2.1-15.3-4.5-22.6q-1-2.6-2.2-5.2-1.1-2.6-2.6-5-1.4-2.5-3-4.8-1.6-2.3-3.4-4.4-0.3-0.4-0.5-0.8-0.1-0.4-0.1-0.8-0.1-0.4 0.1-0.8 0.1-0.4 0.3-0.8 0.3 0 0.6-0.1 0.3 0 0.6 0 0.2 0 0.5 0 0.3 0 0.6 0.1-0.3-0.1-0.6-0.1-0.3 0-0.5 0-0.3 0-0.6 0-0.3 0.1-0.6 0.1c0.8-1.2 2.5-1.8 3.7-0.3q1.9 2.2 3.6 4.7 1.8 2.4 3.3 5 1.5 2.5 2.8 5.2 1.3 2.7 2.3 5.5c2.8 7.6 3.9 15.8 5 23.8q0 0.4-0.1 0.9-0.1 0.4-0.3 0.8-0.2 0.4-0.6 0.7-0.4 0.3-0.8 0.5-0.2-0.8-0.3-1.5-0.1-0.8 0-1.6 0-0.8 0.2-1.5 0.1-0.8 0.4-1.5-0.3 0.7-0.4 1.5z"/>
			<path id="Path_1640" class="s2" d="m129.7 144.5h0.1q-0.6 0.1-1.1 0c-0.7 0.1-1.3-0.2-1.8-0.7-0.5-0.4-0.8-1.1-0.8-1.7 0-0.7 0.3-1.3 0.8-1.8 0.5-0.5 1.1-0.7 1.8-0.7 0.3 0 0.7 0 1 0q0.6 0 1.1 0c0.7 0 1.3 0.2 1.8 0.7 0.5 0.5 0.7 1.1 0.7 1.8 0 0.6-0.2 1.3-0.7 1.7-0.5 0.5-1.1 0.8-1.8 0.7-0.3 0-0.7 0-1.1 0z"/>
			<path id="Path_1641" class="s2" d="m107.2 117.2q0.2-0.5 0.6-0.8 0.3-0.4 0.8-0.6 0.5-0.2 1-0.2c1 0 1.9 0.6 2.3 1.6 0.4 0.9 0.2 2-0.5 2.8-0.7 0.7-1.8 0.9-2.8 0.5-1-0.4-1.6-1.3-1.6-2.3q0-0.5 0.2-1z"/>
			<path id="Path_1642" class="s2" d="m144.9 117.2q0.2-0.5 0.6-0.8 0.3-0.4 0.8-0.6 0.4-0.2 1-0.2c1 0 1.9 0.6 2.3 1.6 0.4 0.9 0.2 2-0.5 2.8-0.8 0.7-1.9 0.9-2.8 0.5-1-0.4-1.6-1.3-1.6-2.3q0-0.5 0.2-1z"/>
			<path id="Path_1643" fill-rule="evenodd" class="s2" d="m115.3 159.4c-0.6-1.5 1-3.1 2.4-3.1h22.1q0.2 0 0.4 0 0.3 0.1 0.5 0.1 0.2 0.1 0.4 0.2 0.2 0.1 0.3 0.3 0.3 0.2 0.6 0.5 0.2 0.3 0.3 0.6 0.1 0.4 0.1 0.7-0.1 0.4-0.2 0.7c-2.1 5.6-6.6 13.7-13.5 13.5-6.7-0.2-11.1-8-13.4-13.5zm19.7 3.4q0.5-0.8 0.9-1.5h-14.2q0.5 0.8 1 1.5c1.3 2 3.4 5 6 5.2 2.8 0.1 5-3.1 6.3-5.2z"/>
			<path id="Path_1644" class="s2" d="m149.5 71.8c-1.8 2.2-3.3 5.1-5 7.1 1.7-2 3.2-4.9 5-7.1q0.3 0.3 0.4 0.6 0.2 0.3 0.2 0.7 0.1 0.4 0 0.7-0.1 0.4-0.2 0.7c-2.1 4.4-4.8 8.4-7.9 12.1-3.2 3.7-6.7 7-10.7 9.8-3.9 2.8-8.2 5.1-12.8 6.8-4.5 1.8-9.2 2.9-14 3.5q-0.4 0.1-0.8 0-0.4-0.1-0.8-0.4-0.3-0.2-0.5-0.6-0.2-0.3-0.2-0.8 0.5 0 1-0.1 0.5 0 1-0.1 0.5-0.1 1.1-0.2 0.5-0.1 1-0.3-0.5 0.2-1 0.3-0.6 0.1-1.1 0.2-0.5 0.1-1 0.1-0.5 0.1-1 0.1-0.1-0.5 0-1.1 0.1-0.5 0.4-1 0.4-0.4 0.9-0.7 0.4-0.3 1-0.4c17.7-2 33.5-13.7 41.1-29.7 0.9-1.9 2.9-1.5 3.9-0.2z"/>
			<path id="Path_1645" class="s2" d="m87.4 102.7q0.1-0.4 0.3-0.7 0.2-0.4 0.4-0.8 0.1-0.3 0.3-0.6 0.3 0.2 0.7 0.4 0.3 0.2 0.6 0.5 0.4 0.2 0.7 0.4 0.3 0.2 0.7 0.4-2 0.6-4 1.1 0.1-0.4 0.3-0.7z"/>
			<path id="Path_1646" class="s2" d="m118.5 82.6q-2.6 3.4-5.7 6.4-3 3.1-6.5 5.6-3.5 2.5-7.3 4.4-3.8 1.9-7.9 3.3-0.4-0.2-0.7-0.4-0.3-0.2-0.7-0.4-0.3-0.3-0.6-0.5-0.4-0.2-0.7-0.4 0.3-0.4 0.5-0.8-0.2 0.3-0.5 0.8-0.5-0.4-1-0.8 0.5 0.4 1 0.8-0.2 0.3-0.3 0.6-0.2 0.4-0.4 0.8-0.2 0.3-0.3 0.7-0.2 0.3-0.3 0.7-2.2 0.5-4.5 0.9c-3.1 0.4-4.5-4.4-1.3-4.8q4.8-0.7 9.5-2.3 4.6-1.7 8.8-4.2 4.3-2.5 7.9-5.7 3.7-3.3 6.7-7.2c1.9-2.6 6.2-0.1 4.3 2.5z"/>
			<path id="Path_1647" class="s0" d="m84.2 149.8c-0.3-5.9-9.3-5.9-9.3 0 0.1 6 9 5.9 9.3 0z"/>
			<path id="Path_1648" class="s0" d="m170.3 149.8c0 6 9 5.9 9.2 0-0.2-5.9-9.2-5.9-9.2 0z"/>
			<path id="Path_1649" class="s2" d="m156 100.8c-3.8-2.7-7.7-4.8-12.3-2.7-2.9 1.4-5.4-2.9-2.5-4.3 6.3-2.9 11.8-1.1 17.3 2.7 2.5 1.9 0.1 6.2-2.5 4.3z"/>
			<path id="Path_1650" class="s2" d="m89 253.7q-0.1 0.6-0.6 1.1-0.5 0.4-1.1 0.6-0.6 0.2-1.3 0-0.6-0.1-1.1-0.5c-7.4-7-14.6-14.5-20.2-23q-0.3-0.5-0.4-1-0.1-0.5 0.1-1 0.1-0.5 0.5-0.9 0.4-0.3 0.8-0.5c2.8 3.7 6 7.2 8.3 11.2-2.3-4-5.5-7.5-8.3-11.2q0.5-0.2 0.9-0.3 0.5 0 0.9 0.1 0.5 0.1 0.8 0.4 0.4 0.3 0.6 0.7c5.4 8.1 12.4 15.3 19.5 21.9q0.2 0.3 0.4 0.5 0.2 0.3 0.3 0.6 0.1 0.3 0 0.6 0 0.4-0.1 0.7c-1.3-0.9-2.7-1.8-4.1-2.6 1.4 0.8 2.8 1.7 4.1 2.6z"/>
			<path id="Path_1651" class="s2" d="m204 400.7q-0.3 0.3-0.6 0.6-0.3 0.3-0.6 0.6-0.3 0.2-0.6 0.5 0.2-0.3 0.5-0.7 0.3-0.3 0.5-0.6 0.3-0.3 0.7-0.5 0.3-0.3 0.6-0.6-0.2 0.4-0.5 0.7z"/>
			<path id="Path_1652" class="s2" d=""/>
			<path id="Path_1653" fill-rule="evenodd" class="s2" d="m250.4 268.1q0 1.5 0 3 0 1.6-0.1 3.1-0.1 1.5-0.3 3-0.3 3.1-0.6 6.2-0.4 3-0.8 6.1-0.4 3.1-0.9 6.1-0.6 3.1-1.1 6.1c-3 15.7-7.2 31.2-10.2 47q-1.2 6.2-2.1 12.4c-0.4 2.8-0.8 5.6-1.4 8.4q-0.9 4.4-2 8.8-0.2 0.9-0.4 1.8-0.3 1-0.5 1.9-0.3 0.9-0.6 1.8-0.2 0.9-0.5 1.8c-2.6 6.7-7.9 11.8-14.1 15.3-4.7 2.6-9.9 4.2-15.3 3.6l-0.1-0.1c-10.5-1.3-18.4-9.8-24.3-18-6.6-9.3-11.6-19.7-16.4-30-5.5-11.8-11-23.7-16-35.8-1.7-4.1-3.4-8.2-4.9-12.3q-0.1-0.3-0.1-0.5-0.1-0.3 0-0.5 0-0.3 0.1-0.5 0.2-0.2 0.3-0.4 0-0.4 0.1-0.8 0.1-0.4 0.3-0.7 0.3-0.3 0.6-0.6 0.3-0.2 0.7-0.3 0.4-0.2 0.9-0.4 0.6-0.2 1.2-0.5l0.7-0.3 0.2-0.1h0.1c5.7-2.4 11.3-5 16.8-7.8 3-1.5 5.9-3.1 8.7-4.9q1-0.6 1.9-1.2 0.4-0.3 0.8-0.6l0.2-0.2 0.2-0.1q0 0 0 0 0 0 0 0 0 0 0 0 0 0 0 0 0.3-0.2 0.6-0.5 0.3-0.3 0.6-0.6 0.3-0.2 0.6-0.5 0.3-0.3 0.6-0.6 0.1-0.2 0.4-0.4 0.2-0.1 0.4-0.2 0.3-0.1 0.5-0.1 0.3 0 0.5 0.1 0.1-0.2 0.2-0.3 0.1-0.1 0.2-0.2 0.1-0.2 0.2-0.3 0.1-0.1 0.3-0.1 0.4-0.3 0.8-0.3 0.4-0.1 0.9 0 0.4 0.1 0.7 0.4 0.4 0.3 0.6 0.7 0.9 1.6 1.9 3.3 1 1.7 2 3.3 1 1.6 2.1 3.2 1 1.6 2.2 3.2 1.8 2.6 3.8 5.2 1 1.4 2 2.7 0.3 0.3 0.5 0.6l0.1 0.1 0.2 0.3 1 1.3c2.7 3.5 5.5 6.9 8.1 10.5q2.1 2.6 4 5.4 1.9 2.8 3.6 5.7 1.7 2.8 3.3 5.8 1.6 3 3 6 0.2 0.4 0.3 0.9 0 0.4-0.1 0.8-0.1 0.4-0.4 0.8-0.2 0.4-0.6 0.6-0.4 0.2-0.8 0.3-0.5 0-0.9-0.1-0.4-0.1-0.8-0.4-0.3-0.2-0.5-0.6-0.8-1.8-1.7-3.5-0.8-1.7-1.7-3.4-1-1.7-1.9-3.3-1-1.7-2.1-3.3c-2.3-3.7-4.9-7.2-7.5-10.7q-1-1.3-1.9-2.6l-0.4-0.4v-0.1l-0.5-0.6q-0.4-0.6-0.9-1.1-2-2.6-4-5.1-1.9-2.5-3.8-5-1.9-2.5-3.6-5.1-1.8-2.6-3.5-5.3-1.7-2.6-3.3-5.3-0.8 0.7-1.6 1.5-0.8 0.7-1.7 1.4-0.8 0.6-1.8 1.2-0.9 0.6-1.8 1.2-2.2 1.3-4.5 2.5-2.2 1.3-4.5 2.4-2.3 1.2-4.6 2.3-2.3 1.1-4.6 2.1-4.7 2.1-9.4 4 0 0 0 0.1 1.1 2.9 2.3 5.8 1 2.5 2.1 5.1 0.4 0.8 0.7 1.6v0.1q0.1 0.2 0.2 0.4l0.3 0.7q0.8 1.9 1.6 3.7 7.6 17.8 16 35.1c2.4 5.1 5 10.2 7.9 15.1q1 1.7 2.1 3.5 1.1 1.7 2.2 3.4 1.2 1.7 2.4 3.3 1.3 1.6 2.6 3.2 0.6 0.7 1.3 1.4 0.6 0.8 1.3 1.4 0.7 0.7 1.4 1.4 0.7 0.6 1.4 1.3 0.4 0.3 0.7 0.6c0.1 0 0.5 0.3 0.6 0.4q0.6 0.5 1.2 0.9 0.4 0.3 0.8 0.5 0.3 0.2 0.7 0.4 0.3 0.3 0.7 0.5 0.4 0.2 0.8 0.4 0.7 0.4 1.5 0.7c0.1 0 0.3 0.2 0.4 0.2q0.4 0.1 0.7 0.2 0.4 0.2 0.8 0.3 0.4 0.1 0.8 0.2 0.4 0.1 0.8 0.2 0.4 0.1 0.8 0.2 0.2 0 0.5 0 0.4 0.1 0.8 0.1 0.8 0.1 1.6 0.1 0.9 0 1.7-0.1l0.3-0.1h0.2q0.4-0.1 0.8-0.1 0.4-0.1 0.9-0.2 0.5-0.2 0.9-0.3 0.4-0.1 0.9-0.3 0.4-0.1 0.9-0.3 0.2-0.1 0.5-0.2h0.1q0.4-0.2 0.9-0.4 1.1-0.6 2.2-1.2 1-0.6 2-1.2 1-0.7 2-1.4 1-0.7 1.9-1.5 0.9-0.8 1.7-1.7 0.8-0.8 1.5-1.7 0.7-1 1.3-2 0.6-1 1.1-2 0.5-1.1 0.8-2.2c0.8-2.3 1.3-4.7 1.9-7.1q1.1-4.3 1.9-8.6 0.4-1.7 0.7-3.4c0-0.2 0.1-0.6 0.1-0.6q0.1-0.8 0.2-1.5 0.2-1.5 0.4-2.9c1.2-8 2.7-16 4.5-23.9 3.4-15.3 7.3-30.5 9.6-46q0.8-5.9 1.3-11.7 0.2-1.5 0.3-3 0.1-1.5 0.1-3 0.1-1.4 0-2.9 0-1.5-0.1-3-0.1-1.4-0.3-2.8-0.2-1.4-0.5-2.8-0.3-1.3-0.7-2.7-0.4-1.3-0.9-2.7-0.3-0.6-0.5-1.2-0.3-0.7-0.6-1.3-0.3-0.6-0.6-1.2-0.3-0.6-0.7-1.2-0.2-0.5-0.5-0.9-0.3-0.5-0.6-0.9-0.3-0.5-0.6-0.9-0.3-0.4-0.6-0.8c-3.9-4.8-9-8.3-14.3-11.3q-2.1-1.1-4.2-2.2-2-1-4.2-2-2.1-0.9-4.2-1.8-2.2-0.9-4.4-1.7c-7.1-2.6-14.2-4.9-21.2-7.8q0-0.1 0-0.1 0 0 0 0.1l-0.3-0.1q-2.9-1.1-5.7-2.4-2.8-1.2-5.6-2.6-2.8-1.3-5.5-2.8-2.8-1.4-5.5-2.9-0.4-0.3-0.7-0.7-0.3-0.4-0.3-0.8-0.1-0.5 0-1 0.1-0.4 0.5-0.8 0.2-0.3 0.5-0.6 0.4-0.2 0.8-0.3 0.3 0 0.7 0 0.4 0.1 0.8 0.3 5.3 3 10.7 5.7 2.8 1.3 5.6 2.5 2.8 1.3 5.7 2.4 2.8 1.2 5.7 2.3 2.9 1.1 5.8 2.1c6.4 2.3 12.8 4.4 19.1 7.2q2.3 1 4.5 2.2 2.3 1.1 4.4 2.4 2.2 1.3 4.3 2.7 2.1 1.4 4.1 3 0.9 0.7 1.7 1.4 0.9 0.8 1.7 1.6 0.8 0.8 1.6 1.6 0.8 0.9 1.5 1.8 0.8 1.1 1.6 2.2 0.8 1.2 1.4 2.4 0.7 1.3 1.3 2.5 0.6 1.3 1 2.6 0.6 1.4 1 2.8 0.4 1.5 0.7 2.9 0.4 1.5 0.6 3 0.2 1.4 0.4 2.9 0.1 1.6 0.1 3.1zm-48.2 134.3q-0.6 0.8-1.1 1.6 0.5-0.8 1.1-1.6 0.3-0.3 0.6-0.5 0.3-0.3 0.6-0.6 0.3-0.3 0.6-0.6 0.3-0.3 0.5-0.7-0.3 0.3-0.6 0.6-0.4 0.2-0.7 0.5-0.3 0.3-0.5 0.6-0.3 0.4-0.5 0.7z"/>
			<path id="Path_1654" class="s2" d="m75.4 290.6q0 0 0 0.1 0 0-0.1 0.1 0 0 0 0 0 0.1 0 0.1-0.9 1.7-1.9 3.3-0.9 1.6-2 3.2-1 1.5-2 3.1-1.1 1.5-2.2 3c-4.9 6.5-10.5 12.4-16 18.4-2.7 2.9-5.4 5.9-7.9 9q-0.9 1.1-1.8 2.3-0.1 0.1-0.1 0.2l-0.3 0.3q-0.2 0.2-0.4 0.5-0.4 0.6-0.9 1.2-1.9 2.6-3.6 5.4-0.2 0.3-0.6 0.6-0.3 0.3-0.8 0.4-0.4 0.1-0.8 0-0.5 0-0.9-0.2-0.3-0.3-0.6-0.6-0.3-0.4-0.4-0.8-0.1-0.4 0-0.9 0-0.4 0.2-0.8 1-1.5 2-3 1.1-1.5 2.1-3 1.1-1.4 2.2-2.9 1.1-1.4 2.3-2.8c3.4-4.1 7-8 10.6-11.9-1.5 0.8-3.7 0.1-3.5-2 1.2-11.1 1.6-23.3-5.6-32.5-1.9-2.6 2.4-5 4.3-2.5 7.7 9.9 7.5 23.1 6.3 35q0 0.1-0.1 0.1 0 0.1 0 0.2 0 0.1 0 0.2-0.1 0.1-0.1 0.2 2-2.2 3.9-4.4 2-2.3 3.9-4.6 1-1.2 2-2.5h0.1v-0.1q0.1-0.1 0.2-0.2l0.5-0.6q0.4-0.6 0.9-1.3 0.9-1.3 1.9-2.7 0.9-1.4 1.8-2.8 0.9-1.4 1.8-2.8 0.8-1.5 1.6-2.9 0.2-0.4 0.6-0.7 0.3-0.2 0.8-0.3 0.4-0.2 0.8-0.1 0.5 0.1 0.8 0.3 0.4 0.2 0.6 0.5 0.3 0.3 0.4 0.6 0.1 0.4 0.1 0.8 0 0.4-0.1 0.8c-2.6-0.1-4.6 0.8-5.9 4.2 1.3-3.4 3.3-4.3 5.9-4.2z"/>
			<path id="Path_1655" class="s2" d="m61.4 221q-0.1-0.3-0.2-0.5-0.1-0.3-0.1-0.6 0-0.3 0-0.5 0.1 0.2 0.1 0.5 0.1 0.3 0.2 0.5 0.1 0.3 0.2 0.5 0 0.3 0.1 0.5-0.1-0.2-0.3-0.4z"/>
			<path id="Path_1656" class="s2" d="m61.7 221.4q0.1 0.1 0.2 0.2l-0.1 0.1q0-0.1-0.1-0.3z"/>
			<path id="Path_1657" class="s2" d="m118.5 310.3l-0.1 0.3q-0.5-0.3-1-0.5-0.5-0.2-1-0.4-0.5-0.2-1-0.4-0.6-0.2-1.1-0.4 0.1-0.4 0.3-0.7c0.1-0.6 0.5-1.1 1-1.4 0.5-0.3 1.1-0.4 1.7-0.2 0.6 0.1 1.1 0.5 1.4 1 0.2 0.6 0.3 1.2 0.2 1.7q-0.2 0.5-0.4 1z"/>
			<path id="Path_1658" fill-rule="evenodd" class="s2" d="m114.3 308.9q0.5 0.2 1 0.4 0.6 0.2 1.1 0.4 0.5 0.2 1 0.4 0.5 0.2 1 0.5c-2.9 8.1-6.3 16.1-9.9 24-3.3 7.2-6.8 14.4-10.3 21.5-2.2 4.4-4.2 8.9-6.3 13.4-4.5 9.7-9.3 19.6-16.3 27.8q-0.9 1-1.9 2-1 1-2 2-1 0.9-2.2 1.8-1.1 0.8-2.2 1.6-0.4 0.2-0.7 0.5-0.4 0.2-0.7 0.4-0.4 0.2-0.8 0.4-0.3 0.2-0.7 0.4-1.7 0.8-3.4 1.4-1.7 0.6-3.6 0.9-1.8 0.3-3.6 0.4-1.8 0-3.7-0.2-2.4-0.3-4.7-0.9-2.4-0.7-4.6-1.7-2.2-1-4.2-2.4-2.1-1.3-3.9-2.9-2-1.9-3.7-3.9-1.7-2.1-3.1-4.4-1.4-2.4-2.5-4.9-1-2.4-1.7-5.1-0.6-2.1-1.2-4.2-0.5-2.1-1-4.2-0.4-2.1-0.9-4.3-0.4-2.1-0.8-4.3c-0.6-4-1.1-8.1-1.7-12.2q-1.1-6.8-2.4-13.6c-3.2-18.1-6.9-36-8.7-54.3q-0.7-6.6-1-13.2-0.1-1.6-0.2-3.1 0-1.5 0-3.1 0-1.5 0.1-3 0.1-1.6 0.2-3.1 0.3-2.4 0.9-4.8 0.6-2.3 1.5-4.6 0.9-2.2 2.1-4.4 1.1-2.1 2.6-4c7.7-10.2 19.7-16.2 31.6-20.1 15.2-5.1 31.7-6.6 45.8-14.7q0.3-0.2 0.7-0.3 0.3 0 0.7 0 0.4 0.1 0.7 0.3 0.3 0.1 0.6 0.4 0.3 0.4 0.5 0.9 0.2 0.4 0.1 0.9 0 0.6-0.3 1-0.3 0.4-0.7 0.7-1.3 0.7-2.7 1.4-1.3 0.6-2.6 1.3-1.4 0.6-2.8 1.1-1.3 0.6-2.7 1.1-2.3 0.8-4.5 1.5-2.3 0.8-4.5 1.4-2.3 0.7-4.6 1.3-2.3 0.6-4.6 1.1-0.1-0.1-0.2-0.2-0.1-0.2-0.1-0.5-0.1-0.2-0.2-0.5-0.1-0.3-0.2-0.5 0-0.3-0.1-0.5 0 0.2 0 0.5 0 0.3 0.1 0.6 0.1 0.2 0.2 0.5 0.2 0.2 0.3 0.4 0.1 0.1 0.1 0.3c-8.5 2.1-17 4.1-25 7.5-10.7 4.4-21.2 11.4-25.9 22.4q-0.2 0.5-0.4 1-0.2 0.5-0.4 1-0.2 0.5-0.3 1-0.2 0.5-0.3 1-0.2 0.6-0.3 1.2-0.1 0.5-0.2 1.1-0.2 0.5-0.2 1.1-0.1 0.5-0.2 1.1-0.2 1.5-0.2 2.9-0.1 1.5-0.1 3 0 1.4 0 2.9 0 1.4 0.1 2.9 0.2 3.3 0.4 6.6 0.2 3.2 0.6 6.5 0.3 3.3 0.7 6.5 0.4 3.3 0.8 6.5c2.6 17.8 6.3 35.3 9.2 53 0.8 4.4 1.4 8.9 2 13.4-0.1-0.7 0.1 0.2 0.1 0.4q0 0.4 0.1 0.7 0.2 0.9 0.4 1.9 0.4 2.2 0.9 4.3 0.9 4.4 2.1 8.8 0.2 1 0.5 2 0.3 1 0.7 2 0.3 1 0.7 2 0.4 0.9 0.9 1.9 0.6 1.2 1.4 2.4 0.7 1.2 1.6 2.3 0.8 1.1 1.7 2.1 1 1.1 2 2.1 0.5 0.4 0.9 0.8 0.5 0.5 1 0.9 0.5 0.4 1.1 0.8 0.5 0.4 1 0.7 0.3 0.2 0.6 0.3 0.3 0.2 0.5 0.4 0.3 0.1 0.6 0.3 0.3 0.1 0.6 0.3c0.6 0.3 1.4 0.6 1.7 0.8q0.5 0.2 1 0.4 0.5 0.1 1 0.3 0.5 0.2 1 0.3 0.5 0.2 1 0.3 0.9 0.3 1.9 0.4 0.4 0.1 0.8 0.2h0.4l0.1 0.1q0.5 0 0.9 0.1 0.5 0 0.9 0 0.4 0 0.9 0 0.4 0 0.9 0 0.9 0 1.8-0.1 0.2 0 0.3-0.1 0.4 0 0.8-0.1 0.4-0.1 0.8-0.2 0.4-0.1 0.8-0.2 0.4-0.1 0.8-0.2 0.4-0.2 0.7-0.3 0.5-0.1 0.9-0.3h0.1q0.1-0.1 0.3-0.2 0.7-0.3 1.4-0.7 0.4-0.2 0.7-0.4 0.4-0.2 0.8-0.4 0.3-0.2 0.7-0.5 0.3-0.2 0.7-0.4 0.4-0.3 0.8-0.6 0.1-0.1 0.2-0.1l0.1-0.2q0.7-0.5 1.3-1 1.3-1.2 2.6-2.5 1.3-1.3 2.4-2.7 1.2-1.4 2.2-2.8 1.1-1.5 2-3c5.8-8.8 9.9-18.4 14.3-27.8 2.7-5.8 5.7-11.5 8.4-17.3q4.5-9.4 8.6-18.9c0.4-1.1 0.8-1.9 1.3-3.2q0.7-1.6 1.3-3.2 1-2.5 2-4.9 0.6-1.7 1.2-3.4z"/>
			<path id="Path_1659" class="s2" d="m79.2 291.7q-0.1-0.1-0.2-0.2 0-0.1-0.1-0.3 0-0.1-0.1-0.2 0.7 0.1 1.3 0.3-0.3 0.4-0.6 0.8-0.1-0.1-0.2-0.2-0.1-0.1-0.1-0.2z"/>
			<path id="Path_1660" class="s2" d="m80 288.3q0.3-0.2 0.7-0.2 0.4-0.1 0.8 0 0.4 0.2 0.7 0.4-1 1.4-2.1 2.8-0.6-0.2-1.3-0.3-0.1-0.3-0.1-0.6 0-0.3 0-0.6 0.1-0.3 0.2-0.6 0.2-0.3 0.4-0.5 0.3-0.3 0.7-0.4z"/>
			<path id="Path_1661" class="s2" d="m112.7 308.3q-0.4 0.7-0.8 1.4-0.2 0.1-0.3 0.1-0.2 0-0.3 0-0.2 0-0.3 0-0.1 0-0.3-0.1-1.8-0.7-3.5-1.5c-5-2.2-9.8-4.5-14.6-7q-0.9-0.5-1.9-1.1-1-0.5-1.9-1.1-1-0.5-1.9-1.1-0.9-0.6-1.8-1.2-0.8-0.5-1.5-1-0.8-0.6-1.5-1.1-0.7-0.6-1.3-1.2-0.7-0.7-1.3-1.3 0.3-0.4 0.6-0.8h0.4-0.4q1.1-1.4 2.1-2.8 0.1 0 0.1 0 0 0.1 0.1 0.1 0 0 0 0.1 0 0 0.1 0 0.3 0.4 0.6 0.7 0.3 0.3 0.6 0.6 0.3 0.3 0.7 0.6 0.3 0.3 0.7 0.6 0.1 0.1 0.3 0.2l0.2 0.2q0.4 0.3 0.8 0.6 0.9 0.7 1.9 1.3 1.9 1.1 3.8 2.3 1.9 1.1 3.8 2.1 1.9 1 3.9 2 2 1 4 1.9 3 1.4 6.1 2.8 0.5 0.2 1.1 0.4l0.4 0.2q0.2 0.1 0.5 0.2 0.3 0.1 0.5 0.3 0.3 0.1 0.5 0.3 0.2 0.2 0.3 0.4 0.1 0.3 0.2 0.5-0.3 0.7-0.7 1.4c-2.3-0.8-4.6-1.5-6.9-2.6 2.3 1.1 4.7 1.8 6.9 2.6z"/>
			<path id="Path_1662" class="s2" d="m113.4 308.3q0 0 0 0 0 0.1 0 0.1 0 0.1-0.1 0.1-0.3-0.1-0.6-0.2 0.4-0.7 0.7-1.4 0.1 0.2 0.1 0.3 0 0.2 0 0.3 0 0.2 0 0.4 0 0.1 0 0.3 0 0-0.1 0.1z"/>
			<path id="Path_1663" class="s2" d="m113.3 308.5q-0.1 0.3-0.2 0.4-0.2 0.2-0.4 0.4-0.2 0.1-0.4 0.3-0.2 0.1-0.4 0.1 0.4-0.7 0.8-1.4z"/>
			<path id="Path_1664" class="s0" d="m133.3 185q0 0 0 0.1 0-0.1 0-0.1c0.1-0.2 0.1-0.1 0 0z"/>
			<path id="Path_1665" class="s0" d="m135.7 183.2z"/>
			<path id="Path_1666" class="s0" d="m133.3 185.1q0 0 0 0 0 0 0 0 0 0 0 0 0 0-0.1 0 0 0 0.1 0z"/>
			<path id="Path_1667" class="s0" d="m135.6 183.2h0.1q-0.1 0-0.1 0z"/>
			<path id="Path_1668" class="s0" d="m136.3 183.3q-0.1-0.1-0.1-0.1c0 0 0.1 0 0.1 0.1z"/>
			<path id="Path_1669" class="s0" d="m136 183.2q0 0 0 0 0 0-0.1 0 0 0 0 0 0 0 0 0 0 0 0.1 0z"/>
			<path id="Path_1670" class="s0" d="m135.1 183.4q0 0 0 0 0 0 0 0 0 0-0.1 0 0.1 0 0.1 0 0 0 0 0z"/>
			<path id="Path_1671" class="s2" d="m133.3 185q0 0 0 0.1 0 0 0 0 0 0 0 0 0-0.1 0-0.1 0 0 0 0z"/>
			<path id="Path_1672" class="s2" d="m135.7 183.2q0 0 0 0 0 0 0 0-0.1 0-0.1 0h0.1q0 0 0 0z"/>
			<path id="Path_1673" class="s0" d="m124.2 183.7q0 0.1 0 0.1 0 0 0-0.1z"/>
			<path id="Path_1674" class="s0" d="m124.2 183.8q0 0 0 0 0 0 0 0 0 0 0 0 0 0.1 0 0.1c-0.1 0.1-0.3 0.2-0.1 0q0-0.1 0.1-0.1z"/>
			<path id="Path_1675" class="s2" d="m124.2 183.8q0 0 0 0 0 0 0 0 0 0 0 0 0 0.1 0 0.1 0 0 0-0.1 0 0 0 0 0 0 0 0 0 0 0 0 0 0 0 0z"/>
			<path id="Path_1676" class="s0" d="m119.5 192.7q0 0-0.1 0z"/>
			<path id="Path_1677" class="s0" d="m118.3 204.5q0 0 0.1 0 0 0 0 0 0 0.1 0 0.1l-0.1-0.2q0 0.1 0 0.1z"/>
			<path id="Path_1678" class="s0" d="m118.3 204.4h-0.1q0.1 0 0.1 0z"/>
			<path id="Path_1679" class="s0" d="m117.3 203.5q0 0 0 0-0.1 0-0.1 0 0 0 0 0 0 0 0 0 0.1 0 0.1 0 0 0 0 0 0 0 0 0 0 0 0 0z"/>
			<path id="Path_1680" class="s0" d="m116 203.4q0 0 0.1 0 0 0 0 0 0 0 0 0h-0.1q0 0 0 0z"/>
			<path id="Path_1681" class="s0" d="m116 203.4h-0.1 0.1q0 0 0 0z"/>
			<path id="Path_1682" class="s2" d="m130.9 275.8q0 0 0 0z"/>
			<path id="Path_1683" class="s2" d="m130.9 275.8q0 0 0 0z"/>
			<path id="Path_1684" class="s2" d="m130.9 275.8q0 0 0 0z"/>
			<path id="Path_1685" class="s2" d=""/>
			<path id="Path_1686" class="s2" d="m130.9 275.8q0 0 0 0z"/>
			<path id="Path_1687" fill-rule="evenodd" class="s2" d="m201.5 150q0 2-0.3 4.1-0.4 2-1 4-0.7 1.9-1.6 3.8-1.1 2.1-2.5 4-1.4 1.9-3.1 3.6-1.6 1.7-3.5 3.1-1.9 1.4-4 2.6-0.4 0.2-0.9 0.3-0.5 0-1-0.1-0.4-0.2-0.8-0.5-0.4-0.3-0.6-0.7-0.3-0.4-0.4-0.9-0.1-0.5 0-1 0.2-0.4 0.5-0.8 0.3-0.4 0.7-0.6 2.2-1.2 4.1-2.7 2-1.6 3.6-3.4 1.6-1.9 2.8-4 1.3-2.2 2.1-4.5c2-6.3 0.4-13-0.8-19.3-1.3-7-2.9-14-4.5-20.9-3-13.2-5.5-26.5-10.5-39.1q-0.8-2.2-1.8-4.4-1-2.1-2.1-4.2-1.2-2.1-2.4-4.1-1.3-2.1-2.7-4-1.2-1.6-2.6-3.1-1.5-1.4-3.1-2.6-1.7-1.3-3.4-2.2-1.8-1-3.7-1.8-0.7-0.2-1.4-0.5-0.8-0.2-1.5-0.4-0.7-0.3-1.4-0.5-0.7-0.2-1.5-0.3-0.3-0.1-0.6-0.1-0.3-0.1-0.6-0.2-0.3-0.1-0.6-0.2-0.4-0.1-0.6-0.2c-1.4-0.6-2.5-1.8-3.8-2.6q-1.4-0.8-2.9-1.5-1.5-0.8-3.1-1.4-1.5-0.5-3.1-1-1.6-0.4-3.3-0.7c-12-2.2-24.5 1.8-34.4 8.7q-3.7 2.5-6.9 5.6-3.2 3.1-5.9 6.7-2.7 3.5-4.9 7.4-2.2 3.9-3.7 8.1c-4.4 11.5-5.4 23.8-8.6 35.7-3.5 13.2-8.9 26.5-9.6 40.2-0.3 5.9 0.7 10.6 4.8 14.9 2.9 3.1 7.2 6.6 11.7 7.3q-0.7-1.4-1.2-2.8-0.5-1.4-0.7-2.8-0.3-1.5-0.3-3-0.1-1.5 0.1-3c0.4-3.1 5.4-3.1 5 0-0.4 2.3-0.2 4.7 0.5 6.9 0.7 2.2 1.9 4.2 3.4 5.9 1.6 1.7 3.5 3 5.7 3.9 2.1 0.8 4.4 1.2 6.7 1q-0.7-0.8-1.4-1.6-0.7-0.8-1.4-1.7-0.6-0.9-1.3-1.8-0.6-0.9-1.1-1.8-1.1-2-2-4-0.9-2-1.7-4.1-0.7-2.1-1.2-4.3-0.5-2.1-0.9-4.3-0.5 0.3-1.1 0.6-0.6 0.2-1.2 0.4-0.6 0.1-1.2 0.2-0.6 0.1-1.3 0.1c-1.8 0-3.7-0.5-5.3-1.6-1.5-1-2.8-2.5-3.5-4.2-0.7-1.8-0.9-3.7-0.6-5.5 0.4-1.9 1.3-3.6 2.6-4.9q-0.2-0.3-0.5-0.7-1.5-2.3-2.5-4.9-1-2.7-1.4-5.4-0.4-2.8-0.1-5.6 0.2-2.8 1-5.5c2.5-7 8.7-10 15.6-8.3q-0.2 1.6-0.4 3.3 0.2-1.7 0.4-3.3 0.8 0.2 1.6 0.5c3 1.1 1.7 5.9-1.3 4.8-3.1-1.1-6.6-1.5-9 1-2.3 2.3-3 5.8-3 8.8-0.1 4.3 1.1 9.3 3.9 12.7q0.9-0.3 1.9-0.3 0.9-0.1 1.9 0 1 0.2 1.9 0.5 0.9 0.3 1.7 0.8 0.6-0.1 1.2 0 0.5 0.1 1 0.4 0.5 0.3 0.8 0.9 0.3 0.5 0.3 1 0.1 0.7 0.1 1.3 0.3 0.4 0.5 0.9 0.2 0.5 0.3 1 0.2 0.5 0.3 1 0.1 0.5 0.2 1 0 0.2 0 0.4 0 0.1 0 0.3 0 0.2 0 0.4 0 0.2 0 0.4-0.1 0.3-0.1 0.5-0.1 0.3-0.1 0.6-0.1 0.3-0.2 0.6-0.1 0.3-0.2 0.5c1 7.7 2.9 15.3 7.2 21.6q1.9 2.5 4.1 4.7 2.2 2.3 4.7 4.1 2.5 1.9 5.3 3.3 2.7 1.5 5.7 2.5 0.1 0 0.3 0 0.1 0 0.3 0.1 0.1 0 0.3 0 0.1 0 0.3 0.1 0.2-0.2 0.4-0.3 0.3-0.2 0.5-0.3 0.3-0.1 0.6-0.1 0.2-0.1 0.5-0.1c-0.1-4 1.3-8.6 5.6-9.8q0.9-0.2 1.8-0.2 1 0 1.9 0.3 0.9 0.3 1.6 0.8 0.8 0.6 1.4 1.3 0.3-0.3 0.7-0.6 0.4-0.3 0.8-0.5 0.5-0.3 0.9-0.5 0.5-0.1 1-0.3 0.7-0.1 1.5-0.1 0.7 0 1.5 0.2 0.7 0.2 1.4 0.6 0.7 0.4 1.2 0.9 0.8 0.8 1.6 1.7 0.7 1 1.4 1.9 0.6 1 1.2 2 0.5 1.1 1 2.1 0.2-0.1 0.4-0.2c12.5-6.3 18.8-20.3 20.8-34q-0.3-0.5-0.5-1-0.2-0.5-0.3-1-0.1-0.6-0.2-1.1 0-0.5 0-1.1 0-0.7 0.1-1.4 0.1-0.8 0.3-1.4 0.3-0.7 0.6-1.4 0.3-0.6 0.7-1.2 0.1-0.3 0.2-0.5 0.1-0.3 0.3-0.5 0.2-0.2 0.4-0.3 0.3-0.2 0.5-0.3 0.7-0.6 1.4-1.1 0.8-0.5 1.6-0.8 0.8-0.3 1.7-0.5 0.9-0.2 1.7-0.2 0.6 0 1.1 0.1 0.6 0.1 1.1 0.2 0.6 0.1 1.1 0.3 0.5 0.2 1 0.4c2.6-2.5 3.8-6.5 3.9-10.3 0-4.9-2.2-10.4-7.7-10.3q-0.3-0.5-0.6-1-0.3-0.5-0.6-1.1-0.2-0.5-0.5-1.1-0.2-0.5-0.4-1.1 0.2-0.1 0.4-0.3 0.2-0.1 0.4-0.2 0.2-0.1 0.4-0.1 0.2-0.1 0.4-0.1c8.5-0.6 13 7.4 13.1 14.9q0.1 1.9-0.2 3.8-0.3 1.9-1 3.8-0.7 1.8-1.7 3.4-0.9 1.7-2.2 3.1 0.3 0.5 0.5 1 0.3 0.6 0.5 1.1 0.2 0.6 0.3 1.2 0.2 0.6 0.3 1.2 0 0.2 0 0.3 0 0.2 0 0.4 0 0.2 0 0.4 0 0.2 0 0.4-0.1 0.6-0.3 1.3-0.2 0.7-0.4 1.3-0.3 0.7-0.6 1.3-0.4 0.6-0.8 1.1 0.6-0.2 1.2-0.2 0.6 0.1 1.2 0.4 0.5 0.3 0.8 0.9 0.3 0.5 0.3 1.1-0.1 2.7-0.8 5.2-0.6 2.5-1.7 4.9-1.1 2.3-2.7 4.4-1.6 2.1-3.5 3.8-1.2 1-2.5 1.9-1.2 0.9-2.6 1.6-1.4 0.6-2.8 1.2-1.4 0.5-2.9 0.8-0.3 0.1-0.5 0.1-0.2 0-0.4 0-0.3-0.1-0.5-0.1-0.2-0.1-0.4-0.2c-1.7-1-2-4 0.4-4.6 2.2-0.5 4.3-1.3 6.2-2.4 1.9-1.2 3.6-2.7 5-4.4 1.4-1.7 2.6-3.6 3.4-5.7 0.7-2 1.2-4.2 1.3-6.4q0-0.1 0-0.2 0-0.1 0-0.2 0-0.1 0-0.2 0.1 0 0.1-0.1-0.6 0.5-1.4 0.9-0.7 0.5-1.4 0.7-0.8 0.3-1.6 0.5-0.8 0.1-1.7 0.1-0.5 0-1.1-0.1-0.6 0-1.1-0.2-0.5-0.1-1.1-0.3-0.5-0.2-1-0.5-0.5 2.2-1.1 4.4-0.6 2.2-1.3 4.4-0.8 2.1-1.7 4.2-0.9 2.1-1.9 4.1-0.3 0.6-0.7 1.3-0.4 0.6-0.8 1.3-0.3 0.6-0.8 1.2-0.4 0.6-0.8 1.2 0 0.1 0 0.1 0 0.1 0 0.1 0 0.1 0 0.1 0 0.1 0 0.1 0 1 0 2c0 2.5 0.1 5 0.2 7.5q0.2 2.5 0.4 5.1 0.1 1.2 0.2 2.4 0.1 0.5 0.1 1 0.1 0.2 0.1 0.5 0 0.1 0 0.1 0 0 0 0 0 0.2 0 0.4 0 0.2 0 0.4-0.1 0.3-0.1 0.5-0.1 0.2-0.2 0.4c-1.2-0.1-1-1.7-1.8-2.1q-0.1 0.4-0.1 0.8 0 0.4 0.1 0.8 0 0.4 0.1 0.7 0.1 0.4 0.3 0.8-0.5 0.1-0.9 0-0.4-0.1-0.7-0.3-0.4-0.2-0.7-0.6-0.2-0.3-0.3-0.7c-0.5-3.3-0.8-6.7-0.9-10q-0.2-2.4-0.3-4.7-1.1 1-2.2 2-1.2 1-2.5 1.9-1.3 0.9-2.6 1.7-1.3 0.8-2.7 1.5c1.7 4.9 2.9 10 4.5 15q0.9 2.8 1.6 5.7 0.8 2.9 1.5 5.8 0.7 2.9 1.3 5.8 0.6 3 1.1 5.9c1.5 8.1 2.9 16.2 4.8 24.2q0 0.1 0.1 0.3 0.6-0.6 1.1-1.2 0.6-0.7 1.1-1.3 0.6-0.7 1.1-1.3 0.5-0.7 1-1.4c2.5-3.3 4.8-6.6 7-10q4.3-6.5 8.2-13.1 0.2-0.3 0.4-0.5 0.2-0.3 0.5-0.4 0.3-0.2 0.6-0.3 0.4 0 0.7 0 0.6 0 1.2 0.4 0.6 0.3 0.9 0.9 0.3 0.5 0.3 1.2 0 0.6-0.3 1.2-4.2 7.1-8.8 14c-3.9 5.8-8 12.8-13.7 17.1q0.8 3 1.7 5.9 0.9 2.9 2 5.7 0.3 0.7 0.6 1.4 0.1 0.3 0.2 0.6 0 0.1 0.1 0.1l0.1 0.2q0.5 1.4 1.1 2.7 0.3 0.3 0.3 0.8 0.1 0.4 0 0.8-0.2 0.5-0.4 0.8-0.3 0.4-0.7 0.6 0 0 0 0-0.2-0.6-0.4-1.3-0.2-0.6-0.5-1.2-0.2-0.7-0.5-1.3-0.2-0.6-0.5-1.3 0.3 0.7 0.5 1.3 0.3 0.6 0.5 1.3 0.2 0.6 0.5 1.2 0.2 0.7 0.4 1.3-0.4 0.2-0.8 0.3-0.5 0-0.9-0.1-0.4-0.1-0.8-0.4-0.3-0.2-0.5-0.6-0.6-1.3-1.2-2.5-1.1-2.8-2.1-5.5-1-2.8-1.9-5.6-0.9-2.8-1.6-5.7-0.8-2.8-1.4-5.7-0.5-2.4-1-4.9c-1.3-6.1-2.4-12.4-3.5-18.6q-0.5-2.8-1.1-5.6-0.6-2.9-1.3-5.7-0.7-2.8-1.4-5.6-0.8-2.8-1.6-5.6c-1-2.9-1.7-5.8-2.6-8.8q-0.7-2.4-1.4-4.7-0.4-1.3-0.9-2.5-0.2-0.5-0.4-1.1c-0.1-0.1-0.2-0.4-0.2-0.4v-0.1q-0.1-0.1-0.2-0.3-0.2-0.5-0.4-1-0.3-0.6-0.6-1.1-0.2-0.5-0.5-1-0.3-0.5-0.6-1-0.4-0.5-0.7-1-0.2-0.2-0.3-0.5l-0.1-0.1q-0.2-0.2-0.3-0.4-0.2-0.2-0.4-0.3-0.2-0.2-0.4-0.4-0.1-0.2-0.3-0.4-0.1 0-0.1 0 0-0.1 0-0.1-0.1 0-0.1 0 0-0.1 0-0.1-0.1-0.1-0.2-0.1-0.1 0-0.1 0 0 0 0 0-0.1-0.1-0.1-0.1 0 0 0 0h-0.1q-0.1 0-0.1 0 0 0 0 0 0 0 0 0-0.1 0-0.1 0 0 0 0 0 0 0 0 0 0 0 0.1 0-0.1 0-0.1 0 0 0-0.1 0 0 0-0.1 0-0.1 0-0.1 0-0.1 0-0.2 0.1-0.2 0-0.4 0.1h-0.1q-0.3 0.2-0.5 0.4h-0.1q0 0 0 0c-0.1 0.1-0.8 0.6-0.8 0.8 0-0.1 0.3-0.4 0.1-0.1q-0.1 0.1-0.2 0.2c0 0.1 0 0.2-0.1 0.3 0-0.1 0-0.2 0 0q0 0 0 0.1-0.1 0-0.1 0 0 0 0 0v0.1c0.9 2.4 1.5 4.9 2.5 7.2 2 5.2 4 10.4 5.9 15.7 1.8 5.4 3.6 10.8 5.3 16.2q0.1 0.2 0.1 0.4 0 0.2 0 0.4 0 0.2-0.1 0.4 0 0.2-0.1 0.4-0.1 0.2-0.3 0.4-0.1 0.2-0.3 0.3-0.2 0.2-0.4 0.3-0.2 0.1-0.4 0.2-0.4 0.1-0.9 0-0.4 0-0.8-0.3-0.4-0.2-0.7-0.5-0.2-0.4-0.4-0.8-1.2-3.8-2.4-7.5-1.6-4.9-3.3-9.7c-1.7-4.9-3.6-9.8-5.5-14.7-0.6-1.3-1-2.8-1.4-4.1q-0.4-1.3-0.9-2.6c-0.1-0.3-0.1-0.6-0.3-0.9q0 0 0 0 0-0.1 0-0.1 0 0 0 0-0.1 0-0.1 0 0-0.2-0.1-0.3-0.1-0.3-0.2-0.5-0.3-0.6-0.6-1.1-0.2-0.2-0.3-0.4v-0.1q-0.2-0.2-0.4-0.3-0.1-0.1-0.2-0.2-0.3-0.1-0.5-0.1-0.2 0-0.3-0.1-0.1 0-0.3 0.1-0.3 0-0.6 0.1-0.2 0.1-0.3 0.2-0.2 0.1-0.3 0.1v0.1q-0.2 0.1-0.4 0.3 0 0 0 0 0 0 0 0-0.1 0.1-0.1 0.2c-0.2 0.2 0 0.1 0.1-0.1-0.1 0.3-0.4 0.6-0.5 0.7q0 0.1 0 0.2-0.1 0.2-0.2 0.4 0 0.2-0.1 0.3 0 0.2-0.1 0.3 0 0.2 0 0.3-0.1 0.2-0.1 0.3 0 0 0 0 0 0 0 0 0 0 0 0 0 0.1 0 0.1 0 0.1 0 0.3 0 0.4 0 0.7-0.1 0.8 0 1.6 0 0 0 0.1 0 0 0 0.1 0 0 0 0.1 0 0 0 0.1 0.4 0.3 0.9 0.7 0.4 0.3 0.8 0.7 0.4 0.4 0.7 0.9 0.3 0.4 0.6 0.9 0.3 0.7 0.7 1.4 0.3 0.7 0.6 1.4 0.3 0.7 0.5 1.5 0.3 0.7 0.5 1.4 0.9 2.3 1.7 4.5 0.2 0.7 0.4 1.4c2.8 7.9 5.5 15.8 8.5 23.7 0.1 0.5 0 1.1-0.3 1.7-0.3 0.5-0.7 0.9-1.3 1-0.6 0.2-1.2 0.1-1.7-0.2-0.5-0.3-0.9-0.8-1.1-1.3q-1.1-3.1-2.1-6.1-1.1-3-2.2-6.1-1.9-5.4-3.8-10.9-1-2.6-1.9-5.2-0.5-1.4-1-2.8-0.2-0.6-0.5-1.2-0.1-0.3-0.2-0.6 0-0.1 0-0.1-0.1 0-0.1-0.1-0.3-0.7-0.7-1.3-0.1-0.3-0.3-0.5-0.1-0.1-0.1-0.1 0-0.1-0.1-0.1-0.2-0.2-0.4-0.5c0 0-0.2-0.2-0.3-0.2q-0.1-0.1-0.2-0.1 0-0.1-0.1-0.1-0.1-0.1-0.2-0.1-0.1-0.1-0.2-0.1c0 0-0.5-0.2-0.5-0.2h-0.1-0.1q-0.1 0-0.3 0-0.2 0.1-0.3 0.2 0.1-0.1 0.2-0.1 0 0 0 0 0 0 0 0 0 0-0.1 0 0 0 0 0 0 0-0.1 0.1-0.1 0.1-0.2 0.2 0 0-0.1 0.1-0.1 0.1-0.1 0.2-0.1 0.1-0.2 0.2-0.1 0.2-0.2 0.4-0.3 0.4-0.5 0.9 0 0 0 0-0.1 0.3-0.2 0.5-0.1 0.4-0.2 0.9 0 0.1-0.1 0.3 0 0.1 0 0.1 0 0.4 0 0.7 0 0.2 0 0.3 0 0.2 0 0.4 0 0.1 0 0.3 0 0.1 0.1 0.3 0 0 0 0.2 0.1 0 0.2 0 0.2 0 0.3 0.1 0.2 0 0.3 0 0.1 0.1 0.2 0.1 0.8 0.3 1.5 0.8 0.7 0.4 1.3 1 0.6 0.6 1.1 1.3 0.5 0.7 0.9 1.4 0.3 0.8 0.7 1.6 0.3 0.7 0.6 1.5 0.3 0.8 0.6 1.6 0.3 0.8 0.5 1.7c0.7 2.1 1.2 4.3 1.8 6.4l0.1 0.4q0.4 1.7 0.8 3.5 0.5 1.7 1 3.4 0.5 1.7 1 3.4 0.6 1.7 1.2 3.4 0.1 0.5 0 0.9 0 0.4-0.2 0.8-0.3 0.4-0.6 0.7-0.4 0.3-0.8 0.4 0 0 0 0-0.1 0-0.1 0 0 0-0.1 0 0 0 0 0-0.4 0.1-0.8 0-0.4-0.1-0.8-0.3-0.3-0.2-0.6-0.6-0.2-0.3-0.3-0.7-0.6-1.5-1.1-3.1c-1.4-4.4-2.4-8.9-3.6-13.3-0.6-2.2-1.2-4.4-2-6.5q-0.3-0.8-0.6-1.6c0-0.1-0.1-0.3-0.1-0.3q-0.1-0.3-0.2-0.5-0.1-0.1-0.2-0.3-0.1-0.2-0.2-0.3 0-0.2-0.1-0.4-0.1-0.1-0.2-0.3-0.2-0.2-0.4-0.5 0-0.1 0-0.1 0 0 0 0 0 0-0.1 0 0 0 0-0.1v-0.1 0.1q-0.2-0.3-0.5-0.5-0.1-0.1-0.2-0.2-0.2-0.1-0.4-0.3h-0.1-0.1q-0.1-0.1-0.3-0.1-0.1 0-0.3 0 0 0 0 0-0.1 0-0.1 0 0 0 0 0-0.1 0-0.1 0v0.1q-0.1 0-0.1 0 0 0 0 0 0 0-0.1 0 0 0 0 0h-0.1 0.1q-0.2 0.1-0.3 0.2h-0.1q0 0 0 0.1-0.1 0-0.2 0.1-0.1 0.2-0.3 0.3c0 0 0 0.1-0.1 0.1 0 0.1-0.2 0.3-0.2 0.4 0 0.1-0.2 0.5-0.2 0.4q-0.1 0.3-0.2 0.6v0.1q0 0 0 0 0 0.2 0 0.3 0 0.2 0 0.3 0 0.2 0 0.3 0 0.1 0 0.3 0 0.1 0 0.1 0 0.1 0.1 0.1 0 0.1 0 0.2 0 0 0 0.1c0 0-0.1-0.4 0-0.2q0 0.4 0.1 0.7 0.1 0.7 0.3 1.4 0.3 1.3 0.7 2.6c0.7 2.3 1.4 4.5 2 6.8 1.2 4.9 2 9.8 3.1 14.7q1.3 6 2.6 12 1.2 5.4 2.3 10.9 0.3 1.7 0.6 3.3 0.3 1.7 0.7 3.4 0.4 1.7 0.8 3.4 0.5 1.6 0.9 3.3 0.6 1.7 1.2 3.3 0.3 0.8 0.6 1.6 0.2 0.4 0.3 0.8 0.1 0.2 0.2 0.3c-0.1 0-0.1-0.2 0 0.1v0.1q1.4 3.2 3 6.2 2.3 4.3 5 8.3 1.3 2 2.7 4 0.2 0.4 0.3 0.8 0.1 0.5-0.1 0.9-0.1 0.4-0.3 0.8-0.3 0.3-0.7 0.6-0.1 0-0.1 0.1-0.1 0-0.2 0-0.1 0.1-0.2 0.1-0.1 0-0.2 0-0.3 0.1-0.7 0-0.3 0-0.6-0.2-0.3-0.1-0.6-0.3-0.2-0.3-0.4-0.5-1.2-1.6-2.2-3.2-1.2-1.7-2.3-3.4-1.1-1.8-2.1-3.6-1-1.8-2-3.7-0.9-1.8-1.7-3.7-0.3 0.8-0.5 1.6-0.6 1.7-1.2 3.3-0.6 1.7-1.3 3.4-0.7 1.6-1.5 3.2-0.7 1.6-1.5 3.2-0.6 1.2-1.2 2.3-0.6 1.1-1.3 2.1-0.6 1.1-1.4 2.1-0.7 1.1-1.5 2-0.1 0.2-0.2 0.3-0.1 0.1-0.3 0.1-0.1 0.1-0.2 0.2-0.2 0-0.3 0 0.6-2 1.1-4.1-0.5 2.1-1.1 4.1-0.3 0.1-0.6 0.1-0.3 0-0.6-0.1-0.2-0.1-0.5-0.2-0.2-0.2-0.4-0.4-0.3-0.3-0.5-0.7-0.2-0.4-0.2-0.8 0-0.5 0.2-0.9 0.2-0.4 0.5-0.7 0.1-0.2 0.2-0.3 0 0 0 0 0 0 0 0 0-0.1 0.1-0.1 0 0 0 0 0 0 0-0.1 0 0 0.1 0 0 0 0-0.1 0 0 0 0v0.1q0.2-0.4 0.5-0.8 0.7-1 1.4-2.1 1.5-2.5 2.7-5.1 0.7-1.4 1.4-2.9 0.4-0.7 0.7-1.5l0.1-0.4h0.1q0.1-0.4 0.3-0.8 0.7-1.6 1.2-3.3 0.6-1.6 1.1-3.2 0.5-1.7 1-3.3 0.4-1.7 0.8-3.4-0.9-2.5-1.5-5c-1.1-4.4-1.8-9-2.8-13.5q-1.1-5.4-2.3-10.9-1.5-6.5-2.8-13-0.2 2-0.4 4.1c-0.5 5-1.1 10.1-2.1 15-0.2 0.6-0.6 1.1-1.1 1.4-0.5 0.3-1.1 0.3-1.7 0.2-0.6-0.2-1-0.6-1.3-1.1-0.3-0.5-0.4-1.1-0.2-1.7q0.3-1.8 0.6-3.7 0.2-0.9 0.3-1.9 0.1-0.5 0.2-1 0-0.3 0-0.6 0 0 0 0c1-7.4 1.7-14.7 2.2-22.1q0-0.2 0-0.4 0.1-0.2 0.2-0.4 0-0.2 0.1-0.3 0.1-0.2 0.3-0.4-0.5-1.5-1-3.1-0.2-0.7-0.4-1.4-0.2-0.8-0.4-1.5-0.2-0.8-0.3-1.6-0.2-0.7-0.3-1.5-0.1-0.8 0-1.7 0-0.8 0.2-1.7 0.3-0.8 0.7-1.5 0.4-0.8 0.9-1.5 0.1-0.1 0.3-0.3 0.1-0.1 0.3-0.2 0.1-0.2 0.3-0.3 0.1-0.1 0.3-0.2-0.1-0.5-0.2-1 0-0.4 0-0.9-0.1-0.5-0.1-0.9 0.1-0.5 0.1-1-0.5 0.9-0.9 1.8-0.2 0.4-0.4 0.8 0 0 0 0.1-0.1 0.1-0.2 0.3-0.3 0.9-0.7 1.9-0.7 2.3-1.4 4.7-0.7 2.3-1.3 4.7-0.6 2.4-1.1 4.8-0.6 2.4-1 4.8c-1.3 6.4-2.3 13-3.5 19.5-0.4 2.3-0.9 4.7-1.4 7q-0.3 1.2-0.6 2.3c-0.7 2-1 4.1-1.6 6.1q-0.5 1.7-1 3.3-0.6-0.2-1.1-0.4-0.5-0.2-1-0.5-0.5-0.2-1-0.5-0.5-0.2-1-0.5 1.2-3.6 2-7.3c0.2-0.9 0.5-1.7 0.7-2.5q0.4-1.5 0.7-2.9c0.5-2.6 1-5.3 1.4-7.9 1.2-6.8 2.4-13.6 3.8-20.4q0.5-2.4 1-4.7 0.6-2.4 1.2-4.7 0.7-2.4 1.5-4.7 0.8-2.3 1.7-4.5 0.2-0.7 0.5-1.3 0.3-0.6 0.6-1.2 0.4-0.6 0.7-1.1 0.4-0.6 0.8-1.2-1.2-0.5-2.3-1.1-1.2-0.5-2.3-1.2-1.1-0.6-2.2-1.3-1.1-0.8-2.1-1.5-0.3 7.4-0.6 14.8c-0.1 0.6-0.3 1.1-0.6 1.5-0.3 0.4-0.8 0.7-1.3 0.8-0.5 0.2-1.1 0.1-1.6 0-0.5-0.2-0.9-0.6-1.2-1q-0.1-0.1-0.1-0.3-0.1-0.2-0.1-0.3-0.1-0.2-0.1-0.4 0-0.1 0-0.3 0.3-7.6 0.6-15.3-0.1 0.1-0.2 0.1-0.1 0-0.2 0-0.1 0-0.2 0.1-0.1 0-0.2 0-2.3 0.1-4.5-0.2-2.3-0.4-4.4-1.3-2.1-0.8-4-2.2-1.9-1.3-3.4-3-0.2 0.2-0.4 0.3-0.2 0.1-0.4 0.2-0.2 0.1-0.4 0.1-0.3 0.1-0.5 0.1-0.9-0.1-1.8-0.2-0.9-0.1-1.8-0.4-0.9-0.2-1.7-0.5-0.9-0.3-1.7-0.8-2-0.9-3.8-2.1-1.8-1.2-3.4-2.6-1.7-1.4-3.1-3-1.4-1.6-2.6-3.4c-3.5-5.4-3.3-12.3-2.6-18.3 1.9-14.9 7.6-28.8 10.9-43.4 1.5-6.6 2.3-13.4 4-20q0.6-2.3 1.3-4.5 0.6-2.2 1.4-4.4 0.8-2.2 1.8-4.3 0.9-2.1 1.9-4.2 2.2-4.3 5-8.2 2.9-4 6.3-7.4 3.4-3.4 7.3-6.3 3.9-2.9 8.2-5.2c11.5-5.9 25.4-8.1 37.8-3.7q1.2 0.4 2.3 0.9 1.2 0.5 2.3 1 1.1 0.6 2.2 1.2 1 0.6 2.1 1.3c1.5 0.9 1.8 1.4 3.4 1.8q1.8 0.4 3.5 0.9 1.7 0.5 3.3 1.2 1.7 0.7 3.2 1.5 1.6 0.8 3.1 1.7c11.2 7.2 17 21.5 20.9 33.7 4.5 13.6 7.1 27.9 10.2 41.9 1.5 6.9 2.9 13.9 3.9 21q0.2 2 0.2 4.1zm-70.6 125.8q0 0 0-0.1 0 0.1 0 0.1zm46.3-38.6c1.3-4.1 4.2-7.4 6.4-11.1-2.2 3.7-5.1 7-6.4 11.1zm-14.7-37.9q0 0.1 0 0.1 0 0 0-0.1zm8.8-21.6c1.9-0.6 3.9-1 5.9-1.6-2 0.6-4 1-5.9 1.6zm-54 25.8q0 0 0 0-0.1 0-0.1 0 0 0 0 0h0.1q0 0 0 0zm53-53.7c0 6 9 5.9 9.2 0-0.2-5.9-9.2-5.9-9.2 0zm-34.1 33.4c0 0 0 0.1 0.1 0.1q-0.1-0.1-0.1-0.1zm-0.2 0q0 0 0 0 0 0 0 0 0 0 0 0zm-0.9 0.2q0 0 0 0 0 0 0 0 0 0 0 0-0.1 0-0.1 0 0 0 0.1 0 0 0 0 0 0 0 0 0 0 0 0 0zm-15.6 9.3q0 0 0 0 0 0 0 0zm-0.1 0q0 0 0.1 0-0.1 0-0.1 0zm-35.2-42.9c-0.3-5.9-9.3-5.9-9.3 0 0.1 6 9 5.9 9.3 0z"/>
			<path id="Path_1688" class="s2" d="m173.3 116.3q0.2 0.6 0.4 1.1 0.2 0.6 0.5 1.1 0.3 0.6 0.6 1.1 0.3 0.5 0.6 1-0.2 0-0.5 0c-2.5 0.2-3-2.8-1.6-4.3z"/>
			<path id="Path_1689" class="s2" d="m162.2 201.1q-0.1 0.1-0.3 0.3-0.1 0.2-0.3 0.3-0.1 0.1-0.3 0.2-0.2 0.1-0.4 0.1-0.1 0.1-0.1 0.1-0.2-0.4-0.3-0.8-0.1-0.3-0.1-0.7-0.1-0.4-0.1-0.8 0-0.4 0.1-0.8c0.8 0.4 0.6 2 1.8 2.1z"/>
			<path id="Path_1690" class="s2" d="m130.9 275.8q0 0 0 0z"/>
			<path id="Path_1691" class="s2" d="m130.9 275.8q0 0 0 0z"/>
			<path id="Path_1692" class="s2" d="m94.6 257q0.5 0.3 1 0.5 0.5 0.3 1 0.5 0.5 0.2 1.1 0.4-0.5 1.4-1.1 2.8-0.5 1.4-1.1 2.8-0.5 1.4-1.2 2.8-0.6 1.3-1.2 2.7c-1.1 2.3-2.2 4.5-3.3 6.8q-0.9 1.8-1.7 3.8-0.5 1-1 2.1-0.2 0.5-0.4 0.9v0.2l-0.3 0.7q-0.1 0.3-0.4 0.6-0.2 0.3-0.5 0.6-0.3 0.2-0.7 0.3-0.4 0.1-0.7 0.1 0.2-0.5 0.4-0.9 0.2-0.5 0.4-0.9 0.1-0.5 0.3-0.9 0.1-0.5 0.2-1-0.1 0.5-0.2 1-0.2 0.4-0.3 0.9-0.2 0.4-0.4 0.9-0.2 0.4-0.4 0.9-0.1 0-0.2 0 0 0-0.1 0 0 0-0.1-0.1 0 0-0.1 0-0.4-0.1-0.7-0.4-0.4-0.2-0.6-0.6-0.2-0.4-0.3-0.9 0-0.4 0.1-0.8 0.9-2.3 1.9-4.5c2.1-4.8 4.5-9.4 6.6-14.2q0.4-0.8 0.8-1.7 0.1-0.2 0.2-0.5 0.1-0.3 0.3-0.7 0.7-1.9 1.4-3.7 0.1-0.5 0.3-1 0.5 0.3 1 0.5z"/>
			<path id="Path_1693" class="s2" d="m130.9 275.8"/>
			<path id="Path_1694" class="s2" d="m130.9 275.8q0 0 0 0z"/>
			<path id="Path_1695" class="s2" d="m118.3 204.4l0.1 0.2q0 0-0.1-0.2z"/>
			<path id="Path_1696" class="s2" d="m116.1 203.4q0 0 0 0-0.1 0-0.1 0 0 0 0 0h0.1q0 0 0 0z"/>
			<path id="Path_1697" class="s2" d="m113.2 298.9c-0.1 0.1-0.1 0 0.2-0.2q-0.1 0-0.1 0.1 0 0-0.1 0c0 0 0 0.1 0 0.1z"/>
			<path id="Path_1698" class="s2" d="m208.2 282.1c-1.7 11.8 0.3 23.7 2.2 35.4 0.6 3.1-4.2 4.5-4.8 1.3-2.1-12.6-4-25.2-2.2-38 0.5-3.1 5.3-1.8 4.8 1.3z"/>
			<path id="Path_1699" fill-rule="evenodd" class="s2" d="m9.1 72.6q-0.5-0.3-1.1-0.6-0.5-0.2-1.1-0.5c0.5 0.2-0.1 0-0.2-0.1q-0.3-0.1-0.6-0.2c-1.4-0.5-3-1-4.5-1.6-0.5-0.1-0.9-0.4-1.2-0.9-0.3-0.4-0.5-1-0.4-1.5 0.1-0.6 0.4-1 0.8-1.4 0.4-0.4 0.9-0.6 1.4-0.6q1.4-0.1 2.8-0.3h0.1 0.2q0.3-0.1 0.6-0.1 0.7-0.1 1.4-0.3 0.6-0.1 1.2-0.3 0.3-0.1 0.5-0.2 0.2 0 0.3-0.1 0.2-0.1 0.3-0.1 0.2-0.1 0.3-0.2 0.1-0.1 0.3-0.1 0.1-0.1 0.2-0.2c0.1 0 0.2-0.1 0.3-0.2q0.1-0.1 0.3-0.2 0.2-0.3 0.4-0.5 0.1-0.1 0.2-0.2 0.3-0.5 0.6-0.9 0.1-0.3 0.3-0.7 0 0 0-0.1 0.2-0.5 0.4-1.1 0.2-0.7 0.3-1.3 0-0.3 0.1-0.5 0-0.2 0-0.3 0 0 0-0.1 0.2-1.3 0.2-2.6 0-1.6 0-3.2c0-0.5 0.2-1.1 0.6-1.5 0.5-0.5 1-0.7 1.6-0.7 0.6 0 1.2 0.2 1.6 0.7 0.4 0.4 0.7 1 0.7 1.5q0 1.2 0 2.4 0 0.1 0 0.2 0 0 0 0.1 0 0.1 0 0.1 0 0.1 0 0.1v0.4q0 0.6 0.1 1.2 0 0.3 0 0.7 0.1 0.2 0.1 0.3 0 0.3 0.1 0.6 0 0.3 0.1 0.6 0.1 0.3 0.2 0.6 0 0.3 0.1 0.6 0.1 0.4 0.2 0.7 0.1 0.1 0.1 0.2 0.3 0.5 0.6 1.1 0.1 0.1 0.1 0.2 0.1 0.2 0.2 0.3 0.1 0.1 0.2 0.2 0 0.2 0.1 0.3c0.1 0 0.2 0.1 0.2 0.2q0.2 0.2 0.5 0.4 0.2 0.2 0.4 0.4v0.1q0.1 0 0.1 0 0.4 0.3 0.9 0.5 0.2 0.2 0.5 0.3 0.1 0.1 0.2 0.1 0.5 0.2 0.9 0.3 0.3 0.1 0.6 0.2 0.2 0.1 0.5 0.1 0.3 0.1 0.6 0.2 0.2 0 0.5 0.1 0.3 0 0.7 0.1h0.1q0.5 0 1.1 0.1 1.1 0.1 2.3 0.1c0.6 0 1.1 0.3 1.6 0.7 0.4 0.4 0.6 1 0.6 1.6 0 0.6-0.2 1.1-0.6 1.5-0.5 0.5-1 0.7-1.6 0.7q-0.8 0.1-1.6 0.2h-0.2-0.1q-0.3 0.1-0.7 0.1-0.4 0.1-0.7 0.2-0.4 0-0.7 0.1-0.4 0.1-0.7 0.2-0.4 0.1-0.7 0.2-0.4 0.1-0.7 0.2c-0.1 0-0.2 0.1-0.3 0.1q-0.1 0-0.2 0.1-0.1 0.1-0.3 0.1-0.1 0.1-0.2 0.1-0.1 0.1-0.2 0.2-0.3 0.1-0.6 0.3v0.1q0 0-0.1 0-0.4 0.4-0.8 0.9c0.2-0.3-0.1 0.1-0.2 0.2q-0.1 0.2-0.2 0.4-0.3 0.5-0.5 1-0.1 0.1-0.1 0.2-0.1 0.2-0.2 0.5-0.2 0.6-0.4 1.1-0.3 1.2-0.6 2.4-0.3 1.2-0.5 2.4-0.2 1.3-0.4 2.5-0.3 1.2-0.4 2.4c-0.2 0.5-0.4 0.9-0.8 1.2-0.4 0.3-0.9 0.4-1.4 0.4-0.5 0-0.9-0.1-1.3-0.4-0.4-0.3-0.7-0.7-0.8-1.2-0.4-1.8-0.6-3.6-0.9-5.4q-0.1-0.6-0.2-1.3-0.1-0.6-0.3-1.2-0.1-0.6-0.3-1.2-0.1-0.7-0.3-1.3-0.1-0.3-0.3-0.6 0 0 0 0 0-0.2-0.1-0.3-0.1-0.1-0.1-0.2-0.1-0.1-0.1-0.2-0.1-0.2-0.2-0.3-0.1-0.1-0.1-0.2-0.1-0.1-0.1-0.1c-0.1-0.1-0.1-0.1-0.2-0.2q-0.1-0.1-0.2-0.2-0.1-0.1-0.2-0.2-0.1 0-0.2-0.1-0.1-0.1-0.2-0.2-0.1-0.1-0.2-0.1-0.2-0.2-0.4-0.3m12.4 0.5q0 0 0 0 0 0 0 0zm-8.2-6.4q-0.4 0.3-0.9 0.6-0.5 0.3-1 0.6-0.5 0.2-1 0.4 0.4 0.2 0.8 0.4 0.3 0.2 0.7 0.4 0.3 0.3 0.7 0.5 0.3 0.3 0.6 0.6 0.5 0.4 0.9 0.9 0.4 0.5 0.7 1 0.4 0.5 0.6 1.1 0.3 0.6 0.5 1.2 0.2-0.8 0.5-1.5 0.3-0.7 0.7-1.3 0.4-0.7 0.9-1.3 0.5-0.6 1-1.1 0.2-0.2 0.4-0.3 0.2-0.2 0.4-0.3 0.2-0.2 0.4-0.3 0.2-0.1 0.4-0.2-0.8-0.4-1.4-0.9-0.7-0.4-1.3-1-0.6-0.5-1.1-1.1-0.5-0.6-0.9-1.3-0.2 0.3-0.4 0.6-0.2 0.3-0.4 0.6-0.2 0.2-0.5 0.5-0.2 0.3-0.5 0.5-0.4 0.4-0.8 0.7z"/>
			<path id="Path_1700" fill-rule="evenodd" class="s2" d="m195.6 17.4c-0.3-0.5-0.4-1-0.3-1.6 0-0.5 0.3-1 0.7-1.3 0.4-0.4 0.9-0.6 1.5-0.6q1.3-0.1 2.7-0.3 0.3 0 0.7 0l0.3-0.1q0.6-0.1 1.2-0.2 0.3 0 0.6-0.1 0.3 0 0.6-0.1 0.3-0.1 0.6-0.2 0.3-0.1 0.6-0.2 0.2 0 0.4-0.1c0 0 0.2-0.1 0.3-0.2 0.3-0.1 0.6-0.3 0.9-0.5q0.1-0.1 0.2-0.1 0.2-0.2 0.4-0.4 0.2-0.2 0.3-0.4l0.1-0.1q0-0.1 0.1-0.2 0.1-0.1 0.1-0.2 0.1-0.1 0.2-0.2 0-0.1 0.1-0.2 0.1-0.1 0.1-0.3 0.1-0.1 0.1-0.2 0.1-0.2 0.2-0.5 0.1-0.3 0.2-0.5 0-0.3 0.1-0.6 0.1-0.3 0.1-0.6 0.1-0.3 0.1-0.5 0-0.1 0-0.1v-0.1q0.1-0.3 0.1-0.6 0.1-0.5 0.1-1.1-0.1-1.4-0.1-2.8c0-0.6 0.3-1.1 0.7-1.5 0.4-0.5 1-0.7 1.6-0.7 0.6 0 1.1 0.2 1.6 0.7 0.4 0.4 0.6 0.9 0.6 1.5q0 1 0 2 0.1 0.1 0.1 0.2 0 0 0 0.1 0 0.1 0 0.1 0 0.1 0 0.2v0.2q0 0.1 0 0.2 0 0.4 0 0.8c0 0.1 0.1 0.5 0.1 0.6q0.1 0.5 0.2 1.1 0.1 0.2 0.1 0.4 0.1 0.2 0.1 0.4 0.1 0.2 0.1 0.3 0.1 0.2 0.2 0.4 0 0.1 0 0.1 0 0 0.1 0.1 0.1 0.3 0.3 0.7 0.2 0.3 0.5 0.7v0.1q0.2 0.1 0.3 0.2 0.1 0.1 0.1 0.2 0.1 0.1 0.2 0.2 0.1 0.1 0.2 0.2 0.1 0.1 0.2 0.1c-0.1 0 0.3 0.3 0.4 0.3q0.2 0.2 0.5 0.4 0.3 0.1 0.5 0.2c0.1 0.1 0.4 0.2 0.5 0.2q0.3 0.2 0.6 0.3 0.3 0.1 0.6 0.1 0.3 0.1 0.6 0.2 0.4 0.1 0.7 0.2 0.6 0.1 1.3 0.2h0.4q0.4 0.1 0.7 0.1 1.5 0.1 3 0.2c0.6 0 1.1 0.2 1.5 0.6 0.5 0.5 0.7 1 0.7 1.6 0 0.6-0.2 1.2-0.7 1.6-0.4 0.4-0.9 0.6-1.5 0.6q-1.5 0.2-2.9 0.4h-0.4q-0.3 0.1-0.7 0.1-0.6 0.2-1.3 0.3-0.6 0.1-1.2 0.3-0.2 0.1-0.5 0.2c0 0-0.1 0.1-0.1 0.1h-0.1q-0.1 0.1-0.2 0.1-0.2 0.1-0.3 0.2-0.1 0-0.2 0.1-0.2 0.1-0.3 0.1l-0.2 0.2c0 0-0.2 0.2-0.3 0.2q-0.1 0.1-0.2 0.2-0.1 0.1-0.1 0.2-0.1 0-0.2 0.1-0.1 0.1-0.2 0.2 0 0 0 0.1 0 0 0 0 0 0 0 0.1-0.1 0-0.1 0-0.1 0.2-0.3 0.5-0.2 0.4-0.5 0.9c-0.1 0.2-0.2 0.5 0 0.1q-0.1 0.3-0.2 0.5-0.4 1.1-0.6 2.2-0.3 1-0.6 2.1-0.3 1.1-0.5 2.2-0.2 1.1-0.4 2.2c-0.4 2.2-3.7 2.1-4.3 0-0.4-1.6-0.6-3.3-0.9-4.9q-0.3-1.2-0.6-2.4-0.1-0.5-0.3-1.1-0.1-0.2-0.2-0.5 0-0.1 0-0.1-0.1-0.1-0.1-0.3-0.1-0.1-0.2-0.2 0-0.1-0.1-0.2 0-0.1-0.1-0.2c0-0.1-0.1-0.1-0.1-0.2q-0.1-0.1-0.2-0.3-0.2-0.1-0.4-0.3-0.1-0.1-0.2-0.2c-0.2-0.1 0.2 0.2 0.2 0.2q-0.1-0.1-0.2-0.2-0.1-0.1-0.2-0.1-0.1-0.1-0.2-0.2-0.1 0-0.2-0.1-0.5-0.3-1-0.5-0.3-0.1-0.5-0.2l-0.1-0.1q-1.1-0.4-2.3-0.8c-1.4-0.4-2.9-0.8-4.3-1.3-0.6-0.1-1-0.5-1.3-0.9zm10.9 4.9c-0.1 0-0.2-0.1-0.2-0.1 0 0 0.1 0.1 0.2 0.1zm2-6.5q-0.3 0.3-0.7 0.4-0.3 0.2-0.6 0.4-0.4 0.1-0.7 0.3 0.2 0.1 0.3 0.2 0.2 0.1 0.4 0.2 0.2 0.1 0.4 0.2 0.2 0.1 0.3 0.3 0.6 0.3 1 0.7 0.5 0.5 0.9 0.9 0.4 0.5 0.7 1.1 0.3 0.5 0.6 1.1 0.1 0.3 0.2 0.6 0.3-0.8 0.7-1.5 0.4-0.7 0.9-1.4 0.5-0.7 1.1-1.3 0.5-0.6 1.2-1.1 0.2-0.1 0.4-0.2-0.6-0.3-1.2-0.7-0.6-0.4-1.2-0.9-0.5-0.4-1-1-0.5-0.5-0.9-1.1-0.2 0.4-0.5 0.7-0.2 0.3-0.5 0.6-0.3 0.3-0.6 0.6-0.3 0.3-0.6 0.5-0.3 0.2-0.6 0.4z"/>
			<path id="Path_1701" class="s2" d="m53.2 407.2q1.3 5.7 2 11.5 0.6 5.8 0.7 11.6 0.1 5.9-0.5 11.7-0.5 5.8-1.7 11.5-0.1 0.4-0.4 0.8-0.3 0.3-0.6 0.5-0.4 0.2-0.8 0.3-0.4 0-0.8-0.1-0.4-0.1-0.8-0.4-0.3-0.2-0.5-0.6-0.2-0.4-0.3-0.8 0-0.4 0.1-0.8 1.1-5.5 1.6-11 0.5-5.5 0.5-11.1-0.1-5.5-0.8-11-0.6-5.6-1.8-11c-0.7-2.6 3.5-3.8 4.1-1.1z"/>
			<path id="Path_1702" class="s2" d="m208.5 463.5c-1.3-3.9-3.7-7.3-6-10.7q-0.9-1.1-1.6-2.4-0.8-1.2-1.5-2.5-0.6-1.3-1.2-2.6-0.6-1.3-1.1-2.7-0.4-1.6-0.7-3.2-0.3-1.6-0.5-3.2-0.2-1.6-0.2-3.2-0.1-1.7-0.1-3.3c-0.1-9.2-0.1-18.4-0.2-27.6-0.1-2.8 4.2-2.8 4.2 0l0.2 15.4c0 4.6 0 9.1 0.1 13.6 0.1 4.1 0.4 8.3 2 12.1 1.3 3.4 3.5 6.3 5.5 9.3q0.8 1.1 1.6 2.3 0.7 1.2 1.4 2.5 0.6 1.2 1.2 2.5 0.6 1.3 1 2.6c0.9 2.6-3.2 3.7-4.1 1.1z"/>
		</g>
	</g>
</svg>