<svg id="Group_811" data-name="Group 811" xmlns="http://www.w3.org/2000/svg" xmlns:xlink="http://www.w3.org/1999/xlink" width="250.434" height="465" viewBox="0 0 250.434 465">
  <defs>
    <clipPath id="clip-path">
      <rect id="Rectangle_948" data-name="Rectangle 948" width="250.434" height="465" fill="none"/>
    </clipPath>
  </defs>
  <g id="Group_810" data-name="Group 810" clip-path="url(#clip-path)">
    <path id="Path_1616" data-name="Path 1616" d="M58.259,456.929l3.112,28.076L60.045,514.15l-7.985,12.92c1.282-2.075,23.159,0,25.6,0h56.6c28.341,0,56.708-.239,85.042.028-14.993-11.95-12.829-21.283-12.737-40.113.015-2.812-.8-35.568,2.546-35.712L58.259,456.929" transform="translate(-7.588 -65.776)" fill="#fff"/>
    <path id="Path_1617" data-name="Path 1617" d="M187.712,311.744a2.241,2.241,0,0,1-3-.829q-.6-1.258-1.151-2.537a125.662,125.662,0,0,1-6.982-22.463c-.362-1.616-.7-3.236-1.036-4.858-1.266-6.181-2.353-12.4-3.538-18.6a191.166,191.166,0,0,0-5.388-22.5c-.934-2.911-1.7-5.873-2.542-8.811-.459-1.6-.937-3.19-1.466-4.766q-.41-1.226-.865-2.435-.218-.577-.449-1.15l-.174-.422,0-.011-.138-.318a31.747,31.747,0,0,0-2.173-4.151c-.214-.337-.434-.667-.665-.993-.106-.149-.214-.295-.323-.442l-.011-.015-.067-.08a17.056,17.056,0,0,0-1.427-1.543,2.177,2.177,0,0,1-.217-.2l0,0c-.052-.037-.119-.083-.183-.125H155.9a1.142,1.142,0,0,1-.211-.062l-.084-.016a2.29,2.29,0,0,1-.337-.005h-.01a.094.094,0,0,1-.106.018c-.057.012-.114.024-.171.038-.158.042-.309.1-.464.15l-.07.041c-.182.1-.359.206-.536.315-.044.027-.07.042-.1.056l-.014.013c-.113.1-.771.591-.757.761,0-.044.261-.383.079-.1-.052.083-.108.162-.16.246-.011.018-.065.126-.115.221a.284.284,0,0,1-.072.146c-.006.019-.013.037-.018.056l0,.014c.884,2.389,1.49,4.877,2.441,7.247,2.077,5.178,4.07,10.374,5.9,15.646,1.867,5.391,3.622,10.821,5.377,16.249a2,2,0,0,1-.17,1.594,2.48,2.48,0,0,1-1.391,1.153,2.271,2.271,0,0,1-2.747-1.56q-1.217-3.767-2.447-7.529c-1.057-3.219-2.129-6.432-3.245-9.631-1.732-4.964-3.622-9.857-5.578-14.736-.542-1.35-.926-2.762-1.364-4.146-.272-.854-.551-1.707-.859-2.548-.1-.273-.185-.63-.319-.923a.349.349,0,0,1-.085-.127c-.04-.091-.079-.183-.12-.274q-.12-.267-.249-.529c-.182-.37-.377-.734-.595-1.084-.089-.144-.187-.282-.279-.424l0-.006-.012-.013c-.111-.123-.22-.246-.342-.36l-.011-.009c-.08-.043-.167-.1-.237-.144-.173-.055-.343-.114-.521-.154-.077-.007-.155-.017-.221-.019-.122,0-.243,0-.366.007-.2.056-.413.1-.613.155h0c-.1.053-.2.1-.293.156s-.181.117-.271.176l-.014.015c-.128.125-.259.244-.379.378l-.011.013a.409.409,0,0,1-.035.1c-.1.225-.361.51-.455.7-.025.05-.044.085-.058.111l0,.013c-.053.153-.109.3-.157.459a11.022,11.022,0,0,0-.273,1.17l-.007.033,0,.023c-.01.114-.022.228-.032.342q-.027.359-.034.718c-.012.525.01,1.05.048,1.574a1.786,1.786,0,0,1-.017.4,9.409,9.409,0,0,1,3,3.22,35.967,35.967,0,0,1,2.355,5.72c.549,1.5,1.087,3.011,1.625,4.518.159.444.321.887.478,1.331,2.8,7.9,5.508,15.83,8.414,23.69a2.234,2.234,0,1,1-4.307,1.188q-1.114-3.011-2.191-6.034-1.1-3.065-2.172-6.136c-1.272-3.62-2.535-7.244-3.817-10.862q-.928-2.614-1.87-5.222-.5-1.388-1.013-2.771c-.149-.4-.3-.809-.451-1.212-.075-.2-.154-.393-.232-.59-.021-.055-.037-.094-.049-.126l-.057-.116c-.213-.442-.423-.882-.677-1.3-.109-.179-.226-.351-.343-.525l-.071-.111c-.022-.021-.049-.047-.086-.085-.138-.14-.265-.287-.407-.423-.029-.026-.246-.2-.29-.244a4.97,4.97,0,0,0-.723-.422c-.038,0-.459-.132-.525-.151l-.071-.022-.091.01c-.089,0-.178,0-.267.007l-.076.022-.008.005c-.083.047-.163.1-.242.15l.172-.138a.351.351,0,0,1-.056.007,3.812,3.812,0,0,0-.553.6l0,0c-.045.063-.091.127-.134.192q-.138.208-.264.423c-.169.29-.313.59-.46.892l-.012.023c-.005.016-.009.03-.016.05-.052.15-.111.3-.161.449-.093.282-.175.567-.24.857-.028.12-.052.241-.073.363,0,.032-.006.058-.01.1-.015.233-.029.465-.031.7a10.66,10.66,0,0,0,.073,1.289c.005.025.015.086.026.161a5.152,5.152,0,0,1,1.064.243,8.828,8.828,0,0,1,4.714,4.509,37.945,37.945,0,0,1,2.435,6.344c.665,2.137,1.241,4.3,1.8,6.467.032.126.066.251.1.378a127.49,127.49,0,0,0,3.984,13.723,2.259,2.259,0,0,1-1.56,2.747,2.035,2.035,0,0,1-.233.061,2.335,2.335,0,0,1-2.515-1.62q-.584-1.535-1.082-3.1c-1.407-4.4-2.421-8.906-3.62-13.36-.586-2.177-1.212-4.346-1.962-6.473-.185-.525-.376-1.048-.58-1.567-.048-.12-.144-.343-.143-.343-.068-.153-.136-.307-.208-.458a14.344,14.344,0,0,0-.7-1.3c-.1-.17-.212-.338-.325-.5l-.044-.061s-.032-.041-.095-.13a.255.255,0,0,0-.019-.022c-.166-.18-.322-.363-.5-.532-.063-.06-.134-.115-.2-.176-.139-.078-.282-.173-.416-.258l-.055-.036-.116-.032c-.089-.026-.2-.044-.295-.07-.095.006-.2-.008-.29-.005a1.723,1.723,0,0,0-.2.034l-.067.023a.529.529,0,0,1-.169.057c-.1.057-.2.118-.3.173-.034.019-.05.025-.072.036l-.032.032c-.065.06-.131.118-.194.179-.085.083-.166.168-.244.256-.021.024-.077.1-.117.15-.068.11-.184.3-.21.342-.063.11-.209.486-.2.437-.065.2-.13.4-.181.612-.005.02-.009.035-.014.051s0,.028,0,.047a10.805,10.805,0,0,0,.021,1.164,2.637,2.637,0,0,0,.052.507s-.067-.432-.021-.16c.041.237.076.475.12.711.085.452.184.9.291,1.348.214.883.465,1.758.736,2.626.7,2.242,1.377,4.482,1.937,6.765,1.2,4.885,2.082,9.843,3.136,14.76.853,3.983,1.729,7.962,2.593,11.942q1.178,5.427,2.274,10.87a124.654,124.654,0,0,0,3.082,13.42q.531,1.671,1.143,3.316.3.8.615,1.6.159.4.322.8l.161.39.029.069q1.375,3.2,3.01,6.284c1.509,2.845,3.174,5.6,4.956,8.284q1.338,2.014,2.759,3.972a2.26,2.26,0,0,1-.8,3.056,1.945,1.945,0,0,1-.7.279c.9,1.65,1.578,3.43,2.52,5.053l.208-.088.072-.03c5.691-2.412,11.332-4.966,16.834-7.783,2.961-1.516,5.893-3.107,8.7-4.9.616-.394,1.226-.8,1.825-1.217q.41-.286.812-.583l.227-.171a32.563,32.563,0,0,1-3.13-7.473" transform="translate(-19.521 -31.202)" fill="#fff"/>
    <path id="Path_1618" data-name="Path 1618" d="M153.207,322.853l0-.008,0-.006.006.014" transform="translate(-22.33 -47.056)" fill="#fff"/>
    <path id="Path_1619" data-name="Path 1619" d="M153.19,322.813c-.038-.09-.118-.275,0,0" transform="translate(-22.32 -47.031)" fill="#fff"/>
    <path id="Path_1620" data-name="Path 1620" d="M15.014,81.026a9.925,9.925,0,0,1,2.641,4.226,12.136,12.136,0,0,1,3.164-5.2,10.282,10.282,0,0,1,1.53-1.134,11.665,11.665,0,0,1-4.7-4.276,10.184,10.184,0,0,1-1.726,2.232,10.318,10.318,0,0,1-3.74,2.257,13.7,13.7,0,0,1,2.833,1.9" transform="translate(-1.775 -10.879)" fill="#fbca04"/>
    <path id="Path_1621" data-name="Path 1621" d="M243.17,19.985a8.863,8.863,0,0,1,3.155,3.842c.088.207.159.416.237.625a11.463,11.463,0,0,1,3.877-5.294c.126-.091.256-.172.385-.255a11.386,11.386,0,0,1-4.283-3.646,9.767,9.767,0,0,1-2.194,2.386A10.457,10.457,0,0,1,241.7,19.11a11.836,11.836,0,0,1,1.473.875" transform="translate(-35.229 -2.224)" fill="#fbca04"/>
    <path id="Path_1622" data-name="Path 1622" d="M132.609,349.748l-.049.062c-.016.02-.033.039-.049.059a.872.872,0,0,0,.072-.085l.026-.035" transform="translate(-19.315 -50.978)" fill="#fbca04"/>
    <path id="Path_1623" data-name="Path 1623" d="M132.761,349.548l-.058.064-.077.107c.044-.058.087-.119.135-.171" transform="translate(-19.331 -50.949)" fill="#fbca04"/>
    <path id="Path_1624" data-name="Path 1624" d="M186.634,433.974c-6.653-9.269-11.653-19.634-16.456-29.944-5.522-11.851-10.932-23.756-15.987-35.814-1.712-4.082-3.44-8.174-4.941-12.34a2.038,2.038,0,0,1,.364-1.906,2.376,2.376,0,0,1,1.639-2.382c.328-.132.654-.266.981-.4q.566-.233,1.132-.468l.687-.288.074-.032c-.941-1.623-1.623-3.4-2.52-5.053a2.475,2.475,0,0,1-2.353-1.08q-1.121-1.544-2.195-3.122a94.769,94.769,0,0,1-8.127-14.461c-.163.54-.329,1.08-.5,1.616a91.267,91.267,0,0,1-5.472,13.123,42.986,42.986,0,0,1-5.363,8.536,1.827,1.827,0,0,1-1.059.6,31.894,31.894,0,0,1-1.609,4,2.317,2.317,0,0,1,.032,1.217,1.708,1.708,0,0,1-.142.378c.325.113.648.228.97.343.085-.243.175-.484.257-.728a2.234,2.234,0,1,1,4.307,1.188c-.114.339-.234.677-.354,1.014-.027.077-.056.152-.084.228.08.039.163.073.243.113-.079-.039-.162-.073-.243-.113-2.914,8.153-6.363,16.13-9.928,24.014-3.279,7.251-6.788,14.384-10.313,21.517-2.18,4.41-4.172,8.911-6.247,13.372-4.519,9.72-9.332,19.581-16.366,27.767a40.009,40.009,0,0,1-8.282,7.456h131.71q.217-.131.431-.267c-10.54-1.386-18.4-9.885-24.281-18.083" transform="translate(-11.482 -47.617)" fill="#fff"/>
    <path id="Path_1625" data-name="Path 1625" d="M270.127,303.156a39.872,39.872,0,0,0-2.455-10.956,35.166,35.166,0,0,0-2.347-4.951,26.469,26.469,0,0,0-2.382-3.546c-3.9-4.741-8.994-8.227-14.3-11.229a111.134,111.134,0,0,0-16.951-7.7c-7.1-2.578-14.259-4.954-21.26-7.807a18.291,18.291,0,0,1-2.55,6.579,2.469,2.469,0,0,1,2.082,3.688c-2.8,4.744-5.75,9.411-8.8,14-3.878,5.846-7.981,12.853-13.7,17.151.534,1.984,1.108,3.957,1.736,5.912q.914,2.847,1.99,5.64.273.7.557,1.4.133.324.267.648l.036.084.091.21q.57,1.326,1.19,2.629a2.294,2.294,0,0,1-.8,3.056c-.017.011-.038.017-.056.027a32.525,32.525,0,0,0,3.13,7.473l.142-.107.014-.011a17.085,17.085,0,0,0,2.393-2.242,1.962,1.962,0,0,1,1.878-.6,2.4,2.4,0,0,1,.829-.906,2.254,2.254,0,0,1,3.056.8,127.817,127.817,0,0,0,8.131,12.993q1.893,2.679,3.872,5.293.993,1.317,2,2.624l.5.647.066.085c.081.105.162.21.244.314q.487.629.976,1.257c2.716,3.492,5.454,6.967,8.1,10.515a120.74,120.74,0,0,1,13.9,22.946,2.3,2.3,0,0,1-.8,3.056,2.241,2.241,0,0,1-3.057-.8,102.015,102.015,0,0,0-7.311-13.493c-2.355-3.684-4.907-7.236-7.54-10.724q-.957-1.267-1.925-2.524l-.363-.471-.046-.06-.454-.586-.912-1.175q-1.984-2.549-3.965-5.1A175.682,175.682,0,0,1,201.1,326.5a30.336,30.336,0,0,1-6.948,5.325,157.914,157.914,0,0,1-18.2,9.317c-3.092,1.393-6.2,2.747-9.343,4.031,0,.011.008.022.012.032.728,1.942,1.494,3.87,2.271,5.793q1.044,2.583,2.119,5.154.341.814.683,1.626l.034.082.142.336.333.786q.787,1.85,1.584,3.7,7.638,17.694,15.974,35.095c2.46,5.1,5.04,10.146,7.9,15.032a91.89,91.89,0,0,0,9.31,13.436,50.01,50.01,0,0,0,5.417,5.463q.365.313.737.614c.059.048.448.352.521.413.42.319.847.629,1.281.926a28.414,28.414,0,0,0,2.931,1.767c.492.257,1,.495,1.5.718.106.043.368.151.453.184.24.092.481.18.724.264a20.309,20.309,0,0,0,3.141.814q.243.042.489.078l.051.006c.254.021.507.052.762.071q.819.059,1.64.048t1.665-.1l.343-.039.156-.023c.267-.044.535-.09.8-.143a22.1,22.1,0,0,0,3.571-1.041c.173-.067.347-.135.519-.206l.013,0,.079-.037q.461-.2.914-.422,1.11-.533,2.185-1.13a31.229,31.229,0,0,0,7.62-5.812,20.544,20.544,0,0,0,4.747-7.882c.728-2.333,1.29-4.726,1.865-7.1.695-2.863,1.353-5.735,1.939-8.622.232-1.146.456-2.295.641-3.449.017-.109.077-.5.092-.6.067-.483.128-.967.194-1.451q.2-1.459.414-2.918c1.186-8.015,2.765-15.965,4.506-23.876,3.369-15.306,7.3-30.507,9.571-46.032q.852-5.833,1.351-11.71a73.327,73.327,0,0,0,.328-11.866m-40.2,53.11c-2.109-12.6-4.024-25.237-2.214-38,.447-3.155,5.229-1.8,4.785,1.32-1.673,11.806.267,23.72,2.215,35.362.524,3.13-4.26,4.463-4.786,1.32" transform="translate(-24.283 -37.455)" fill="#fff"/>
    <path id="Path_1626" data-name="Path 1626" d="M211,251.118A185.545,185.545,0,0,1,188.7,240.355a2.134,2.134,0,0,1-.563-3.271,8.722,8.722,0,0,1-2.3-3.312,2.237,2.237,0,0,1-2.586-1.6c-.465-3.323-.729-6.672-.921-10.022-.089-1.562-.173-3.132-.217-4.7a36.564,36.564,0,0,1-10.056,7.1c1.728,4.925,2.929,10.022,4.512,15A198.749,198.749,0,0,1,182.07,262.8c1.528,8.065,2.911,16.161,4.774,24.159.027.118.058.236.085.354a47.069,47.069,0,0,0,4.359-5.237c2.466-3.249,4.764-6.626,7-10.031,2.824-4.293,5.566-8.648,8.181-13.072a2.265,2.265,0,0,1,2.2-1.183,18.292,18.292,0,0,0,2.55-6.579l-.231-.092" transform="translate(-25.079 -31.695)" fill="#fff"/>
    <path id="Path_1627" data-name="Path 1627" d="M182.458,125.387c-1.032-7.593-2.094-15.273-4.531-22.568A61.564,61.564,0,0,0,166.72,83.371a2.574,2.574,0,0,1-.12-3.159,8.392,8.392,0,0,0-4.58,3.253,2.5,2.5,0,0,1,.325,2.728,57.873,57.873,0,0,1-45.382,32.2,1.982,1.982,0,0,1-2.332-1.766,19.534,19.534,0,0,1-11.091-2.664c-1.316.424-2.646.807-4,1.128a37.323,37.323,0,0,0-2.309,9.418c.546.134,1.094.295,1.646.489,3,1.055,1.7,5.849-1.32,4.786-3.069-1.08-6.554-1.527-9.039.993-2.239,2.271-2.925,5.778-2.98,8.853-.079,4.282,1.128,9.241,3.9,12.68a9.245,9.245,0,0,1,7.47,1.011,2.6,2.6,0,0,1,3.279,2.314c.026.408.056.82.085,1.231a10.532,10.532,0,0,1,1.252,3.906,4.085,4.085,0,0,1,0,1.488,10.655,10.655,0,0,1-.52,2.268c.97,7.627,2.845,15.241,7.182,21.517a40.775,40.775,0,0,0,19.774,14.676,5.792,5.792,0,0,1,1.162.122,5.4,5.4,0,0,1,2.043-.8c-.12-3.987,1.3-8.545,5.558-9.714a6.244,6.244,0,0,1,6.731,2.189,7.612,7.612,0,0,1,3.364-1.884,5.9,5.9,0,0,1,5.653,1.572,24.293,24.293,0,0,1,5.157,7.74c.152-.074.308-.141.459-.218,12.445-6.326,18.779-20.339,20.738-34.022a9.245,9.245,0,0,1-1-4.19,9.506,9.506,0,0,1,1.76-5.446,2.234,2.234,0,0,1,1.38-1.568,9.492,9.492,0,0,1,6.439-2.565,9.259,9.259,0,0,1,4.235,1.014c2.619-2.556,3.867-6.5,3.89-10.3.031-4.927-2.13-10.473-7.662-10.381.117.174.233.349.355.518-.121-.169-.237-.343-.355-.518-.158,0-.318.009-.481.021-2.507.184-3.029-2.84-1.6-4.258-.113-.349-.215-.7-.3-1.052a2.046,2.046,0,0,1-3.022-1.588m-41.327,25.89c.354,0,.719.022,1.074,0l-.056.007c.377-.024.759-.011,1.131-.011a2.482,2.482,0,1,1,0,4.963c-.355,0-.719-.023-1.074,0l.056-.008c-.378.025-.759.011-1.131.012a2.482,2.482,0,1,1,0-4.963m-19.09-18.858a2.567,2.567,0,1,1,2.567-2.566,2.611,2.611,0,0,1-2.567,2.566m32.621,38.706c-2.13,5.568-6.626,13.682-13.538,13.484-6.706-.191-11.058-8.052-13.339-13.484-.641-1.525.95-3.141,2.393-3.141h22.091a2.319,2.319,0,0,1,1.632.6,2,2,0,0,1,.761,2.539m5.061-38.706a2.567,2.567,0,1,1,2.567-2.566,2.611,2.611,0,0,1-2.567,2.566m8.7-19.893c-3.775-2.7-7.691-4.845-12.269-2.71-2.88,1.343-5.4-2.937-2.5-4.286,6.3-2.939,11.852-1.17,17.279,2.71,2.579,1.843.1,6.146-2.5,4.286" transform="translate(-12.468 -11.692)" fill="#fff"/>
    <path id="Path_1628" data-name="Path 1628" d="M204.949,143.86c-1.292-7-2.875-13.941-4.464-20.879C197.474,109.837,194.99,96.509,190,83.925a73.042,73.042,0,0,0-9.02-16.718,28.749,28.749,0,0,0-12.855-9.668,42.19,42.19,0,0,0-5.734-1.787,10.8,10.8,0,0,1-2.475-.636c-1.31-.667-2.487-1.815-3.757-2.581a36.447,36.447,0,0,0-3.941-2.072,36.859,36.859,0,0,0-8.435-2.55c-12.038-2.18-24.563,1.789-34.436,8.653a59.211,59.211,0,0,0-21.4,27.806c-4.362,11.549-5.381,23.844-8.541,35.7-3.518,13.2-8.917,26.475-9.644,40.248-.31,5.87.7,10.6,4.815,14.877,2.934,3.055,7.213,6.587,11.662,7.263a19.854,19.854,0,0,1-2.066-11.534c.382-3.135,5.348-3.163,4.963,0A15.5,15.5,0,0,0,105.5,188.623a40.753,40.753,0,0,1-5.267-6.976,49.178,49.178,0,0,1-5.755-16.655,9.24,9.24,0,0,1-4.773,1.308,9.525,9.525,0,0,1-6.837-16.211q-.254-.337-.493-.685a25.043,25.043,0,0,1-2.984-21.364c2.479-7.021,11.122-7.071,17.965-5.385.421-3.3,3.636.779,4.479-14.821-1.473.35-7.564,3.1-9.074,3.327-3.129.463-4.468-4.32-1.319-4.786a50.2,50.2,0,0,0,32.89-19.4c1.889-2.535,6.2-.057,4.286,2.506a55.475,55.475,0,0,1-27.384,19.687,19.531,19.531,0,0,0,11.091,2.664,2.729,2.729,0,0,1,2.332-3.2c17.711-2.039,33.5-13.7,41.1-29.741.876-1.849,2.941-1.48,3.959-.222a8.4,8.4,0,0,1,4.58-3.253c.809-1.2,2.461-1.773,3.63-.351a68.786,68.786,0,0,1,12.061,20.418c2.74,7.65,3.864,15.774,4.953,23.788a2.709,2.709,0,0,1-1.764,2.908c.085.354.187.7.3,1.052a2.477,2.477,0,0,1,1.6-.706c8.483-.621,12.983,7.339,13.1,14.88a20.168,20.168,0,0,1-5.164,14.1,10.493,10.493,0,0,1,1.588,4.467,4.084,4.084,0,0,1,0,1.488,10.434,10.434,0,0,1-2.019,5.076,2.4,2.4,0,0,1,3.425,2.212,25.361,25.361,0,0,1-8.694,18.266,21.76,21.76,0,0,0,5.018-1.971,2.236,2.236,0,0,1,.863-3.27A26.641,26.641,0,0,0,205.748,163.2c2.048-6.358.378-12.972-.8-19.343" transform="translate(-10.16 -6.896)" fill="#fbca04"/>
    <path id="Path_1629" data-name="Path 1629" d="M192.592,203.654a20.259,20.259,0,0,0,15.845-18.976,2.7,2.7,0,0,1,.1-.671,9.225,9.225,0,0,1-6.054,2.218,9.35,9.35,0,0,1-4.34-1.084,65.363,65.363,0,0,1-6,17.072,44.291,44.291,0,0,1-3.085,5.057,1.8,1.8,0,0,1,.027.366c-.032.653-.047,1.308-.054,1.963a17.535,17.535,0,0,0,3.134-1.388c-1.738-.97-2.02-4.024.425-4.556" transform="translate(-27.553 -26.82)" fill="#fbca04"/>
    <path id="Path_1630" data-name="Path 1630" d="M113.267,347.572c-.205.317-.409.635-.63.944.22-.309.425-.627.63-.944a1.708,1.708,0,0,1-1.128-.034c-1.193-.49-2.38-1-3.562-1.519-4.931-2.154-9.8-4.458-14.542-7.013a86.837,86.837,0,0,1-7.566-4.513,28.583,28.583,0,0,1-5.555-4.582c-.181.243-.361.489-.538.736.177-.248.357-.493.538-.736-.064-.073-.132-.144-.2-.219a2.739,2.739,0,0,1-.492-.859,21.585,21.585,0,0,0-3.411-.448,2.331,2.331,0,0,1-.157.372,99.1,99.1,0,0,1-8.091,12.566c-4.9,6.5-10.478,12.406-15.976,18.394-2.693,2.933-5.351,5.9-7.866,8.987q-.939,1.151-1.849,2.326l-.108.141c-.08.105-.161.209-.24.314-.14.185-.278.369-.418.554q-.447.6-.888,1.2-1.894,2.606-3.612,5.332a2.281,2.281,0,0,1-3.056.8,2.253,2.253,0,0,1-.8-3.056A111.252,111.252,0,0,1,42.3,364.645c3.4-4.1,7.03-7.981,10.636-11.889-1.548.761-3.753.079-3.531-2.07,1.146-11.056,1.578-23.239-5.563-32.507-1.95-2.53,2.364-5,4.286-2.5,7.639,9.914,7.469,23.159,6.241,35.011a2.742,2.742,0,0,1-.165.693q1.986-2.163,3.936-4.359,1.99-2.256,3.9-4.579,1-1.225,1.975-2.474l.054-.068.025-.033.183-.238q.243-.319.486-.641.456-.606.9-1.219A97.932,97.932,0,0,0,72.8,326.5a2.268,2.268,0,0,1,3.056-.8,2.231,2.231,0,0,1,.958,2.684,21.585,21.585,0,0,1,3.411.448,2.211,2.211,0,0,1,.492-2.3,2.281,2.281,0,0,1,2.915-.221,24.257,24.257,0,0,0,1.829-2.911,2.717,2.717,0,0,1-.416-.058,2.238,2.238,0,0,1-1.56-2.747q.928-2.249,1.914-4.474c2.119-4.763,4.527-9.391,6.651-14.151q.383-.86.752-1.725c.007-.019.015-.036.024-.059.057-.14.116-.28.173-.42q.156-.381.309-.763.732-1.836,1.371-3.707c.109-.321.209-.646.314-.968-1.553-.867-3.048-1.849-4.545-2.828a2.55,2.55,0,0,1-4.16,1.17c-7.407-6.979-14.6-14.45-20.22-22.974a2.233,2.233,0,0,1,1.081-3.382,30.1,30.1,0,0,1-3.91-6.83c-8.476,2.111-16.981,4.119-25.065,7.522C27.542,271.484,17.062,278.427,12.3,289.4a33.777,33.777,0,0,0-1.4,4.087,34.322,34.322,0,0,0-.905,4.458,71.524,71.524,0,0,0-.141,11.692,255.406,255.406,0,0,0,2.505,26.144c2.539,17.725,6.295,35.243,9.182,52.911.732,4.482,1.362,8.976,1.993,13.474-.1-.7.033.189.061.36q.059.364.122.727c.108.621.226,1.241.347,1.861.286,1.456.6,2.909.919,4.358q.98,4.409,2.108,8.784A35.6,35.6,0,0,0,29.9,426.1a34.949,34.949,0,0,0,6.7,8.882,27.045,27.045,0,0,0,4.06,3.254,22.783,22.783,0,0,0,2.234,1.273c.595.295,1.386.649,1.761.8a32.418,32.418,0,0,0,3.936,1.332q.941.25,1.9.435.411.081.827.147l.362.054.166.021a24.4,24.4,0,0,0,3.55.143c.6-.022,1.2-.081,1.8-.139l.026,0c.1-.015.207-.029.309-.048.275-.049.55-.095.824-.149a22.376,22.376,0,0,0,3.105-.864c.289-.1.572-.218.859-.326l.051-.02.009,0c.113-.05.225-.1.337-.149q.715-.324,1.409-.691a27.73,27.73,0,0,0,2.869-1.755c.26-.18.514-.367.771-.554.073-.054.147-.109.22-.165.056-.042.129-.1.163-.126.427-.344.85-.692,1.263-1.052A50.416,50.416,0,0,0,78.66,425.4c5.718-8.735,9.9-18.354,14.27-27.8,2.69-5.813,5.634-11.5,8.4-17.281,2.986-6.24,5.858-12.537,8.571-18.9.459-1.076.818-1.927,1.35-3.215q.659-1.591,1.3-3.19.984-2.453,1.924-4.925c.425-1.123.844-2.251,1.239-3.385q-.482-.173-.97-.343a2.458,2.458,0,0,1-1.477,1.216" transform="translate(-1.411 -37.822)" fill="#fff"/>
    <path id="Path_1631" data-name="Path 1631" d="M137.224,300.414c-1.124-4.445-1.843-9-2.772-13.492-.754-3.645-1.55-7.282-2.344-10.919-.949-4.343-1.888-8.689-2.776-13.045q-.2,2.072-.417,4.141c-.536,5.015-1.111,10.06-2.13,15a2.234,2.234,0,0,1-4.307-1.187c.251-1.223.469-2.453.666-3.685q.158-.982.3-1.964.068-.469.133-.937c.03-.211.058-.422.087-.633l0-.01,0-.036c.958-7.326,1.644-14.7,2.14-22.068a2.45,2.45,0,0,1,.578-1.452c-.291-1.039-.6-2.075-.927-3.1a32.825,32.825,0,0,1-1.405-6.035,8.117,8.117,0,0,1,1.778-6.352A6.31,6.31,0,0,1,127,233.552a14.073,14.073,0,0,1-.177-3.742c-.323.565-.62,1.146-.9,1.735-.128.272-.251.548-.372.824-.013.029-.026.058-.038.088-.047.112-.093.224-.138.337q-.374.928-.709,1.87a133.275,133.275,0,0,0-4.826,19c-1.282,6.474-2.355,12.986-3.528,19.48-.426,2.361-.855,4.727-1.4,7.064-.181.776-.374,1.551-.621,2.309-.648,1.99-1,4.081-1.577,6.1-.311,1.091-.654,2.171-1.018,3.243.218.074.435.149.656.215-.221-.067-.438-.141-.656-.215A104.142,104.142,0,0,1,107.1,303c-1.068,2.257-2.171,4.5-3.24,6.752q-.9,1.9-1.763,3.812-.47,1.047-.925,2.1-.209.486-.416.974l-.072.173c-.091.217-.18.433-.27.65a2.325,2.325,0,0,1-2.331,1.618,24.317,24.317,0,0,1-1.829,2.911,1.573,1.573,0,0,1,.243.221,18.7,18.7,0,0,0,2.6,2.472c.108.088.219.173.327.26l.16.12c.282.211.568.419.855.624q.938.666,1.9,1.291a128.492,128.492,0,0,0,15.477,8.313q3.047,1.43,6.135,2.77.52.226,1.042.449l.4.171c.182.076.364.153.546.227a2.5,2.5,0,0,1,1.527,1.531,31.756,31.756,0,0,0,1.609-4,2.5,2.5,0,0,1-2.1-.6,2.28,2.28,0,0,1,0-3.159c.083-.1.165-.2.245-.295-.063.064-.076.048.174-.226.178-.243.357-.485.529-.734.483-.7.939-1.419,1.379-2.147.988-1.638,1.894-3.325,2.745-5.037q.716-1.442,1.38-2.91.347-.766.679-1.538l.157-.368,0,0,.009-.02c.115-.282.233-.563.348-.846a72.926,72.926,0,0,0,4.056-13.176c-.544-1.637-1.035-3.292-1.458-4.967" transform="translate(-14.029 -33.497)" fill="#fff"/>
    <path id="Path_1632" data-name="Path 1632" d="M101.4,243.261a72.639,72.639,0,0,1-10.784,4.972,168.549,168.549,0,0,1-18.158,5.313c.191.218.415.443.674.7-.259-.26-.483-.485-.674-.7l-.082.02a30.09,30.09,0,0,0,3.909,6.83,2.475,2.475,0,0,1,3.205.877c5.387,8.167,12.35,15.285,19.444,21.969a2.171,2.171,0,0,1,.651,2.34c1.5.978,2.992,1.961,4.545,2.827q1.179-3.63,2-7.362c.187-.847.494-1.658.715-2.5.247-.937.455-1.884.654-2.832.55-2.63,1.017-5.278,1.483-7.925,1.2-6.8,2.353-13.618,3.778-20.379a99.5,99.5,0,0,1,5.342-18.636,22.054,22.054,0,0,1,2.645-4.733,46.182,46.182,0,0,1-8.948-5.169q-.286,7.42-.571,14.842A2.564,2.564,0,0,1,106.554,235a63.122,63.122,0,0,1-4.733,4.823,2.158,2.158,0,0,1-.419,3.443" transform="translate(-10.55 -31.903)" fill="#fff"/>
    <path id="Path_1633" data-name="Path 1633" d="M65.337,473.494c.114-.014.329-.05,0,0" transform="translate(-9.523 -69.012)" fill="#fbca04"/>
    <path id="Path_1634" data-name="Path 1634" d="M241.529,25.969c-.016,0,.069.094.129.16-.052-.084-.105-.16-.129-.16" transform="translate(-35.204 -3.785)" fill="#fbca04"/>
    <path id="Path_1635" data-name="Path 1635" d="M233.909,468.279c-.192-.028-.1-.013,0,0" transform="translate(-34.078 -68.253)" fill="#fbca04"/>
    <path id="Path_1636" data-name="Path 1636" d="M229.863,370.6h0" transform="translate(-33.493 -54.004)" fill="#fbca04"/>
    <path id="Path_1637" data-name="Path 1637" d="M172.634,375.18h0" transform="translate(-25.163 -54.685)" fill="#fbca04"/>
    <path id="Path_1638" data-name="Path 1638" d="M142.521,188.769c.312.538.636,1.07.977,1.591,1.268,1.929,3.358,4.956,5.932,5.108,2.8.165,5.046-3.1,6.338-5.163.314-.5.608-1.017.894-1.536Z" transform="translate(-20.774 -27.514)" fill="#fff"/>
    <path id="Path_1639" data-name="Path 1639" d="M199.485,120.667a10.359,10.359,0,0,0-.256,6.1,2.708,2.708,0,0,0,1.764-2.907c-1.089-8.015-2.213-16.139-4.953-23.788a68.775,68.775,0,0,0-12.061-20.418c-1.169-1.422-2.821-.854-3.63.35a5.973,5.973,0,0,1,2.26-.041,5.973,5.973,0,0,0-2.26.041,2.575,2.575,0,0,0,.12,3.159,61.552,61.552,0,0,1,11.207,19.449c2.437,7.294,3.5,14.974,4.531,22.567a2.045,2.045,0,0,0,3.022,1.588,10.359,10.359,0,0,1,.256-6.1" transform="translate(-26.217 -11.488)" fill="#262626"/>
    <path id="Path_1640" data-name="Path 1640" d="M152.342,168.356a2.482,2.482,0,1,0,0-4.963c-.372,0-.754-.013-1.131.011l.056-.007c-.355.026-.719,0-1.074,0a2.482,2.482,0,1,0,0,4.963c.372,0,.753.013,1.131-.012l-.056.008c.355-.026.719,0,1.074,0" transform="translate(-21.53 -23.815)" fill="#262626"/>
    <path id="Path_1641" data-name="Path 1641" d="M125.266,137.884a2.567,2.567,0,1,0,2.567-2.567,2.612,2.612,0,0,0-2.567,2.567" transform="translate(-18.258 -19.723)" fill="#262626"/>
    <path id="Path_1642" data-name="Path 1642" d="M169.378,137.884a2.567,2.567,0,1,0,2.567-2.567,2.612,2.612,0,0,0-2.567,2.567" transform="translate(-24.688 -19.723)" fill="#262626"/>
    <path id="Path_1643" data-name="Path 1643" d="M148.308,199.584c6.913.2,11.408-7.916,13.538-13.484a2,2,0,0,0-.761-2.539,2.319,2.319,0,0,0-1.632-.6H137.362c-1.443,0-3.033,1.616-2.393,3.141,2.282,5.432,6.633,13.293,13.339,13.484m0-4.963c-2.575-.151-4.664-3.179-5.933-5.108-.342-.52-.665-1.052-.976-1.591h14.14c-.285.519-.58,1.035-.894,1.537-1.292,2.062-3.535,5.327-6.337,5.162" transform="translate(-19.651 -26.668)" fill="#262626"/>
    <path id="Path_1644" data-name="Path 1644" d="M163.02,84.062c-7.6,16.038-23.385,27.7-41.1,29.741a2.729,2.729,0,0,0-2.332,3.2,19.752,19.752,0,0,0,4.1-.719,19.752,19.752,0,0,1-4.1.719,1.982,1.982,0,0,0,2.332,1.766,57.872,57.872,0,0,0,45.382-32.2,2.5,2.5,0,0,0-.326-2.728c-1.82,2.242-3.32,5.126-5.072,7.13,1.752-2,3.252-4.888,5.072-7.13-1.018-1.257-3.084-1.626-3.959.222" transform="translate(-17.427 -12.067)" fill="#262626"/>
    <path id="Path_1645" data-name="Path 1645" d="M101.933,120.556c1.351-.321,2.682-.7,4-1.128a25.582,25.582,0,0,1-2.644-1.72,26.7,26.7,0,0,0-1.355,2.847" transform="translate(-14.858 -17.157)" fill="#262626"/>
    <path id="Path_1646" data-name="Path 1646" d="M127.735,93.562a50.206,50.206,0,0,1-32.89,19.4c-3.149.466-1.81,5.249,1.319,4.786q2.264-.336,4.474-.865a26.7,26.7,0,0,1,1.355-2.847q-.52-.387-1.029-.8.509.415,1.029.8c.149-.269.3-.537.46-.8-.16.266-.312.534-.46.8a25.58,25.58,0,0,0,2.644,1.72,55.471,55.471,0,0,0,27.384-19.687c1.91-2.563-2.4-5.04-4.286-2.506" transform="translate(-13.562 -13.483)" fill="#262626"/>
    <path id="Path_1647" data-name="Path 1647" d="M96.947,174.627c-.281-5.916-9.255-5.969-9.231,0s8.95,5.912,9.231,0" transform="translate(-12.785 -24.804)" fill="#fff"/>
    <path id="Path_1648" data-name="Path 1648" d="M199.377,174.627c.024,5.975,8.951,5.912,9.232,0-.282-5.916-9.256-5.969-9.232,0" transform="translate(-29.061 -24.804)" fill="#fff"/>
    <path id="Path_1649" data-name="Path 1649" d="M182.329,112.309c-5.427-3.88-10.977-5.649-17.28-2.71-2.892,1.349-.374,5.629,2.505,4.286,4.579-2.136,8.495.011,12.269,2.71,2.6,1.861,5.084-2.442,2.5-4.286" transform="translate(-23.871 -15.761)" fill="#262626"/>
    <path id="Path_1650" data-name="Path 1650" d="M95.881,290.076c1.406.782,2.763,1.661,4.117,2.546a2.167,2.167,0,0,0-.65-2.339c-7.1-6.685-14.058-13.8-19.445-21.969a2.473,2.473,0,0,0-3.2-.877c2.737,3.75,5.988,7.243,8.263,11.224-2.275-3.981-5.526-7.474-8.263-11.224a2.234,2.234,0,0,0-1.081,3.383c5.623,8.524,12.814,15.994,20.221,22.973a2.55,2.55,0,0,0,4.16-1.17c-1.353-.885-2.711-1.764-4.117-2.546" transform="translate(-10.961 -38.943)" fill="#262626"/>
    <path id="Path_1651" data-name="Path 1651" d="M239.033,468.293a9.732,9.732,0,0,0-2.371,2.377,22.8,22.8,0,0,0,2.371-2.377" transform="translate(-34.495 -68.257)" fill="#262626"/>
    <path id="Path_1652" data-name="Path 1652" d="M229.863,370.6h0" transform="translate(-33.493 -54.004)" fill="#262626"/>
    <path id="Path_1653" data-name="Path 1653" d="M273.744,299.924a43.925,43.925,0,0,0-2.617-11.632,37.069,37.069,0,0,0-5.354-9.729,38.586,38.586,0,0,0-6.508-6.39,83.147,83.147,0,0,0-17.317-10.246c-6.221-2.825-12.668-4.949-19.092-7.247a235.011,235.011,0,0,1-22.722-9.318q-5.484-2.637-10.766-5.669a2.093,2.093,0,0,0-2.818.586,27.926,27.926,0,0,0,7.727,4.548,27.926,27.926,0,0,1-7.727-4.548,2.134,2.134,0,0,0,.564,3.271,185.548,185.548,0,0,0,22.294,10.763l.231.093c.007-.05.017-.1.024-.149-.007.05-.017.1-.024.149,7,2.853,14.157,5.229,21.259,7.807a111.176,111.176,0,0,1,16.952,7.7c5.306,3,10.4,6.488,14.3,11.229a26.492,26.492,0,0,1,2.382,3.546,35.03,35.03,0,0,1,2.347,4.951,39.875,39.875,0,0,1,2.456,10.956A73.234,73.234,0,0,1,269,312.459q-.5,5.874-1.35,11.71c-2.268,15.525-6.2,30.725-9.571,46.032-1.742,7.911-3.32,15.861-4.507,23.876q-.215,1.458-.414,2.918c-.065.484-.127.967-.193,1.451-.015.091-.075.486-.093.6-.184,1.155-.407,2.3-.641,3.449-.586,2.886-1.244,5.759-1.938,8.622-.576,2.374-1.137,4.767-1.866,7.1a20.542,20.542,0,0,1-4.746,7.882,31.245,31.245,0,0,1-7.62,5.812q-1.075.6-2.185,1.13-.454.218-.914.422l-.08.036-.012.005q-.258.106-.519.206a22.1,22.1,0,0,1-3.57,1.041c-.267.053-.533.1-.8.143l-.155.023-.343.039q-.83.085-1.666.1c-.547.008-1.094-.009-1.639-.048-.255-.019-.508-.05-.763-.072l-.05-.005c-.163-.025-.326-.05-.489-.078a20.446,20.446,0,0,1-3.142-.814c-.243-.084-.484-.172-.724-.264-.085-.032-.347-.141-.453-.184-.509-.224-1.011-.461-1.5-.718a28.556,28.556,0,0,1-2.93-1.767c-.435-.3-.861-.608-1.281-.926-.073-.061-.462-.365-.521-.413q-.373-.3-.737-.614a49.928,49.928,0,0,1-5.417-5.463,91.964,91.964,0,0,1-9.31-13.435c-2.863-4.886-5.443-9.933-7.9-15.033q-8.375-17.359-15.974-35.095-.8-1.846-1.584-3.7l-.333-.785c-.048-.112-.095-.224-.142-.337l-.035-.081q-.341-.812-.682-1.626-1.074-2.57-2.119-5.154c-.777-1.922-1.543-3.85-2.271-5.792,0-.011-.009-.021-.012-.032,3.138-1.284,6.251-2.638,9.342-4.031a157.918,157.918,0,0,0,18.2-9.317,30.323,30.323,0,0,0,6.949-5.325,175.779,175.779,0,0,0,14.228,20.7q1.976,2.554,3.965,5.1.457.587.912,1.174l.454.587.046.059.363.471q.967,1.258,1.925,2.524c2.634,3.488,5.186,7.041,7.54,10.724a101.878,101.878,0,0,1,7.311,13.493,2.241,2.241,0,0,0,3.056.8,2.3,2.3,0,0,0,.8-3.056,120.7,120.7,0,0,0-13.9-22.947c-2.644-3.547-5.382-7.023-8.1-10.514l-.976-1.258-.243-.314-.066-.085q-.25-.323-.5-.647-1.006-1.308-2-2.625c-1.316-1.745-2.611-3.507-3.872-5.292a127.817,127.817,0,0,1-8.131-12.993,2.255,2.255,0,0,0-3.056-.8,2.393,2.393,0,0,0-.829.906,1.963,1.963,0,0,0-1.878.6,17.049,17.049,0,0,1-2.394,2.243.137.137,0,0,1-.014.011l-.142.107a13.34,13.34,0,0,0,2.94,3.321,13.34,13.34,0,0,1-2.94-3.321l-.227.171q-.4.3-.811.583-.9.628-1.826,1.217c-2.805,1.791-5.737,3.382-8.7,4.9-5.5,2.818-11.143,5.371-16.835,7.783l-.072.031-.208.088a11.774,11.774,0,0,0,1.836,2.449,11.774,11.774,0,0,1-1.836-2.449l-.075.032-.686.287q-.566.236-1.132.468c-.327.134-.654.268-.981.4a2.377,2.377,0,0,0-1.64,2.382,2.035,2.035,0,0,0-.363,1.9c1.5,4.165,3.229,8.258,4.94,12.339,5.055,12.059,10.466,23.963,15.988,35.814,4.8,10.31,9.8,20.675,16.456,29.944,5.884,8.2,13.74,16.7,24.281,18.083a22.485,22.485,0,0,0,2.734-2.028,9.731,9.731,0,0,1,2.371-2.377,22.812,22.812,0,0,1-2.371,2.377c-.384.516-.744,1.055-1.1,1.594.36-.539.72-1.078,1.1-1.594a22.485,22.485,0,0,1-2.734,2.028l.117.018c5.4.683,10.6-.977,15.281-3.587,6.162-3.433,11.527-8.548,14.038-15.252a65.336,65.336,0,0,0,2.037-7.353c.717-2.916,1.394-5.841,2-8.782.578-2.784.97-5.573,1.378-8.386.6-4.164,1.313-8.312,2.1-12.445,3-15.741,7.182-31.227,10.183-46.966A233.583,233.583,0,0,0,273.5,312.1a69.68,69.68,0,0,0,.242-12.175M170.961,355.387h0m52.36,79.531c-.1-.013-.192-.028,0,0" transform="translate(-23.489 -34.891)" fill="#262626"/>
    <path id="Path_1654" data-name="Path 1654" d="M75,342.043c1.251-3.44,3.291-4.317,5.87-4.248a2.232,2.232,0,0,0-.958-2.685,2.269,2.269,0,0,0-3.056.8,98.159,98.159,0,0,1-7.125,11.266q-.448.614-.9,1.22l-.486.641c-.062.079-.123.158-.183.238l-.025.032-.053.069q-.975,1.248-1.976,2.474-1.905,2.327-3.9,4.578-1.944,2.2-3.936,4.36a2.76,2.76,0,0,0,.164-.693c1.229-11.853,1.4-25.1-6.24-35.012-1.923-2.494-6.235-.026-4.286,2.505,7.141,9.268,6.708,21.45,5.563,32.506-.223,2.149,1.982,2.83,3.531,2.069-3.607,3.909-7.24,7.794-10.637,11.89a111.51,111.51,0,0,0-8.55,11.674,2.254,2.254,0,0,0,.8,3.056,2.281,2.281,0,0,0,3.056-.8q1.717-2.725,3.612-5.332.438-.6.888-1.2c.139-.185.278-.371.418-.554l.239-.315c.019-.023.067-.086.108-.141q.91-1.175,1.849-2.326c2.516-3.087,5.173-6.054,7.867-8.987,5.5-5.987,11.074-11.894,15.977-18.394a99.09,99.09,0,0,0,8.091-12.565,2.439,2.439,0,0,0,.156-.372c-2.58-.069-4.62.808-5.87,4.248" transform="translate(-5.467 -47.232)" fill="#262626"/>
    <path id="Path_1655" data-name="Path 1655" d="M72.167,258.869a19.189,19.189,0,0,1-.647-2.072,2.987,2.987,0,0,0,.647,2.072" transform="translate(-10.425 -37.43)" fill="#262626"/>
    <path id="Path_1656" data-name="Path 1656" d="M72.362,259.447l.082-.02c-.06-.068-.114-.136-.167-.2.028.075.057.15.085.225" transform="translate(-10.535 -37.784)" fill="#262626"/>
    <path id="Path_1657" data-name="Path 1657" d="M138.369,361.637a2.234,2.234,0,0,0-4.308-1.187c-.081.243-.172.484-.256.727a41.289,41.289,0,0,1,4.127,1.7l.083-.228c.12-.337.241-.676.355-1.015" transform="translate(-19.503 -52.299)" fill="#262626"/>
    <path id="Path_1658" data-name="Path 1658" d="M113.712,347.616q-.935,2.472-1.924,4.925-.642,1.6-1.3,3.19c-.532,1.287-.891,2.139-1.349,3.215-2.714,6.365-5.587,12.661-8.572,18.9-2.764,5.778-5.708,11.468-8.4,17.281-4.37,9.447-8.552,19.067-14.27,27.8a50.392,50.392,0,0,1-9.251,11c-.413.361-.836.708-1.263,1.052l-.163.126c-.073.056-.145.111-.22.165-.256.186-.511.373-.771.554a27.73,27.73,0,0,1-2.869,1.755q-.693.366-1.409.69c-.112.051-.224.1-.337.149l-.009,0-.051.02c-.286.108-.57.223-.859.325a22.372,22.372,0,0,1-3.105.865c-.274.055-.549.1-.824.149-.1.018-.206.032-.309.048l-.026,0c-.6.058-1.2.117-1.8.139a24.4,24.4,0,0,1-3.55-.143l-.166-.02-.362-.055c-.277-.044-.553-.093-.827-.146q-.955-.185-1.9-.436a32.262,32.262,0,0,1-3.936-1.331c-.374-.153-1.166-.507-1.761-.8a22.809,22.809,0,0,1-2.234-1.273,27.1,27.1,0,0,1-4.06-3.254,34.964,34.964,0,0,1-6.7-8.882,35.621,35.621,0,0,1-2.808-7.853q-1.135-4.372-2.108-8.785c-.322-1.449-.633-2.9-.919-4.357-.121-.619-.238-1.24-.347-1.861-.042-.243-.083-.484-.122-.728-.027-.171-.158-1.055-.061-.36-.631-4.5-1.261-8.992-1.993-13.474-2.887-17.667-6.643-35.186-9.182-52.912a255.364,255.364,0,0,1-2.505-26.143,71.524,71.524,0,0,1,.141-11.692,34.264,34.264,0,0,1,.905-4.458,33.776,33.776,0,0,1,1.4-4.087c4.762-10.969,15.241-17.912,25.873-22.388,8.085-3.4,16.589-5.412,25.065-7.523-.028-.074-.057-.149-.085-.224a2.991,2.991,0,0,1-.647-2.072,19.247,19.247,0,0,0,.647,2.072c.054.067.108.135.168.2a168.555,168.555,0,0,0,18.158-5.313A72.591,72.591,0,0,0,91.5,246.71a2.158,2.158,0,0,0,.419-3.443,22.507,22.507,0,0,1-8.337,5,22.507,22.507,0,0,0,8.337-5,2.075,2.075,0,0,0-2.674-.414c-14.073,8.061-30.6,9.6-45.777,14.668-11.9,3.977-23.872,9.884-31.619,20.09a36.686,36.686,0,0,0-7.087,17.86,75.3,75.3,0,0,0-.119,12.243c.186,4.428.522,8.847.967,13.255,1.844,18.241,5.5,36.226,8.75,54.25.82,4.547,1.615,9.1,2.347,13.661.651,4.055,1.154,8.132,1.788,12.189a164.555,164.555,0,0,0,3.82,17.027,37.693,37.693,0,0,0,11.05,18.22,31.761,31.761,0,0,0,17.41,7.948,25.039,25.039,0,0,0,14.262-2.527,28.259,28.259,0,0,0,2.9-1.679h0a40.008,40.008,0,0,0,8.282-7.456c7.034-8.186,11.847-18.048,16.366-27.766,2.075-4.461,4.067-8.963,6.247-13.373,3.525-7.133,7.035-14.265,10.313-21.517,3.565-7.884,7.014-15.86,9.928-24.013a41.086,41.086,0,0,0-4.127-1.7c-.4,1.134-.814,2.262-1.239,3.385M56.463,439.834c.329-.05.114-.014,0,0" transform="translate(-0.649 -35.352)" fill="#262626"/>
    <path id="Path_1659" data-name="Path 1659" d="M92.754,341.524c.063.075.132.145.2.219.205-.276.414-.545.623-.818-.446-.09-.883-.178-1.311-.261a2.721,2.721,0,0,0,.492.859" transform="translate(-13.448 -49.654)" fill="#262626"/>
    <path id="Path_1660" data-name="Path 1660" d="M92.731,337.863a2.211,2.211,0,0,0-.492,2.3c.428.082.865.171,1.311.26.708-.926,1.421-1.843,2.1-2.781a2.281,2.281,0,0,0-2.915.221" transform="translate(-13.425 -49.152)" fill="#262626"/>
    <path id="Path_1661" data-name="Path 1661" d="M119.332,354.955c2.341,1.04,4.681,1.809,6.951,2.59q.381-.679.724-1.381a2.5,2.5,0,0,0-1.527-1.53c-.183-.075-.365-.152-.547-.228l-.4-.171q-.522-.223-1.042-.449-3.087-1.34-6.135-2.77a128.671,128.671,0,0,1-15.477-8.312q-.965-.627-1.9-1.292-.431-.306-.855-.624l-.159-.12c-.109-.086-.22-.172-.327-.26a18.7,18.7,0,0,1-2.6-2.472,1.611,1.611,0,0,0-.243-.221c-.675.938-1.388,1.855-2.1,2.781l.327.066-.327-.066c-.208.273-.418.542-.623.818a28.641,28.641,0,0,0,5.554,4.582,87.194,87.194,0,0,0,7.567,4.513c4.736,2.555,9.611,4.858,14.541,7.013,1.182.517,2.369,1.029,3.562,1.519a1.708,1.708,0,0,0,1.128.034q.455-.7.862-1.43c-2.27-.781-4.609-1.55-6.951-2.59" transform="translate(-13.565 -49.225)" fill="#262626"/>
    <path id="Path_1662" data-name="Path 1662" d="M132.707,360.528a2.326,2.326,0,0,0-.032-1.217q-.343.7-.725,1.381c.207.071.411.143.616.214a1.75,1.75,0,0,0,.142-.378" transform="translate(-19.233 -52.372)" fill="#262626"/>
    <path id="Path_1663" data-name="Path 1663" d="M131.8,360.929c-.273.484-.558.962-.861,1.429a2.457,2.457,0,0,0,1.477-1.215l-.616-.214" transform="translate(-19.086 -52.608)" fill="#262626"/>
    <path id="Path_1664" data-name="Path 1664" d="M156.046,216.528c-.01.036-.022.072-.035.108.017-.029.039-.07.062-.114.026-.1.026-.174-.027.007" transform="translate(-22.74 -31.545)" fill="#fff"/>
    <path id="Path_1665" data-name="Path 1665" d="M158.906,214.463l-.035.008h.027l.008-.008" transform="translate(-23.157 -31.26)" fill="#fff"/>
    <path id="Path_1666" data-name="Path 1666" d="M155.978,216.714c.006,0,.012-.006.019-.009l.009-.032a.139.139,0,0,1-.028.041" transform="translate(-22.735 -31.582)" fill="#fff"/>
    <path id="Path_1667" data-name="Path 1667" d="M158.779,214.49l.078-.018c-.064,0-.084.01-.078.018" transform="translate(-23.143 -31.261)" fill="#fff"/>
    <path id="Path_1668" data-name="Path 1668" d="M159.571,214.52c-.067-.039-.122-.066-.14-.054s.06.038.14.054" transform="translate(-23.238 -31.26)" fill="#fff"/>
    <path id="Path_1669" data-name="Path 1669" d="M159.182,214.453a.907.907,0,0,1-.11-.026c.007.02.055.025.11.026" transform="translate(-23.186 -31.254)" fill="#fff"/>
    <path id="Path_1670" data-name="Path 1670" d="M158.18,214.642c-.013-.005-.056.016-.1.041a.417.417,0,0,0,.1-.041" transform="translate(-23.041 -31.286)" fill="#fff"/>
    <path id="Path_1671" data-name="Path 1671" d="M156.072,216.538c-.023.045-.045.085-.062.114l-.01.032a.28.28,0,0,0,.073-.146" transform="translate(-22.738 -31.562)" fill="#262626"/>
    <path id="Path_1672" data-name="Path 1672" d="M158.885,214.472h-.027l-.079.018a.094.094,0,0,0,.106-.018" transform="translate(-23.143 -31.261)" fill="#262626"/>
    <path id="Path_1673" data-name="Path 1673" d="M145.4,215.087c0,.009-.006.02-.009.03h0c0-.01.006-.019.008-.029" transform="translate(-21.193 -31.351)" fill="#fff"/>
    <path id="Path_1674" data-name="Path 1674" d="M145.231,215.276c-.143.15.014.105.1-.057a.573.573,0,0,0,.034-.1c-.044.051-.086.105-.132.154" transform="translate(-21.16 -31.356)" fill="#fff"/>
    <path id="Path_1675" data-name="Path 1675" d="M145.39,215.123a.571.571,0,0,1-.034.1.451.451,0,0,0,.035-.1h0" transform="translate(-21.187 -31.356)" fill="#262626"/>
    <path id="Path_1676" data-name="Path 1676" d="M139.871,225.574s-.02,0-.044.006l.044-.006" transform="translate(-20.381 -32.879)" fill="#fff"/>
    <path id="Path_1677" data-name="Path 1677" d="M138.5,239.333l.085.12a1.1,1.1,0,0,0-.085-.12" transform="translate(-20.188 -34.885)" fill="#fff"/>
    <path id="Path_1678" data-name="Path 1678" d="M138.422,239.224l.059.084.009.009c-.023-.031-.045-.061-.067-.093" transform="translate(-20.176 -34.869)" fill="#fff"/>
    <path id="Path_1679" data-name="Path 1679" d="M137.294,238.2a.181.181,0,0,0-.067-.035.7.7,0,0,0,.067.035" transform="translate(-20.002 -34.714)" fill="#fff"/>
    <path id="Path_1680" data-name="Path 1680" d="M135.778,238.116l.159-.052a.4.4,0,0,0-.159.052" transform="translate(-19.791 -34.699)" fill="#fff"/>
    <path id="Path_1681" data-name="Path 1681" d="M135.765,238.125l-.073.022.063-.017h0l.009-.005" transform="translate(-19.778 -34.709)" fill="#fff"/>
    <path id="Path_1682" data-name="Path 1682" d="M153.207,322.853l0-.008,0-.006.006.014" transform="translate(-22.33 -47.056)" fill="#262626"/>
    <path id="Path_1683" data-name="Path 1683" d="M153.208,322.853l0-.007h0l0,.008" transform="translate(-22.331 -47.057)" fill="#262626"/>
    <path id="Path_1684" data-name="Path 1684" d="M153.2,322.845l0-.007,0,.006h0" transform="translate(-22.33 -47.056)" fill="#262626"/>
    <path id="Path_1685" data-name="Path 1685" d="M153.2,322.838h0" transform="translate(-22.33 -47.056)" fill="#262626"/>
    <path id="Path_1686" data-name="Path 1686" d="M153.2,322.836l0-.005v0l0,.008" transform="translate(-22.33 -47.055)" fill="#262626"/>
    <path id="Path_1687" data-name="Path 1687" d="M210.569,151.94c-.975-7.049-2.351-14.045-3.866-21-3.052-13.994-5.725-28.3-10.164-41.932-3.947-12.124-9.69-26.462-20.9-33.615a41.583,41.583,0,0,0-13.084-5.342c-1.624-.366-1.984-.867-3.463-1.843a40.545,40.545,0,0,0-8.868-4.348c-12.444-4.374-26.326-2.2-37.861,3.742A62.632,62.632,0,0,0,85.612,74.662a84.412,84.412,0,0,0-6.362,17.368c-1.693,6.619-2.53,13.388-4.032,20.041-3.282,14.537-9.028,28.49-10.894,43.343-.765,6.092-.942,12.955,2.547,18.3A32.173,32.173,0,0,0,79.786,184.9a16.792,16.792,0,0,0,7.035,1.81,2.293,2.293,0,0,0,1.666-.63,20.358,20.358,0,0,0,16.347,6.659,2.758,2.758,0,0,0,.782-.164q-.293,7.646-.589,15.3a2.361,2.361,0,0,0,.287,1.278c.779-.864,1.548-1.731,2.317-2.585-.769.854-1.538,1.721-2.317,2.585a2.564,2.564,0,0,0,4.677-1.278q.286-7.422.571-14.843a46.137,46.137,0,0,0,8.948,5.169,22.022,22.022,0,0,0-2.645,4.734,99.482,99.482,0,0,0-5.342,18.636c-1.426,6.761-2.578,13.575-3.778,20.379-.466,2.646-.933,5.294-1.483,7.925-.2.948-.407,1.895-.654,2.832-.221.84-.528,1.651-.715,2.5q-.821,3.728-2,7.362a24.764,24.764,0,0,0,4.083,1.857c.363-1.072.706-2.151,1.018-3.243.575-2.018.929-4.108,1.577-6.1.246-.758.439-1.533.62-2.308.548-2.337.976-4.7,1.4-7.065,1.173-6.493,2.246-13.006,3.528-19.48a133.306,133.306,0,0,1,4.826-19q.336-.941.708-1.87c.045-.112.092-.225.138-.337.012-.029.025-.059.038-.088q.181-.414.372-.824c.276-.589.573-1.169.9-1.735a14.109,14.109,0,0,0,.177,3.742,6.364,6.364,0,0,0-1.16,1.087,8.116,8.116,0,0,0-1.779,6.352,32.817,32.817,0,0,0,1.405,6.036c.331,1.029.636,2.065.927,3.1a2.45,2.45,0,0,0-.578,1.452c-.5,7.372-1.182,14.743-2.139,22.069,0,.014,0,.024-.005.036v.01c-.03.211-.058.423-.088.633q-.065.469-.133.937-.142.983-.3,1.964c-.2,1.234-.414,2.462-.666,3.685a2.234,2.234,0,0,0,4.308,1.187c1.017-4.944,1.593-9.989,2.129-15q.222-2.069.417-4.141c.888,4.357,1.827,8.7,2.776,13.046.794,3.636,1.59,7.273,2.344,10.919.929,4.49,1.648,9.046,2.772,13.491.424,1.674.914,3.33,1.458,4.967a72.9,72.9,0,0,1-4.055,13.176c-.115.283-.233.564-.349.846l-.008.02,0,0-.158.369q-.332.771-.678,1.537-.664,1.467-1.38,2.91c-.851,1.713-1.756,3.4-2.745,5.037-.44.729-.9,1.447-1.379,2.147-.172.249-.351.49-.528.734l.058-.064a2.047,2.047,0,0,0-.135.171l-.026.035a.784.784,0,0,1-.072.085q-.122.149-.246.294a2.28,2.28,0,0,0,0,3.159,2.5,2.5,0,0,0,2.1.6c.439-1.337.818-2.719,1.139-4.158-.32,1.439-.7,2.822-1.139,4.158a1.827,1.827,0,0,0,1.059-.6,42.962,42.962,0,0,0,5.363-8.536,91.272,91.272,0,0,0,5.472-13.123c.175-.536.341-1.075.5-1.616a94.729,94.729,0,0,0,8.127,14.461q1.071,1.58,2.195,3.122a2.476,2.476,0,0,0,2.354,1.081,12.446,12.446,0,0,0-2.1-2.921,12.446,12.446,0,0,1,2.1,2.921,1.936,1.936,0,0,0,.7-.279,2.258,2.258,0,0,0,.8-3.056q-1.421-1.957-2.758-3.972c-1.782-2.681-3.448-5.438-4.956-8.284q-1.632-3.079-3.01-6.284l-.027-.065v0l0-.007,0,0,0,0,0-.007,0-.006,0,.006,0-.008,0-.011c-.1-.225-.038-.091,0,0l0,0q-.077-.183-.152-.367-.164-.4-.322-.8-.316-.794-.615-1.6-.611-1.644-1.144-3.316a124.65,124.65,0,0,1-3.081-13.42q-1.089-5.446-2.274-10.87c-.864-3.981-1.741-7.96-2.594-11.942-1.053-4.917-1.937-9.874-3.135-14.76-.56-2.283-1.235-4.522-1.937-6.765-.272-.868-.522-1.743-.736-2.626-.108-.447-.207-.9-.291-1.348-.044-.236-.079-.474-.12-.711-.048-.272.021.16.02.159a2.616,2.616,0,0,1-.051-.507,10.587,10.587,0,0,1-.021-1.164c0-.019,0-.031,0-.047l.013-.05c.052-.209.117-.41.181-.613-.006.05.141-.325.2-.437.026-.046.142-.232.209-.342.041-.053.1-.126.118-.15.079-.089.16-.173.244-.256.063-.061.129-.12.194-.179.016-.015.02-.021.032-.032l.072-.036c.1-.055.2-.115.3-.173l-.063.017.073-.022a.4.4,0,0,1,.159-.052l.067-.023a1.726,1.726,0,0,1,.2-.034c.094,0,.2.011.29.006.1.026.206.042.295.069l.116.032.055.036c.134.085.276.18.416.258.062.061.133.116.2.176.178.168.334.352.5.531l.019.023-.059-.084.067.093a1.057,1.057,0,0,1,.085.12l.044.061c.114.164.221.332.325.5a14.542,14.542,0,0,1,.7,1.3c.072.151.139.3.207.459,0,0,.1.221.144.343.2.517.4,1.04.58,1.565.75,2.128,1.376,4.3,1.962,6.474,1.2,4.454,2.212,8.964,3.62,13.36q.5,1.563,1.082,3.1a2.334,2.334,0,0,0,2.514,1.62,2.13,2.13,0,0,0,.233-.061,2.258,2.258,0,0,0,1.56-2.747,127.745,127.745,0,0,1-3.984-13.723l-.1-.378c-.56-2.167-1.135-4.331-1.8-6.467a37.947,37.947,0,0,0-2.435-6.344,8.828,8.828,0,0,0-4.714-4.509,5.206,5.206,0,0,0-1.064-.243c-.012-.075-.021-.136-.026-.161a10.671,10.671,0,0,1-.073-1.289c0-.233.016-.465.032-.7,0-.044.007-.07.01-.1.021-.123.045-.243.073-.364.066-.29.147-.575.241-.857.05-.151.108-.3.161-.449.006-.02.011-.033.016-.05l.011-.022c.147-.3.29-.6.46-.893.084-.143.171-.284.263-.422.044-.066.09-.129.135-.193l0,0a3.813,3.813,0,0,1,.553-.6.36.36,0,0,0,.056-.007c-.057.046-.114.093-.173.138.079-.054.16-.1.243-.15l.008-.005.076-.022c.089,0,.177-.009.267-.007l.091-.01.071.022c.067.019.488.155.525.15a5.136,5.136,0,0,1,.723.423c.043.042.261.218.289.244.144.135.27.283.407.423.038.038.065.064.087.085s.039.063.071.111c.116.175.233.347.342.526.255.42.465.86.677,1.3.024.049.042.085.056.115s.027.072.05.127c.078.2.155.392.232.589.154.4.3.807.451,1.212q.51,1.385,1.013,2.772.944,2.606,1.869,5.221c1.282,3.617,2.546,7.241,3.818,10.862q1.079,3.071,2.172,6.136,1.08,3.024,2.19,6.033a2.234,2.234,0,1,0,4.308-1.187c-2.906-7.86-5.61-15.793-8.414-23.689-.158-.445-.32-.888-.478-1.332-.538-1.508-1.076-3.015-1.625-4.518a35.972,35.972,0,0,0-2.355-5.719,9.4,9.4,0,0,0-3-3.221,1.784,1.784,0,0,0,.017-.4c-.038-.524-.06-1.048-.048-1.574q.008-.359.034-.718c.009-.114.021-.227.031-.342a.21.21,0,0,0,0-.023l.007-.033a11.24,11.24,0,0,1,.274-1.17c.048-.155.1-.306.157-.459l0-.013c.015-.026.032-.061.058-.111.094-.186.351-.472.455-.7-.085.162-.241.208-.1.057.046-.049.088-.1.132-.154,0-.009.007-.02.009-.03,0,.01-.005.019-.008.029l.011-.013c.12-.132.251-.253.379-.378l.014-.015c.09-.059.178-.121.271-.176s.2-.1.292-.156h0c.2-.059.411-.1.613-.155.121,0,.243-.01.365-.007.067,0,.145.012.222.019.178.04.349.1.521.154.071.044.156.1.237.144l.01.01c.121.114.232.237.343.36l.012.013,0,.007c.093.141.19.278.28.424.218.349.413.714.595,1.083.085.176.168.351.249.53.041.091.081.182.121.273a.349.349,0,0,0,.085.127c.133.292.218.649.319.923.308.841.588,1.694.859,2.548.439,1.384.824,2.8,1.364,4.146,1.957,4.879,3.846,9.772,5.579,14.736,1.116,3.2,2.189,6.412,3.244,9.631q1.235,3.761,2.448,7.53a2.271,2.271,0,0,0,2.747,1.559,2.478,2.478,0,0,0,1.391-1.154,2,2,0,0,0,.169-1.593c-1.754-5.428-3.509-10.858-5.376-16.249-1.826-5.272-3.818-10.469-5.9-15.647-.951-2.37-1.557-4.858-2.441-7.247l0-.015.018-.055c-.006,0-.012.01-.018.009s.015-.016.028-.041.024-.071.035-.108c.053-.18.053-.1.027-.007.05-.1.1-.2.115-.221.05-.085.108-.162.16-.246.181-.287-.083.052-.079.1-.014-.17.644-.659.756-.761.008-.005.008-.008.014-.013l.1-.056c.178-.11.355-.214.536-.316l.069-.041c.155-.047.307-.108.465-.15.056-.015.114-.026.171-.038-.006-.009.014-.017.078-.018l.036-.009-.008.009h.009a2.306,2.306,0,0,0,.337.005l.083.016a1.087,1.087,0,0,0,.212.062h.006c.064.042.131.088.183.125l0,0a2.075,2.075,0,0,0,.216.2,16.821,16.821,0,0,1,1.427,1.543l.068.08.011.015c.108.147.217.294.323.442q.346.488.664.993a31.588,31.588,0,0,1,2.173,4.151c.047.106.092.212.139.319l0,.011c.033.082.155.376.174.421q.231.573.449,1.15.457,1.208.865,2.435c.528,1.577,1.007,3.169,1.466,4.767.844,2.938,1.609,5.9,2.541,8.811a190.972,190.972,0,0,1,5.389,22.5c1.186,6.2,2.272,12.414,3.538,18.6.332,1.622.673,3.242,1.036,4.858a125.662,125.662,0,0,0,6.982,22.463q.552,1.279,1.15,2.537a2.243,2.243,0,0,0,3,.829,49.046,49.046,0,0,0-1.872-5.089A49.046,49.046,0,0,1,177.5,286.6c.017-.011.038-.016.056-.027a2.294,2.294,0,0,0,.8-3.056q-.619-1.3-1.19-2.629l-.09-.21c-.017-.038-.033-.076-.036-.084q-.136-.324-.267-.648-.286-.7-.557-1.4c-.722-1.859-1.38-3.742-1.99-5.64-.628-1.956-1.2-3.929-1.736-5.912,5.72-4.3,9.823-11.305,13.7-17.15,3.046-4.592,5.993-9.259,8.8-14a2.468,2.468,0,0,0-2.082-3.688c-2.183,3.682-5.087,7-6.36,11.14,1.273-4.137,4.177-7.458,6.36-11.14a2.264,2.264,0,0,0-2.2,1.182c-2.615,4.425-5.357,8.78-8.181,13.072-2.241,3.407-4.539,6.784-7,10.031a46.99,46.99,0,0,1-4.359,5.237c-.027-.118-.058-.236-.085-.355-1.863-8-3.246-16.094-4.774-24.159A198.867,198.867,0,0,0,160.8,213.91c-1.583-4.979-2.784-10.076-4.512-15a36.568,36.568,0,0,0,10.056-7.1c.044,1.57.128,3.139.217,4.7.192,3.349.456,6.7.921,10.022a2.238,2.238,0,0,0,2.586,1.6,7.054,7.054,0,0,1-.4-3.061c.862.431.6,1.981,1.818,2.06a2.691,2.691,0,0,0,.308-1.739c.008.056.009.067,0-.043v-.005l0-.014h0c-.021-.173-.044-.348-.065-.522q-.059-.493-.112-.986c-.085-.786-.159-1.574-.228-2.362q-.222-2.563-.364-5.132c-.14-2.49-.262-5-.234-7.5a11.384,11.384,0,0,1-6.08.357,11.384,11.384,0,0,0,6.08-.357c.008-.655.023-1.31.054-1.964a1.8,1.8,0,0,0-.027-.365,44.3,44.3,0,0,0,3.086-5.057,65.36,65.36,0,0,0,6-17.072,9.353,9.353,0,0,0,4.34,1.084,9.227,9.227,0,0,0,6.054-2.217,2.685,2.685,0,0,0-.1.671,20.261,20.261,0,0,1-15.846,18.977c-2.445.53-2.162,3.584-.425,4.555a29.21,29.21,0,0,0,2.7-1.73,29.21,29.21,0,0,1-2.7,1.73,2.443,2.443,0,0,0,1.744.231,24.219,24.219,0,0,0,10.8-5.5c-1.935.542-3.94.973-5.87,1.551,1.931-.578,3.935-1.009,5.87-1.551a25.36,25.36,0,0,0,8.694-18.265,2.4,2.4,0,0,0-3.425-2.212,10.434,10.434,0,0,0,2.019-5.076,4.084,4.084,0,0,0,0-1.488,10.489,10.489,0,0,0-1.588-4.467,20.162,20.162,0,0,0,5.164-14.1c-.121-7.541-4.621-15.5-13.1-14.88a2.468,2.468,0,0,0-1.6.706,17.341,17.341,0,0,0,2.083,4.238c5.53-.092,7.692,5.453,7.662,10.38-.023,3.8-1.271,7.75-3.891,10.3a9.267,9.267,0,0,0-4.235-1.014,9.492,9.492,0,0,0-6.438,2.565,2.235,2.235,0,0,0-1.38,1.569,9.51,9.51,0,0,0-1.76,5.445,9.253,9.253,0,0,0,1,4.19c-1.958,13.683-8.291,27.7-20.737,34.023-.151.077-.308.143-.46.217a24.3,24.3,0,0,0-5.156-7.74A5.9,5.9,0,0,0,143.659,185a7.6,7.6,0,0,0-3.363,1.884,6.241,6.241,0,0,0-6.731-2.189c-4.264,1.168-5.678,5.726-5.559,9.713a5.4,5.4,0,0,0-2.043.8,5.84,5.84,0,0,0-1.161-.122,40.777,40.777,0,0,1-19.775-14.675c-4.336-6.276-6.212-13.891-7.181-21.518a10.653,10.653,0,0,0,.519-2.268,4.035,4.035,0,0,0,0-1.488,10.546,10.546,0,0,0-1.251-3.906c-.029-.411-.059-.823-.086-1.231a2.6,2.6,0,0,0-3.279-2.313,9.241,9.241,0,0,0-7.47-1.011c-2.768-3.439-3.975-8.4-3.9-12.679.056-3.077.742-6.584,2.981-8.855,2.484-2.52,5.969-2.073,9.039-.993,3.019,1.063,4.317-3.731,1.319-4.785-.552-.195-1.1-.355-1.646-.489-.138,1.087-.249,2.19-.343,3.312.093-1.122.2-2.224.343-3.312-6.842-1.685-13.055,1.305-15.534,8.327a25.045,25.045,0,0,0,2.984,21.363c.159.232.325.46.493.685a9.525,9.525,0,0,0,6.837,16.212,9.232,9.232,0,0,0,4.773-1.309,49.2,49.2,0,0,0,5.755,16.656,40.784,40.784,0,0,0,5.268,6.975,15.5,15.5,0,0,1-16.368-17.693c.385-3.164-4.581-3.136-4.963,0a19.849,19.849,0,0,0,2.066,11.533c-4.449-.676-8.728-4.208-11.662-7.262-4.112-4.281-5.125-9.007-4.815-14.877.727-13.773,6.127-27.047,9.644-40.247,3.16-11.859,4.179-24.154,8.541-35.7a59.206,59.206,0,0,1,21.4-27.806c9.873-6.866,22.4-10.834,34.436-8.653a34.947,34.947,0,0,1,12.376,4.621c1.27.766,2.447,1.914,3.757,2.581a10.8,10.8,0,0,0,2.475.636,42.194,42.194,0,0,1,5.734,1.788,28.737,28.737,0,0,1,12.855,9.668,73.036,73.036,0,0,1,9.02,16.717c4.988,12.586,7.471,25.912,10.482,39.056,1.59,6.937,3.172,13.878,4.464,20.879,1.177,6.373,2.847,12.985.8,19.343a26.643,26.643,0,0,1-12.553,14.578,2.235,2.235,0,0,0-.862,3.269,11.683,11.683,0,0,0,3.009-2.434,11.683,11.683,0,0,1-3.009,2.434,2.465,2.465,0,0,0,3.367,1.017,32.363,32.363,0,0,0,13.069-13.316,26.58,26.58,0,0,0,2.651-15.969m-83.968,57.6-.067-.035a.163.163,0,0,1,.067.035m62.256-53.658c-.281,5.912-9.207,5.975-9.232,0s8.951-5.916,9.232,0m-43.214,33.437c-.08-.017-.164-.037-.139-.054s.073.014.139.054m-.337-.062c-.055,0-.1-.007-.11-.026a.725.725,0,0,0,.11.026m-.858.157a.321.321,0,0,1-.1.041.246.246,0,0,1,.1-.041M128.8,198.752s-.02,0-.044.006c.025-.006.044-.009.044-.006M84.24,155.881c-.024-5.969,8.95-5.916,9.231,0-.28,5.912-9.207,5.975-9.231,0" transform="translate(-9.309 -6.057)" fill="#262626"/>
    <path id="Path_1688" data-name="Path 1688" d="M204.353,140.444c.164-.012.323-.017.481-.02a17.342,17.342,0,0,1-2.083-4.238c-1.426,1.419-.9,4.442,1.6,4.258" transform="translate(-29.439 -19.85)" fill="#262626"/>
    <path id="Path_1689" data-name="Path 1689" d="M187.721,232.975a7.045,7.045,0,0,0,.4,3.061c.055-.012.108-.024.161-.041a2.2,2.2,0,0,0,1.256-.961c-1.213-.079-.956-1.628-1.817-2.059" transform="translate(-27.358 -33.958)" fill="#262626"/>
    <path id="Path_1690" data-name="Path 1690" d="M153.2,322.826l0-.008v0l0,.011" transform="translate(-22.329 -47.053)" fill="#262626"/>
    <path id="Path_1691" data-name="Path 1691" d="M153.2,322.829l0-.01,0,.009v0" transform="translate(-22.329 -47.053)" fill="#262626"/>
    <path id="Path_1692" data-name="Path 1692" d="M107.567,300.273c-.105.323-.2.647-.314.969q-.637,1.871-1.371,3.707c-.1.255-.205.509-.309.764-.057.14-.116.279-.173.42l-.025.058q-.369.865-.751,1.725c-2.125,4.761-4.532,9.389-6.651,14.152q-.989,2.222-1.914,4.473a2.24,2.24,0,0,0,1.56,2.748,2.615,2.615,0,0,0,.416.057,14.8,14.8,0,0,0,1.366-3.672,14.8,14.8,0,0,1-1.366,3.672,2.323,2.323,0,0,0,2.331-1.618l.27-.649.072-.173q.206-.488.416-.974.456-1.053.925-2.1.861-1.917,1.763-3.812c1.069-2.256,2.172-4.5,3.24-6.752a104.291,104.291,0,0,0,4.6-11.138,24.786,24.786,0,0,1-4.082-1.857" transform="translate(-13.984 -43.767)" fill="#262626"/>
    <path id="Path_1693" data-name="Path 1693" d="M153.208,322.853l0,0v0l0,.007" transform="translate(-22.331 -47.057)" fill="#262626"/>
    <path id="Path_1694" data-name="Path 1694" d="M153.2,322.834l0-.008,0-.011.008.019" transform="translate(-22.329 -47.053)" fill="#262626"/>
    <path id="Path_1695" data-name="Path 1695" d="M138.585,239.451l-.085-.12-.009-.01c.062.089.09.126.094.13" transform="translate(-20.186 -34.883)" fill="#262626"/>
    <path id="Path_1696" data-name="Path 1696" d="M135.935,238.064l-.159.052-.009,0h0a.56.56,0,0,0,.169-.057" transform="translate(-19.789 -34.7)" fill="#262626"/>
    <path id="Path_1697" data-name="Path 1697" d="M132.553,349.791c.016-.02.033-.04.05-.062s.051-.071.076-.107c-.251.274-.237.29-.174.227l.049-.059" transform="translate(-19.308 -50.96)" fill="#262626"/>
    <path id="Path_1698" data-name="Path 1698" d="M238.022,328.416c-1.81,12.765.105,25.4,2.214,38,.526,3.143,5.31,1.81,4.786-1.32-1.949-11.643-3.889-23.557-2.214-35.362.443-3.125-4.339-4.475-4.786-1.32" transform="translate(-34.588 -47.607)" fill="#262626"/>
    <path id="Path_1699" data-name="Path 1699" d="M9.091,81q.213.129.42.267c.05.034.134.085.21.131a4.291,4.291,0,0,1,.8.73c.029.031.115.107.19.183.009.016.021.037.04.067.055.084.114.165.167.249a9.965,9.965,0,0,1,.5.932l.015.032c0,.009,0,.012.009.023.077.208.155.413.226.624a30.239,30.239,0,0,1,1.1,4.943c.287,1.806.5,3.629.9,5.413a2.234,2.234,0,0,0,4.308,0A86.075,86.075,0,0,1,19.9,84.941c.119-.391.247-.781.387-1.165.059-.16.121-.318.183-.477l0-.005c.033-.074.066-.149.1-.222.155-.334.324-.662.511-.979q.115-.2.239-.385c.09-.137.446-.539.149-.224.284-.3.554-.6.859-.876.028-.025.042-.038.057-.054l.032-.021c.189-.13.378-.257.574-.374a9.681,9.681,0,0,1,.927-.477c.05-.02.169-.067.263-.1.222-.08.446-.154.671-.223a21.412,21.412,0,0,1,2.854-.625c.247-.039.494-.074.741-.11l.038-.006.208-.027c.53-.068,1.061-.132,1.592-.2a2.233,2.233,0,0,0,0-4.467c-.765-.031-1.53-.072-2.293-.138-.369-.032-.736-.078-1.1-.114l-.018,0-.119-.017q-.318-.047-.635-.1a17.6,17.6,0,0,1-2.194-.529c-.315-.1-.624-.215-.933-.334-.057-.026-.114-.052-.171-.079-.183-.087-.363-.179-.541-.276-.3-.167-.59-.355-.878-.546-.033-.022-.052-.033-.07-.044l-.026-.023c-.155-.132-.307-.263-.454-.4s-.29-.287-.427-.439c-.063-.07-.155-.179-.19-.219a10.784,10.784,0,0,1-.66-1c-.2-.347-.37-.706-.546-1.064-.028-.073-.056-.145-.084-.218q-.12-.325-.225-.657a19.008,19.008,0,0,1-.546-2.424c-.012-.1-.025-.205-.035-.307-.026-.236-.047-.472-.066-.707-.032-.412-.053-.824-.07-1.237l.021-.312a1.769,1.769,0,0,0-.045-.5c-.019-.8-.025-1.6-.025-2.4a2.233,2.233,0,1,0-4.467,0c0,1.041.008,2.09.052,3.136q-.085,1.311-.219,2.617c-.009.062-.014.107-.017.139-.011.073-.021.147-.033.22-.029.185-.06.371-.094.555-.078.419-.168.835-.279,1.246s-.24.788-.378,1.178c-.009.028-.017.049-.024.069l-.019.039c-.1.208-.2.416-.31.618-.179.325-.389.625-.592.934-.054.066-.108.132-.164.2-.138.156-.279.308-.429.453-.1.1-.205.185-.309.274-.062.045-.2.148-.251.183a9.451,9.451,0,0,1-1.075.589l-.016.008c-.094.037-.189.073-.284.107q-.259.094-.522.175c-.419.131-.843.241-1.271.337s-.883.183-1.328.256c-.194.032-.388.062-.582.091l-.293.042-.092.012c-.915.112-1.831.212-2.746.32a2.237,2.237,0,0,0-.594,4.387c1.5.549,3.032,1.022,4.527,1.589.195.074.39.149.583.227.115.046.683.3.206.082.372.169.746.333,1.111.518s.7.37,1.043.577m5.054-6.616a10.156,10.156,0,0,0,1.726-2.233,11.667,11.667,0,0,0,4.7,4.277,10.275,10.275,0,0,0-1.529,1.134,12.148,12.148,0,0,0-3.165,5.2,9.911,9.911,0,0,0-2.641-4.225,13.736,13.736,0,0,0-2.832-1.9,10.294,10.294,0,0,0,3.739-2.256" transform="translate(0 -8.394)" fill="#262626"/>
    <path id="Path_1700" data-name="Path 1700" d="M230.178,18.308c1.455.454,2.928.847,4.381,1.31q1.125.359,2.224.79l.055.021.062.028c.157.072.314.143.471.218.35.169.7.352,1.029.552a2.872,2.872,0,0,1,.79.527c.005.007-.329-.291-.153-.113.052.052.116.1.171.146q.192.17.369.357c.066.068.123.149.192.214l.021.018c.049.082.094.164.108.186a9.031,9.031,0,0,1,.49.914c.015.032.028.063.042.095l.024.067c.058.161.119.323.174.486.123.365.231.734.331,1.105.206.769.37,1.549.519,2.331.312,1.647.531,3.319.957,4.943.541,2.064,3.84,2.192,4.307,0a60.464,60.464,0,0,1,2.058-8.677c.062-.165.129-.327.193-.492-.14.362-.034.084.05-.1.153-.327.319-.649.5-.961.095-.162.194-.322.3-.478a1.534,1.534,0,0,0,.107-.182,4.568,4.568,0,0,1,.676-.683c.046-.042.255-.2.3-.242l.215-.141a10.337,10.337,0,0,1,1-.545l.025-.012c.064-.026.152-.062.183-.073.17-.064.342-.124.514-.181.383-.125.771-.232,1.161-.327.434-.105.872-.194,1.311-.272.225-.04.449-.076.674-.111l.425-.061c.946-.12,1.893-.217,2.84-.319a2.234,2.234,0,1,0,0-4.468c-.972-.033-1.944-.08-2.914-.167q-.39-.035-.777-.077l-.373-.044c-.441-.067-.88-.139-1.317-.229a17.136,17.136,0,0,1-2.5-.723c-.1-.044-.38-.161-.439-.19-.184-.091-.365-.186-.542-.288s-.349-.207-.519-.319c-.079-.053-.442-.353-.382-.291a8.758,8.758,0,0,1-.727-.709c-.079-.091-.156-.183-.232-.276l-.074-.1c-.15-.226-.3-.449-.441-.683s-.247-.468-.373-.7c-.026-.048-.043-.076-.056-.1s-.015-.045-.031-.085a13.038,13.038,0,0,1-.457-1.475c-.091-.381-.161-.767-.221-1.155,0-.068-.053-.485-.059-.552-.023-.261-.042-.524-.056-.785,0-.068,0-.137-.007-.2l.021-.274a1.7,1.7,0,0,0-.047-.521q-.024-1-.024-2a2.233,2.233,0,1,0-4.467,0c0,.9.009,1.818.053,2.733-.029.39-.058.782-.1,1.172-.019.191-.04.382-.061.572l-.01.1c0,.015-.005.028-.008.046a15.058,15.058,0,0,1-.507,2.256c-.057.178-.123.351-.19.525-.023.052-.058.13-.1.207a7.95,7.95,0,0,1-.513.886c-.047.07-.1.138-.145.207l-.031.038c-.122.132-.237.271-.363.4s-.262.263-.4.386c-.047.043-.1.082-.144.123-.316.19-.614.4-.947.561-.044.022-.252.113-.306.139-.132.05-.261.1-.394.147a16.591,16.591,0,0,1-2.392.6c-.39.072-.781.132-1.173.187l-.314.04c-.237.028-.472.055-.709.08-.911.1-1.822.18-2.734.273a2.237,2.237,0,0,0-.594,4.387m9.461,3.876c.024,0,.077.075.129.16-.061-.066-.146-.16-.129-.16m2.792-6.765a9.747,9.747,0,0,0,2.193-2.386,11.4,11.4,0,0,0,4.283,3.646c-.129.084-.259.165-.384.255a11.457,11.457,0,0,0-3.877,5.294c-.079-.208-.149-.419-.237-.625a8.863,8.863,0,0,0-3.155-3.842,11.9,11.9,0,0,0-1.473-.875,10.47,10.47,0,0,0,2.649-1.468" transform="translate(-33.314 0)" fill="#262626"/>
    <path id="Path_1701" data-name="Path 1701" d="M57.413,477.549a104.7,104.7,0,0,1,.515,44.056,2.189,2.189,0,0,0,1.492,2.627,2.156,2.156,0,0,0,2.627-1.491,109.873,109.873,0,0,0-.515-46.326c-.61-2.679-4.729-1.545-4.118,1.135" transform="translate(-8.359 -69.218)" fill="#262626"/>
    <path id="Path_1702" data-name="Path 1702" d="M245.984,530.643a40.729,40.729,0,0,0-5.238-9.878c-2-2.97-4.184-5.944-5.534-9.287-1.556-3.852-1.861-8.014-1.952-12.123-.1-4.52-.1-9.043-.138-13.565l-.143-15.443c-.026-2.747-4.3-2.754-4.271,0,.085,9.206.14,18.413.259,27.618a45.827,45.827,0,0,0,1.511,12.893,39.19,39.19,0,0,0,5.336,10.223c2.286,3.392,4.756,6.776,6.052,10.7.859,2.6,4.985,1.485,4.118-1.135" transform="translate(-33.336 -68.256)" fill="#262626"/>
  </g>
</svg>
