<svg id="Group_813" data-name="Group 813" xmlns="http://www.w3.org/2000/svg" xmlns:xlink="http://www.w3.org/1999/xlink" width="400.442" height="501.293" viewBox="0 0 400.442 501.293">
  <defs>
    <clipPath id="clip-path">
      <rect id="Rectangle_949" data-name="Rectangle 949" width="400.442" height="501.293" fill="none"/>
    </clipPath>
  </defs>
  <g id="Group_812" data-name="Group 812" clip-path="url(#clip-path)">
    <path id="Path_1703" data-name="Path 1703" d="M218.311,259.028c-.514-3.711.071-7.393.621-11.073.093-.621.178-1.249.266-1.879-2.836-3.3-5.823-6.666-6.145-11.183a16.418,16.418,0,0,1,1.258-6.991c-2.4,1.4-4.877,2.75-7.111,4.326,2.3,1.113,2.712,5.154-.437,5.967a59.932,59.932,0,0,0-10.324,4.157c-4.17,1.969-8.255,4.114-12.287,6.351-4.181,2.32-7.789,4.7-10.472,8.755-5.315,8.036-7.473,18.221-10.552,27.235-3.377,9.885-6.859,19.749-10.6,29.508-.61.039-1.22.088-1.833.162-3.782.472-5.458,5.158-7.634,9.624q.611,2.074,1.253,4.136-1.1,4.056-2.317,8.06a3.075,3.075,0,0,1-2.462-2.145c-4.193-12.549-7.247-25.542-10.464-38.369a2.986,2.986,0,0,1,1.287-3.361,13.812,13.812,0,0,0-2.534-1.628,2.8,2.8,0,0,1,.167,4.473c-7,6.056-16.139,9.487-25.1,11.376-10.229,2.156-21.074,2.459-31.17-.524a2.952,2.952,0,0,1-2.131-2.139,3.551,3.551,0,0,1-.177-.53c-.064-.26-.127-.52-.191-.781a12.467,12.467,0,0,0-2.952,1.649,2.756,2.756,0,0,1,2.106,2.193q5.791,24.565,10.779,49.307c2.463,12.125,4.623,24.325,7.379,36.389,2.4,10.487,5.243,21.343,11.006,30.547,2.129,3.4,4.84,6.969,8.341,9.056a30.778,30.778,0,0,0,9.6,3.324c8.951,1.826,19.1.881,25.365-6.429,2.053-2.394,5.171-.279,5.3,2.233,1.509-3.374,2.437-7.505,3.906-10.148,5.093-9.549,7-20.371,13.368-30.557,13.369-20.372,27.374-39.47,33.1-63.025-7.465-2.178-14.778-5.721-22.162-8.554l5.565-3.759q.532-15,1.066-30c.206-5.814.4-11.834,6.725-14.134a24.465,24.465,0,0,1,7.366-1.012c2.252-.1,5.026-.229,6.135-2.49,1.807-3.682,7.3-.451,5.5,3.213-2.166,4.414-7.137,5.448-11.632,5.644-2.254.1-5.642-.193-6.969,2.015-1.4,2.336-.752,6.64-.845,9.279q-.407,11.458-.815,22.916c1.7-1.115,3.536-1.98,5.352-1.668a5.1,5.1,0,0,1,2.833,1.557l6.544-4.843c.7-2.308,1.776-4.557,2.57-6.786a3.06,3.06,0,0,1-1.8-3.634c2.73-11.243,8.3-21.445,14.691-31a3.1,3.1,0,0,1,2.761-1.443,3.43,3.43,0,0,1,.386-1.262,2.485,2.485,0,0,1-1.494-2.107m-8.786-7.692-10.92,15.554c-2.339,3.332-7.857.146-5.5-3.213l10.92-15.554c2.34-3.332,7.857-.147,5.5,3.213" transform="translate(-4.906 -16.871)" fill="#6cc0c1"/>
    <path id="Path_1704" data-name="Path 1704" d="M327.447,207.919c-1.678,1.006-4.11.673-4.572-1.762q-.528-2.783-1.055-5.563c-10.151,4.846-20.454,9.381-30.477,14.488a214.877,214.877,0,0,0-28.332,17.394c2.785,3.815,4.45,9.139,7.448,11.754a3.448,3.448,0,0,1,.473.5,9.894,9.894,0,0,0-1.982-3.692,9.894,9.894,0,0,1,1.982,3.692,2.607,2.607,0,0,1,.549,1.351,8.753,8.753,0,0,0,.491.927c.322-.348.644-.7.972-1.037,10.4-10.738,23.806-18.869,36.54-26.507,6.048-3.627,12.171-7.152,18.384-10.5a8.672,8.672,0,0,1-.421-1.044" transform="translate(-19.47 -14.85)" fill="#fff"/>
    <path id="Path_1705" data-name="Path 1705" d="M252.427,277.348c5.677-9.1,11.29-18.818,18.609-26.7a8.589,8.589,0,0,1-.491-.928,3.367,3.367,0,0,1-5.523,2.651,12.99,12.99,0,0,1-1.731-1.882c-4.572,6.051-8.305,12.71-12.911,18.737a3.182,3.182,0,0,1,.706,1.3,44.125,44.125,0,0,1,1.341,6.821" transform="translate(-18.535 -18.486)" fill="#fff"/>
    <path id="Path_1706" data-name="Path 1706" d="M315.413,416.4l-.779-1.206L271.509,348.42q-12.439-19.261-24.878-38.52l-7.536-11.67c-.656-1.017-1.576-3.271-2.546-3.1-.571.1-1.5,1.107-1.948,1.442l-4.13,3.057-13.522,10.006L202.43,320.38c1.187,1.817,2.655,3.836,2.881,5.925.448,4.137-3.76,6.074-6.647,8.024l-14.108,9.532-22.492,15.2a3.049,3.049,0,0,1-1.39.532c-3.071.9-4.989-1.139-6.528-3.48l-13.99,10.352L128.213,375.3a31.3,31.3,0,0,0-3.058,2.262c-.819.782-.841.226-.463,1.225a17.933,17.933,0,0,0,1.975,3l4.672,7.1,13.309,20.238,18.944,28.808a3.327,3.327,0,0,1,.42.9,10.549,10.549,0,0,1,4.1-2.826c4.04-1.6,8.717-1.526,12.988-1.86l15.61-1.222c8.3-.649,18.736-2.948,25.915,2.573,3.121,2.4,5,5.855,6.824,9.268,1.8,3.365,4.177,7.983,8.513,8.183a3.365,3.365,0,0,1,1.16.257c.019-.007.037-.017.057-.023l8.117-2.564c.006-.115,0-.231.01-.346a3.308,3.308,0,0,1,2.337-3.07l7-2.4q34.136-11.691,68.268-23.393l-4.1-4.883a3.3,3.3,0,0,1-5.394-.135" transform="translate(-9.213 -21.848)" fill="#fff"/>
    <path id="Path_1707" data-name="Path 1707" d="M230.649,464.632c-2.642-3.407-3.978-7.659-6.723-10.975-3.264-3.946-8.228-4.008-12.952-3.739-5.476.312-10.948.842-16.416,1.27-5.487.43-11.02.689-16.491,1.3-3.809.423-9.106,2.359-5.535,6.961,2.758,3.552,8.29,3.2,12.291,3.211,4.739.018,9.321.319,13.553,2.643a3.514,3.514,0,0,1,.539.365l3.788-1.919c3.651-1.847,6.87,3.646,3.214,5.5l-20.913,10.588c-3.65,1.848-6.869-3.646-3.213-5.5l9.707-4.914c-4.267-1.013-8.951-.455-13.353-.856a2.93,2.93,0,0,1-1.012,4.348c-5.371,2.941-5.1,10.688,1.01,12.579,2.291.709,4.595.9,5.976,3.153,1.534,2.5.3,4.564-.6,6.981-1.139,3.06,1.932,5.347,2.8,8.095a12.52,12.52,0,0,1,.138,5.816c-.223,1.335-.881,2.677-1.037,4-.208,1.769.728,3.874,1.342,5.493,1.038,2.741,2.239,5.223,4.817,6.789a18.7,18.7,0,0,0,8.652,2.266c14.22.807,28.2-4.59,41.617-8.549,2.448-.722,4.018,1.372,3.921,3.341,2.15-1.1,4.3-2.437,6.45-2.736-6.131-15.762-11.627-32.494-11.9-49.471-4.006-.522-7.157-2.8-9.663-6.035" transform="translate(-12.685 -33.3)" fill="#fff"/>
    <path id="Path_1708" data-name="Path 1708" d="M412.612,431.921c-1.643-18.384-3.574-36.743-5.941-55.048-3.632-28.1-8.423-56.015-13.615-83.859-.693-3.713-1.408-7.422-2.092-11.136-.732-3.971-1.168-8.081-2.574-11.889-2.173-5.885-6.611-10.817-11.205-14.952-9.5-8.547-21.278-14.829-33.13-19.445a3.365,3.365,0,0,1-2.078-3.851,2.592,2.592,0,0,1-1.818-1.6q-3.614-8.077-7.226-16.153-2.772,1.476-5.523,2.989a361.7,361.7,0,0,0-36.526,22.545,96.16,96.16,0,0,0-15.53,13.193c-7.136,7.89-12.586,17.537-18.23,26.506a3.146,3.146,0,0,1-4.509.918,2.7,2.7,0,0,1-.657,1.13c-.5,1-.961,2.011-1.37,3.033a8.807,8.807,0,0,1,1.181,1.361c3.865,5.452,7.357,11.22,10.934,16.887A59.369,59.369,0,0,1,274.9,289.5c4.329-3.234,9.24-5.6,13.79-8.494a84.6,84.6,0,0,0,10.008-7.187c3.356-2.9,4.946-6.173,1.1-9.446-5.791-4.925-14.252-6.435-15.02-15.394-.35-4.088,6.019-4.051,6.366,0,.353,4.108,5.793,6.066,8.824,7.836,3.178,1.856,6.324,4.238,7.822,7.706,3.751,8.687-5.508,14.834-11.559,19.087-5.085,3.574-10.615,6.365-15.8,9.767-5.609,3.681-9.8,8.916-13.632,14.349a3.6,3.6,0,0,1-.447.52l25.164,38.964,38.734,59.976a2.734,2.734,0,0,1-.1,3.348l4.1,4.883,12.281-4.209c3.89-1.334,5.546,4.818,1.693,6.139l-25.51,8.745q-29.875,10.239-59.751,20.469c-.008,9.844,2.974,19.657,6.135,28.869,3.516,10.252,7.832,20.2,12.22,30.1a3.515,3.515,0,0,1,.244.79c12.585-3.048,25.14-6.22,37.62-9.673,19.947-5.519,39.635-11.872,59.208-18.593,8.291-2.847,18.251-4.868,24.972-10.887,6.975-6.248,8.851-15.33,8.684-24.356-.055-2.966,3.252-3.781,5.121-2.463a25.31,25.31,0,0,0,.5-5.756,3.454,3.454,0,0,1-5.049-2.665M307.938,256.235c-2.283,3.382-7.8.192-5.5-3.213l16.1-23.857c2.283-3.381,7.8-.192,5.5,3.213l-16.105,23.857M337.35,402.263l-2.014-10.783q-7.116-38.087-14.23-76.172c-.749-4.011,5.387-5.714,6.139-1.692l2.014,10.782q7.116,38.087,14.23,76.172c.749,4.011-5.387,5.714-6.139,1.693M334.222,267.17c-6.321,8.177-8.837,18.578-9.215,28.74-.153,4.091-6.519,4.1-6.366,0,.433-11.626,3.39-23.3,10.606-32.629a40.551,40.551,0,0,1,25.507-15.2c4.014-.669,5.724,5.467,1.693,6.139a34.853,34.853,0,0,0-22.224,12.952m38.4,143.672a50.053,50.053,0,0,0-22.935-5.835c-4.1-.054-4.1-6.42,0-6.366a57.13,57.13,0,0,1,26.148,6.7c3.626,1.92.406,7.414-3.213,5.5" transform="translate(-18.551 -15.841)" fill="#6cc0c1"/>
    <path id="Path_1709" data-name="Path 1709" d="M243.516,283.222a37.384,37.384,0,0,0-1.411-9.573,2.915,2.915,0,0,1,.332-2.483,3.232,3.232,0,0,1-.469-.473,2.9,2.9,0,0,1-2.937-.1,11.242,11.242,0,0,0-5.619-1.557,3.2,3.2,0,0,1-.471,1.063c-6.106,9.121-11.442,18.738-14.049,29.476a2.976,2.976,0,0,1-4.341,1.942c-.8,2.229-1.871,4.478-2.571,6.786l15.6-11.541,10.364-7.67c3.139-2.323,6.81-3.484,9.788-.711.409-1.022.87-2.034,1.37-3.033-1.684,1.762-5.529,1.056-5.583-2.123" transform="translate(-15.693 -19.916)" fill="#6cc0c1"/>
    <path id="Path_1710" data-name="Path 1710" d="M332.6,208.222a8.672,8.672,0,0,0,.421,1.044c1.013-.546,2.034-1.074,3.052-1.609-.65-.99-1.264-1.991-1.924-2.977.007.029.011.057.017.088a3.208,3.208,0,0,1-1.566,3.454" transform="translate(-24.622 -15.152)" fill="#6cc0c1"/>
    <path id="Path_1711" data-name="Path 1711" d="M330.179,131.085A17.221,17.221,0,0,0,330,120.574c-1.35-3.492-5.907-8-9.626-4.935-2.543,2.092-5.991-.445-5.535-2.87a12.155,12.155,0,0,1-1.74-1.4,2.62,2.62,0,0,1-3.388.1c-10.152-7.067-14.8-17.952-16.591-29.905a3.305,3.305,0,0,1,1.168-3.1,20.925,20.925,0,0,0-2.739-2.06,2.86,2.86,0,0,1-4.346-1c-.273-.527-.567-1.033-.867-1.532-5.339-1.984-11.514-2.778-17.3-3.187a3.151,3.151,0,0,1-3.947,3.224,41.749,41.749,0,0,0-33.845,5.6,2.779,2.779,0,0,1-4.009-.8c-2.017,1.735-4.036,3.265-6.713,3.1a25.284,25.284,0,0,0,1.4,2.97c1.416,2.542-.935,4.889-3.134,4.769.094,1.311.2,2.622.306,3.934a2.522,2.522,0,0,1,2.343,2.289c1.928,11.827,1.843,23.979,2.248,35.926.354,10.421.227,21.376,3.115,31.481,3.31,11.58,11.015,22.282,22.252,27.241,9.334,4.12,20.506,2.53,29.752-.994,9.278-3.534,18.194-9.958,22.187-19.306,1.606-3.76,7.088-.513,5.5,3.213-4.95,11.59-16.754,19.237-28.333,23.064-10.354,3.421-22.22,4.146-32.317-.48-.624-.287-1.234-.6-1.84-.914v4.13a3.016,3.016,0,0,1,3.278,3.071c0,2.412-.123,4.821-.127,7.232,0,.1-.007.191-.015.283,2.78,2.52,5.533,5.075,8.322,7.562a3.485,3.485,0,0,1,.469.507,215.048,215.048,0,0,1,28.934-17.825c9.673-4.928,19.606-9.326,29.412-13.983a14.585,14.585,0,0,1-.133-1.775,2.864,2.864,0,0,1-2.735-3.053q.413-14.255.826-28.509a2.986,2.986,0,0,1,1.538-2.631c-2.182-1.642-1.6-5.929,1.773-5.743,7.641.422,12.839-6.421,14.643-13.19M251.8,142.342a3.26,3.26,0,0,1,2.251-.932l1.482.03a3.368,3.368,0,0,1,2.25.932,3.183,3.183,0,0,1,0,4.5,3.262,3.262,0,0,1-2.25.932l-1.482-.031a3.361,3.361,0,0,1-2.251-.932,3.182,3.182,0,0,1,0-4.5m-10.367-23.9c-4.1,0-4.1-6.366,0-6.366s4.1,6.366,0,6.366m37.043,1.308c-4.1,0-4.1-6.366,0-6.366s4.1,6.366,0,6.366" transform="translate(-16.196 -5.233)" fill="#fff"/>
    <path id="Path_1712" data-name="Path 1712" d="M223.556,54.517a25.87,25.87,0,0,0-3.038,24.476c2.677.16,4.7-1.369,6.713-3.1a3.249,3.249,0,0,1,.8-4.695,48.089,48.089,0,0,1,38.751-6.244,2.881,2.881,0,0,1,2.255,2.916c5.782.408,11.956,1.2,17.3,3.185-5.334-8.889-14.774-13.5-24.793-15.505a68.254,68.254,0,0,0-15.423-1.184c-4.784.144-11.673.632-14.249,5.363-1.962,3.6-7.457.387-5.5-3.212,3.291-6.046,10.579-7.844,16.943-8.369a72.832,72.832,0,0,1,18.293.96c12.682,2.193,24.975,8.471,31.089,20.268a3.17,3.17,0,0,1-1.151,4.217,20.842,20.842,0,0,1,2.739,2.06c1.681-1.42,4.565-1.3,4.972,1.406,1.524,10.144,4.927,20.018,13.664,26.1a3.408,3.408,0,0,1,.176,5.394,12.084,12.084,0,0,0,1.74,1.4,2.779,2.779,0,0,1,1.033-1.632,11.2,11.2,0,0,1,13.316-.976c.485-.708,1.022-1.414,1.44-2.166-2.05,2.034-6.41.329-5.342-3.026,2.82-8.846,5.3-18.217,4.735-27.582-.243-4.01-1.219-8.261-3.729-11.5-2.731-3.521-6.822-5.122-11.06-5.9-1.9,1.718-5.926-.022-5.272-3.311,2.619-13.176-12.6-18.875-22.923-20.49a81.96,81.96,0,0,0-27.323.827c-9.607,1.776-19.6,4.459-27.89,9.78a2.916,2.916,0,0,1-4.388-1.481c-2.8,2.373-5.634,4.717-7.5,7.5,2.508-.622,5.485,1.9,3.632,4.522" transform="translate(-16.192 -2.411)" fill="#6cc0c1"/>
    <path id="Path_1713" data-name="Path 1713" d="M256.927,470.215l-4.234,1.337c.176,17.026,5.948,33.817,12.138,49.573l7.273-2.237c-3.243-7.5-6.343-15.067-9-22.8-2.833-8.26-5.473-17.042-6.18-25.873" transform="translate(-18.707 -34.809)" fill="#fff"/>
    <path id="Path_1714" data-name="Path 1714" d="M251.048,232.084l-10.281-9.169a21.16,21.16,0,0,1-2.783-2.483,2.173,2.173,0,0,1-.73-.4c-.549,1.259-1.306,2.484-1.922,3.682-1.507,2.927-3.953,6.714-3.714,10.16a8.091,8.091,0,0,0,1.654,4.043,12.914,12.914,0,0,1,.783-1.472c4.084-6.548,10.766-6.507,16.993-4.362" transform="translate(-17.145 -16.289)" fill="#fff"/>
    <path id="Path_1715" data-name="Path 1715" d="M245,263.638c4.184-5.735,7.734-11.928,12.048-17.568a3.3,3.3,0,0,1,2.242-1.311c-.381-.724-.757-1.446-1.137-2.149a2.909,2.909,0,0,1-2.671-.236c-5.245-3.072-14.283-7.4-16.679,1.232-.141.507-.257,1.026-.361,1.55a3.427,3.427,0,0,1-.522,3.392c-.1.782-.2,1.559-.307,2.319-.335,2.291-.878,4.937-.557,7.256a3.322,3.322,0,0,1-.524,2.35,17.841,17.841,0,0,1,7.531,2.364,3.256,3.256,0,0,1,.938.8" transform="translate(-17.51 -17.658)" fill="#6cc0c1"/>
    <path id="Path_1716" data-name="Path 1716" d="M344.348,132.652c.751-5.193.082-10.751-3.047-15.1-4.366-6.072-11.971-8.381-18.03-3.4-3.167,2.6,1.36,7.086,4.5,4.5,3.721-3.06,8.276,1.444,9.626,4.935a17.214,17.214,0,0,1,.184,10.512c-1.8,6.769-7,13.612-14.643,13.19-3.373-.186-3.956,4.1-1.774,5.743a2.988,2.988,0,0,0-1.537,2.631q-.414,14.255-.827,28.509c-.119,4.1,6.248,4.095,6.366,0q.414-14.255.827-28.509a2.9,2.9,0,0,0-.674-2.045c10.375-.867,17.606-11.143,19.028-20.968" transform="translate(-23.6 -8.25)" fill="#262626"/>
    <path id="Path_1717" data-name="Path 1717" d="M322.647,230.264l-16.105,23.857c-2.3,3.4,3.215,6.595,5.5,3.213l16.105-23.857c2.3-3.4-3.215-6.594-5.5-3.213" transform="translate(-22.652 -16.939)" fill="#262626"/>
    <path id="Path_1718" data-name="Path 1718" d="M283.007,116.794c-4.1,0-4.1,6.366,0,6.366s4.1-6.366,0-6.366" transform="translate(-20.723 -8.646)" fill="#262626"/>
    <path id="Path_1719" data-name="Path 1719" d="M243,121.747c4.1,0,4.1-6.366,0-6.366s-4.1,6.366,0,6.366" transform="translate(-17.761 -8.541)" fill="#262626"/>
    <path id="Path_1720" data-name="Path 1720" d="M258.1,153.461a3.184,3.184,0,0,0,3.183-3.184,3.215,3.215,0,0,0-.932-2.25,3.361,3.361,0,0,0-2.251-.932l-1.482-.031a3.184,3.184,0,0,0-3.183,3.183,3.215,3.215,0,0,0,.932,2.251,3.362,3.362,0,0,0,2.25.932l1.482.031" transform="translate(-18.761 -10.887)" fill="#262626"/>
    <path id="Path_1721" data-name="Path 1721" d="M156.561,320.137c4.584-11.58,8.754-23.337,12.78-35.121,3.079-9.014,5.236-19.2,10.551-27.236,2.683-4.056,6.292-6.434,10.473-8.754,4.031-2.236,8.117-4.383,12.287-6.35a59.777,59.777,0,0,1,10.323-4.158c3.964-1.024,2.283-7.166-1.693-6.139a58.739,58.739,0,0,0-8.993,3.491c-3.985,1.771-7.883,3.741-11.727,5.8-4.462,2.39-9.1,4.686-12.629,8.4-6.428,6.768-8.992,16.063-11.852,24.7q-5.009,15.12-10.508,30.072c-1.674,4.549-3.365,9.095-5.15,13.6-1.507,3.81,4.647,5.464,6.139,1.693" transform="translate(-11.118 -17.194)" fill="#262626"/>
    <path id="Path_1722" data-name="Path 1722" d="M404.253,334.3c-2.369-14.565-4.977-29.088-7.677-43.594q-.94-5.043-1.892-10.085c-.84-4.451-1.309-9.087-2.765-13.4-2.046-6.052-5.966-11.326-10.43-15.824-10.629-10.709-24.6-18.128-38.539-23.559a3.256,3.256,0,0,0-.1-2.527l-8.472-18.935c-.728-1.626-2.962-1.858-4.355-1.142-8.241,4.244-16.317,8.838-24.265,13.605-12.734,7.637-26.141,15.768-36.539,26.507-7.8,8.058-13.655,18.233-19.582,27.738a44.126,44.126,0,0,0-1.341-6.821,3.192,3.192,0,0,0-.7-1.3c4.606-6.027,8.337-12.686,12.911-18.737a12.983,12.983,0,0,0,1.73,1.882c3.075,2.683,7.6-1.8,4.5-4.5-3-2.615-4.663-7.939-7.449-11.754a214.875,214.875,0,0,1,28.332-17.393c10.023-5.107,20.326-9.643,30.476-14.49q.528,2.782,1.055,5.564c.762,4.021,6.9,2.318,6.139-1.693q-.889-4.686-1.777-9.374c-.409-2.16-2.983-2.73-4.676-1.9-11.418,5.585-23.1,10.626-34.43,16.4a215.236,215.236,0,0,0-28.934,17.825,3.48,3.48,0,0,0-.469-.507c-2.789-2.488-5.541-5.042-8.322-7.563.007-.093.015-.185.015-.282,0-2.412.122-4.821.127-7.232.006-4.1-6.36-4.1-6.366,0,0,.673-.012,1.346-.027,2.02-.4-.337-.8-.677-1.2-1.008-1.9-1.572-4.407-2.624-6.653-1.029-1.86,1.321-2.688,4.432-3.694,6.386-2.28,4.432-5.358,9.5-4.99,14.678.321,4.517,3.308,7.885,6.144,11.182-.087.63-.173,1.257-.266,1.88-.55,3.68-1.135,7.361-.621,11.073a2.484,2.484,0,0,0,1.494,2.106,3.435,3.435,0,0,0-.385,1.262A3.1,3.1,0,0,0,227.5,261.2c-6.4,9.551-11.962,19.754-14.691,31-.967,3.98,5.171,5.678,6.138,1.693,2.608-10.738,7.943-20.357,14.049-29.476a3.2,3.2,0,0,0,.471-1.064,11.25,11.25,0,0,1,5.619,1.557,2.9,2.9,0,0,0,2.938.1,3.225,3.225,0,0,0,.468.473,2.918,2.918,0,0,0-.332,2.483,37.371,37.371,0,0,1,1.411,9.572c.064,3.73,5.354,4.07,6.24.995a3.146,3.146,0,0,0,4.509-.918c5.644-8.97,11.093-18.617,18.23-26.506a96.124,96.124,0,0,1,15.531-13.194A361.567,361.567,0,0,1,324.6,215.367q2.752-1.514,5.523-2.99,3.614,8.077,7.226,16.153a2.6,2.6,0,0,0,1.819,1.6,3.363,3.363,0,0,0,2.077,3.85c11.853,4.617,23.632,10.9,33.13,19.445,4.595,4.134,9.033,9.066,11.206,14.952,1.406,3.809,1.842,7.919,2.573,11.889.684,3.714,1.4,7.423,2.092,11.136,5.193,27.845,9.984,55.764,13.616,83.859,2.366,18.306,4.3,36.664,5.94,55.048.362,4.048,6.732,4.086,6.366,0-2.87-32.135-6.741-64.161-11.92-96.007M230.219,231.815c-.239-3.446,2.208-7.233,3.714-10.159.617-1.2,1.374-2.423,1.922-3.683a2.167,2.167,0,0,0,.73.4,21.277,21.277,0,0,0,2.783,2.483l10.281,9.169c-6.227-2.145-12.91-2.185-16.993,4.362a12.927,12.927,0,0,0-.783,1.473,8.1,8.1,0,0,1-1.654-4.044m4.547,25.228a3.322,3.322,0,0,0,.524-2.35c-.321-2.319.222-4.965.557-7.256.111-.759.207-1.537.307-2.319a3.425,3.425,0,0,0,.522-3.392c.1-.524.22-1.044.361-1.55,2.4-8.632,11.434-4.3,16.679-1.232a2.9,2.9,0,0,0,2.671.236c.381.7.757,1.425,1.138,2.149a3.3,3.3,0,0,0-2.243,1.311c-4.314,5.641-7.863,11.834-12.048,17.568a3.267,3.267,0,0,0-.937-.8,17.84,17.84,0,0,0-7.532-2.363" transform="translate(-15.746 -14.229)" fill="#262626"/>
    <path id="Path_1723" data-name="Path 1723" d="M360.194,250.8A40.553,40.553,0,0,0,334.686,266c-7.216,9.326-10.172,21-10.605,32.629-.153,4.1,6.213,4.091,6.366,0,.379-10.163,2.894-20.563,9.215-28.74a34.853,34.853,0,0,1,22.224-12.952c4.032-.672,2.321-6.808-1.693-6.139" transform="translate(-23.991 -18.563)" fill="#262626"/>
    <path id="Path_1724" data-name="Path 1724" d="M332.877,321.4c-.752-4.022-6.888-2.319-6.139,1.693q7.116,38.085,14.23,76.171,1.007,5.392,2.015,10.783c.751,4.022,6.887,2.319,6.138-1.693q-7.114-38.085-14.23-76.171L332.877,321.4" transform="translate(-24.183 -23.623)" fill="#262626"/>
    <path id="Path_1725" data-name="Path 1725" d="M402.212,445.358c.168,9.026-1.708,18.109-8.684,24.356-6.721,6.02-16.68,8.039-24.972,10.887-19.571,6.722-39.26,13.075-59.208,18.593-12.48,3.453-25.035,6.625-37.619,9.674a3.555,3.555,0,0,0-.245-.79c-4.388-9.9-8.7-19.844-12.22-30.1-3.16-9.212-6.143-19.026-6.135-28.869q29.876-10.231,59.751-20.469,12.755-4.372,25.51-8.746c3.853-1.321,2.2-7.473-1.693-6.138q-40.271,13.812-80.549,27.6l-7,2.4a3.309,3.309,0,0,0-2.337,3.07c-.006.116,0,.232-.01.347l-8.117,2.563c-.02.006-.038.017-.058.023a3.376,3.376,0,0,0-1.159-.257c-4.336-.2-6.718-4.818-8.513-8.183-1.821-3.413-3.7-6.867-6.825-9.268-7.178-5.521-17.615-3.222-25.914-2.572l-15.61,1.221c-4.271.334-8.948.261-12.989,1.86a10.546,10.546,0,0,0-4.095,2.826,3.327,3.327,0,0,0-.42-.9L144.16,405.681l-13.309-20.238-4.672-7.1a17.939,17.939,0,0,1-1.975-3c-.378-1-.356-.443.463-1.225a31.3,31.3,0,0,1,3.058-2.262l11.944-8.838,13.99-10.352c1.539,2.341,3.458,4.376,6.528,3.48a3.044,3.044,0,0,0,1.389-.532l22.493-15.2,14.108-9.532c2.886-1.95,7.095-3.887,6.647-8.024-.227-2.089-1.694-4.108-2.881-5.925l14.517-10.743,13.522-10.006,4.13-3.057c.453-.334,1.377-1.339,1.948-1.441.97-.174,1.89,2.08,2.546,3.1l7.536,11.67,24.878,38.521q21.564,33.388,43.126,66.776l.779,1.2c2.215,3.431,7.728.243,5.5-3.213L281.687,349.76,256.524,310.8a3.64,3.64,0,0,0,.446-.52c3.829-5.434,8.023-10.669,13.632-14.35,5.184-3.4,10.714-6.192,15.8-9.766,6.051-4.253,15.31-10.4,11.56-19.088-1.5-3.468-4.645-5.85-7.823-7.7-3.032-1.77-8.472-3.728-8.824-7.836-.347-4.052-6.717-4.088-6.367,0,.769,8.958,9.229,10.469,15.02,15.393,3.848,3.273,2.258,6.542-1.1,9.447a84.593,84.593,0,0,1-10.008,7.186c-4.55,2.9-9.462,5.26-13.79,8.494a59.433,59.433,0,0,0-12.2,13.052c-3.577-5.666-7.069-11.435-10.934-16.887-3.145-4.435-7.4-3.29-10.968-.649l-10.364,7.67q-11.071,8.191-22.141,16.383a5.11,5.11,0,0,0-2.833-1.557c-1.815-.312-3.652.553-5.352,1.668q.408-11.458.815-22.916c.094-2.638-.558-6.942.845-9.279,1.327-2.208,4.715-1.917,6.969-2.015,4.495-.2,9.466-1.229,11.632-5.643,1.8-3.665-3.691-6.895-5.5-3.213-1.109,2.261-3.884,2.392-6.135,2.49a24.435,24.435,0,0,0-7.366,1.011c-6.324,2.3-6.519,8.32-6.725,14.135q-.533,15-1.066,30l-26.54,17.931c-2.955,2-8.419,4.435-8.518,8.548a8.532,8.532,0,0,0,1.432,4.321c-9.853,7.215-19.66,14.489-29.294,21.967-4.491,3.485-3.239,7.79-.625,11.765l10.575,16.079q12.565,19.108,25.13,38.214l1.692,2.573a3.154,3.154,0,0,0,3.973,1.186,10.8,10.8,0,0,0,2.775,10.464,12.764,12.764,0,0,0,5.23,3.384c-9.829,5.781-8.256,20.709,2.908,23.99a11.33,11.33,0,0,1,1.859.384c-.293-.053-.718,1.764-.493.788-.271,1.174-.924,2.12-1.015,3.386a10.436,10.436,0,0,0,.94,4.813c.633,1.524,2.009,3.022,2.471,4.56.527,1.75-.185,3.688-.643,5.378a11.663,11.663,0,0,0-.224,5.529c1.515,7.925,5.922,14.629,13.9,16.9,8.136,2.321,17.2.91,25.319-.766,8.485-1.752,16.677-4.486,24.972-6.934,3.921-1.157,2.252-7.3-1.692-6.139-13.419,3.959-27.4,9.356-41.618,8.55a18.7,18.7,0,0,1-8.651-2.266c-2.578-1.566-3.779-4.048-4.818-6.789-.613-1.619-1.549-3.724-1.341-5.494.156-1.321.814-2.663,1.037-4a12.525,12.525,0,0,0-.138-5.817c-.865-2.748-3.935-5.034-2.8-8.094.9-2.418,2.137-4.476.6-6.981-1.381-2.255-3.684-2.444-5.975-3.154-6.106-1.891-6.381-9.638-1.011-12.578a2.931,2.931,0,0,0,1.013-4.348c4.4.4,9.086-.157,13.353.856l-9.707,4.914c-3.656,1.851-.437,7.345,3.213,5.5l20.912-10.587c3.657-1.851.437-7.346-3.213-5.5l-3.788,1.919a3.519,3.519,0,0,0-.539-.366c-4.234-2.324-8.815-2.624-13.553-2.643-4-.015-9.534.341-12.291-3.211-3.571-4.6,1.725-6.536,5.535-6.96,5.471-.608,11-.869,16.491-1.3,5.468-.429,10.939-.958,16.416-1.27,4.724-.269,9.688-.206,12.952,3.739,2.744,3.315,4.081,7.568,6.723,10.975,2.506,3.232,5.657,5.513,9.663,6.035.3,18.5,6.8,36.715,13.568,53.7a3.25,3.25,0,0,0,3.915,2.223l10.851-3.339q.65,1.474,1.3,2.947a2.507,2.507,0,0,0,2.662,1.641,3.118,3.118,0,0,0,3.822,2.307c22.834-5.519,45.537-11.528,67.94-18.607,10.669-3.37,21.273-6.94,31.852-10.584,8.787-3.027,18.349-5.361,25.516-11.607,8.371-7.3,11-18.373,10.8-29.082-.076-4.092-6.443-4.1-6.367,0M158.764,348.846l-2.2-3.646c-.19-.317-.633-1.382-1.038-1.973.682-.45,1.481-1.186,1.842-1.43l4.673-3.158,26.2-17.7,4.6-3.111c.2-.137.933-.508,1.5-.869a30.585,30.585,0,0,0,1.693,2.567,33.121,33.121,0,0,0,1.937,3.216,2.046,2.046,0,0,1,.128.237c-1.724,1.019-5.093,3.715-5.548,4.021L179.8,335.622l-20.581,13.9c-.157-.239-.332-.473-.457-.681m96.084,155.865c-6.19-15.755-11.962-32.547-12.138-49.573l4.234-1.337c.706,8.831,3.346,17.612,6.18,25.873,2.652,7.733,5.753,15.3,9,22.8l-7.273,2.238" transform="translate(-8.725 -18.395)" fill="#262626"/>
    <path id="Path_1726" data-name="Path 1726" d="M318.857,106.528c-8.737-6.083-12.14-15.956-13.664-26.1-.607-4.038-6.742-2.322-6.139,1.692,1.8,11.954,6.438,22.838,16.59,29.906,3.37,2.345,6.556-3.171,3.213-5.5" transform="translate(-22.136 -5.783)" fill="#262626"/>
    <path id="Path_1727" data-name="Path 1727" d="M357.358,419.769a50.036,50.036,0,0,1,22.935,5.835c3.619,1.917,6.839-3.577,3.213-5.5a57.124,57.124,0,0,0-26.148-6.7c-4.1-.054-4.1,6.312,0,6.366" transform="translate(-26.227 -30.604)" fill="#262626"/>
    <path id="Path_1728" data-name="Path 1728" d="M214.123,249.626,203.2,265.18c-2.359,3.359,3.158,6.545,5.5,3.213l10.92-15.554c2.359-3.36-3.158-6.545-5.5-3.213" transform="translate(-15 -18.375)" fill="#262626"/>
    <path id="Path_1729" data-name="Path 1729" d="M232.44,60.954c2.576-4.733,9.465-5.221,14.249-5.364a68.2,68.2,0,0,1,15.423,1.185c10.582,2.118,20.527,7.135,25.66,17.038,1.885,3.639,7.381.423,5.5-3.213-6.114-11.8-18.407-18.075-31.09-20.267a72.837,72.837,0,0,0-18.293-.961c-6.363.526-13.652,2.323-16.943,8.369-1.958,3.6,3.536,6.817,5.5,3.213" transform="translate(-16.77 -3.639)" fill="#262626"/>
    <path id="Path_1730" data-name="Path 1730" d="M267.4,67.41a48.087,48.087,0,0,0-38.75,6.244c-3.4,2.247-.219,7.762,3.213,5.5a41.747,41.747,0,0,1,33.844-5.6c3.963,1.054,5.655-5.085,1.693-6.139" transform="translate(-16.819 -4.87)" fill="#262626"/>
    <path id="Path_1731" data-name="Path 1731" d="M232.487,43.462c8.295-5.321,18.283-8,27.89-9.78a81.954,81.954,0,0,1,27.322-.827c10.319,1.615,25.542,7.314,22.924,20.49a3.354,3.354,0,0,0,5.272,3.31c4.237.782,8.328,2.383,11.06,5.9,2.509,3.235,3.485,7.486,3.728,11.5.567,9.364-1.915,18.736-4.734,27.582-1.247,3.912,4.9,5.587,6.138,1.693,3.225-10.118,6.055-21.17,4.716-31.858-1.406-11.226-8.521-19.058-19.625-21.024-.16-8.988-6.278-16.092-14.788-19.925-13.84-6.234-30.2-5.623-44.782-2.775-9.755,1.9-19.9,4.806-28.335,10.217-3.438,2.206-.249,7.718,3.213,5.5" transform="translate(-16.864 -1.901)" fill="#262626"/>
    <path id="Path_1732" data-name="Path 1732" d="M221.408,83.349A25.775,25.775,0,0,1,223.047,55.9c2.369-3.353-3.149-6.537-5.5-3.213a32.113,32.113,0,0,0-1.641,33.872c1.994,3.58,7.494.373,5.5-3.213" transform="translate(-15.684 -3.796)" fill="#262626"/>
    <path id="Path_1733" data-name="Path 1733" d="M182.814,341.1l12.762-8.622c.455-.307,3.822-3,5.548-4.022a2.162,2.162,0,0,0-.128-.236A33.055,33.055,0,0,1,199.059,325a30.438,30.438,0,0,1-1.693-2.567c-.57.361-1.3.732-1.5.869l-4.6,3.11-26.2,17.7-4.673,3.158c-.361.244-1.159.98-1.842,1.43.4.592.847,1.658,1.038,1.973l2.2,3.646c.124.207.3.442.457.681l20.581-13.9" transform="translate(-11.737 -23.869)" fill="#fff"/>
    <path id="Path_1734" data-name="Path 1734" d="M245.552,197.744c10.1,4.627,21.962,3.9,32.317.48,11.579-3.826,23.383-11.474,28.333-23.063,1.592-3.726-3.891-6.973-5.5-3.213-3.993,9.347-12.909,15.77-22.187,19.306-9.248,3.523-20.42,5.114-29.753.994-11.237-4.959-18.941-15.661-22.251-27.24-2.889-10.106-2.761-21.06-3.115-31.482-.406-11.947-.32-24.1-2.248-35.926-.657-4.034-6.793-2.321-6.139,1.693,1.881,11.538,1.648,23.491,2.052,35.144.392,11.288.352,23.2,3.858,34.054,4.016,12.435,12.568,23.727,24.631,29.254" transform="translate(-15.913 -7.055)" fill="#262626"/>
    <path id="Path_1735" data-name="Path 1735" d="M123.172,293.22q-.956-3.2-1.912-6.4c-6.586,4.844-14.8,7.622-22.671,9.232-7.956,1.628-16.546,2.374-24.663.957q.942,3.856,1.882,7.711a58.044,58.044,0,0,0,25.96.03c7.818-1.648,16.151-4.428,22.292-9.738.069-.06.138-.112.208-.164a3.083,3.083,0,0,1-1.094-1.63" transform="translate(-5.473 -21.233)" fill="#fff"/>
    <path id="Path_1736" data-name="Path 1736" d="M254.654,171.767c1.4,2.743,3.464,5.349,6.2,5.485,2.862-.141,4.978-2.942,6.4-5.156.07-.106.131-.22.2-.329Z" transform="translate(-18.852 -12.716)" fill="#fff"/>
    <path id="Path_1737" data-name="Path 1737" d="M66.007,269.895c1.232.971,1.659,3.082,2.178,4.506q1.881,5.172,3.762,10.347a61.5,61.5,0,0,0,20.078-1.1,60.232,60.232,0,0,0,16.311-5.513c-.536-2.275-1.129-4.545-1.607-6.832a12.01,12.01,0,0,1,.249-4.7,97.075,97.075,0,0,0,1.394-21.681c-.564-9.053-4.241-17.493-6.021-26.314a63.7,63.7,0,0,1-1.038-7.2c-.178-2.093.053-4.342-.655-6.352-.692-1.966-2.58-4.1-4.409-1.991C93.7,206,92.895,211.956,92.405,215.68c-.6,4.559-.678,9.185-1.077,13.765a3.3,3.3,0,0,1-.562,1.611,3.2,3.2,0,0,1-3.74,2.106c-16.747-3.539-33.357-8.226-50.41-10.106-7.244-.8-14.721-1.531-21.924-.132a18.286,18.286,0,0,0-5.08,1.436,160.975,160.975,0,0,1,27.853,2.178c4.038.666,2.315,6.8-1.693,6.138a150.361,150.361,0,0,0-26.611-1.944c.089.052.178.1.271.156,2.922,1.607,1.344,5.539-1.28,5.893a3.55,3.55,0,0,1,.013.647c-.171,2.322-.012,4.266,1.768,5.953a32.038,32.038,0,0,0,6.909,4.366c4.753,2.554,9.73,4.654,14.574,7.024,10.183,4.984,20.717,9.264,31.189,13.6a15.085,15.085,0,0,1,3.4,1.526m-48.031-29.98c-4.083-.214-4.095-6.58,0-6.366,8.55.447,16.614,3.247,25.01,4.616s16.661,1.23,24.52,4.979c3.7,1.765.466,7.252-3.213,5.5-7.191-3.431-15.3-3.07-23-4.338-7.818-1.287-15.362-3.972-23.318-4.388" transform="translate(-0.601 -14.968)" fill="#fff"/>
    <path id="Path_1738" data-name="Path 1738" d="M272.042,164.892H249.3a3.211,3.211,0,0,0-3.07,4.029c1.958,6.139,6.124,13.122,12.96,14.085a5.22,5.22,0,0,0,2.033.006c7-.945,11.464-7.962,13.882-14.091.776-1.965-1.182-4.029-3.069-4.029m-11.817,11.851c-2.741-.135-4.8-2.743-6.2-5.485h12.805c-.068.108-.128.222-.2.33-1.424,2.213-3.541,5.014-6.4,5.155" transform="translate(-18.219 -12.207)" fill="#262626"/>
    <path id="Path_1739" data-name="Path 1739" d="M64.048,282.727a3.281,3.281,0,0,0-2.987,4.048l3.447,14.135a3.427,3.427,0,0,0,.178.531,2.952,2.952,0,0,0,2.13,2.139c10.1,2.983,20.941,2.68,31.171.524,8.962-1.889,18.1-5.32,25.1-11.376,1.755-1.518,1.073-3.609-.407-4.661a2.821,2.821,0,0,0,1.159-3.326l-3.322-11.119a3.216,3.216,0,0,0-5.32-1.4c-.559.553-1.147,1.07-1.748,1.573a26.341,26.341,0,0,0-1.148-4.673c.269-1.137.382-2.35.55-3.5,1.306-8.9,2.106-18.059.626-26.983a153.965,153.965,0,0,0-4.006-15.8,86.4,86.4,0,0,1-2.609-16.293c-.579-6.911-7.258-15.073-14.478-9.6-4.05,3.07-5.439,9.42-6.335,14.138A122.316,122.316,0,0,0,84.6,225.742c-19.569-4.281-39.03-9.585-59.145-10.373-6.728-.264-15.8-.281-21.371,4.147-5.272,4.191-5.3,10.572-.894,14.614A3.15,3.15,0,0,0,1.2,236.906c-.686,9.317,6.961,13.41,14.309,17.1,6.544,3.288,13.219,6.417,19.914,9.394,8.452,3.759,16.99,7.331,25.545,10.852q1.539,4.236,3.081,8.473m32.246,15.238a58.058,58.058,0,0,1-25.96-.028l-1.881-7.712c8.116,1.418,16.707.67,24.663-.957,7.871-1.611,16.084-4.389,22.671-9.232l1.911,6.4a3.092,3.092,0,0,0,1.094,1.63c-.069.052-.14.1-.208.163-6.141,5.311-14.474,8.091-22.292,9.738M30.815,254.25c-4.844-2.37-9.82-4.471-14.574-7.024a32.09,32.09,0,0,1-6.908-4.366c-1.781-1.687-1.94-3.631-1.769-5.954a3.459,3.459,0,0,0-.013-.646c2.623-.354,4.2-4.286,1.28-5.893-.094-.051-.181-.1-.271-.156a150.36,150.36,0,0,1,26.611,1.945c4.008.66,5.732-5.473,1.693-6.139a160.967,160.967,0,0,0-27.853-2.177,18.3,18.3,0,0,1,5.08-1.437c7.2-1.4,14.68-.668,21.925.131,17.052,1.881,33.663,6.568,50.41,10.107a3.2,3.2,0,0,0,3.74-2.106,3.3,3.3,0,0,0,.562-1.612c.4-4.579.477-9.2,1.076-13.764.49-3.725,1.295-9.679,3.845-12.614,1.829-2.1,3.717.024,4.408,1.99.708,2.011.478,4.259.655,6.353a63.761,63.761,0,0,0,1.039,7.2c1.779,8.822,5.457,17.26,6.02,26.313a97.013,97.013,0,0,1-1.394,21.681,11.993,11.993,0,0,0-.248,4.7c.479,2.288,1.07,4.558,1.607,6.833a60.269,60.269,0,0,1-16.312,5.512,61.474,61.474,0,0,1-20.078,1.1q-1.882-5.173-3.762-10.346c-.518-1.424-.944-3.534-2.178-4.506a15.046,15.046,0,0,0-3.4-1.526c-10.472-4.334-21.007-8.612-31.189-13.6" transform="translate(0 -14.447)" fill="#262626"/>
    <path id="Path_1740" data-name="Path 1740" d="M68.048,245.649c-7.858-3.749-16.11-3.609-24.519-4.979s-16.46-4.169-25.01-4.616c-4.094-.215-4.082,6.152,0,6.366,7.956.416,15.5,3.1,23.318,4.388,7.7,1.269,15.807.907,23,4.338,3.68,1.755,6.913-3.733,3.213-5.5" transform="translate(-1.144 -17.474)" fill="#262626"/>
    <path id="Path_1741" data-name="Path 1741" d="M134.086,300.77c3.218,12.827,6.272,25.82,10.464,38.369,1.292,3.866,7.442,2.208,6.138-1.693-.924-2.766-1.785-5.556-2.613-8.359a27.1,27.1,0,0,1-2.552,4.382,27.1,27.1,0,0,0,2.552-4.382c-2.926-9.913-5.343-20.01-7.851-30.01-1-3.971-7.136-2.288-6.138,1.693" transform="translate(-9.918 -21.973)" fill="#262626"/>
    <path id="Path_1742" data-name="Path 1742" d="M140.521,434.686c-6.267,7.309-16.414,8.255-25.364,6.428a30.782,30.782,0,0,1-9.605-3.323c-3.5-2.087-6.212-5.658-8.34-9.056C91.448,419.53,88.6,408.674,86.2,398.187c-2.756-12.063-4.916-24.264-7.378-36.389Q73.8,337.066,68.047,312.492c-.94-3.986-7.08-2.3-6.139,1.693q5.578,23.666,10.412,47.5c2.719,13.325,5.035,26.759,8.164,40,2.6,10.995,5.853,22.537,12.332,31.952a31.085,31.085,0,0,0,20.648,13.621c11.067,2.253,23.785,1,31.558-8.066a3.16,3.16,0,0,0,.8-2.269c-1.762,3.941-4.319,6.847-9.463,5.132,5.145,1.715,7.7-1.191,9.463-5.132-.133-2.511-3.251-4.626-5.3-2.233" transform="translate(-4.576 -22.965)" fill="#262626"/>
    <path id="Path_1743" data-name="Path 1743" d="M198.56,4.146q1.358,6.454,2.716,12.909c.843,4,6.895,2.019,6.059-1.956q-1.358-6.454-2.716-12.909c-.843-4-6.895-2.02-6.059,1.956" transform="translate(-14.693 0)" fill="#fff"/>
    <path id="Path_1744" data-name="Path 1744" d="M180.046,9.992c-2.87-2.925-7.108,1.828-4.244,4.747L187.7,26.86c2.871,2.925,7.109-1.826,4.245-4.746q-5.948-6.06-11.894-12.123" transform="translate(-12.944 -0.672)" fill="#fff"/>
    <path id="Path_1745" data-name="Path 1745" d="M180.838,36.231l-13.079-2.308c-4.032-.711-5.41,5.506-1.369,6.219l13.079,2.308c4.032.712,5.41-5.5,1.369-6.218" transform="translate(-12.138 -2.507)" fill="#fff"/>
  </g>
</svg>
